G04 #@! TF.FileFunction,Copper,L4,Bot,Signal*
%FSLAX46Y46*%
G04 Gerber Fmt 4.6, Leading zero omitted, Abs format (unit mm)*
G04 Created by KiCad (PCBNEW 4.0.6-e0-6349~53~ubuntu16.04.1) date Sun Jun 25 10:16:03 2017*
%MOMM*%
%LPD*%
G01*
G04 APERTURE LIST*
%ADD10C,0.100000*%
%ADD11C,5.000000*%
%ADD12R,1.727200X2.032000*%
%ADD13O,1.727200X2.032000*%
%ADD14C,0.600000*%
%ADD15C,0.250000*%
G04 APERTURE END LIST*
D10*
D11*
X318384776Y-181615224D03*
X325114071Y-193270705D03*
X325114071Y-206729295D03*
X318384776Y-218384776D03*
X281615224Y-218384776D03*
X274885929Y-206729295D03*
X274885929Y-193270705D03*
X281615224Y-181615224D03*
D12*
X296190000Y-93000000D03*
D13*
X298730000Y-93000000D03*
X301270000Y-93000000D03*
X303810000Y-93000000D03*
D12*
X303810000Y-307000000D03*
D13*
X301270000Y-307000000D03*
X298730000Y-307000000D03*
X296190000Y-307000000D03*
D14*
X348400000Y-197475000D03*
X346725000Y-187425000D03*
X290300000Y-142550000D03*
X278550000Y-145675000D03*
X267600000Y-151150000D03*
X258225000Y-159025000D03*
X250850000Y-168650000D03*
X254825000Y-182775000D03*
X245250000Y-179650000D03*
X242125000Y-191325000D03*
X252175000Y-192500000D03*
X241625000Y-203525000D03*
X251625000Y-202575000D03*
X253250000Y-212500000D03*
X243700000Y-215575000D03*
X256875000Y-221850000D03*
X248275000Y-226975000D03*
X262475000Y-230450000D03*
X254975000Y-236975000D03*
X263750000Y-245650000D03*
X269625000Y-237600000D03*
X273875000Y-252250000D03*
X278175000Y-243125000D03*
X287625000Y-246700000D03*
X285500000Y-256600000D03*
X297500000Y-258325000D03*
X297500000Y-248325000D03*
X307625000Y-247775000D03*
X309625000Y-257675000D03*
X321375000Y-254300000D03*
X317450000Y-245100000D03*
X332150000Y-248675000D03*
X326175000Y-240500000D03*
X341700000Y-240850000D03*
X334350000Y-234250000D03*
X340650000Y-226375000D03*
X345400000Y-217325000D03*
X347750000Y-207550000D03*
X349200000Y-231350000D03*
X316950000Y-234425000D03*
X307625000Y-237550000D03*
X297625000Y-238275000D03*
X287725000Y-236375000D03*
X278550000Y-231900000D03*
X271075000Y-225300000D03*
X265375000Y-216925000D03*
X274150000Y-212000000D03*
X283650000Y-223250000D03*
X297450000Y-228375000D03*
X312025000Y-225650000D03*
X325325000Y-228875000D03*
X323325000Y-216425000D03*
X331975000Y-221450000D03*
X336350000Y-212300000D03*
X338400000Y-202350000D03*
X328300000Y-202450000D03*
X262350000Y-207425000D03*
X271625000Y-197425000D03*
X261675000Y-197375000D03*
X276775000Y-183725000D03*
X287950000Y-174075000D03*
X325825000Y-188025000D03*
X337750000Y-192450000D03*
X343150000Y-178025000D03*
X337675000Y-169475000D03*
X330475000Y-162175000D03*
X322025000Y-156850000D03*
X312475000Y-153225000D03*
X292425000Y-152150000D03*
X282575000Y-154800000D03*
X273600000Y-159325000D03*
X265600000Y-165750000D03*
X259350000Y-173575000D03*
X263750000Y-187750000D03*
X267950000Y-178650000D03*
X274650000Y-171150000D03*
X282975000Y-165525000D03*
X292525000Y-162225000D03*
X334450000Y-182900000D03*
X328900000Y-174675000D03*
X321375000Y-168075000D03*
X312250000Y-163675000D03*
X316325000Y-176750000D03*
X311150000Y-185350000D03*
X317125000Y-192950000D03*
X318400000Y-202575000D03*
X314550000Y-211450000D03*
X307000000Y-217100000D03*
X297450000Y-218325000D03*
X288575000Y-214625000D03*
X282800000Y-206925000D03*
X281625000Y-197600000D03*
X285275000Y-188475000D03*
X292975000Y-182775000D03*
X308225000Y-197900000D03*
X305975000Y-206350000D03*
X297375000Y-208400000D03*
X291550000Y-202000000D03*
X293900000Y-193600000D03*
X281950000Y-103150000D03*
X293250000Y-111800000D03*
X271900000Y-105600000D03*
X262350000Y-109150000D03*
X292250000Y-122000000D03*
X293600000Y-131800000D03*
X284600000Y-133250000D03*
X284050000Y-112950000D03*
X282150000Y-123650000D03*
X275000000Y-115000000D03*
X266400000Y-118150000D03*
X252950000Y-113600000D03*
X244100000Y-118950000D03*
X276200000Y-135750000D03*
X272450000Y-126550000D03*
X257850000Y-122000000D03*
X267900000Y-139300000D03*
X262950000Y-130850000D03*
X250100000Y-126850000D03*
X236050000Y-125150000D03*
X228600000Y-132250000D03*
X254300000Y-136300000D03*
X246350000Y-142850000D03*
X260250000Y-144050000D03*
X253300000Y-149850000D03*
X239350000Y-150300000D03*
X235900000Y-139050000D03*
X229900000Y-146100000D03*
X221950000Y-140100000D03*
X216100000Y-148600000D03*
X247300000Y-156400000D03*
X241900000Y-163700000D03*
X233400000Y-158600000D03*
X228500000Y-167800000D03*
X224600000Y-153700000D03*
X220200000Y-161700000D03*
X211200000Y-157600000D03*
X207200000Y-167100000D03*
X237800000Y-171500000D03*
X204400000Y-177100000D03*
X216700000Y-170400000D03*
X214100000Y-179200000D03*
X225000000Y-177300000D03*
X234500000Y-179800000D03*
X232500000Y-188500000D03*
X222600000Y-187300000D03*
X212300000Y-188300000D03*
X202400000Y-187200000D03*
X231500000Y-197400000D03*
X232000000Y-206300000D03*
X221600000Y-197500000D03*
X201600000Y-197500000D03*
X211600000Y-197400000D03*
X211700000Y-206700000D03*
X201900000Y-207800000D03*
X213000000Y-215900000D03*
X203200000Y-218100000D03*
X205600000Y-228000000D03*
X215100000Y-224800000D03*
X223600000Y-217800000D03*
X233200000Y-215200000D03*
X235900000Y-223800000D03*
X226700000Y-227700000D03*
X218200000Y-233700000D03*
X209100000Y-237700000D03*
X213600000Y-246900000D03*
X222100000Y-241800000D03*
X230900000Y-237000000D03*
X239600000Y-232000000D03*
X244400000Y-239600000D03*
X218900000Y-255700000D03*
X225300000Y-263900000D03*
X226900000Y-249600000D03*
X236300000Y-245600000D03*
X242800000Y-253500000D03*
X249800000Y-246400000D03*
X256400000Y-252600000D03*
X239000000Y-264000000D03*
X232300000Y-271500000D03*
X263600000Y-258000000D03*
X250300000Y-260600000D03*
X246000000Y-269900000D03*
X240200000Y-278100000D03*
X248600000Y-283800000D03*
X271500000Y-262200000D03*
X279800000Y-265400000D03*
X288600000Y-267500000D03*
X297400000Y-268400000D03*
X306300000Y-268100000D03*
X315300000Y-266700000D03*
X323800000Y-264200000D03*
X267600000Y-271400000D03*
X258500000Y-266500000D03*
X253700000Y-275300000D03*
X261700000Y-279700000D03*
X257700000Y-288800000D03*
X267100000Y-292700000D03*
X270300000Y-283300000D03*
X277300000Y-275000000D03*
X279000000Y-286000000D03*
X277100000Y-295700000D03*
X287300000Y-297600000D03*
X288200000Y-287600000D03*
X287400000Y-277300000D03*
X297500000Y-278300000D03*
X297400000Y-288300000D03*
X306800000Y-288100000D03*
X315900000Y-286900000D03*
X318000000Y-296600000D03*
X328100000Y-294300000D03*
X307600000Y-278000000D03*
X317600000Y-276300000D03*
X324800000Y-284700000D03*
X337800000Y-290900000D03*
X333600000Y-281700000D03*
X327800000Y-273300000D03*
X337100000Y-269100000D03*
X342000000Y-277800000D03*
X347100000Y-286400000D03*
X355700000Y-280900000D03*
X349900000Y-273100000D03*
X345700000Y-263700000D03*
X332200000Y-260400000D03*
X339600000Y-255800000D03*
X346700000Y-250100000D03*
X357300000Y-267400000D03*
X353600000Y-257100000D03*
X364000000Y-261000000D03*
X370100000Y-254000000D03*
X378100000Y-259900000D03*
X384000000Y-251400000D03*
X388800000Y-242200000D03*
X375200000Y-246300000D03*
X366500000Y-241400000D03*
X360600000Y-249700000D03*
X353000000Y-243500000D03*
X357900000Y-236400000D03*
X371300000Y-232300000D03*
X379800000Y-238200000D03*
X383300000Y-229600000D03*
X392800000Y-232700000D03*
X395700000Y-222900000D03*
X386000000Y-220800000D03*
X374900000Y-222700000D03*
X362300000Y-228400000D03*
X354800000Y-220500000D03*
X357900000Y-208600000D03*
X358200000Y-196400000D03*
X365500000Y-220100000D03*
X367600000Y-211200000D03*
X368600000Y-202600000D03*
X377400000Y-212700000D03*
X378300000Y-202600000D03*
X387700000Y-211600000D03*
X388500000Y-202600000D03*
X397600000Y-212800000D03*
X398500000Y-202500000D03*
X356300000Y-184300000D03*
X351800000Y-173000000D03*
X345000000Y-162900000D03*
X368200000Y-193600000D03*
X366700000Y-184600000D03*
X364200000Y-176300000D03*
X378000000Y-192200000D03*
X376200000Y-182100000D03*
X373300000Y-172400000D03*
X398100000Y-192300000D03*
X388200000Y-193300000D03*
X396800000Y-182000000D03*
X387000000Y-184100000D03*
X394200000Y-172000000D03*
X384900000Y-175000000D03*
X390700000Y-162300000D03*
X360300000Y-168000000D03*
X381900000Y-166500000D03*
X386300000Y-152800000D03*
X377900000Y-158000000D03*
X363400000Y-154200000D03*
X355900000Y-160400000D03*
X350100000Y-153400000D03*
X357200000Y-146200000D03*
X373100000Y-150100000D03*
X380800000Y-144200000D03*
X374700000Y-136000000D03*
X367400000Y-142600000D03*
X361200000Y-135900000D03*
X353900000Y-129900000D03*
X346300000Y-124700000D03*
X367800000Y-128500000D03*
X360000000Y-121900000D03*
X343600000Y-147100000D03*
X336300000Y-154300000D03*
X336300000Y-142000000D03*
X326100000Y-147700000D03*
X314800000Y-143500000D03*
X328400000Y-137700000D03*
X320000000Y-134600000D03*
X311400000Y-132500000D03*
X349700000Y-139500000D03*
X341400000Y-133300000D03*
X332300000Y-128400000D03*
X322900000Y-124800000D03*
X312700000Y-122500000D03*
X351500000Y-116000000D03*
X338300000Y-120100000D03*
X329900000Y-116600000D03*
X320700000Y-113900000D03*
X311700000Y-112300000D03*
X342200000Y-111200000D03*
X332900000Y-107300000D03*
X322900000Y-104200000D03*
X312800000Y-102500000D03*
X302300000Y-191600000D03*
X302400000Y-181600000D03*
X302300000Y-171700000D03*
X302400000Y-161600000D03*
X302594787Y-151599858D03*
X302400000Y-141700000D03*
X302300000Y-131700000D03*
X302300000Y-121700000D03*
X302300000Y-111600000D03*
X302500000Y-101700000D03*
X292300000Y-101900000D03*
X307800000Y-298100000D03*
X296190000Y-307000000D03*
X297500000Y-298400000D03*
X302500000Y-201600000D03*
X283700000Y-176800000D03*
X325600000Y-212100000D03*
X302600000Y-218400000D03*
X311400000Y-214600000D03*
X317300000Y-207000000D03*
X318500000Y-197400000D03*
X314800000Y-188500000D03*
X307000000Y-182500000D03*
X293000000Y-217100000D03*
X285400000Y-211400000D03*
X281700000Y-202600000D03*
X282800000Y-193100000D03*
X288500000Y-185400000D03*
X294000000Y-206100000D03*
X302500000Y-208300000D03*
X308500000Y-202000000D03*
X305800000Y-193600000D03*
X291500000Y-197900000D03*
X297200000Y-191700000D03*
X297400000Y-181600000D03*
X297100000Y-171700000D03*
X297300000Y-161500000D03*
X287300000Y-122500000D03*
X288100000Y-112300000D03*
X277200000Y-124900000D03*
X279100000Y-113900000D03*
X270300000Y-116600000D03*
X267700000Y-128600000D03*
X261700000Y-120300000D03*
X253600000Y-124800000D03*
X246000000Y-129900000D03*
X288500000Y-132400000D03*
X287300000Y-153200000D03*
X285500000Y-143400000D03*
X274000000Y-147600000D03*
X279800000Y-134500000D03*
X271400000Y-137700000D03*
X263500000Y-142000000D03*
X263700000Y-154400000D03*
X256400000Y-147100000D03*
X258800000Y-133400000D03*
X250200000Y-139400000D03*
X242900000Y-146300000D03*
X238900000Y-135800000D03*
X232600000Y-142700000D03*
X226900000Y-149900000D03*
X244000000Y-160400000D03*
X255000000Y-162800000D03*
X222100000Y-158000000D03*
X218200000Y-166400000D03*
X215100000Y-175100000D03*
X231100000Y-162900000D03*
X226700000Y-172500000D03*
X239400000Y-167900000D03*
X235800000Y-176100000D03*
X248400000Y-172900000D03*
X287700000Y-163700000D03*
X278100000Y-156700000D03*
X269500000Y-162300000D03*
X278600000Y-168000000D03*
X271100000Y-174700000D03*
X262200000Y-169400000D03*
X256800000Y-178000000D03*
X265500000Y-183000000D03*
X253100000Y-187400000D03*
X233200000Y-184600000D03*
X243700000Y-184100000D03*
X251600000Y-197500000D03*
X241700000Y-196300000D03*
X231700000Y-193700000D03*
X223600000Y-182000000D03*
X222100000Y-192400000D03*
X212900000Y-184100000D03*
X211700000Y-193100000D03*
X221700000Y-202600000D03*
X231500000Y-202600000D03*
X242400000Y-208700000D03*
X232300000Y-211300000D03*
X222800000Y-212800000D03*
X211500000Y-202500000D03*
X212400000Y-211700000D03*
X245300000Y-220300000D03*
X251000000Y-231200000D03*
X234500000Y-220000000D03*
X237700000Y-228400000D03*
X241900000Y-236300000D03*
X214000000Y-220800000D03*
X224900000Y-222600000D03*
X216500000Y-229600000D03*
X228500000Y-232400000D03*
X220300000Y-238000000D03*
X233400000Y-241300000D03*
X224700000Y-246300000D03*
X229700000Y-253800000D03*
X239300000Y-249600000D03*
X235800000Y-260900000D03*
X246300000Y-257000000D03*
X242800000Y-267300000D03*
X250200000Y-272800000D03*
X254200000Y-263800000D03*
X262900000Y-269000000D03*
X257900000Y-277700000D03*
X274200000Y-187900000D03*
X262200000Y-192500000D03*
X271600000Y-202600000D03*
X261700000Y-202700000D03*
X252000000Y-207400000D03*
X254700000Y-217500000D03*
X263800000Y-212500000D03*
X276900000Y-216200000D03*
X259400000Y-226400000D03*
X267900000Y-221200000D03*
X247300000Y-243700000D03*
X258400000Y-240900000D03*
X253400000Y-250000000D03*
X260500000Y-255700000D03*
X267800000Y-248600000D03*
X265800000Y-234200000D03*
X288100000Y-225900000D03*
X274700000Y-228700000D03*
X273300000Y-240500000D03*
X282500000Y-245100000D03*
X283100000Y-234500000D03*
X292300000Y-237600000D03*
X292300000Y-247800000D03*
X302600000Y-248400000D03*
X302400000Y-238100000D03*
X302500000Y-228300000D03*
X316300000Y-223200000D03*
X312400000Y-236400000D03*
X312500000Y-246800000D03*
X322100000Y-243100000D03*
X321400000Y-231800000D03*
X330600000Y-237700000D03*
X266300000Y-281500000D03*
X272400000Y-273300000D03*
X278600000Y-254300000D03*
X267800000Y-260400000D03*
X276100000Y-264000000D03*
X290400000Y-257700000D03*
X284800000Y-266800000D03*
X293800000Y-268200000D03*
X302800000Y-268400000D03*
X275000000Y-284900000D03*
X282000000Y-276200000D03*
X284000000Y-286800000D03*
X292100000Y-277800000D03*
X293400000Y-288200000D03*
X302600000Y-298100000D03*
X302400000Y-258200000D03*
X314500000Y-256400000D03*
X311500000Y-267200000D03*
X320100000Y-265300000D03*
X302400000Y-288500000D03*
X302400000Y-278200000D03*
X312600000Y-277200000D03*
X322700000Y-274900000D03*
X332300000Y-271300000D03*
X311700000Y-287600000D03*
X320600000Y-286000000D03*
X329500000Y-283400000D03*
X338300000Y-279600000D03*
X326000000Y-252100000D03*
X328400000Y-262200000D03*
X336400000Y-258000000D03*
X341500000Y-266500000D03*
X346500000Y-275200000D03*
X353900000Y-270000000D03*
X349900000Y-260500000D03*
X336500000Y-245500000D03*
X343600000Y-252600000D03*
X350400000Y-246500000D03*
X360900000Y-263900000D03*
X357200000Y-253600000D03*
X367400000Y-257400000D03*
X373100000Y-249600000D03*
X363700000Y-245700000D03*
X355800000Y-239400000D03*
X344800000Y-237200000D03*
X328900000Y-225000000D03*
X337600000Y-230400000D03*
X343000000Y-222000000D03*
X351700000Y-226900000D03*
X360300000Y-232000000D03*
X364100000Y-223600000D03*
X369000000Y-236900000D03*
X377900000Y-242100000D03*
X381900000Y-233400000D03*
X373400000Y-227600000D03*
X385100000Y-224600000D03*
X376200000Y-217800000D03*
X386900000Y-215800000D03*
X378100000Y-207600000D03*
X388300000Y-206700000D03*
X378500000Y-197500000D03*
X388400000Y-197300000D03*
X386200000Y-179000000D03*
X387600000Y-188100000D03*
X356100000Y-215500000D03*
X366700000Y-215400000D03*
X368200000Y-206400000D03*
X368400000Y-197400000D03*
X358100000Y-203500000D03*
X346800000Y-212400000D03*
X334500000Y-217000000D03*
X337500000Y-207400000D03*
X348400000Y-202500000D03*
X338400000Y-197100000D03*
X328300000Y-197400000D03*
X323200000Y-183400000D03*
X312000000Y-173900000D03*
X336300000Y-187700000D03*
X357800000Y-191200000D03*
X347900000Y-192400000D03*
X377200000Y-187200000D03*
X367600000Y-188400000D03*
X365300000Y-179700000D03*
X375100000Y-177100000D03*
X354600000Y-179500000D03*
X345300000Y-182600000D03*
X331800000Y-178600000D03*
X340600000Y-173600000D03*
X297400000Y-151700000D03*
X297300000Y-141700000D03*
X297300000Y-131600000D03*
X334400000Y-165700000D03*
X325300000Y-170900000D03*
X326300000Y-159300000D03*
X317000000Y-165500000D03*
X317300000Y-154700000D03*
X307400000Y-162400000D03*
X307500000Y-152100000D03*
X362300000Y-171500000D03*
X383200000Y-170200000D03*
X371300000Y-167600000D03*
X379800000Y-161700000D03*
X366500000Y-158500000D03*
X375300000Y-153600000D03*
X357900000Y-163300000D03*
X349500000Y-168600000D03*
X352900000Y-156400000D03*
X341800000Y-159000000D03*
X346500000Y-149800000D03*
X370100000Y-146000000D03*
X360500000Y-150200000D03*
X363900000Y-139000000D03*
X353400000Y-142900000D03*
X357200000Y-132500000D03*
X345700000Y-136200000D03*
X349900000Y-127000000D03*
X337000000Y-131100000D03*
X342000000Y-121900000D03*
X339600000Y-144000000D03*
X332100000Y-151200000D03*
X331900000Y-139400000D03*
X321400000Y-145800000D03*
X323700000Y-135900000D03*
X315300000Y-133200000D03*
X309800000Y-142400000D03*
X306400000Y-131900000D03*
X297400000Y-121600000D03*
X297400000Y-111600000D03*
X297400000Y-101500000D03*
X327700000Y-126700000D03*
X317800000Y-123600000D03*
X307600000Y-121900000D03*
X333700000Y-118200000D03*
X324800000Y-115000000D03*
X315900000Y-113100000D03*
X306700000Y-111700000D03*
X287100000Y-102500000D03*
X276900000Y-104300000D03*
X267200000Y-107300000D03*
X257800000Y-111100000D03*
X248600000Y-116100000D03*
X240200000Y-121800000D03*
X232300000Y-128600000D03*
X225200000Y-135900000D03*
X219000000Y-144200000D03*
X213600000Y-153000000D03*
X209200000Y-162400000D03*
X205600000Y-172000000D03*
X203200000Y-182000000D03*
X202000000Y-192200000D03*
X201600000Y-202400000D03*
X202400000Y-212600000D03*
X204200000Y-222800000D03*
X207000000Y-233000000D03*
X211200000Y-242200000D03*
X216200000Y-251400000D03*
X222000000Y-260000000D03*
X228600000Y-267800000D03*
X235800000Y-274600000D03*
X244000000Y-281000000D03*
X253000000Y-286400000D03*
X262400000Y-290800000D03*
X272200000Y-294400000D03*
X282000000Y-296600000D03*
X292200000Y-298000000D03*
X312800000Y-297600000D03*
X323000000Y-295600000D03*
X332600000Y-292800000D03*
X342200000Y-288800000D03*
X351400000Y-284000000D03*
X359800000Y-278000000D03*
X367600000Y-271400000D03*
X374800000Y-263800000D03*
X381200000Y-255800000D03*
X386400000Y-247000000D03*
X390800000Y-237800000D03*
X394200000Y-228000000D03*
X396600000Y-218000000D03*
X398000000Y-208000000D03*
X398400000Y-197600000D03*
X397600000Y-187200000D03*
X395600000Y-177000000D03*
X392800000Y-167200000D03*
X388600000Y-157600000D03*
X383800000Y-148600000D03*
X378000000Y-140200000D03*
X371400000Y-132200000D03*
X364000000Y-125200000D03*
X355800000Y-119000000D03*
X347000000Y-113400000D03*
X337800000Y-109200000D03*
X328000000Y-105600000D03*
X317800000Y-103200000D03*
X307800000Y-101800000D03*
X297500000Y-201500000D03*
X304000000Y-200000000D03*
X300500000Y-198500000D03*
D15*
X298730000Y-93000000D02*
X298730000Y-93270000D01*
X298730000Y-93270000D02*
X295000000Y-97000000D01*
X285884776Y-181615224D02*
X281615224Y-181615224D01*
X295000000Y-172500000D02*
X285884776Y-181615224D01*
X295000000Y-97000000D02*
X295000000Y-172500000D01*
X301270000Y-93000000D02*
X301500000Y-93000000D01*
X301500000Y-93000000D02*
X305000000Y-96500000D01*
X314615224Y-181615224D02*
X318384776Y-181615224D01*
X305000000Y-172000000D02*
X314615224Y-181615224D01*
X305000000Y-96500000D02*
X305000000Y-172000000D01*
X304500000Y-228000000D02*
X304500000Y-200500000D01*
X304500000Y-200500000D02*
X304000000Y-200000000D01*
X301270000Y-307000000D02*
X301270000Y-306730000D01*
X301270000Y-306730000D02*
X304500000Y-303500000D01*
X314115224Y-218384776D02*
X318384776Y-218384776D01*
X304500000Y-228000000D02*
X314115224Y-218384776D01*
X304500000Y-303500000D02*
X304500000Y-228000000D01*
X301270000Y-307000000D02*
X301270000Y-306520000D01*
X301270000Y-307000000D02*
X301250000Y-307000000D01*
X295500000Y-228000000D02*
X295500000Y-207500000D01*
X300000000Y-199000000D02*
X300500000Y-198500000D01*
X300000000Y-203000000D02*
X300000000Y-199000000D01*
X295500000Y-207500000D02*
X300000000Y-203000000D01*
X298730000Y-307000000D02*
X298500000Y-307000000D01*
X298500000Y-307000000D02*
X295500000Y-304000000D01*
X285884776Y-218384776D02*
X281615224Y-218384776D01*
X295500000Y-228000000D02*
X285884776Y-218384776D01*
X295500000Y-304000000D02*
X295500000Y-228000000D01*
X299250000Y-306480000D02*
X298730000Y-307000000D01*
X298730000Y-307000000D02*
X298750000Y-307000000D01*
M02*
