G04 #@! TF.FileFunction,Legend,Bot*
%FSLAX46Y46*%
G04 Gerber Fmt 4.6, Leading zero omitted, Abs format (unit mm)*
G04 Created by KiCad (PCBNEW 4.0.6-e0-6349~53~ubuntu16.04.1) date Sun Jun 25 10:16:03 2017*
%MOMM*%
%LPD*%
G01*
G04 APERTURE LIST*
%ADD10C,0.100000*%
%ADD11C,0.400000*%
%ADD12C,1.000000*%
%ADD13C,0.187500*%
%ADD14C,0.300000*%
%ADD15C,0.010000*%
G04 APERTURE END LIST*
D10*
D11*
X371952382Y-182204762D02*
X372619049Y-181252381D01*
X373095240Y-182204762D02*
X373095240Y-180204762D01*
X372333335Y-180204762D01*
X372142859Y-180300000D01*
X372047620Y-180395238D01*
X371952382Y-180585714D01*
X371952382Y-180871429D01*
X372047620Y-181061905D01*
X372142859Y-181157143D01*
X372333335Y-181252381D01*
X373095240Y-181252381D01*
X371095240Y-182204762D02*
X371095240Y-180871429D01*
X371095240Y-180204762D02*
X371190478Y-180300000D01*
X371095240Y-180395238D01*
X371000001Y-180300000D01*
X371095240Y-180204762D01*
X371095240Y-180395238D01*
X370142859Y-180871429D02*
X370142859Y-182204762D01*
X370142859Y-181061905D02*
X370047620Y-180966667D01*
X369857144Y-180871429D01*
X369571430Y-180871429D01*
X369380954Y-180966667D01*
X369285716Y-181157143D01*
X369285716Y-182204762D01*
X367476192Y-180871429D02*
X367476192Y-182490476D01*
X367571430Y-182680952D01*
X367666668Y-182776190D01*
X367857144Y-182871429D01*
X368142858Y-182871429D01*
X368333335Y-182776190D01*
X367476192Y-182109524D02*
X367666668Y-182204762D01*
X368047620Y-182204762D01*
X368238096Y-182109524D01*
X368333335Y-182014286D01*
X368428573Y-181823810D01*
X368428573Y-181252381D01*
X368333335Y-181061905D01*
X368238096Y-180966667D01*
X368047620Y-180871429D01*
X367666668Y-180871429D01*
X367476192Y-180966667D01*
X365000001Y-182204762D02*
X365000001Y-180204762D01*
X364238096Y-180204762D01*
X364047620Y-180300000D01*
X363952381Y-180395238D01*
X363857143Y-180585714D01*
X363857143Y-180871429D01*
X363952381Y-181061905D01*
X364047620Y-181157143D01*
X364238096Y-181252381D01*
X365000001Y-181252381D01*
X363000001Y-182204762D02*
X363000001Y-180871429D01*
X363000001Y-180204762D02*
X363095239Y-180300000D01*
X363000001Y-180395238D01*
X362904762Y-180300000D01*
X363000001Y-180204762D01*
X363000001Y-180395238D01*
X362238096Y-182204762D02*
X361190477Y-180871429D01*
X362238096Y-180871429D02*
X361190477Y-182204762D01*
X359666667Y-182109524D02*
X359857143Y-182204762D01*
X360238095Y-182204762D01*
X360428572Y-182109524D01*
X360523810Y-181919048D01*
X360523810Y-181157143D01*
X360428572Y-180966667D01*
X360238095Y-180871429D01*
X359857143Y-180871429D01*
X359666667Y-180966667D01*
X359571429Y-181157143D01*
X359571429Y-181347619D01*
X360523810Y-181538095D01*
X358428571Y-182204762D02*
X358619047Y-182109524D01*
X358714286Y-181919048D01*
X358714286Y-180204762D01*
X354999999Y-182014286D02*
X355095237Y-182109524D01*
X355380952Y-182204762D01*
X355571428Y-182204762D01*
X355857142Y-182109524D01*
X356047618Y-181919048D01*
X356142857Y-181728571D01*
X356238095Y-181347619D01*
X356238095Y-181061905D01*
X356142857Y-180680952D01*
X356047618Y-180490476D01*
X355857142Y-180300000D01*
X355571428Y-180204762D01*
X355380952Y-180204762D01*
X355095237Y-180300000D01*
X354999999Y-180395238D01*
X353857142Y-182204762D02*
X354047618Y-182109524D01*
X354142857Y-182014286D01*
X354238095Y-181823810D01*
X354238095Y-181252381D01*
X354142857Y-181061905D01*
X354047618Y-180966667D01*
X353857142Y-180871429D01*
X353571428Y-180871429D01*
X353380952Y-180966667D01*
X353285714Y-181061905D01*
X353190476Y-181252381D01*
X353190476Y-181823810D01*
X353285714Y-182014286D01*
X353380952Y-182109524D01*
X353571428Y-182204762D01*
X353857142Y-182204762D01*
X351476190Y-180871429D02*
X351476190Y-182204762D01*
X352333333Y-180871429D02*
X352333333Y-181919048D01*
X352238094Y-182109524D01*
X352047618Y-182204762D01*
X351761904Y-182204762D01*
X351571428Y-182109524D01*
X351476190Y-182014286D01*
X350523809Y-180871429D02*
X350523809Y-182204762D01*
X350523809Y-181061905D02*
X350428570Y-180966667D01*
X350238094Y-180871429D01*
X349952380Y-180871429D01*
X349761904Y-180966667D01*
X349666666Y-181157143D01*
X349666666Y-182204762D01*
X348999999Y-180871429D02*
X348238094Y-180871429D01*
X348714285Y-180204762D02*
X348714285Y-181919048D01*
X348619046Y-182109524D01*
X348428570Y-182204762D01*
X348238094Y-182204762D01*
X347666666Y-182109524D02*
X347476189Y-182204762D01*
X347095237Y-182204762D01*
X346904761Y-182109524D01*
X346809523Y-181919048D01*
X346809523Y-181823810D01*
X346904761Y-181633333D01*
X347095237Y-181538095D01*
X347380951Y-181538095D01*
X347571428Y-181442857D01*
X347666666Y-181252381D01*
X347666666Y-181157143D01*
X347571428Y-180966667D01*
X347380951Y-180871429D01*
X347095237Y-180871429D01*
X346904761Y-180966667D01*
X362571428Y-185604762D02*
X363714286Y-185604762D01*
X363142857Y-185604762D02*
X363142857Y-183604762D01*
X363333333Y-183890476D01*
X363523809Y-184080952D01*
X363714286Y-184176190D01*
X361714286Y-185414286D02*
X361619047Y-185509524D01*
X361714286Y-185604762D01*
X361809524Y-185509524D01*
X361714286Y-185414286D01*
X361714286Y-185604762D01*
X361714286Y-184366667D02*
X361619047Y-184461905D01*
X361714286Y-184557143D01*
X361809524Y-184461905D01*
X361714286Y-184366667D01*
X361714286Y-184557143D01*
X358380952Y-183604762D02*
X358761904Y-183604762D01*
X358952380Y-183700000D01*
X359047618Y-183795238D01*
X359238095Y-184080952D01*
X359333333Y-184461905D01*
X359333333Y-185223810D01*
X359238095Y-185414286D01*
X359142856Y-185509524D01*
X358952380Y-185604762D01*
X358571428Y-185604762D01*
X358380952Y-185509524D01*
X358285714Y-185414286D01*
X358190475Y-185223810D01*
X358190475Y-184747619D01*
X358285714Y-184557143D01*
X358380952Y-184461905D01*
X358571428Y-184366667D01*
X358952380Y-184366667D01*
X359142856Y-184461905D01*
X359238095Y-184557143D01*
X359333333Y-184747619D01*
X356952380Y-183604762D02*
X356761904Y-183604762D01*
X356571428Y-183700000D01*
X356476190Y-183795238D01*
X356380952Y-183985714D01*
X356285713Y-184366667D01*
X356285713Y-184842857D01*
X356380952Y-185223810D01*
X356476190Y-185414286D01*
X356571428Y-185509524D01*
X356761904Y-185604762D01*
X356952380Y-185604762D01*
X357142856Y-185509524D01*
X357238094Y-185414286D01*
X357333333Y-185223810D01*
X357428571Y-184842857D01*
X357428571Y-184366667D01*
X357333333Y-183985714D01*
X357238094Y-183795238D01*
X357142856Y-183700000D01*
X356952380Y-183604762D01*
X363714286Y-187195238D02*
X363619048Y-187100000D01*
X363428571Y-187004762D01*
X362952381Y-187004762D01*
X362761905Y-187100000D01*
X362666667Y-187195238D01*
X362571428Y-187385714D01*
X362571428Y-187576190D01*
X362666667Y-187861905D01*
X363809524Y-189004762D01*
X362571428Y-189004762D01*
X361714286Y-188814286D02*
X361619047Y-188909524D01*
X361714286Y-189004762D01*
X361809524Y-188909524D01*
X361714286Y-188814286D01*
X361714286Y-189004762D01*
X361714286Y-187766667D02*
X361619047Y-187861905D01*
X361714286Y-187957143D01*
X361809524Y-187861905D01*
X361714286Y-187766667D01*
X361714286Y-187957143D01*
X358380952Y-187004762D02*
X358761904Y-187004762D01*
X358952380Y-187100000D01*
X359047618Y-187195238D01*
X359238095Y-187480952D01*
X359333333Y-187861905D01*
X359333333Y-188623810D01*
X359238095Y-188814286D01*
X359142856Y-188909524D01*
X358952380Y-189004762D01*
X358571428Y-189004762D01*
X358380952Y-188909524D01*
X358285714Y-188814286D01*
X358190475Y-188623810D01*
X358190475Y-188147619D01*
X358285714Y-187957143D01*
X358380952Y-187861905D01*
X358571428Y-187766667D01*
X358952380Y-187766667D01*
X359142856Y-187861905D01*
X359238095Y-187957143D01*
X359333333Y-188147619D01*
X356952380Y-187004762D02*
X356761904Y-187004762D01*
X356571428Y-187100000D01*
X356476190Y-187195238D01*
X356380952Y-187385714D01*
X356285713Y-187766667D01*
X356285713Y-188242857D01*
X356380952Y-188623810D01*
X356476190Y-188814286D01*
X356571428Y-188909524D01*
X356761904Y-189004762D01*
X356952380Y-189004762D01*
X357142856Y-188909524D01*
X357238094Y-188814286D01*
X357333333Y-188623810D01*
X357428571Y-188242857D01*
X357428571Y-187766667D01*
X357333333Y-187385714D01*
X357238094Y-187195238D01*
X357142856Y-187100000D01*
X356952380Y-187004762D01*
X363809524Y-190404762D02*
X362571428Y-190404762D01*
X363238095Y-191166667D01*
X362952381Y-191166667D01*
X362761905Y-191261905D01*
X362666667Y-191357143D01*
X362571428Y-191547619D01*
X362571428Y-192023810D01*
X362666667Y-192214286D01*
X362761905Y-192309524D01*
X362952381Y-192404762D01*
X363523809Y-192404762D01*
X363714286Y-192309524D01*
X363809524Y-192214286D01*
X361714286Y-192214286D02*
X361619047Y-192309524D01*
X361714286Y-192404762D01*
X361809524Y-192309524D01*
X361714286Y-192214286D01*
X361714286Y-192404762D01*
X361714286Y-191166667D02*
X361619047Y-191261905D01*
X361714286Y-191357143D01*
X361809524Y-191261905D01*
X361714286Y-191166667D01*
X361714286Y-191357143D01*
X358380952Y-191071429D02*
X358380952Y-192404762D01*
X358857142Y-190309524D02*
X359333333Y-191738095D01*
X358095237Y-191738095D01*
X357047618Y-191261905D02*
X357238094Y-191166667D01*
X357333333Y-191071429D01*
X357428571Y-190880952D01*
X357428571Y-190785714D01*
X357333333Y-190595238D01*
X357238094Y-190500000D01*
X357047618Y-190404762D01*
X356666666Y-190404762D01*
X356476190Y-190500000D01*
X356380952Y-190595238D01*
X356285713Y-190785714D01*
X356285713Y-190880952D01*
X356380952Y-191071429D01*
X356476190Y-191166667D01*
X356666666Y-191261905D01*
X357047618Y-191261905D01*
X357238094Y-191357143D01*
X357333333Y-191452381D01*
X357428571Y-191642857D01*
X357428571Y-192023810D01*
X357333333Y-192214286D01*
X357238094Y-192309524D01*
X357047618Y-192404762D01*
X356666666Y-192404762D01*
X356476190Y-192309524D01*
X356380952Y-192214286D01*
X356285713Y-192023810D01*
X356285713Y-191642857D01*
X356380952Y-191452381D01*
X356476190Y-191357143D01*
X356666666Y-191261905D01*
X362761905Y-194471429D02*
X362761905Y-195804762D01*
X363238095Y-193709524D02*
X363714286Y-195138095D01*
X362476190Y-195138095D01*
X361714286Y-195614286D02*
X361619047Y-195709524D01*
X361714286Y-195804762D01*
X361809524Y-195709524D01*
X361714286Y-195614286D01*
X361714286Y-195804762D01*
X361714286Y-194566667D02*
X361619047Y-194661905D01*
X361714286Y-194757143D01*
X361809524Y-194661905D01*
X361714286Y-194566667D01*
X361714286Y-194757143D01*
X358380952Y-194471429D02*
X358380952Y-195804762D01*
X358857142Y-193709524D02*
X359333333Y-195138095D01*
X358095237Y-195138095D01*
X357047618Y-194661905D02*
X357238094Y-194566667D01*
X357333333Y-194471429D01*
X357428571Y-194280952D01*
X357428571Y-194185714D01*
X357333333Y-193995238D01*
X357238094Y-193900000D01*
X357047618Y-193804762D01*
X356666666Y-193804762D01*
X356476190Y-193900000D01*
X356380952Y-193995238D01*
X356285713Y-194185714D01*
X356285713Y-194280952D01*
X356380952Y-194471429D01*
X356476190Y-194566667D01*
X356666666Y-194661905D01*
X357047618Y-194661905D01*
X357238094Y-194757143D01*
X357333333Y-194852381D01*
X357428571Y-195042857D01*
X357428571Y-195423810D01*
X357333333Y-195614286D01*
X357238094Y-195709524D01*
X357047618Y-195804762D01*
X356666666Y-195804762D01*
X356476190Y-195709524D01*
X356380952Y-195614286D01*
X356285713Y-195423810D01*
X356285713Y-195042857D01*
X356380952Y-194852381D01*
X356476190Y-194757143D01*
X356666666Y-194661905D01*
X362666667Y-197204762D02*
X363619048Y-197204762D01*
X363714286Y-198157143D01*
X363619048Y-198061905D01*
X363428571Y-197966667D01*
X362952381Y-197966667D01*
X362761905Y-198061905D01*
X362666667Y-198157143D01*
X362571428Y-198347619D01*
X362571428Y-198823810D01*
X362666667Y-199014286D01*
X362761905Y-199109524D01*
X362952381Y-199204762D01*
X363428571Y-199204762D01*
X363619048Y-199109524D01*
X363714286Y-199014286D01*
X361714286Y-199014286D02*
X361619047Y-199109524D01*
X361714286Y-199204762D01*
X361809524Y-199109524D01*
X361714286Y-199014286D01*
X361714286Y-199204762D01*
X361714286Y-197966667D02*
X361619047Y-198061905D01*
X361714286Y-198157143D01*
X361809524Y-198061905D01*
X361714286Y-197966667D01*
X361714286Y-198157143D01*
X359428571Y-197204762D02*
X358190475Y-197204762D01*
X358857142Y-197966667D01*
X358571428Y-197966667D01*
X358380952Y-198061905D01*
X358285714Y-198157143D01*
X358190475Y-198347619D01*
X358190475Y-198823810D01*
X358285714Y-199014286D01*
X358380952Y-199109524D01*
X358571428Y-199204762D01*
X359142856Y-199204762D01*
X359333333Y-199109524D01*
X359428571Y-199014286D01*
X356952380Y-197204762D02*
X356761904Y-197204762D01*
X356571428Y-197300000D01*
X356476190Y-197395238D01*
X356380952Y-197585714D01*
X356285713Y-197966667D01*
X356285713Y-198442857D01*
X356380952Y-198823810D01*
X356476190Y-199014286D01*
X356571428Y-199109524D01*
X356761904Y-199204762D01*
X356952380Y-199204762D01*
X357142856Y-199109524D01*
X357238094Y-199014286D01*
X357333333Y-198823810D01*
X357428571Y-198442857D01*
X357428571Y-197966667D01*
X357333333Y-197585714D01*
X357238094Y-197395238D01*
X357142856Y-197300000D01*
X356952380Y-197204762D01*
X362761905Y-200604762D02*
X363142857Y-200604762D01*
X363333333Y-200700000D01*
X363428571Y-200795238D01*
X363619048Y-201080952D01*
X363714286Y-201461905D01*
X363714286Y-202223810D01*
X363619048Y-202414286D01*
X363523809Y-202509524D01*
X363333333Y-202604762D01*
X362952381Y-202604762D01*
X362761905Y-202509524D01*
X362666667Y-202414286D01*
X362571428Y-202223810D01*
X362571428Y-201747619D01*
X362666667Y-201557143D01*
X362761905Y-201461905D01*
X362952381Y-201366667D01*
X363333333Y-201366667D01*
X363523809Y-201461905D01*
X363619048Y-201557143D01*
X363714286Y-201747619D01*
X361714286Y-202414286D02*
X361619047Y-202509524D01*
X361714286Y-202604762D01*
X361809524Y-202509524D01*
X361714286Y-202414286D01*
X361714286Y-202604762D01*
X361714286Y-201366667D02*
X361619047Y-201461905D01*
X361714286Y-201557143D01*
X361809524Y-201461905D01*
X361714286Y-201366667D01*
X361714286Y-201557143D01*
X359428571Y-200604762D02*
X358190475Y-200604762D01*
X358857142Y-201366667D01*
X358571428Y-201366667D01*
X358380952Y-201461905D01*
X358285714Y-201557143D01*
X358190475Y-201747619D01*
X358190475Y-202223810D01*
X358285714Y-202414286D01*
X358380952Y-202509524D01*
X358571428Y-202604762D01*
X359142856Y-202604762D01*
X359333333Y-202509524D01*
X359428571Y-202414286D01*
X356952380Y-200604762D02*
X356761904Y-200604762D01*
X356571428Y-200700000D01*
X356476190Y-200795238D01*
X356380952Y-200985714D01*
X356285713Y-201366667D01*
X356285713Y-201842857D01*
X356380952Y-202223810D01*
X356476190Y-202414286D01*
X356571428Y-202509524D01*
X356761904Y-202604762D01*
X356952380Y-202604762D01*
X357142856Y-202509524D01*
X357238094Y-202414286D01*
X357333333Y-202223810D01*
X357428571Y-201842857D01*
X357428571Y-201366667D01*
X357333333Y-200985714D01*
X357238094Y-200795238D01*
X357142856Y-200700000D01*
X356952380Y-200604762D01*
X363809524Y-204004762D02*
X362476190Y-204004762D01*
X363333333Y-206004762D01*
X361714286Y-205814286D02*
X361619047Y-205909524D01*
X361714286Y-206004762D01*
X361809524Y-205909524D01*
X361714286Y-205814286D01*
X361714286Y-206004762D01*
X361714286Y-204766667D02*
X361619047Y-204861905D01*
X361714286Y-204957143D01*
X361809524Y-204861905D01*
X361714286Y-204766667D01*
X361714286Y-204957143D01*
X359333333Y-204195238D02*
X359238095Y-204100000D01*
X359047618Y-204004762D01*
X358571428Y-204004762D01*
X358380952Y-204100000D01*
X358285714Y-204195238D01*
X358190475Y-204385714D01*
X358190475Y-204576190D01*
X358285714Y-204861905D01*
X359428571Y-206004762D01*
X358190475Y-206004762D01*
X356476190Y-204671429D02*
X356476190Y-206004762D01*
X356952380Y-203909524D02*
X357428571Y-205338095D01*
X356190475Y-205338095D01*
X363333333Y-208261905D02*
X363523809Y-208166667D01*
X363619048Y-208071429D01*
X363714286Y-207880952D01*
X363714286Y-207785714D01*
X363619048Y-207595238D01*
X363523809Y-207500000D01*
X363333333Y-207404762D01*
X362952381Y-207404762D01*
X362761905Y-207500000D01*
X362666667Y-207595238D01*
X362571428Y-207785714D01*
X362571428Y-207880952D01*
X362666667Y-208071429D01*
X362761905Y-208166667D01*
X362952381Y-208261905D01*
X363333333Y-208261905D01*
X363523809Y-208357143D01*
X363619048Y-208452381D01*
X363714286Y-208642857D01*
X363714286Y-209023810D01*
X363619048Y-209214286D01*
X363523809Y-209309524D01*
X363333333Y-209404762D01*
X362952381Y-209404762D01*
X362761905Y-209309524D01*
X362666667Y-209214286D01*
X362571428Y-209023810D01*
X362571428Y-208642857D01*
X362666667Y-208452381D01*
X362761905Y-208357143D01*
X362952381Y-208261905D01*
X361714286Y-209214286D02*
X361619047Y-209309524D01*
X361714286Y-209404762D01*
X361809524Y-209309524D01*
X361714286Y-209214286D01*
X361714286Y-209404762D01*
X361714286Y-208166667D02*
X361619047Y-208261905D01*
X361714286Y-208357143D01*
X361809524Y-208261905D01*
X361714286Y-208166667D01*
X361714286Y-208357143D01*
X358190475Y-209404762D02*
X359333333Y-209404762D01*
X358761904Y-209404762D02*
X358761904Y-207404762D01*
X358952380Y-207690476D01*
X359142856Y-207880952D01*
X359333333Y-207976190D01*
X357428571Y-207595238D02*
X357333333Y-207500000D01*
X357142856Y-207404762D01*
X356666666Y-207404762D01*
X356476190Y-207500000D01*
X356380952Y-207595238D01*
X356285713Y-207785714D01*
X356285713Y-207976190D01*
X356380952Y-208261905D01*
X357523809Y-209404762D01*
X356285713Y-209404762D01*
X363523809Y-212804762D02*
X363142857Y-212804762D01*
X362952381Y-212709524D01*
X362857143Y-212614286D01*
X362666667Y-212328571D01*
X362571428Y-211947619D01*
X362571428Y-211185714D01*
X362666667Y-210995238D01*
X362761905Y-210900000D01*
X362952381Y-210804762D01*
X363333333Y-210804762D01*
X363523809Y-210900000D01*
X363619048Y-210995238D01*
X363714286Y-211185714D01*
X363714286Y-211661905D01*
X363619048Y-211852381D01*
X363523809Y-211947619D01*
X363333333Y-212042857D01*
X362952381Y-212042857D01*
X362761905Y-211947619D01*
X362666667Y-211852381D01*
X362571428Y-211661905D01*
X361714286Y-212614286D02*
X361619047Y-212709524D01*
X361714286Y-212804762D01*
X361809524Y-212709524D01*
X361714286Y-212614286D01*
X361714286Y-212804762D01*
X361714286Y-211566667D02*
X361619047Y-211661905D01*
X361714286Y-211757143D01*
X361809524Y-211661905D01*
X361714286Y-211566667D01*
X361714286Y-211757143D01*
X358190475Y-212804762D02*
X359333333Y-212804762D01*
X358761904Y-212804762D02*
X358761904Y-210804762D01*
X358952380Y-211090476D01*
X359142856Y-211280952D01*
X359333333Y-211376190D01*
X357428571Y-210995238D02*
X357333333Y-210900000D01*
X357142856Y-210804762D01*
X356666666Y-210804762D01*
X356476190Y-210900000D01*
X356380952Y-210995238D01*
X356285713Y-211185714D01*
X356285713Y-211376190D01*
X356380952Y-211661905D01*
X357523809Y-212804762D01*
X356285713Y-212804762D01*
X362571428Y-216204762D02*
X363714286Y-216204762D01*
X363142857Y-216204762D02*
X363142857Y-214204762D01*
X363333333Y-214490476D01*
X363523809Y-214680952D01*
X363714286Y-214776190D01*
X361333333Y-214204762D02*
X361142857Y-214204762D01*
X360952381Y-214300000D01*
X360857143Y-214395238D01*
X360761905Y-214585714D01*
X360666666Y-214966667D01*
X360666666Y-215442857D01*
X360761905Y-215823810D01*
X360857143Y-216014286D01*
X360952381Y-216109524D01*
X361142857Y-216204762D01*
X361333333Y-216204762D01*
X361523809Y-216109524D01*
X361619047Y-216014286D01*
X361714286Y-215823810D01*
X361809524Y-215442857D01*
X361809524Y-214966667D01*
X361714286Y-214585714D01*
X361619047Y-214395238D01*
X361523809Y-214300000D01*
X361333333Y-214204762D01*
X359809524Y-216014286D02*
X359714285Y-216109524D01*
X359809524Y-216204762D01*
X359904762Y-216109524D01*
X359809524Y-216014286D01*
X359809524Y-216204762D01*
X359809524Y-214966667D02*
X359714285Y-215061905D01*
X359809524Y-215157143D01*
X359904762Y-215061905D01*
X359809524Y-214966667D01*
X359809524Y-215157143D01*
X356476190Y-214204762D02*
X356857142Y-214204762D01*
X357047618Y-214300000D01*
X357142856Y-214395238D01*
X357333333Y-214680952D01*
X357428571Y-215061905D01*
X357428571Y-215823810D01*
X357333333Y-216014286D01*
X357238094Y-216109524D01*
X357047618Y-216204762D01*
X356666666Y-216204762D01*
X356476190Y-216109524D01*
X356380952Y-216014286D01*
X356285713Y-215823810D01*
X356285713Y-215347619D01*
X356380952Y-215157143D01*
X356476190Y-215061905D01*
X356666666Y-214966667D01*
X357047618Y-214966667D01*
X357238094Y-215061905D01*
X357333333Y-215157143D01*
X357428571Y-215347619D01*
X362571428Y-219604762D02*
X363714286Y-219604762D01*
X363142857Y-219604762D02*
X363142857Y-217604762D01*
X363333333Y-217890476D01*
X363523809Y-218080952D01*
X363714286Y-218176190D01*
X360666666Y-219604762D02*
X361809524Y-219604762D01*
X361238095Y-219604762D02*
X361238095Y-217604762D01*
X361428571Y-217890476D01*
X361619047Y-218080952D01*
X361809524Y-218176190D01*
X359809524Y-219414286D02*
X359714285Y-219509524D01*
X359809524Y-219604762D01*
X359904762Y-219509524D01*
X359809524Y-219414286D01*
X359809524Y-219604762D01*
X359809524Y-218366667D02*
X359714285Y-218461905D01*
X359809524Y-218557143D01*
X359904762Y-218461905D01*
X359809524Y-218366667D01*
X359809524Y-218557143D01*
X356285713Y-219604762D02*
X357428571Y-219604762D01*
X356857142Y-219604762D02*
X356857142Y-217604762D01*
X357047618Y-217890476D01*
X357238094Y-218080952D01*
X357428571Y-218176190D01*
D12*
X322166666Y-263166667D02*
X322166666Y-256166667D01*
X319500000Y-256166667D01*
X318833333Y-256500000D01*
X318500000Y-256833333D01*
X318166666Y-257500000D01*
X318166666Y-258500000D01*
X318500000Y-259166667D01*
X318833333Y-259500000D01*
X319500000Y-259833333D01*
X322166666Y-259833333D01*
X315166666Y-263166667D02*
X315166666Y-258500000D01*
X315166666Y-256166667D02*
X315500000Y-256500000D01*
X315166666Y-256833333D01*
X314833333Y-256500000D01*
X315166666Y-256166667D01*
X315166666Y-256833333D01*
X312500000Y-263166667D02*
X308833333Y-258500000D01*
X312500000Y-258500000D02*
X308833333Y-263166667D01*
X303500000Y-262833333D02*
X304166666Y-263166667D01*
X305500000Y-263166667D01*
X306166666Y-262833333D01*
X306500000Y-262166667D01*
X306500000Y-259500000D01*
X306166666Y-258833333D01*
X305500000Y-258500000D01*
X304166666Y-258500000D01*
X303500000Y-258833333D01*
X303166666Y-259500000D01*
X303166666Y-260166667D01*
X306500000Y-260833333D01*
X299166666Y-263166667D02*
X299833333Y-262833333D01*
X300166666Y-262166667D01*
X300166666Y-256166667D01*
X296499999Y-263166667D02*
X296499999Y-256166667D01*
X294833333Y-256166667D01*
X293833333Y-256500000D01*
X293166666Y-257166667D01*
X292833333Y-257833333D01*
X292499999Y-259166667D01*
X292499999Y-260166667D01*
X292833333Y-261500000D01*
X293166666Y-262166667D01*
X293833333Y-262833333D01*
X294833333Y-263166667D01*
X296499999Y-263166667D01*
X289499999Y-263166667D02*
X289499999Y-258500000D01*
X289499999Y-256166667D02*
X289833333Y-256500000D01*
X289499999Y-256833333D01*
X289166666Y-256500000D01*
X289499999Y-256166667D01*
X289499999Y-256833333D01*
X286500000Y-262833333D02*
X285833333Y-263166667D01*
X284500000Y-263166667D01*
X283833333Y-262833333D01*
X283500000Y-262166667D01*
X283500000Y-261833333D01*
X283833333Y-261166667D01*
X284500000Y-260833333D01*
X285500000Y-260833333D01*
X286166666Y-260500000D01*
X286500000Y-259833333D01*
X286500000Y-259500000D01*
X286166666Y-258833333D01*
X285500000Y-258500000D01*
X284500000Y-258500000D01*
X283833333Y-258833333D01*
X277499999Y-262833333D02*
X278166666Y-263166667D01*
X279499999Y-263166667D01*
X280166666Y-262833333D01*
X280499999Y-262500000D01*
X280833333Y-261833333D01*
X280833333Y-259833333D01*
X280499999Y-259166667D01*
X280166666Y-258833333D01*
X279499999Y-258500000D01*
X278166666Y-258500000D01*
X277499999Y-258833333D01*
X336166665Y-168166667D02*
X336166665Y-161166667D01*
X333833332Y-166166667D01*
X331499999Y-161166667D01*
X331499999Y-168166667D01*
X325166665Y-168166667D02*
X325166665Y-164500000D01*
X325499999Y-163833333D01*
X326166665Y-163500000D01*
X327499999Y-163500000D01*
X328166665Y-163833333D01*
X325166665Y-167833333D02*
X325833332Y-168166667D01*
X327499999Y-168166667D01*
X328166665Y-167833333D01*
X328499999Y-167166667D01*
X328499999Y-166500000D01*
X328166665Y-165833333D01*
X327499999Y-165500000D01*
X325833332Y-165500000D01*
X325166665Y-165166667D01*
X321833332Y-163500000D02*
X321833332Y-168166667D01*
X321833332Y-164166667D02*
X321499999Y-163833333D01*
X320833332Y-163500000D01*
X319833332Y-163500000D01*
X319166666Y-163833333D01*
X318833332Y-164500000D01*
X318833332Y-168166667D01*
X315499999Y-168166667D02*
X315499999Y-163500000D01*
X315499999Y-161166667D02*
X315833333Y-161500000D01*
X315499999Y-161833333D01*
X315166666Y-161500000D01*
X315499999Y-161166667D01*
X315499999Y-161833333D01*
X309166666Y-168166667D02*
X309166666Y-164500000D01*
X309500000Y-163833333D01*
X310166666Y-163500000D01*
X311500000Y-163500000D01*
X312166666Y-163833333D01*
X309166666Y-167833333D02*
X309833333Y-168166667D01*
X311500000Y-168166667D01*
X312166666Y-167833333D01*
X312500000Y-167166667D01*
X312500000Y-166500000D01*
X312166666Y-165833333D01*
X311500000Y-165500000D01*
X309833333Y-165500000D01*
X309166666Y-165166667D01*
X302833333Y-167833333D02*
X303500000Y-168166667D01*
X304833333Y-168166667D01*
X305500000Y-167833333D01*
X305833333Y-167500000D01*
X306166667Y-166833333D01*
X306166667Y-164833333D01*
X305833333Y-164166667D01*
X305500000Y-163833333D01*
X304833333Y-163500000D01*
X303500000Y-163500000D01*
X302833333Y-163833333D01*
X296833333Y-168166667D02*
X296833333Y-164500000D01*
X297166667Y-163833333D01*
X297833333Y-163500000D01*
X299166667Y-163500000D01*
X299833333Y-163833333D01*
X296833333Y-167833333D02*
X297500000Y-168166667D01*
X299166667Y-168166667D01*
X299833333Y-167833333D01*
X300166667Y-167166667D01*
X300166667Y-166500000D01*
X299833333Y-165833333D01*
X299166667Y-165500000D01*
X297500000Y-165500000D01*
X296833333Y-165166667D01*
X292500000Y-168166667D02*
X293166667Y-167833333D01*
X293500000Y-167166667D01*
X293500000Y-161166667D01*
X281166667Y-168166667D02*
X284500000Y-168166667D01*
X284500000Y-161166667D01*
X275833333Y-168166667D02*
X275833333Y-164500000D01*
X276166667Y-163833333D01*
X276833333Y-163500000D01*
X278166667Y-163500000D01*
X278833333Y-163833333D01*
X275833333Y-167833333D02*
X276500000Y-168166667D01*
X278166667Y-168166667D01*
X278833333Y-167833333D01*
X279166667Y-167166667D01*
X279166667Y-166500000D01*
X278833333Y-165833333D01*
X278166667Y-165500000D01*
X276500000Y-165500000D01*
X275833333Y-165166667D01*
X272500000Y-168166667D02*
X272500000Y-161166667D01*
X272500000Y-163833333D02*
X271833334Y-163500000D01*
X270500000Y-163500000D01*
X269833334Y-163833333D01*
X269500000Y-164166667D01*
X269166667Y-164833333D01*
X269166667Y-166833333D01*
X269500000Y-167500000D01*
X269833334Y-167833333D01*
X270500000Y-168166667D01*
X271833334Y-168166667D01*
X272500000Y-167833333D01*
X266500001Y-167833333D02*
X265833334Y-168166667D01*
X264500001Y-168166667D01*
X263833334Y-167833333D01*
X263500001Y-167166667D01*
X263500001Y-166833333D01*
X263833334Y-166166667D01*
X264500001Y-165833333D01*
X265500001Y-165833333D01*
X266166667Y-165500000D01*
X266500001Y-164833333D01*
X266500001Y-164500000D01*
X266166667Y-163833333D01*
X265500001Y-163500000D01*
X264500001Y-163500000D01*
X263833334Y-163833333D01*
D13*
X302198428Y-309385857D02*
X302234142Y-309421571D01*
X302341285Y-309457286D01*
X302412714Y-309457286D01*
X302519857Y-309421571D01*
X302591285Y-309350143D01*
X302627000Y-309278714D01*
X302662714Y-309135857D01*
X302662714Y-309028714D01*
X302627000Y-308885857D01*
X302591285Y-308814429D01*
X302519857Y-308743000D01*
X302412714Y-308707286D01*
X302341285Y-308707286D01*
X302234142Y-308743000D01*
X302198428Y-308778714D01*
X301519857Y-309457286D02*
X301877000Y-309457286D01*
X301877000Y-308707286D01*
X301269857Y-309457286D02*
X301269857Y-308707286D01*
X300841285Y-309457286D02*
X301162714Y-309028714D01*
X300841285Y-308707286D02*
X301269857Y-309135857D01*
X298999572Y-309457286D02*
X298999572Y-308707286D01*
X298821000Y-308707286D01*
X298713857Y-308743000D01*
X298642429Y-308814429D01*
X298606714Y-308885857D01*
X298571000Y-309028714D01*
X298571000Y-309135857D01*
X298606714Y-309278714D01*
X298642429Y-309350143D01*
X298713857Y-309421571D01*
X298821000Y-309457286D01*
X298999572Y-309457286D01*
X298285286Y-309243000D02*
X297928143Y-309243000D01*
X298356714Y-309457286D02*
X298106714Y-308707286D01*
X297856714Y-309457286D01*
X297713857Y-308707286D02*
X297285286Y-308707286D01*
X297499572Y-309457286D02*
X297499572Y-308707286D01*
X294274857Y-306675286D02*
X294632000Y-306675286D01*
X294667714Y-307032429D01*
X294632000Y-306996714D01*
X294560571Y-306961000D01*
X294382000Y-306961000D01*
X294310571Y-306996714D01*
X294274857Y-307032429D01*
X294239142Y-307103857D01*
X294239142Y-307282429D01*
X294274857Y-307353857D01*
X294310571Y-307389571D01*
X294382000Y-307425286D01*
X294560571Y-307425286D01*
X294632000Y-307389571D01*
X294667714Y-307353857D01*
X294024856Y-306675286D02*
X293774856Y-307425286D01*
X293524856Y-306675286D01*
X306895428Y-306711000D02*
X306966857Y-306675286D01*
X307074000Y-306675286D01*
X307181143Y-306711000D01*
X307252571Y-306782429D01*
X307288286Y-306853857D01*
X307324000Y-306996714D01*
X307324000Y-307103857D01*
X307288286Y-307246714D01*
X307252571Y-307318143D01*
X307181143Y-307389571D01*
X307074000Y-307425286D01*
X307002571Y-307425286D01*
X306895428Y-307389571D01*
X306859714Y-307353857D01*
X306859714Y-307103857D01*
X307002571Y-307103857D01*
X306538286Y-307425286D02*
X306538286Y-306675286D01*
X306109714Y-307425286D01*
X306109714Y-306675286D01*
X305752572Y-307425286D02*
X305752572Y-306675286D01*
X305574000Y-306675286D01*
X305466857Y-306711000D01*
X305395429Y-306782429D01*
X305359714Y-306853857D01*
X305324000Y-306996714D01*
X305324000Y-307103857D01*
X305359714Y-307246714D01*
X305395429Y-307318143D01*
X305466857Y-307389571D01*
X305574000Y-307425286D01*
X305752572Y-307425286D01*
X298642428Y-91199857D02*
X298678142Y-91235571D01*
X298785285Y-91271286D01*
X298856714Y-91271286D01*
X298963857Y-91235571D01*
X299035285Y-91164143D01*
X299071000Y-91092714D01*
X299106714Y-90949857D01*
X299106714Y-90842714D01*
X299071000Y-90699857D01*
X299035285Y-90628429D01*
X298963857Y-90557000D01*
X298856714Y-90521286D01*
X298785285Y-90521286D01*
X298678142Y-90557000D01*
X298642428Y-90592714D01*
X297963857Y-91271286D02*
X298321000Y-91271286D01*
X298321000Y-90521286D01*
X297713857Y-91271286D02*
X297713857Y-90521286D01*
X297285285Y-91271286D02*
X297606714Y-90842714D01*
X297285285Y-90521286D02*
X297713857Y-90949857D01*
X302555572Y-91271286D02*
X302555572Y-90521286D01*
X302377000Y-90521286D01*
X302269857Y-90557000D01*
X302198429Y-90628429D01*
X302162714Y-90699857D01*
X302127000Y-90842714D01*
X302127000Y-90949857D01*
X302162714Y-91092714D01*
X302198429Y-91164143D01*
X302269857Y-91235571D01*
X302377000Y-91271286D01*
X302555572Y-91271286D01*
X301841286Y-91057000D02*
X301484143Y-91057000D01*
X301912714Y-91271286D02*
X301662714Y-90521286D01*
X301412714Y-91271286D01*
X301269857Y-90521286D02*
X300841286Y-90521286D01*
X301055572Y-91271286D02*
X301055572Y-90521286D01*
X306392857Y-92589286D02*
X306750000Y-92589286D01*
X306785714Y-92946429D01*
X306750000Y-92910714D01*
X306678571Y-92875000D01*
X306500000Y-92875000D01*
X306428571Y-92910714D01*
X306392857Y-92946429D01*
X306357142Y-93017857D01*
X306357142Y-93196429D01*
X306392857Y-93267857D01*
X306428571Y-93303571D01*
X306500000Y-93339286D01*
X306678571Y-93339286D01*
X306750000Y-93303571D01*
X306785714Y-93267857D01*
X306142856Y-92589286D02*
X305892856Y-93339286D01*
X305642856Y-92589286D01*
X294321428Y-92625000D02*
X294392857Y-92589286D01*
X294500000Y-92589286D01*
X294607143Y-92625000D01*
X294678571Y-92696429D01*
X294714286Y-92767857D01*
X294750000Y-92910714D01*
X294750000Y-93017857D01*
X294714286Y-93160714D01*
X294678571Y-93232143D01*
X294607143Y-93303571D01*
X294500000Y-93339286D01*
X294428571Y-93339286D01*
X294321428Y-93303571D01*
X294285714Y-93267857D01*
X294285714Y-93017857D01*
X294428571Y-93017857D01*
X293964286Y-93339286D02*
X293964286Y-92589286D01*
X293535714Y-93339286D01*
X293535714Y-92589286D01*
X293178572Y-93339286D02*
X293178572Y-92589286D01*
X293000000Y-92589286D01*
X292892857Y-92625000D01*
X292821429Y-92696429D01*
X292785714Y-92767857D01*
X292750000Y-92910714D01*
X292750000Y-93017857D01*
X292785714Y-93160714D01*
X292821429Y-93232143D01*
X292892857Y-93303571D01*
X293000000Y-93339286D01*
X293178572Y-93339286D01*
D14*
X288607142Y-219178571D02*
X288607142Y-217678571D01*
X288249999Y-217678571D01*
X288035714Y-217750000D01*
X287892856Y-217892857D01*
X287821428Y-218035714D01*
X287749999Y-218321429D01*
X287749999Y-218535714D01*
X287821428Y-218821429D01*
X287892856Y-218964286D01*
X288035714Y-219107143D01*
X288249999Y-219178571D01*
X288607142Y-219178571D01*
X287178571Y-218750000D02*
X286464285Y-218750000D01*
X287321428Y-219178571D02*
X286821428Y-217678571D01*
X286321428Y-219178571D01*
X286035714Y-217678571D02*
X285178571Y-217678571D01*
X285607142Y-219178571D02*
X285607142Y-217678571D01*
X313892857Y-219035714D02*
X313964286Y-219107143D01*
X314178572Y-219178571D01*
X314321429Y-219178571D01*
X314535714Y-219107143D01*
X314678572Y-218964286D01*
X314750000Y-218821429D01*
X314821429Y-218535714D01*
X314821429Y-218321429D01*
X314750000Y-218035714D01*
X314678572Y-217892857D01*
X314535714Y-217750000D01*
X314321429Y-217678571D01*
X314178572Y-217678571D01*
X313964286Y-217750000D01*
X313892857Y-217821429D01*
X312535714Y-219178571D02*
X313250000Y-219178571D01*
X313250000Y-217678571D01*
X312035714Y-219178571D02*
X312035714Y-217678571D01*
X311178571Y-219178571D02*
X311821428Y-218321429D01*
X311178571Y-217678571D02*
X312035714Y-218535714D01*
X314857142Y-182178571D02*
X314857142Y-180678571D01*
X314499999Y-180678571D01*
X314285714Y-180750000D01*
X314142856Y-180892857D01*
X314071428Y-181035714D01*
X313999999Y-181321429D01*
X313999999Y-181535714D01*
X314071428Y-181821429D01*
X314142856Y-181964286D01*
X314285714Y-182107143D01*
X314499999Y-182178571D01*
X314857142Y-182178571D01*
X313428571Y-181750000D02*
X312714285Y-181750000D01*
X313571428Y-182178571D02*
X313071428Y-180678571D01*
X312571428Y-182178571D01*
X312285714Y-180678571D02*
X311428571Y-180678571D01*
X311857142Y-182178571D02*
X311857142Y-180678571D01*
X287892857Y-182035714D02*
X287964286Y-182107143D01*
X288178572Y-182178571D01*
X288321429Y-182178571D01*
X288535714Y-182107143D01*
X288678572Y-181964286D01*
X288750000Y-181821429D01*
X288821429Y-181535714D01*
X288821429Y-181321429D01*
X288750000Y-181035714D01*
X288678572Y-180892857D01*
X288535714Y-180750000D01*
X288321429Y-180678571D01*
X288178572Y-180678571D01*
X287964286Y-180750000D01*
X287892857Y-180821429D01*
X286535714Y-182178571D02*
X287250000Y-182178571D01*
X287250000Y-180678571D01*
X286035714Y-182178571D02*
X286035714Y-180678571D01*
X285178571Y-182178571D02*
X285821428Y-181321429D01*
X285178571Y-180678571D02*
X286035714Y-181535714D01*
X275285713Y-210178571D02*
X275999999Y-210178571D01*
X276071428Y-210892857D01*
X275999999Y-210821429D01*
X275857142Y-210750000D01*
X275499999Y-210750000D01*
X275357142Y-210821429D01*
X275285713Y-210892857D01*
X275214285Y-211035714D01*
X275214285Y-211392857D01*
X275285713Y-211535714D01*
X275357142Y-211607143D01*
X275499999Y-211678571D01*
X275857142Y-211678571D01*
X275999999Y-211607143D01*
X276071428Y-211535714D01*
X274785714Y-210178571D02*
X274285714Y-211678571D01*
X273785714Y-210178571D01*
X326142857Y-210250000D02*
X326285714Y-210178571D01*
X326500000Y-210178571D01*
X326714285Y-210250000D01*
X326857143Y-210392857D01*
X326928571Y-210535714D01*
X327000000Y-210821429D01*
X327000000Y-211035714D01*
X326928571Y-211321429D01*
X326857143Y-211464286D01*
X326714285Y-211607143D01*
X326500000Y-211678571D01*
X326357143Y-211678571D01*
X326142857Y-211607143D01*
X326071428Y-211535714D01*
X326071428Y-211035714D01*
X326357143Y-211035714D01*
X325428571Y-211678571D02*
X325428571Y-210178571D01*
X324571428Y-211678571D01*
X324571428Y-210178571D01*
X323857142Y-211678571D02*
X323857142Y-210178571D01*
X323499999Y-210178571D01*
X323285714Y-210250000D01*
X323142856Y-210392857D01*
X323071428Y-210535714D01*
X322999999Y-210821429D01*
X322999999Y-211035714D01*
X323071428Y-211321429D01*
X323142856Y-211464286D01*
X323285714Y-211607143D01*
X323499999Y-211678571D01*
X323857142Y-211678571D01*
X325285713Y-188178571D02*
X325999999Y-188178571D01*
X326071428Y-188892857D01*
X325999999Y-188821429D01*
X325857142Y-188750000D01*
X325499999Y-188750000D01*
X325357142Y-188821429D01*
X325285713Y-188892857D01*
X325214285Y-189035714D01*
X325214285Y-189392857D01*
X325285713Y-189535714D01*
X325357142Y-189607143D01*
X325499999Y-189678571D01*
X325857142Y-189678571D01*
X325999999Y-189607143D01*
X326071428Y-189535714D01*
X324785714Y-188178571D02*
X324285714Y-189678571D01*
X323785714Y-188178571D01*
X276142857Y-188250000D02*
X276285714Y-188178571D01*
X276500000Y-188178571D01*
X276714285Y-188250000D01*
X276857143Y-188392857D01*
X276928571Y-188535714D01*
X277000000Y-188821429D01*
X277000000Y-189035714D01*
X276928571Y-189321429D01*
X276857143Y-189464286D01*
X276714285Y-189607143D01*
X276500000Y-189678571D01*
X276357143Y-189678571D01*
X276142857Y-189607143D01*
X276071428Y-189535714D01*
X276071428Y-189035714D01*
X276357143Y-189035714D01*
X275428571Y-189678571D02*
X275428571Y-188178571D01*
X274571428Y-189678571D01*
X274571428Y-188178571D01*
X273857142Y-189678571D02*
X273857142Y-188178571D01*
X273499999Y-188178571D01*
X273285714Y-188250000D01*
X273142856Y-188392857D01*
X273071428Y-188535714D01*
X272999999Y-188821429D01*
X272999999Y-189035714D01*
X273071428Y-189321429D01*
X273142856Y-189464286D01*
X273285714Y-189607143D01*
X273499999Y-189678571D01*
X273857142Y-189678571D01*
D15*
G36*
X298752457Y-113322061D02*
X297732688Y-113324368D01*
X296744527Y-113328029D01*
X295802326Y-113333046D01*
X294920437Y-113339417D01*
X294113213Y-113347144D01*
X293395006Y-113356226D01*
X292780169Y-113366664D01*
X292283055Y-113378456D01*
X291918016Y-113391603D01*
X291699404Y-113406106D01*
X291644678Y-113415387D01*
X291271659Y-113636021D01*
X290990520Y-113960431D01*
X290825440Y-114348117D01*
X290800598Y-114758582D01*
X290809455Y-114814329D01*
X290937344Y-115134548D01*
X291173427Y-115450145D01*
X291466346Y-115699780D01*
X291618887Y-115781034D01*
X291874554Y-115886935D01*
X291829666Y-131655667D01*
X291330054Y-132502334D01*
X291114413Y-132869695D01*
X290841575Y-133337380D01*
X290538606Y-133858835D01*
X290232574Y-134387506D01*
X290050183Y-134703667D01*
X289754511Y-135216693D01*
X289403414Y-135825390D01*
X289026265Y-136478863D01*
X288652442Y-137126211D01*
X288315483Y-137709334D01*
X287985824Y-138279932D01*
X287599544Y-138949106D01*
X287184450Y-139668646D01*
X286768350Y-140390345D01*
X286379052Y-141065994D01*
X286239884Y-141307667D01*
X285924617Y-141854806D01*
X285543875Y-142514848D01*
X285117073Y-143254176D01*
X284663628Y-144039176D01*
X284202954Y-144836232D01*
X283754468Y-145611730D01*
X283457697Y-146124579D01*
X283024082Y-146879485D01*
X282646920Y-147547956D01*
X282331775Y-148119633D01*
X282084209Y-148584154D01*
X281909782Y-148931161D01*
X281814059Y-149150295D01*
X281796666Y-149218261D01*
X281839540Y-149353329D01*
X281963978Y-149621372D01*
X282163712Y-150010594D01*
X282432470Y-150509200D01*
X282763982Y-151105393D01*
X283151977Y-151787378D01*
X283286776Y-152021349D01*
X283658878Y-152665819D01*
X284025446Y-153301559D01*
X284372430Y-153904138D01*
X284685777Y-154449125D01*
X284951438Y-154912088D01*
X285155360Y-155268596D01*
X285247188Y-155429976D01*
X285457696Y-155783317D01*
X285661751Y-156094552D01*
X285833029Y-156325188D01*
X285927497Y-156424809D01*
X285957487Y-156446183D01*
X285995758Y-156465628D01*
X286050066Y-156483238D01*
X286128166Y-156499102D01*
X286237813Y-156513312D01*
X286386763Y-156525959D01*
X286582771Y-156537133D01*
X286833594Y-156546927D01*
X287146986Y-156555430D01*
X287530704Y-156562735D01*
X287992502Y-156568931D01*
X288540137Y-156574110D01*
X289181363Y-156578364D01*
X289923937Y-156581782D01*
X290775614Y-156584457D01*
X291744150Y-156586479D01*
X292837300Y-156587939D01*
X294062819Y-156588928D01*
X295428464Y-156589538D01*
X296941989Y-156589859D01*
X298611151Y-156589983D01*
X300000000Y-156590000D01*
X301793639Y-156589967D01*
X303425701Y-156589805D01*
X304903940Y-156589425D01*
X306236113Y-156588734D01*
X307429975Y-156587643D01*
X308493281Y-156586060D01*
X309433787Y-156583893D01*
X310259249Y-156581053D01*
X310977422Y-156577447D01*
X311596061Y-156572985D01*
X312122923Y-156567576D01*
X312565762Y-156561129D01*
X312932335Y-156553552D01*
X313230397Y-156544755D01*
X313467703Y-156534647D01*
X313652009Y-156523136D01*
X313791071Y-156510132D01*
X313892643Y-156495543D01*
X313964483Y-156479279D01*
X314014344Y-156461248D01*
X314049984Y-156441359D01*
X314072503Y-156424809D01*
X314199534Y-156284557D01*
X314380036Y-156033445D01*
X314587685Y-155709967D01*
X314752811Y-155429976D01*
X314909709Y-155154659D01*
X315137363Y-154757207D01*
X315421722Y-154262053D01*
X315748734Y-153693627D01*
X316104348Y-153076360D01*
X316474514Y-152434684D01*
X316713223Y-152021349D01*
X317117937Y-151314448D01*
X317468171Y-150689573D01*
X317757653Y-150158517D01*
X317980114Y-149733077D01*
X318129282Y-149425049D01*
X318198887Y-149246229D01*
X318203333Y-149218261D01*
X318184609Y-149160418D01*
X315482449Y-149160418D01*
X315286893Y-149467376D01*
X315183393Y-149636953D01*
X315012816Y-149924503D01*
X314792161Y-150301012D01*
X314538432Y-150737468D01*
X314268630Y-151204859D01*
X314263564Y-151213667D01*
X313968649Y-151725994D01*
X313666252Y-152250500D01*
X313380383Y-152745591D01*
X313135056Y-153169675D01*
X312980459Y-153436167D01*
X312525127Y-154219334D01*
X287474873Y-154219334D01*
X287019541Y-153436167D01*
X286825618Y-153101767D01*
X286571384Y-152662116D01*
X286280850Y-152158804D01*
X285978028Y-151633425D01*
X285736436Y-151213667D01*
X285466449Y-150745901D01*
X285212173Y-150308462D01*
X284990623Y-149930382D01*
X284818811Y-149640692D01*
X284713753Y-149468425D01*
X284712561Y-149466552D01*
X284516460Y-149158770D01*
X285432724Y-147584754D01*
X285706135Y-147113093D01*
X285951686Y-146685740D01*
X286156086Y-146326129D01*
X286306046Y-146057698D01*
X286388276Y-145903881D01*
X286398503Y-145881702D01*
X286423806Y-145855321D01*
X286485950Y-145832737D01*
X286596954Y-145813665D01*
X286768839Y-145797816D01*
X287013622Y-145784904D01*
X287343325Y-145774643D01*
X287769965Y-145766745D01*
X288305564Y-145760924D01*
X288962139Y-145756892D01*
X289751711Y-145754363D01*
X290686300Y-145753051D01*
X291777923Y-145752667D01*
X297162079Y-145752667D01*
X295490706Y-147425608D01*
X294924937Y-147998409D01*
X294472576Y-148470505D01*
X294136413Y-148838809D01*
X293919239Y-149100236D01*
X293823848Y-149251700D01*
X293819333Y-149273257D01*
X293877892Y-149396230D01*
X294033791Y-149600231D01*
X294257363Y-149855022D01*
X294518943Y-150130368D01*
X294788865Y-150396032D01*
X295037462Y-150621778D01*
X295235068Y-150777369D01*
X295349330Y-150832667D01*
X295436180Y-150775040D01*
X295625763Y-150612356D01*
X295901690Y-150359912D01*
X296247577Y-150033003D01*
X296647037Y-149646926D01*
X297083684Y-149216977D01*
X297137675Y-149163288D01*
X298814666Y-147493909D01*
X298814666Y-152090377D01*
X299037751Y-152265855D01*
X299172310Y-152351807D01*
X299337501Y-152404694D01*
X299575913Y-152431957D01*
X299930138Y-152441034D01*
X300042333Y-152441334D01*
X300432340Y-152435655D01*
X300695837Y-152413660D01*
X300875414Y-152367909D01*
X301013662Y-152290962D01*
X301046915Y-152265855D01*
X301270000Y-152090377D01*
X301270000Y-147489962D01*
X302900627Y-149118981D01*
X303424271Y-149638190D01*
X303843454Y-150044332D01*
X304169757Y-150347660D01*
X304414762Y-150558430D01*
X304590047Y-150686895D01*
X304707194Y-150743311D01*
X304740254Y-150748000D01*
X304905416Y-150686191D01*
X305141218Y-150522075D01*
X305415522Y-150287624D01*
X305696189Y-150014807D01*
X305951080Y-149735594D01*
X306148056Y-149481956D01*
X306254978Y-149285862D01*
X306265333Y-149230931D01*
X306234421Y-149133322D01*
X306134928Y-148981278D01*
X305956718Y-148763314D01*
X305689654Y-148467948D01*
X305323601Y-148083697D01*
X304848423Y-147599077D01*
X304635905Y-147384982D01*
X303006478Y-145747743D01*
X305279669Y-145755396D01*
X305966987Y-145756786D01*
X306504973Y-145755028D01*
X306913618Y-145748992D01*
X307212911Y-145737545D01*
X307422842Y-145719558D01*
X307563402Y-145693900D01*
X307654580Y-145659441D01*
X307713431Y-145617735D01*
X307786036Y-145530774D01*
X307833158Y-145404583D01*
X307860021Y-145204754D01*
X307871849Y-144896881D01*
X307874000Y-144560356D01*
X307875200Y-144208217D01*
X307867214Y-143928303D01*
X307832656Y-143712348D01*
X307754143Y-143552087D01*
X307614293Y-143439256D01*
X307395722Y-143365588D01*
X307081047Y-143322820D01*
X306652883Y-143302686D01*
X306093849Y-143296921D01*
X305386560Y-143297260D01*
X305217563Y-143297334D01*
X303007295Y-143297334D01*
X304636314Y-141666706D01*
X305170660Y-141127096D01*
X305588996Y-140693482D01*
X305899473Y-140356718D01*
X306110242Y-140107658D01*
X306229456Y-139937157D01*
X306265333Y-139839044D01*
X306201821Y-139663111D01*
X306032910Y-139420400D01*
X305791034Y-139142495D01*
X305508630Y-138860980D01*
X305218133Y-138607442D01*
X304951980Y-138413462D01*
X304742604Y-138310627D01*
X304686863Y-138302000D01*
X304612827Y-138359446D01*
X304435148Y-138521634D01*
X304169691Y-138773343D01*
X303832321Y-139099350D01*
X303438903Y-139484434D01*
X303005302Y-139913371D01*
X302946992Y-139971379D01*
X301270000Y-141640758D01*
X301270000Y-139363003D01*
X301270639Y-138620224D01*
X301267294Y-138029400D01*
X301252071Y-137573196D01*
X301217075Y-137234279D01*
X301154413Y-136995314D01*
X301056190Y-136838968D01*
X300914512Y-136747907D01*
X300721486Y-136704796D01*
X300469217Y-136692302D01*
X300149810Y-136693091D01*
X300054198Y-136693334D01*
X299706615Y-136691870D01*
X299430751Y-136699134D01*
X299218346Y-136732607D01*
X299061142Y-136809771D01*
X298950879Y-136948108D01*
X298879298Y-137165099D01*
X298838140Y-137478227D01*
X298819144Y-137904973D01*
X298814052Y-138462818D01*
X298814605Y-139169245D01*
X298814666Y-139316931D01*
X298814666Y-141572344D01*
X297311833Y-140057593D01*
X296767507Y-139513814D01*
X296326204Y-139084662D01*
X295976371Y-138760081D01*
X295706455Y-138530014D01*
X295504901Y-138384405D01*
X295360157Y-138313198D01*
X295294859Y-138302000D01*
X295189426Y-138361784D01*
X295003894Y-138520869D01*
X294767029Y-138748853D01*
X294507597Y-139015338D01*
X294254361Y-139289921D01*
X294036088Y-139542202D01*
X293881543Y-139741781D01*
X293819492Y-139858257D01*
X293819333Y-139861410D01*
X293881537Y-139983101D01*
X294066218Y-140215409D01*
X294370482Y-140555131D01*
X294791433Y-140999063D01*
X295326176Y-141544001D01*
X295469559Y-141687892D01*
X297119785Y-143339667D01*
X292506226Y-143339667D01*
X291640053Y-143339413D01*
X290826866Y-143338683D01*
X290082019Y-143337525D01*
X289420869Y-143335985D01*
X288858772Y-143334112D01*
X288411082Y-143331953D01*
X288093157Y-143329555D01*
X287920350Y-143326966D01*
X287892666Y-143325404D01*
X287933504Y-143251494D01*
X288049721Y-143047450D01*
X288231876Y-142729695D01*
X288470525Y-142314651D01*
X288756225Y-141818740D01*
X289079534Y-141258386D01*
X289426157Y-140658404D01*
X289815447Y-139984922D01*
X290209844Y-139302492D01*
X290593397Y-138638723D01*
X290950154Y-138021223D01*
X291264166Y-137477600D01*
X291519479Y-137035465D01*
X291643655Y-136820334D01*
X291917629Y-136346577D01*
X292247151Y-135778368D01*
X292602200Y-135167376D01*
X292952757Y-134565272D01*
X293203257Y-134135905D01*
X293477507Y-133662277D01*
X293729256Y-133219864D01*
X293943157Y-132836243D01*
X294103861Y-132538988D01*
X294196021Y-132355677D01*
X294203092Y-132339457D01*
X294224228Y-132269914D01*
X294242891Y-132162006D01*
X294259227Y-132005827D01*
X294273382Y-131791467D01*
X294285505Y-131509019D01*
X294295740Y-131148574D01*
X294304236Y-130700224D01*
X294311138Y-130154061D01*
X294316594Y-129500176D01*
X294320751Y-128728661D01*
X294323756Y-127829609D01*
X294325754Y-126793110D01*
X294326893Y-125609256D01*
X294327320Y-124268140D01*
X294327333Y-123953720D01*
X294327333Y-115865334D01*
X305672666Y-115865334D01*
X305672666Y-123953720D01*
X305672958Y-125330458D01*
X305673929Y-126547772D01*
X305675728Y-127615570D01*
X305678500Y-128543760D01*
X305682393Y-129342251D01*
X305687553Y-130020951D01*
X305694128Y-130589768D01*
X305702263Y-131058610D01*
X305712107Y-131437385D01*
X305723805Y-131736003D01*
X305737504Y-131964371D01*
X305753352Y-132132397D01*
X305771494Y-132249989D01*
X305792079Y-132327057D01*
X305796908Y-132339457D01*
X305877252Y-132502945D01*
X306028484Y-132784586D01*
X306235256Y-133156805D01*
X306482219Y-133592025D01*
X306754027Y-134062671D01*
X306796743Y-134135905D01*
X306992525Y-134471192D01*
X307172703Y-134780035D01*
X307345720Y-135077035D01*
X307520025Y-135376792D01*
X307704063Y-135693906D01*
X307906280Y-136042978D01*
X308135123Y-136438610D01*
X308399037Y-136895400D01*
X308706468Y-137427950D01*
X309065863Y-138050861D01*
X309485668Y-138778733D01*
X309974328Y-139626167D01*
X310455673Y-140461000D01*
X310851511Y-141147308D01*
X311271509Y-141875080D01*
X311694761Y-142608119D01*
X312100364Y-143310232D01*
X312467411Y-143945224D01*
X312774999Y-144476898D01*
X312827358Y-144567334D01*
X313176702Y-145170833D01*
X313565083Y-145842115D01*
X313961042Y-146526786D01*
X314333122Y-147170452D01*
X314632921Y-147689376D01*
X315482449Y-149160418D01*
X318184609Y-149160418D01*
X318160365Y-149085527D01*
X318035170Y-148818355D01*
X317833308Y-148427103D01*
X317560344Y-147922131D01*
X317221838Y-147313799D01*
X316823354Y-146612466D01*
X316542303Y-146124579D01*
X316113942Y-145384246D01*
X315659780Y-144598784D01*
X315199232Y-143801809D01*
X314751715Y-143026935D01*
X314336642Y-142307778D01*
X313973432Y-141677953D01*
X313760115Y-141307667D01*
X313388900Y-140663203D01*
X312979987Y-139953802D01*
X312561186Y-139227672D01*
X312160304Y-138533021D01*
X311805148Y-137918059D01*
X311684516Y-137709334D01*
X311342769Y-137117920D01*
X310968710Y-136470159D01*
X310591714Y-135816946D01*
X310241157Y-135209181D01*
X309949816Y-134703667D01*
X309655771Y-134194386D01*
X309347718Y-133662958D01*
X309052724Y-133155937D01*
X308797855Y-132719878D01*
X308669945Y-132502334D01*
X308170333Y-131655667D01*
X308147477Y-123771472D01*
X308124622Y-115887276D01*
X308380700Y-115781205D01*
X308683079Y-115587783D01*
X308954300Y-115297604D01*
X309143032Y-114971953D01*
X309190544Y-114814329D01*
X309186792Y-114403897D01*
X309039490Y-114010697D01*
X308772819Y-113675228D01*
X308410955Y-113437986D01*
X308355321Y-113415387D01*
X308230736Y-113400077D01*
X307951176Y-113386123D01*
X307530993Y-113373523D01*
X306984539Y-113362279D01*
X306326168Y-113352390D01*
X305570231Y-113343856D01*
X304731082Y-113336677D01*
X303823072Y-113330853D01*
X302860554Y-113326385D01*
X301857882Y-113323272D01*
X300829406Y-113321513D01*
X299789480Y-113321110D01*
X298752457Y-113322061D01*
X298752457Y-113322061D01*
G37*
X298752457Y-113322061D02*
X297732688Y-113324368D01*
X296744527Y-113328029D01*
X295802326Y-113333046D01*
X294920437Y-113339417D01*
X294113213Y-113347144D01*
X293395006Y-113356226D01*
X292780169Y-113366664D01*
X292283055Y-113378456D01*
X291918016Y-113391603D01*
X291699404Y-113406106D01*
X291644678Y-113415387D01*
X291271659Y-113636021D01*
X290990520Y-113960431D01*
X290825440Y-114348117D01*
X290800598Y-114758582D01*
X290809455Y-114814329D01*
X290937344Y-115134548D01*
X291173427Y-115450145D01*
X291466346Y-115699780D01*
X291618887Y-115781034D01*
X291874554Y-115886935D01*
X291829666Y-131655667D01*
X291330054Y-132502334D01*
X291114413Y-132869695D01*
X290841575Y-133337380D01*
X290538606Y-133858835D01*
X290232574Y-134387506D01*
X290050183Y-134703667D01*
X289754511Y-135216693D01*
X289403414Y-135825390D01*
X289026265Y-136478863D01*
X288652442Y-137126211D01*
X288315483Y-137709334D01*
X287985824Y-138279932D01*
X287599544Y-138949106D01*
X287184450Y-139668646D01*
X286768350Y-140390345D01*
X286379052Y-141065994D01*
X286239884Y-141307667D01*
X285924617Y-141854806D01*
X285543875Y-142514848D01*
X285117073Y-143254176D01*
X284663628Y-144039176D01*
X284202954Y-144836232D01*
X283754468Y-145611730D01*
X283457697Y-146124579D01*
X283024082Y-146879485D01*
X282646920Y-147547956D01*
X282331775Y-148119633D01*
X282084209Y-148584154D01*
X281909782Y-148931161D01*
X281814059Y-149150295D01*
X281796666Y-149218261D01*
X281839540Y-149353329D01*
X281963978Y-149621372D01*
X282163712Y-150010594D01*
X282432470Y-150509200D01*
X282763982Y-151105393D01*
X283151977Y-151787378D01*
X283286776Y-152021349D01*
X283658878Y-152665819D01*
X284025446Y-153301559D01*
X284372430Y-153904138D01*
X284685777Y-154449125D01*
X284951438Y-154912088D01*
X285155360Y-155268596D01*
X285247188Y-155429976D01*
X285457696Y-155783317D01*
X285661751Y-156094552D01*
X285833029Y-156325188D01*
X285927497Y-156424809D01*
X285957487Y-156446183D01*
X285995758Y-156465628D01*
X286050066Y-156483238D01*
X286128166Y-156499102D01*
X286237813Y-156513312D01*
X286386763Y-156525959D01*
X286582771Y-156537133D01*
X286833594Y-156546927D01*
X287146986Y-156555430D01*
X287530704Y-156562735D01*
X287992502Y-156568931D01*
X288540137Y-156574110D01*
X289181363Y-156578364D01*
X289923937Y-156581782D01*
X290775614Y-156584457D01*
X291744150Y-156586479D01*
X292837300Y-156587939D01*
X294062819Y-156588928D01*
X295428464Y-156589538D01*
X296941989Y-156589859D01*
X298611151Y-156589983D01*
X300000000Y-156590000D01*
X301793639Y-156589967D01*
X303425701Y-156589805D01*
X304903940Y-156589425D01*
X306236113Y-156588734D01*
X307429975Y-156587643D01*
X308493281Y-156586060D01*
X309433787Y-156583893D01*
X310259249Y-156581053D01*
X310977422Y-156577447D01*
X311596061Y-156572985D01*
X312122923Y-156567576D01*
X312565762Y-156561129D01*
X312932335Y-156553552D01*
X313230397Y-156544755D01*
X313467703Y-156534647D01*
X313652009Y-156523136D01*
X313791071Y-156510132D01*
X313892643Y-156495543D01*
X313964483Y-156479279D01*
X314014344Y-156461248D01*
X314049984Y-156441359D01*
X314072503Y-156424809D01*
X314199534Y-156284557D01*
X314380036Y-156033445D01*
X314587685Y-155709967D01*
X314752811Y-155429976D01*
X314909709Y-155154659D01*
X315137363Y-154757207D01*
X315421722Y-154262053D01*
X315748734Y-153693627D01*
X316104348Y-153076360D01*
X316474514Y-152434684D01*
X316713223Y-152021349D01*
X317117937Y-151314448D01*
X317468171Y-150689573D01*
X317757653Y-150158517D01*
X317980114Y-149733077D01*
X318129282Y-149425049D01*
X318198887Y-149246229D01*
X318203333Y-149218261D01*
X318184609Y-149160418D01*
X315482449Y-149160418D01*
X315286893Y-149467376D01*
X315183393Y-149636953D01*
X315012816Y-149924503D01*
X314792161Y-150301012D01*
X314538432Y-150737468D01*
X314268630Y-151204859D01*
X314263564Y-151213667D01*
X313968649Y-151725994D01*
X313666252Y-152250500D01*
X313380383Y-152745591D01*
X313135056Y-153169675D01*
X312980459Y-153436167D01*
X312525127Y-154219334D01*
X287474873Y-154219334D01*
X287019541Y-153436167D01*
X286825618Y-153101767D01*
X286571384Y-152662116D01*
X286280850Y-152158804D01*
X285978028Y-151633425D01*
X285736436Y-151213667D01*
X285466449Y-150745901D01*
X285212173Y-150308462D01*
X284990623Y-149930382D01*
X284818811Y-149640692D01*
X284713753Y-149468425D01*
X284712561Y-149466552D01*
X284516460Y-149158770D01*
X285432724Y-147584754D01*
X285706135Y-147113093D01*
X285951686Y-146685740D01*
X286156086Y-146326129D01*
X286306046Y-146057698D01*
X286388276Y-145903881D01*
X286398503Y-145881702D01*
X286423806Y-145855321D01*
X286485950Y-145832737D01*
X286596954Y-145813665D01*
X286768839Y-145797816D01*
X287013622Y-145784904D01*
X287343325Y-145774643D01*
X287769965Y-145766745D01*
X288305564Y-145760924D01*
X288962139Y-145756892D01*
X289751711Y-145754363D01*
X290686300Y-145753051D01*
X291777923Y-145752667D01*
X297162079Y-145752667D01*
X295490706Y-147425608D01*
X294924937Y-147998409D01*
X294472576Y-148470505D01*
X294136413Y-148838809D01*
X293919239Y-149100236D01*
X293823848Y-149251700D01*
X293819333Y-149273257D01*
X293877892Y-149396230D01*
X294033791Y-149600231D01*
X294257363Y-149855022D01*
X294518943Y-150130368D01*
X294788865Y-150396032D01*
X295037462Y-150621778D01*
X295235068Y-150777369D01*
X295349330Y-150832667D01*
X295436180Y-150775040D01*
X295625763Y-150612356D01*
X295901690Y-150359912D01*
X296247577Y-150033003D01*
X296647037Y-149646926D01*
X297083684Y-149216977D01*
X297137675Y-149163288D01*
X298814666Y-147493909D01*
X298814666Y-152090377D01*
X299037751Y-152265855D01*
X299172310Y-152351807D01*
X299337501Y-152404694D01*
X299575913Y-152431957D01*
X299930138Y-152441034D01*
X300042333Y-152441334D01*
X300432340Y-152435655D01*
X300695837Y-152413660D01*
X300875414Y-152367909D01*
X301013662Y-152290962D01*
X301046915Y-152265855D01*
X301270000Y-152090377D01*
X301270000Y-147489962D01*
X302900627Y-149118981D01*
X303424271Y-149638190D01*
X303843454Y-150044332D01*
X304169757Y-150347660D01*
X304414762Y-150558430D01*
X304590047Y-150686895D01*
X304707194Y-150743311D01*
X304740254Y-150748000D01*
X304905416Y-150686191D01*
X305141218Y-150522075D01*
X305415522Y-150287624D01*
X305696189Y-150014807D01*
X305951080Y-149735594D01*
X306148056Y-149481956D01*
X306254978Y-149285862D01*
X306265333Y-149230931D01*
X306234421Y-149133322D01*
X306134928Y-148981278D01*
X305956718Y-148763314D01*
X305689654Y-148467948D01*
X305323601Y-148083697D01*
X304848423Y-147599077D01*
X304635905Y-147384982D01*
X303006478Y-145747743D01*
X305279669Y-145755396D01*
X305966987Y-145756786D01*
X306504973Y-145755028D01*
X306913618Y-145748992D01*
X307212911Y-145737545D01*
X307422842Y-145719558D01*
X307563402Y-145693900D01*
X307654580Y-145659441D01*
X307713431Y-145617735D01*
X307786036Y-145530774D01*
X307833158Y-145404583D01*
X307860021Y-145204754D01*
X307871849Y-144896881D01*
X307874000Y-144560356D01*
X307875200Y-144208217D01*
X307867214Y-143928303D01*
X307832656Y-143712348D01*
X307754143Y-143552087D01*
X307614293Y-143439256D01*
X307395722Y-143365588D01*
X307081047Y-143322820D01*
X306652883Y-143302686D01*
X306093849Y-143296921D01*
X305386560Y-143297260D01*
X305217563Y-143297334D01*
X303007295Y-143297334D01*
X304636314Y-141666706D01*
X305170660Y-141127096D01*
X305588996Y-140693482D01*
X305899473Y-140356718D01*
X306110242Y-140107658D01*
X306229456Y-139937157D01*
X306265333Y-139839044D01*
X306201821Y-139663111D01*
X306032910Y-139420400D01*
X305791034Y-139142495D01*
X305508630Y-138860980D01*
X305218133Y-138607442D01*
X304951980Y-138413462D01*
X304742604Y-138310627D01*
X304686863Y-138302000D01*
X304612827Y-138359446D01*
X304435148Y-138521634D01*
X304169691Y-138773343D01*
X303832321Y-139099350D01*
X303438903Y-139484434D01*
X303005302Y-139913371D01*
X302946992Y-139971379D01*
X301270000Y-141640758D01*
X301270000Y-139363003D01*
X301270639Y-138620224D01*
X301267294Y-138029400D01*
X301252071Y-137573196D01*
X301217075Y-137234279D01*
X301154413Y-136995314D01*
X301056190Y-136838968D01*
X300914512Y-136747907D01*
X300721486Y-136704796D01*
X300469217Y-136692302D01*
X300149810Y-136693091D01*
X300054198Y-136693334D01*
X299706615Y-136691870D01*
X299430751Y-136699134D01*
X299218346Y-136732607D01*
X299061142Y-136809771D01*
X298950879Y-136948108D01*
X298879298Y-137165099D01*
X298838140Y-137478227D01*
X298819144Y-137904973D01*
X298814052Y-138462818D01*
X298814605Y-139169245D01*
X298814666Y-139316931D01*
X298814666Y-141572344D01*
X297311833Y-140057593D01*
X296767507Y-139513814D01*
X296326204Y-139084662D01*
X295976371Y-138760081D01*
X295706455Y-138530014D01*
X295504901Y-138384405D01*
X295360157Y-138313198D01*
X295294859Y-138302000D01*
X295189426Y-138361784D01*
X295003894Y-138520869D01*
X294767029Y-138748853D01*
X294507597Y-139015338D01*
X294254361Y-139289921D01*
X294036088Y-139542202D01*
X293881543Y-139741781D01*
X293819492Y-139858257D01*
X293819333Y-139861410D01*
X293881537Y-139983101D01*
X294066218Y-140215409D01*
X294370482Y-140555131D01*
X294791433Y-140999063D01*
X295326176Y-141544001D01*
X295469559Y-141687892D01*
X297119785Y-143339667D01*
X292506226Y-143339667D01*
X291640053Y-143339413D01*
X290826866Y-143338683D01*
X290082019Y-143337525D01*
X289420869Y-143335985D01*
X288858772Y-143334112D01*
X288411082Y-143331953D01*
X288093157Y-143329555D01*
X287920350Y-143326966D01*
X287892666Y-143325404D01*
X287933504Y-143251494D01*
X288049721Y-143047450D01*
X288231876Y-142729695D01*
X288470525Y-142314651D01*
X288756225Y-141818740D01*
X289079534Y-141258386D01*
X289426157Y-140658404D01*
X289815447Y-139984922D01*
X290209844Y-139302492D01*
X290593397Y-138638723D01*
X290950154Y-138021223D01*
X291264166Y-137477600D01*
X291519479Y-137035465D01*
X291643655Y-136820334D01*
X291917629Y-136346577D01*
X292247151Y-135778368D01*
X292602200Y-135167376D01*
X292952757Y-134565272D01*
X293203257Y-134135905D01*
X293477507Y-133662277D01*
X293729256Y-133219864D01*
X293943157Y-132836243D01*
X294103861Y-132538988D01*
X294196021Y-132355677D01*
X294203092Y-132339457D01*
X294224228Y-132269914D01*
X294242891Y-132162006D01*
X294259227Y-132005827D01*
X294273382Y-131791467D01*
X294285505Y-131509019D01*
X294295740Y-131148574D01*
X294304236Y-130700224D01*
X294311138Y-130154061D01*
X294316594Y-129500176D01*
X294320751Y-128728661D01*
X294323756Y-127829609D01*
X294325754Y-126793110D01*
X294326893Y-125609256D01*
X294327320Y-124268140D01*
X294327333Y-123953720D01*
X294327333Y-115865334D01*
X305672666Y-115865334D01*
X305672666Y-123953720D01*
X305672958Y-125330458D01*
X305673929Y-126547772D01*
X305675728Y-127615570D01*
X305678500Y-128543760D01*
X305682393Y-129342251D01*
X305687553Y-130020951D01*
X305694128Y-130589768D01*
X305702263Y-131058610D01*
X305712107Y-131437385D01*
X305723805Y-131736003D01*
X305737504Y-131964371D01*
X305753352Y-132132397D01*
X305771494Y-132249989D01*
X305792079Y-132327057D01*
X305796908Y-132339457D01*
X305877252Y-132502945D01*
X306028484Y-132784586D01*
X306235256Y-133156805D01*
X306482219Y-133592025D01*
X306754027Y-134062671D01*
X306796743Y-134135905D01*
X306992525Y-134471192D01*
X307172703Y-134780035D01*
X307345720Y-135077035D01*
X307520025Y-135376792D01*
X307704063Y-135693906D01*
X307906280Y-136042978D01*
X308135123Y-136438610D01*
X308399037Y-136895400D01*
X308706468Y-137427950D01*
X309065863Y-138050861D01*
X309485668Y-138778733D01*
X309974328Y-139626167D01*
X310455673Y-140461000D01*
X310851511Y-141147308D01*
X311271509Y-141875080D01*
X311694761Y-142608119D01*
X312100364Y-143310232D01*
X312467411Y-143945224D01*
X312774999Y-144476898D01*
X312827358Y-144567334D01*
X313176702Y-145170833D01*
X313565083Y-145842115D01*
X313961042Y-146526786D01*
X314333122Y-147170452D01*
X314632921Y-147689376D01*
X315482449Y-149160418D01*
X318184609Y-149160418D01*
X318160365Y-149085527D01*
X318035170Y-148818355D01*
X317833308Y-148427103D01*
X317560344Y-147922131D01*
X317221838Y-147313799D01*
X316823354Y-146612466D01*
X316542303Y-146124579D01*
X316113942Y-145384246D01*
X315659780Y-144598784D01*
X315199232Y-143801809D01*
X314751715Y-143026935D01*
X314336642Y-142307778D01*
X313973432Y-141677953D01*
X313760115Y-141307667D01*
X313388900Y-140663203D01*
X312979987Y-139953802D01*
X312561186Y-139227672D01*
X312160304Y-138533021D01*
X311805148Y-137918059D01*
X311684516Y-137709334D01*
X311342769Y-137117920D01*
X310968710Y-136470159D01*
X310591714Y-135816946D01*
X310241157Y-135209181D01*
X309949816Y-134703667D01*
X309655771Y-134194386D01*
X309347718Y-133662958D01*
X309052724Y-133155937D01*
X308797855Y-132719878D01*
X308669945Y-132502334D01*
X308170333Y-131655667D01*
X308147477Y-123771472D01*
X308124622Y-115887276D01*
X308380700Y-115781205D01*
X308683079Y-115587783D01*
X308954300Y-115297604D01*
X309143032Y-114971953D01*
X309190544Y-114814329D01*
X309186792Y-114403897D01*
X309039490Y-114010697D01*
X308772819Y-113675228D01*
X308410955Y-113437986D01*
X308355321Y-113415387D01*
X308230736Y-113400077D01*
X307951176Y-113386123D01*
X307530993Y-113373523D01*
X306984539Y-113362279D01*
X306326168Y-113352390D01*
X305570231Y-113343856D01*
X304731082Y-113336677D01*
X303823072Y-113330853D01*
X302860554Y-113326385D01*
X301857882Y-113323272D01*
X300829406Y-113321513D01*
X299789480Y-113321110D01*
X298752457Y-113322061D01*
M02*
