G04 #@! TF.FileFunction,Legend,Bot*
%FSLAX46Y46*%
G04 Gerber Fmt 4.6, Leading zero omitted, Abs format (unit mm)*
G04 Created by KiCad (PCBNEW 4.0.4-1.fc24-product) date Wed Jul  5 07:31:47 2017*
%MOMM*%
%LPD*%
G01*
G04 APERTURE LIST*
%ADD10C,0.100000*%
%ADD11C,0.187500*%
%ADD12C,0.400000*%
%ADD13C,1.000000*%
%ADD14C,0.300000*%
%ADD15C,0.010000*%
%ADD16C,0.002540*%
G04 APERTURE END LIST*
D10*
D11*
X301446429Y-95589286D02*
X301446429Y-94839286D01*
X301089286Y-95589286D02*
X301089286Y-94839286D01*
X300660714Y-95589286D01*
X300660714Y-94839286D01*
X300303572Y-95589286D02*
X300303572Y-94839286D01*
X300017857Y-94839286D01*
X299946429Y-94875000D01*
X299910714Y-94910714D01*
X299875000Y-94982143D01*
X299875000Y-95089286D01*
X299910714Y-95160714D01*
X299946429Y-95196429D01*
X300017857Y-95232143D01*
X300303572Y-95232143D01*
X299553572Y-94839286D02*
X299553572Y-95446429D01*
X299517857Y-95517857D01*
X299482143Y-95553571D01*
X299410714Y-95589286D01*
X299267857Y-95589286D01*
X299196429Y-95553571D01*
X299160714Y-95517857D01*
X299125000Y-95446429D01*
X299125000Y-94839286D01*
X298875000Y-94839286D02*
X298446429Y-94839286D01*
X298660715Y-95589286D02*
X298660715Y-94839286D01*
X301803571Y-304589286D02*
X301660714Y-304589286D01*
X301589286Y-304625000D01*
X301517857Y-304696429D01*
X301482143Y-304839286D01*
X301482143Y-305089286D01*
X301517857Y-305232143D01*
X301589286Y-305303571D01*
X301660714Y-305339286D01*
X301803571Y-305339286D01*
X301875000Y-305303571D01*
X301946429Y-305232143D01*
X301982143Y-305089286D01*
X301982143Y-304839286D01*
X301946429Y-304696429D01*
X301875000Y-304625000D01*
X301803571Y-304589286D01*
X301160715Y-304589286D02*
X301160715Y-305196429D01*
X301125000Y-305267857D01*
X301089286Y-305303571D01*
X301017857Y-305339286D01*
X300875000Y-305339286D01*
X300803572Y-305303571D01*
X300767857Y-305267857D01*
X300732143Y-305196429D01*
X300732143Y-304589286D01*
X300482143Y-304589286D02*
X300053572Y-304589286D01*
X300267858Y-305339286D02*
X300267858Y-304589286D01*
X299803572Y-305339286D02*
X299803572Y-304589286D01*
X299517857Y-304589286D01*
X299446429Y-304625000D01*
X299410714Y-304660714D01*
X299375000Y-304732143D01*
X299375000Y-304839286D01*
X299410714Y-304910714D01*
X299446429Y-304946429D01*
X299517857Y-304982143D01*
X299803572Y-304982143D01*
X299053572Y-304589286D02*
X299053572Y-305196429D01*
X299017857Y-305267857D01*
X298982143Y-305303571D01*
X298910714Y-305339286D01*
X298767857Y-305339286D01*
X298696429Y-305303571D01*
X298660714Y-305267857D01*
X298625000Y-305196429D01*
X298625000Y-304589286D01*
X298375000Y-304589286D02*
X297946429Y-304589286D01*
X298160715Y-305339286D02*
X298160715Y-304589286D01*
D12*
X371952382Y-182204762D02*
X372619049Y-181252381D01*
X373095240Y-182204762D02*
X373095240Y-180204762D01*
X372333335Y-180204762D01*
X372142859Y-180300000D01*
X372047620Y-180395238D01*
X371952382Y-180585714D01*
X371952382Y-180871429D01*
X372047620Y-181061905D01*
X372142859Y-181157143D01*
X372333335Y-181252381D01*
X373095240Y-181252381D01*
X371095240Y-182204762D02*
X371095240Y-180871429D01*
X371095240Y-180204762D02*
X371190478Y-180300000D01*
X371095240Y-180395238D01*
X371000001Y-180300000D01*
X371095240Y-180204762D01*
X371095240Y-180395238D01*
X370142859Y-180871429D02*
X370142859Y-182204762D01*
X370142859Y-181061905D02*
X370047620Y-180966667D01*
X369857144Y-180871429D01*
X369571430Y-180871429D01*
X369380954Y-180966667D01*
X369285716Y-181157143D01*
X369285716Y-182204762D01*
X367476192Y-180871429D02*
X367476192Y-182490476D01*
X367571430Y-182680952D01*
X367666668Y-182776190D01*
X367857144Y-182871429D01*
X368142858Y-182871429D01*
X368333335Y-182776190D01*
X367476192Y-182109524D02*
X367666668Y-182204762D01*
X368047620Y-182204762D01*
X368238096Y-182109524D01*
X368333335Y-182014286D01*
X368428573Y-181823810D01*
X368428573Y-181252381D01*
X368333335Y-181061905D01*
X368238096Y-180966667D01*
X368047620Y-180871429D01*
X367666668Y-180871429D01*
X367476192Y-180966667D01*
X365000001Y-182204762D02*
X365000001Y-180204762D01*
X364238096Y-180204762D01*
X364047620Y-180300000D01*
X363952381Y-180395238D01*
X363857143Y-180585714D01*
X363857143Y-180871429D01*
X363952381Y-181061905D01*
X364047620Y-181157143D01*
X364238096Y-181252381D01*
X365000001Y-181252381D01*
X363000001Y-182204762D02*
X363000001Y-180871429D01*
X363000001Y-180204762D02*
X363095239Y-180300000D01*
X363000001Y-180395238D01*
X362904762Y-180300000D01*
X363000001Y-180204762D01*
X363000001Y-180395238D01*
X362238096Y-182204762D02*
X361190477Y-180871429D01*
X362238096Y-180871429D02*
X361190477Y-182204762D01*
X359666667Y-182109524D02*
X359857143Y-182204762D01*
X360238095Y-182204762D01*
X360428572Y-182109524D01*
X360523810Y-181919048D01*
X360523810Y-181157143D01*
X360428572Y-180966667D01*
X360238095Y-180871429D01*
X359857143Y-180871429D01*
X359666667Y-180966667D01*
X359571429Y-181157143D01*
X359571429Y-181347619D01*
X360523810Y-181538095D01*
X358428571Y-182204762D02*
X358619047Y-182109524D01*
X358714286Y-181919048D01*
X358714286Y-180204762D01*
X354999999Y-182014286D02*
X355095237Y-182109524D01*
X355380952Y-182204762D01*
X355571428Y-182204762D01*
X355857142Y-182109524D01*
X356047618Y-181919048D01*
X356142857Y-181728571D01*
X356238095Y-181347619D01*
X356238095Y-181061905D01*
X356142857Y-180680952D01*
X356047618Y-180490476D01*
X355857142Y-180300000D01*
X355571428Y-180204762D01*
X355380952Y-180204762D01*
X355095237Y-180300000D01*
X354999999Y-180395238D01*
X353857142Y-182204762D02*
X354047618Y-182109524D01*
X354142857Y-182014286D01*
X354238095Y-181823810D01*
X354238095Y-181252381D01*
X354142857Y-181061905D01*
X354047618Y-180966667D01*
X353857142Y-180871429D01*
X353571428Y-180871429D01*
X353380952Y-180966667D01*
X353285714Y-181061905D01*
X353190476Y-181252381D01*
X353190476Y-181823810D01*
X353285714Y-182014286D01*
X353380952Y-182109524D01*
X353571428Y-182204762D01*
X353857142Y-182204762D01*
X351476190Y-180871429D02*
X351476190Y-182204762D01*
X352333333Y-180871429D02*
X352333333Y-181919048D01*
X352238094Y-182109524D01*
X352047618Y-182204762D01*
X351761904Y-182204762D01*
X351571428Y-182109524D01*
X351476190Y-182014286D01*
X350523809Y-180871429D02*
X350523809Y-182204762D01*
X350523809Y-181061905D02*
X350428570Y-180966667D01*
X350238094Y-180871429D01*
X349952380Y-180871429D01*
X349761904Y-180966667D01*
X349666666Y-181157143D01*
X349666666Y-182204762D01*
X348999999Y-180871429D02*
X348238094Y-180871429D01*
X348714285Y-180204762D02*
X348714285Y-181919048D01*
X348619046Y-182109524D01*
X348428570Y-182204762D01*
X348238094Y-182204762D01*
X347666666Y-182109524D02*
X347476189Y-182204762D01*
X347095237Y-182204762D01*
X346904761Y-182109524D01*
X346809523Y-181919048D01*
X346809523Y-181823810D01*
X346904761Y-181633333D01*
X347095237Y-181538095D01*
X347380951Y-181538095D01*
X347571428Y-181442857D01*
X347666666Y-181252381D01*
X347666666Y-181157143D01*
X347571428Y-180966667D01*
X347380951Y-180871429D01*
X347095237Y-180871429D01*
X346904761Y-180966667D01*
X362571428Y-185604762D02*
X363714286Y-185604762D01*
X363142857Y-185604762D02*
X363142857Y-183604762D01*
X363333333Y-183890476D01*
X363523809Y-184080952D01*
X363714286Y-184176190D01*
X361714286Y-185414286D02*
X361619047Y-185509524D01*
X361714286Y-185604762D01*
X361809524Y-185509524D01*
X361714286Y-185414286D01*
X361714286Y-185604762D01*
X361714286Y-184366667D02*
X361619047Y-184461905D01*
X361714286Y-184557143D01*
X361809524Y-184461905D01*
X361714286Y-184366667D01*
X361714286Y-184557143D01*
X358380952Y-183604762D02*
X358761904Y-183604762D01*
X358952380Y-183700000D01*
X359047618Y-183795238D01*
X359238095Y-184080952D01*
X359333333Y-184461905D01*
X359333333Y-185223810D01*
X359238095Y-185414286D01*
X359142856Y-185509524D01*
X358952380Y-185604762D01*
X358571428Y-185604762D01*
X358380952Y-185509524D01*
X358285714Y-185414286D01*
X358190475Y-185223810D01*
X358190475Y-184747619D01*
X358285714Y-184557143D01*
X358380952Y-184461905D01*
X358571428Y-184366667D01*
X358952380Y-184366667D01*
X359142856Y-184461905D01*
X359238095Y-184557143D01*
X359333333Y-184747619D01*
X356952380Y-183604762D02*
X356761904Y-183604762D01*
X356571428Y-183700000D01*
X356476190Y-183795238D01*
X356380952Y-183985714D01*
X356285713Y-184366667D01*
X356285713Y-184842857D01*
X356380952Y-185223810D01*
X356476190Y-185414286D01*
X356571428Y-185509524D01*
X356761904Y-185604762D01*
X356952380Y-185604762D01*
X357142856Y-185509524D01*
X357238094Y-185414286D01*
X357333333Y-185223810D01*
X357428571Y-184842857D01*
X357428571Y-184366667D01*
X357333333Y-183985714D01*
X357238094Y-183795238D01*
X357142856Y-183700000D01*
X356952380Y-183604762D01*
X363714286Y-187195238D02*
X363619048Y-187100000D01*
X363428571Y-187004762D01*
X362952381Y-187004762D01*
X362761905Y-187100000D01*
X362666667Y-187195238D01*
X362571428Y-187385714D01*
X362571428Y-187576190D01*
X362666667Y-187861905D01*
X363809524Y-189004762D01*
X362571428Y-189004762D01*
X361714286Y-188814286D02*
X361619047Y-188909524D01*
X361714286Y-189004762D01*
X361809524Y-188909524D01*
X361714286Y-188814286D01*
X361714286Y-189004762D01*
X361714286Y-187766667D02*
X361619047Y-187861905D01*
X361714286Y-187957143D01*
X361809524Y-187861905D01*
X361714286Y-187766667D01*
X361714286Y-187957143D01*
X358380952Y-187004762D02*
X358761904Y-187004762D01*
X358952380Y-187100000D01*
X359047618Y-187195238D01*
X359238095Y-187480952D01*
X359333333Y-187861905D01*
X359333333Y-188623810D01*
X359238095Y-188814286D01*
X359142856Y-188909524D01*
X358952380Y-189004762D01*
X358571428Y-189004762D01*
X358380952Y-188909524D01*
X358285714Y-188814286D01*
X358190475Y-188623810D01*
X358190475Y-188147619D01*
X358285714Y-187957143D01*
X358380952Y-187861905D01*
X358571428Y-187766667D01*
X358952380Y-187766667D01*
X359142856Y-187861905D01*
X359238095Y-187957143D01*
X359333333Y-188147619D01*
X356952380Y-187004762D02*
X356761904Y-187004762D01*
X356571428Y-187100000D01*
X356476190Y-187195238D01*
X356380952Y-187385714D01*
X356285713Y-187766667D01*
X356285713Y-188242857D01*
X356380952Y-188623810D01*
X356476190Y-188814286D01*
X356571428Y-188909524D01*
X356761904Y-189004762D01*
X356952380Y-189004762D01*
X357142856Y-188909524D01*
X357238094Y-188814286D01*
X357333333Y-188623810D01*
X357428571Y-188242857D01*
X357428571Y-187766667D01*
X357333333Y-187385714D01*
X357238094Y-187195238D01*
X357142856Y-187100000D01*
X356952380Y-187004762D01*
X363809524Y-190404762D02*
X362571428Y-190404762D01*
X363238095Y-191166667D01*
X362952381Y-191166667D01*
X362761905Y-191261905D01*
X362666667Y-191357143D01*
X362571428Y-191547619D01*
X362571428Y-192023810D01*
X362666667Y-192214286D01*
X362761905Y-192309524D01*
X362952381Y-192404762D01*
X363523809Y-192404762D01*
X363714286Y-192309524D01*
X363809524Y-192214286D01*
X361714286Y-192214286D02*
X361619047Y-192309524D01*
X361714286Y-192404762D01*
X361809524Y-192309524D01*
X361714286Y-192214286D01*
X361714286Y-192404762D01*
X361714286Y-191166667D02*
X361619047Y-191261905D01*
X361714286Y-191357143D01*
X361809524Y-191261905D01*
X361714286Y-191166667D01*
X361714286Y-191357143D01*
X358380952Y-191071429D02*
X358380952Y-192404762D01*
X358857142Y-190309524D02*
X359333333Y-191738095D01*
X358095237Y-191738095D01*
X357047618Y-191261905D02*
X357238094Y-191166667D01*
X357333333Y-191071429D01*
X357428571Y-190880952D01*
X357428571Y-190785714D01*
X357333333Y-190595238D01*
X357238094Y-190500000D01*
X357047618Y-190404762D01*
X356666666Y-190404762D01*
X356476190Y-190500000D01*
X356380952Y-190595238D01*
X356285713Y-190785714D01*
X356285713Y-190880952D01*
X356380952Y-191071429D01*
X356476190Y-191166667D01*
X356666666Y-191261905D01*
X357047618Y-191261905D01*
X357238094Y-191357143D01*
X357333333Y-191452381D01*
X357428571Y-191642857D01*
X357428571Y-192023810D01*
X357333333Y-192214286D01*
X357238094Y-192309524D01*
X357047618Y-192404762D01*
X356666666Y-192404762D01*
X356476190Y-192309524D01*
X356380952Y-192214286D01*
X356285713Y-192023810D01*
X356285713Y-191642857D01*
X356380952Y-191452381D01*
X356476190Y-191357143D01*
X356666666Y-191261905D01*
X362761905Y-194471429D02*
X362761905Y-195804762D01*
X363238095Y-193709524D02*
X363714286Y-195138095D01*
X362476190Y-195138095D01*
X361714286Y-195614286D02*
X361619047Y-195709524D01*
X361714286Y-195804762D01*
X361809524Y-195709524D01*
X361714286Y-195614286D01*
X361714286Y-195804762D01*
X361714286Y-194566667D02*
X361619047Y-194661905D01*
X361714286Y-194757143D01*
X361809524Y-194661905D01*
X361714286Y-194566667D01*
X361714286Y-194757143D01*
X358380952Y-194471429D02*
X358380952Y-195804762D01*
X358857142Y-193709524D02*
X359333333Y-195138095D01*
X358095237Y-195138095D01*
X357047618Y-194661905D02*
X357238094Y-194566667D01*
X357333333Y-194471429D01*
X357428571Y-194280952D01*
X357428571Y-194185714D01*
X357333333Y-193995238D01*
X357238094Y-193900000D01*
X357047618Y-193804762D01*
X356666666Y-193804762D01*
X356476190Y-193900000D01*
X356380952Y-193995238D01*
X356285713Y-194185714D01*
X356285713Y-194280952D01*
X356380952Y-194471429D01*
X356476190Y-194566667D01*
X356666666Y-194661905D01*
X357047618Y-194661905D01*
X357238094Y-194757143D01*
X357333333Y-194852381D01*
X357428571Y-195042857D01*
X357428571Y-195423810D01*
X357333333Y-195614286D01*
X357238094Y-195709524D01*
X357047618Y-195804762D01*
X356666666Y-195804762D01*
X356476190Y-195709524D01*
X356380952Y-195614286D01*
X356285713Y-195423810D01*
X356285713Y-195042857D01*
X356380952Y-194852381D01*
X356476190Y-194757143D01*
X356666666Y-194661905D01*
X362666667Y-197204762D02*
X363619048Y-197204762D01*
X363714286Y-198157143D01*
X363619048Y-198061905D01*
X363428571Y-197966667D01*
X362952381Y-197966667D01*
X362761905Y-198061905D01*
X362666667Y-198157143D01*
X362571428Y-198347619D01*
X362571428Y-198823810D01*
X362666667Y-199014286D01*
X362761905Y-199109524D01*
X362952381Y-199204762D01*
X363428571Y-199204762D01*
X363619048Y-199109524D01*
X363714286Y-199014286D01*
X361714286Y-199014286D02*
X361619047Y-199109524D01*
X361714286Y-199204762D01*
X361809524Y-199109524D01*
X361714286Y-199014286D01*
X361714286Y-199204762D01*
X361714286Y-197966667D02*
X361619047Y-198061905D01*
X361714286Y-198157143D01*
X361809524Y-198061905D01*
X361714286Y-197966667D01*
X361714286Y-198157143D01*
X359428571Y-197204762D02*
X358190475Y-197204762D01*
X358857142Y-197966667D01*
X358571428Y-197966667D01*
X358380952Y-198061905D01*
X358285714Y-198157143D01*
X358190475Y-198347619D01*
X358190475Y-198823810D01*
X358285714Y-199014286D01*
X358380952Y-199109524D01*
X358571428Y-199204762D01*
X359142856Y-199204762D01*
X359333333Y-199109524D01*
X359428571Y-199014286D01*
X356952380Y-197204762D02*
X356761904Y-197204762D01*
X356571428Y-197300000D01*
X356476190Y-197395238D01*
X356380952Y-197585714D01*
X356285713Y-197966667D01*
X356285713Y-198442857D01*
X356380952Y-198823810D01*
X356476190Y-199014286D01*
X356571428Y-199109524D01*
X356761904Y-199204762D01*
X356952380Y-199204762D01*
X357142856Y-199109524D01*
X357238094Y-199014286D01*
X357333333Y-198823810D01*
X357428571Y-198442857D01*
X357428571Y-197966667D01*
X357333333Y-197585714D01*
X357238094Y-197395238D01*
X357142856Y-197300000D01*
X356952380Y-197204762D01*
X362761905Y-200604762D02*
X363142857Y-200604762D01*
X363333333Y-200700000D01*
X363428571Y-200795238D01*
X363619048Y-201080952D01*
X363714286Y-201461905D01*
X363714286Y-202223810D01*
X363619048Y-202414286D01*
X363523809Y-202509524D01*
X363333333Y-202604762D01*
X362952381Y-202604762D01*
X362761905Y-202509524D01*
X362666667Y-202414286D01*
X362571428Y-202223810D01*
X362571428Y-201747619D01*
X362666667Y-201557143D01*
X362761905Y-201461905D01*
X362952381Y-201366667D01*
X363333333Y-201366667D01*
X363523809Y-201461905D01*
X363619048Y-201557143D01*
X363714286Y-201747619D01*
X361714286Y-202414286D02*
X361619047Y-202509524D01*
X361714286Y-202604762D01*
X361809524Y-202509524D01*
X361714286Y-202414286D01*
X361714286Y-202604762D01*
X361714286Y-201366667D02*
X361619047Y-201461905D01*
X361714286Y-201557143D01*
X361809524Y-201461905D01*
X361714286Y-201366667D01*
X361714286Y-201557143D01*
X359428571Y-200604762D02*
X358190475Y-200604762D01*
X358857142Y-201366667D01*
X358571428Y-201366667D01*
X358380952Y-201461905D01*
X358285714Y-201557143D01*
X358190475Y-201747619D01*
X358190475Y-202223810D01*
X358285714Y-202414286D01*
X358380952Y-202509524D01*
X358571428Y-202604762D01*
X359142856Y-202604762D01*
X359333333Y-202509524D01*
X359428571Y-202414286D01*
X356952380Y-200604762D02*
X356761904Y-200604762D01*
X356571428Y-200700000D01*
X356476190Y-200795238D01*
X356380952Y-200985714D01*
X356285713Y-201366667D01*
X356285713Y-201842857D01*
X356380952Y-202223810D01*
X356476190Y-202414286D01*
X356571428Y-202509524D01*
X356761904Y-202604762D01*
X356952380Y-202604762D01*
X357142856Y-202509524D01*
X357238094Y-202414286D01*
X357333333Y-202223810D01*
X357428571Y-201842857D01*
X357428571Y-201366667D01*
X357333333Y-200985714D01*
X357238094Y-200795238D01*
X357142856Y-200700000D01*
X356952380Y-200604762D01*
X363809524Y-204004762D02*
X362476190Y-204004762D01*
X363333333Y-206004762D01*
X361714286Y-205814286D02*
X361619047Y-205909524D01*
X361714286Y-206004762D01*
X361809524Y-205909524D01*
X361714286Y-205814286D01*
X361714286Y-206004762D01*
X361714286Y-204766667D02*
X361619047Y-204861905D01*
X361714286Y-204957143D01*
X361809524Y-204861905D01*
X361714286Y-204766667D01*
X361714286Y-204957143D01*
X359333333Y-204195238D02*
X359238095Y-204100000D01*
X359047618Y-204004762D01*
X358571428Y-204004762D01*
X358380952Y-204100000D01*
X358285714Y-204195238D01*
X358190475Y-204385714D01*
X358190475Y-204576190D01*
X358285714Y-204861905D01*
X359428571Y-206004762D01*
X358190475Y-206004762D01*
X356476190Y-204671429D02*
X356476190Y-206004762D01*
X356952380Y-203909524D02*
X357428571Y-205338095D01*
X356190475Y-205338095D01*
X363333333Y-208261905D02*
X363523809Y-208166667D01*
X363619048Y-208071429D01*
X363714286Y-207880952D01*
X363714286Y-207785714D01*
X363619048Y-207595238D01*
X363523809Y-207500000D01*
X363333333Y-207404762D01*
X362952381Y-207404762D01*
X362761905Y-207500000D01*
X362666667Y-207595238D01*
X362571428Y-207785714D01*
X362571428Y-207880952D01*
X362666667Y-208071429D01*
X362761905Y-208166667D01*
X362952381Y-208261905D01*
X363333333Y-208261905D01*
X363523809Y-208357143D01*
X363619048Y-208452381D01*
X363714286Y-208642857D01*
X363714286Y-209023810D01*
X363619048Y-209214286D01*
X363523809Y-209309524D01*
X363333333Y-209404762D01*
X362952381Y-209404762D01*
X362761905Y-209309524D01*
X362666667Y-209214286D01*
X362571428Y-209023810D01*
X362571428Y-208642857D01*
X362666667Y-208452381D01*
X362761905Y-208357143D01*
X362952381Y-208261905D01*
X361714286Y-209214286D02*
X361619047Y-209309524D01*
X361714286Y-209404762D01*
X361809524Y-209309524D01*
X361714286Y-209214286D01*
X361714286Y-209404762D01*
X361714286Y-208166667D02*
X361619047Y-208261905D01*
X361714286Y-208357143D01*
X361809524Y-208261905D01*
X361714286Y-208166667D01*
X361714286Y-208357143D01*
X358190475Y-209404762D02*
X359333333Y-209404762D01*
X358761904Y-209404762D02*
X358761904Y-207404762D01*
X358952380Y-207690476D01*
X359142856Y-207880952D01*
X359333333Y-207976190D01*
X357428571Y-207595238D02*
X357333333Y-207500000D01*
X357142856Y-207404762D01*
X356666666Y-207404762D01*
X356476190Y-207500000D01*
X356380952Y-207595238D01*
X356285713Y-207785714D01*
X356285713Y-207976190D01*
X356380952Y-208261905D01*
X357523809Y-209404762D01*
X356285713Y-209404762D01*
X363523809Y-212804762D02*
X363142857Y-212804762D01*
X362952381Y-212709524D01*
X362857143Y-212614286D01*
X362666667Y-212328571D01*
X362571428Y-211947619D01*
X362571428Y-211185714D01*
X362666667Y-210995238D01*
X362761905Y-210900000D01*
X362952381Y-210804762D01*
X363333333Y-210804762D01*
X363523809Y-210900000D01*
X363619048Y-210995238D01*
X363714286Y-211185714D01*
X363714286Y-211661905D01*
X363619048Y-211852381D01*
X363523809Y-211947619D01*
X363333333Y-212042857D01*
X362952381Y-212042857D01*
X362761905Y-211947619D01*
X362666667Y-211852381D01*
X362571428Y-211661905D01*
X361714286Y-212614286D02*
X361619047Y-212709524D01*
X361714286Y-212804762D01*
X361809524Y-212709524D01*
X361714286Y-212614286D01*
X361714286Y-212804762D01*
X361714286Y-211566667D02*
X361619047Y-211661905D01*
X361714286Y-211757143D01*
X361809524Y-211661905D01*
X361714286Y-211566667D01*
X361714286Y-211757143D01*
X358190475Y-212804762D02*
X359333333Y-212804762D01*
X358761904Y-212804762D02*
X358761904Y-210804762D01*
X358952380Y-211090476D01*
X359142856Y-211280952D01*
X359333333Y-211376190D01*
X357428571Y-210995238D02*
X357333333Y-210900000D01*
X357142856Y-210804762D01*
X356666666Y-210804762D01*
X356476190Y-210900000D01*
X356380952Y-210995238D01*
X356285713Y-211185714D01*
X356285713Y-211376190D01*
X356380952Y-211661905D01*
X357523809Y-212804762D01*
X356285713Y-212804762D01*
X362571428Y-216204762D02*
X363714286Y-216204762D01*
X363142857Y-216204762D02*
X363142857Y-214204762D01*
X363333333Y-214490476D01*
X363523809Y-214680952D01*
X363714286Y-214776190D01*
X361333333Y-214204762D02*
X361142857Y-214204762D01*
X360952381Y-214300000D01*
X360857143Y-214395238D01*
X360761905Y-214585714D01*
X360666666Y-214966667D01*
X360666666Y-215442857D01*
X360761905Y-215823810D01*
X360857143Y-216014286D01*
X360952381Y-216109524D01*
X361142857Y-216204762D01*
X361333333Y-216204762D01*
X361523809Y-216109524D01*
X361619047Y-216014286D01*
X361714286Y-215823810D01*
X361809524Y-215442857D01*
X361809524Y-214966667D01*
X361714286Y-214585714D01*
X361619047Y-214395238D01*
X361523809Y-214300000D01*
X361333333Y-214204762D01*
X359809524Y-216014286D02*
X359714285Y-216109524D01*
X359809524Y-216204762D01*
X359904762Y-216109524D01*
X359809524Y-216014286D01*
X359809524Y-216204762D01*
X359809524Y-214966667D02*
X359714285Y-215061905D01*
X359809524Y-215157143D01*
X359904762Y-215061905D01*
X359809524Y-214966667D01*
X359809524Y-215157143D01*
X356476190Y-214204762D02*
X356857142Y-214204762D01*
X357047618Y-214300000D01*
X357142856Y-214395238D01*
X357333333Y-214680952D01*
X357428571Y-215061905D01*
X357428571Y-215823810D01*
X357333333Y-216014286D01*
X357238094Y-216109524D01*
X357047618Y-216204762D01*
X356666666Y-216204762D01*
X356476190Y-216109524D01*
X356380952Y-216014286D01*
X356285713Y-215823810D01*
X356285713Y-215347619D01*
X356380952Y-215157143D01*
X356476190Y-215061905D01*
X356666666Y-214966667D01*
X357047618Y-214966667D01*
X357238094Y-215061905D01*
X357333333Y-215157143D01*
X357428571Y-215347619D01*
X362571428Y-219604762D02*
X363714286Y-219604762D01*
X363142857Y-219604762D02*
X363142857Y-217604762D01*
X363333333Y-217890476D01*
X363523809Y-218080952D01*
X363714286Y-218176190D01*
X360666666Y-219604762D02*
X361809524Y-219604762D01*
X361238095Y-219604762D02*
X361238095Y-217604762D01*
X361428571Y-217890476D01*
X361619047Y-218080952D01*
X361809524Y-218176190D01*
X359809524Y-219414286D02*
X359714285Y-219509524D01*
X359809524Y-219604762D01*
X359904762Y-219509524D01*
X359809524Y-219414286D01*
X359809524Y-219604762D01*
X359809524Y-218366667D02*
X359714285Y-218461905D01*
X359809524Y-218557143D01*
X359904762Y-218461905D01*
X359809524Y-218366667D01*
X359809524Y-218557143D01*
X356285713Y-219604762D02*
X357428571Y-219604762D01*
X356857142Y-219604762D02*
X356857142Y-217604762D01*
X357047618Y-217890476D01*
X357238094Y-218080952D01*
X357428571Y-218176190D01*
D13*
X322166666Y-263166667D02*
X322166666Y-256166667D01*
X319500000Y-256166667D01*
X318833333Y-256500000D01*
X318500000Y-256833333D01*
X318166666Y-257500000D01*
X318166666Y-258500000D01*
X318500000Y-259166667D01*
X318833333Y-259500000D01*
X319500000Y-259833333D01*
X322166666Y-259833333D01*
X315166666Y-263166667D02*
X315166666Y-258500000D01*
X315166666Y-256166667D02*
X315500000Y-256500000D01*
X315166666Y-256833333D01*
X314833333Y-256500000D01*
X315166666Y-256166667D01*
X315166666Y-256833333D01*
X312500000Y-263166667D02*
X308833333Y-258500000D01*
X312500000Y-258500000D02*
X308833333Y-263166667D01*
X303500000Y-262833333D02*
X304166666Y-263166667D01*
X305500000Y-263166667D01*
X306166666Y-262833333D01*
X306500000Y-262166667D01*
X306500000Y-259500000D01*
X306166666Y-258833333D01*
X305500000Y-258500000D01*
X304166666Y-258500000D01*
X303500000Y-258833333D01*
X303166666Y-259500000D01*
X303166666Y-260166667D01*
X306500000Y-260833333D01*
X299166666Y-263166667D02*
X299833333Y-262833333D01*
X300166666Y-262166667D01*
X300166666Y-256166667D01*
X296499999Y-263166667D02*
X296499999Y-256166667D01*
X294833333Y-256166667D01*
X293833333Y-256500000D01*
X293166666Y-257166667D01*
X292833333Y-257833333D01*
X292499999Y-259166667D01*
X292499999Y-260166667D01*
X292833333Y-261500000D01*
X293166666Y-262166667D01*
X293833333Y-262833333D01*
X294833333Y-263166667D01*
X296499999Y-263166667D01*
X289499999Y-263166667D02*
X289499999Y-258500000D01*
X289499999Y-256166667D02*
X289833333Y-256500000D01*
X289499999Y-256833333D01*
X289166666Y-256500000D01*
X289499999Y-256166667D01*
X289499999Y-256833333D01*
X286500000Y-262833333D02*
X285833333Y-263166667D01*
X284500000Y-263166667D01*
X283833333Y-262833333D01*
X283500000Y-262166667D01*
X283500000Y-261833333D01*
X283833333Y-261166667D01*
X284500000Y-260833333D01*
X285500000Y-260833333D01*
X286166666Y-260500000D01*
X286500000Y-259833333D01*
X286500000Y-259500000D01*
X286166666Y-258833333D01*
X285500000Y-258500000D01*
X284500000Y-258500000D01*
X283833333Y-258833333D01*
X277499999Y-262833333D02*
X278166666Y-263166667D01*
X279499999Y-263166667D01*
X280166666Y-262833333D01*
X280499999Y-262500000D01*
X280833333Y-261833333D01*
X280833333Y-259833333D01*
X280499999Y-259166667D01*
X280166666Y-258833333D01*
X279499999Y-258500000D01*
X278166666Y-258500000D01*
X277499999Y-258833333D01*
X336166665Y-168166667D02*
X336166665Y-161166667D01*
X333833332Y-166166667D01*
X331499999Y-161166667D01*
X331499999Y-168166667D01*
X325166665Y-168166667D02*
X325166665Y-164500000D01*
X325499999Y-163833333D01*
X326166665Y-163500000D01*
X327499999Y-163500000D01*
X328166665Y-163833333D01*
X325166665Y-167833333D02*
X325833332Y-168166667D01*
X327499999Y-168166667D01*
X328166665Y-167833333D01*
X328499999Y-167166667D01*
X328499999Y-166500000D01*
X328166665Y-165833333D01*
X327499999Y-165500000D01*
X325833332Y-165500000D01*
X325166665Y-165166667D01*
X321833332Y-163500000D02*
X321833332Y-168166667D01*
X321833332Y-164166667D02*
X321499999Y-163833333D01*
X320833332Y-163500000D01*
X319833332Y-163500000D01*
X319166666Y-163833333D01*
X318833332Y-164500000D01*
X318833332Y-168166667D01*
X315499999Y-168166667D02*
X315499999Y-163500000D01*
X315499999Y-161166667D02*
X315833333Y-161500000D01*
X315499999Y-161833333D01*
X315166666Y-161500000D01*
X315499999Y-161166667D01*
X315499999Y-161833333D01*
X309166666Y-168166667D02*
X309166666Y-164500000D01*
X309500000Y-163833333D01*
X310166666Y-163500000D01*
X311500000Y-163500000D01*
X312166666Y-163833333D01*
X309166666Y-167833333D02*
X309833333Y-168166667D01*
X311500000Y-168166667D01*
X312166666Y-167833333D01*
X312500000Y-167166667D01*
X312500000Y-166500000D01*
X312166666Y-165833333D01*
X311500000Y-165500000D01*
X309833333Y-165500000D01*
X309166666Y-165166667D01*
X302833333Y-167833333D02*
X303500000Y-168166667D01*
X304833333Y-168166667D01*
X305500000Y-167833333D01*
X305833333Y-167500000D01*
X306166667Y-166833333D01*
X306166667Y-164833333D01*
X305833333Y-164166667D01*
X305500000Y-163833333D01*
X304833333Y-163500000D01*
X303500000Y-163500000D01*
X302833333Y-163833333D01*
X296833333Y-168166667D02*
X296833333Y-164500000D01*
X297166667Y-163833333D01*
X297833333Y-163500000D01*
X299166667Y-163500000D01*
X299833333Y-163833333D01*
X296833333Y-167833333D02*
X297500000Y-168166667D01*
X299166667Y-168166667D01*
X299833333Y-167833333D01*
X300166667Y-167166667D01*
X300166667Y-166500000D01*
X299833333Y-165833333D01*
X299166667Y-165500000D01*
X297500000Y-165500000D01*
X296833333Y-165166667D01*
X292500000Y-168166667D02*
X293166667Y-167833333D01*
X293500000Y-167166667D01*
X293500000Y-161166667D01*
X281166667Y-168166667D02*
X284500000Y-168166667D01*
X284500000Y-161166667D01*
X275833333Y-168166667D02*
X275833333Y-164500000D01*
X276166667Y-163833333D01*
X276833333Y-163500000D01*
X278166667Y-163500000D01*
X278833333Y-163833333D01*
X275833333Y-167833333D02*
X276500000Y-168166667D01*
X278166667Y-168166667D01*
X278833333Y-167833333D01*
X279166667Y-167166667D01*
X279166667Y-166500000D01*
X278833333Y-165833333D01*
X278166667Y-165500000D01*
X276500000Y-165500000D01*
X275833333Y-165166667D01*
X272500000Y-168166667D02*
X272500000Y-161166667D01*
X272500000Y-163833333D02*
X271833334Y-163500000D01*
X270500000Y-163500000D01*
X269833334Y-163833333D01*
X269500000Y-164166667D01*
X269166667Y-164833333D01*
X269166667Y-166833333D01*
X269500000Y-167500000D01*
X269833334Y-167833333D01*
X270500000Y-168166667D01*
X271833334Y-168166667D01*
X272500000Y-167833333D01*
X266500001Y-167833333D02*
X265833334Y-168166667D01*
X264500001Y-168166667D01*
X263833334Y-167833333D01*
X263500001Y-167166667D01*
X263500001Y-166833333D01*
X263833334Y-166166667D01*
X264500001Y-165833333D01*
X265500001Y-165833333D01*
X266166667Y-165500000D01*
X266500001Y-164833333D01*
X266500001Y-164500000D01*
X266166667Y-163833333D01*
X265500001Y-163500000D01*
X264500001Y-163500000D01*
X263833334Y-163833333D01*
D11*
X302198428Y-309385857D02*
X302234142Y-309421571D01*
X302341285Y-309457286D01*
X302412714Y-309457286D01*
X302519857Y-309421571D01*
X302591285Y-309350143D01*
X302627000Y-309278714D01*
X302662714Y-309135857D01*
X302662714Y-309028714D01*
X302627000Y-308885857D01*
X302591285Y-308814429D01*
X302519857Y-308743000D01*
X302412714Y-308707286D01*
X302341285Y-308707286D01*
X302234142Y-308743000D01*
X302198428Y-308778714D01*
X301519857Y-309457286D02*
X301877000Y-309457286D01*
X301877000Y-308707286D01*
X301269857Y-309457286D02*
X301269857Y-308707286D01*
X300841285Y-309457286D02*
X301162714Y-309028714D01*
X300841285Y-308707286D02*
X301269857Y-309135857D01*
X298999572Y-309457286D02*
X298999572Y-308707286D01*
X298821000Y-308707286D01*
X298713857Y-308743000D01*
X298642429Y-308814429D01*
X298606714Y-308885857D01*
X298571000Y-309028714D01*
X298571000Y-309135857D01*
X298606714Y-309278714D01*
X298642429Y-309350143D01*
X298713857Y-309421571D01*
X298821000Y-309457286D01*
X298999572Y-309457286D01*
X298285286Y-309243000D02*
X297928143Y-309243000D01*
X298356714Y-309457286D02*
X298106714Y-308707286D01*
X297856714Y-309457286D01*
X297713857Y-308707286D02*
X297285286Y-308707286D01*
X297499572Y-309457286D02*
X297499572Y-308707286D01*
X294274857Y-306675286D02*
X294632000Y-306675286D01*
X294667714Y-307032429D01*
X294632000Y-306996714D01*
X294560571Y-306961000D01*
X294382000Y-306961000D01*
X294310571Y-306996714D01*
X294274857Y-307032429D01*
X294239142Y-307103857D01*
X294239142Y-307282429D01*
X294274857Y-307353857D01*
X294310571Y-307389571D01*
X294382000Y-307425286D01*
X294560571Y-307425286D01*
X294632000Y-307389571D01*
X294667714Y-307353857D01*
X294024856Y-306675286D02*
X293774856Y-307425286D01*
X293524856Y-306675286D01*
X306895428Y-306711000D02*
X306966857Y-306675286D01*
X307074000Y-306675286D01*
X307181143Y-306711000D01*
X307252571Y-306782429D01*
X307288286Y-306853857D01*
X307324000Y-306996714D01*
X307324000Y-307103857D01*
X307288286Y-307246714D01*
X307252571Y-307318143D01*
X307181143Y-307389571D01*
X307074000Y-307425286D01*
X307002571Y-307425286D01*
X306895428Y-307389571D01*
X306859714Y-307353857D01*
X306859714Y-307103857D01*
X307002571Y-307103857D01*
X306538286Y-307425286D02*
X306538286Y-306675286D01*
X306109714Y-307425286D01*
X306109714Y-306675286D01*
X305752572Y-307425286D02*
X305752572Y-306675286D01*
X305574000Y-306675286D01*
X305466857Y-306711000D01*
X305395429Y-306782429D01*
X305359714Y-306853857D01*
X305324000Y-306996714D01*
X305324000Y-307103857D01*
X305359714Y-307246714D01*
X305395429Y-307318143D01*
X305466857Y-307389571D01*
X305574000Y-307425286D01*
X305752572Y-307425286D01*
X298642428Y-91199857D02*
X298678142Y-91235571D01*
X298785285Y-91271286D01*
X298856714Y-91271286D01*
X298963857Y-91235571D01*
X299035285Y-91164143D01*
X299071000Y-91092714D01*
X299106714Y-90949857D01*
X299106714Y-90842714D01*
X299071000Y-90699857D01*
X299035285Y-90628429D01*
X298963857Y-90557000D01*
X298856714Y-90521286D01*
X298785285Y-90521286D01*
X298678142Y-90557000D01*
X298642428Y-90592714D01*
X297963857Y-91271286D02*
X298321000Y-91271286D01*
X298321000Y-90521286D01*
X297713857Y-91271286D02*
X297713857Y-90521286D01*
X297285285Y-91271286D02*
X297606714Y-90842714D01*
X297285285Y-90521286D02*
X297713857Y-90949857D01*
X302555572Y-91271286D02*
X302555572Y-90521286D01*
X302377000Y-90521286D01*
X302269857Y-90557000D01*
X302198429Y-90628429D01*
X302162714Y-90699857D01*
X302127000Y-90842714D01*
X302127000Y-90949857D01*
X302162714Y-91092714D01*
X302198429Y-91164143D01*
X302269857Y-91235571D01*
X302377000Y-91271286D01*
X302555572Y-91271286D01*
X301841286Y-91057000D02*
X301484143Y-91057000D01*
X301912714Y-91271286D02*
X301662714Y-90521286D01*
X301412714Y-91271286D01*
X301269857Y-90521286D02*
X300841286Y-90521286D01*
X301055572Y-91271286D02*
X301055572Y-90521286D01*
X306392857Y-92589286D02*
X306750000Y-92589286D01*
X306785714Y-92946429D01*
X306750000Y-92910714D01*
X306678571Y-92875000D01*
X306500000Y-92875000D01*
X306428571Y-92910714D01*
X306392857Y-92946429D01*
X306357142Y-93017857D01*
X306357142Y-93196429D01*
X306392857Y-93267857D01*
X306428571Y-93303571D01*
X306500000Y-93339286D01*
X306678571Y-93339286D01*
X306750000Y-93303571D01*
X306785714Y-93267857D01*
X306142856Y-92589286D02*
X305892856Y-93339286D01*
X305642856Y-92589286D01*
X294321428Y-92625000D02*
X294392857Y-92589286D01*
X294500000Y-92589286D01*
X294607143Y-92625000D01*
X294678571Y-92696429D01*
X294714286Y-92767857D01*
X294750000Y-92910714D01*
X294750000Y-93017857D01*
X294714286Y-93160714D01*
X294678571Y-93232143D01*
X294607143Y-93303571D01*
X294500000Y-93339286D01*
X294428571Y-93339286D01*
X294321428Y-93303571D01*
X294285714Y-93267857D01*
X294285714Y-93017857D01*
X294428571Y-93017857D01*
X293964286Y-93339286D02*
X293964286Y-92589286D01*
X293535714Y-93339286D01*
X293535714Y-92589286D01*
X293178572Y-93339286D02*
X293178572Y-92589286D01*
X293000000Y-92589286D01*
X292892857Y-92625000D01*
X292821429Y-92696429D01*
X292785714Y-92767857D01*
X292750000Y-92910714D01*
X292750000Y-93017857D01*
X292785714Y-93160714D01*
X292821429Y-93232143D01*
X292892857Y-93303571D01*
X293000000Y-93339286D01*
X293178572Y-93339286D01*
D14*
X293571428Y-219178571D02*
X293571428Y-217678571D01*
X293214285Y-217678571D01*
X293000000Y-217750000D01*
X292857142Y-217892857D01*
X292785714Y-218035714D01*
X292714285Y-218321429D01*
X292714285Y-218535714D01*
X292785714Y-218821429D01*
X292857142Y-218964286D01*
X293000000Y-219107143D01*
X293214285Y-219178571D01*
X293571428Y-219178571D01*
X292142857Y-218750000D02*
X291428571Y-218750000D01*
X292285714Y-219178571D02*
X291785714Y-217678571D01*
X291285714Y-219178571D01*
X291000000Y-217678571D02*
X290142857Y-217678571D01*
X290571428Y-219178571D02*
X290571428Y-217678571D01*
X290000000Y-219321429D02*
X288857143Y-219321429D01*
X288214286Y-217678571D02*
X287928572Y-217678571D01*
X287785714Y-217750000D01*
X287642857Y-217892857D01*
X287571429Y-218178571D01*
X287571429Y-218678571D01*
X287642857Y-218964286D01*
X287785714Y-219107143D01*
X287928572Y-219178571D01*
X288214286Y-219178571D01*
X288357143Y-219107143D01*
X288500000Y-218964286D01*
X288571429Y-218678571D01*
X288571429Y-218178571D01*
X288500000Y-217892857D01*
X288357143Y-217750000D01*
X288214286Y-217678571D01*
X286928571Y-217678571D02*
X286928571Y-218892857D01*
X286857143Y-219035714D01*
X286785714Y-219107143D01*
X286642857Y-219178571D01*
X286357143Y-219178571D01*
X286214285Y-219107143D01*
X286142857Y-219035714D01*
X286071428Y-218892857D01*
X286071428Y-217678571D01*
X285571428Y-217678571D02*
X284714285Y-217678571D01*
X285142856Y-219178571D02*
X285142856Y-217678571D01*
X314107143Y-219035714D02*
X314178572Y-219107143D01*
X314392858Y-219178571D01*
X314535715Y-219178571D01*
X314750000Y-219107143D01*
X314892858Y-218964286D01*
X314964286Y-218821429D01*
X315035715Y-218535714D01*
X315035715Y-218321429D01*
X314964286Y-218035714D01*
X314892858Y-217892857D01*
X314750000Y-217750000D01*
X314535715Y-217678571D01*
X314392858Y-217678571D01*
X314178572Y-217750000D01*
X314107143Y-217821429D01*
X312750000Y-219178571D02*
X313464286Y-219178571D01*
X313464286Y-217678571D01*
X312250000Y-219178571D02*
X312250000Y-217678571D01*
X311392857Y-219178571D02*
X312035714Y-218321429D01*
X311392857Y-217678571D02*
X312250000Y-218535714D01*
X311107143Y-219321429D02*
X309964286Y-219321429D01*
X309321429Y-217678571D02*
X309035715Y-217678571D01*
X308892857Y-217750000D01*
X308750000Y-217892857D01*
X308678572Y-218178571D01*
X308678572Y-218678571D01*
X308750000Y-218964286D01*
X308892857Y-219107143D01*
X309035715Y-219178571D01*
X309321429Y-219178571D01*
X309464286Y-219107143D01*
X309607143Y-218964286D01*
X309678572Y-218678571D01*
X309678572Y-218178571D01*
X309607143Y-217892857D01*
X309464286Y-217750000D01*
X309321429Y-217678571D01*
X308035714Y-217678571D02*
X308035714Y-218892857D01*
X307964286Y-219035714D01*
X307892857Y-219107143D01*
X307750000Y-219178571D01*
X307464286Y-219178571D01*
X307321428Y-219107143D01*
X307250000Y-219035714D01*
X307178571Y-218892857D01*
X307178571Y-217678571D01*
X306678571Y-217678571D02*
X305821428Y-217678571D01*
X306249999Y-219178571D02*
X306249999Y-217678571D01*
X315071428Y-182178571D02*
X315071428Y-180678571D01*
X314714285Y-180678571D01*
X314500000Y-180750000D01*
X314357142Y-180892857D01*
X314285714Y-181035714D01*
X314214285Y-181321429D01*
X314214285Y-181535714D01*
X314285714Y-181821429D01*
X314357142Y-181964286D01*
X314500000Y-182107143D01*
X314714285Y-182178571D01*
X315071428Y-182178571D01*
X313642857Y-181750000D02*
X312928571Y-181750000D01*
X313785714Y-182178571D02*
X313285714Y-180678571D01*
X312785714Y-182178571D01*
X312500000Y-180678571D02*
X311642857Y-180678571D01*
X312071428Y-182178571D02*
X312071428Y-180678571D01*
X311500000Y-182321429D02*
X310357143Y-182321429D01*
X310000000Y-182178571D02*
X310000000Y-180678571D01*
X309285714Y-182178571D02*
X309285714Y-180678571D01*
X308428571Y-182178571D01*
X308428571Y-180678571D01*
X291107143Y-182035714D02*
X291178572Y-182107143D01*
X291392858Y-182178571D01*
X291535715Y-182178571D01*
X291750000Y-182107143D01*
X291892858Y-181964286D01*
X291964286Y-181821429D01*
X292035715Y-181535714D01*
X292035715Y-181321429D01*
X291964286Y-181035714D01*
X291892858Y-180892857D01*
X291750000Y-180750000D01*
X291535715Y-180678571D01*
X291392858Y-180678571D01*
X291178572Y-180750000D01*
X291107143Y-180821429D01*
X289750000Y-182178571D02*
X290464286Y-182178571D01*
X290464286Y-180678571D01*
X289250000Y-182178571D02*
X289250000Y-180678571D01*
X288392857Y-182178571D02*
X289035714Y-181321429D01*
X288392857Y-180678571D02*
X289250000Y-181535714D01*
X288107143Y-182321429D02*
X286964286Y-182321429D01*
X286607143Y-182178571D02*
X286607143Y-180678571D01*
X285892857Y-182178571D02*
X285892857Y-180678571D01*
X285035714Y-182178571D01*
X285035714Y-180678571D01*
X275285713Y-210178571D02*
X275999999Y-210178571D01*
X276071428Y-210892857D01*
X275999999Y-210821429D01*
X275857142Y-210750000D01*
X275499999Y-210750000D01*
X275357142Y-210821429D01*
X275285713Y-210892857D01*
X275214285Y-211035714D01*
X275214285Y-211392857D01*
X275285713Y-211535714D01*
X275357142Y-211607143D01*
X275499999Y-211678571D01*
X275857142Y-211678571D01*
X275999999Y-211607143D01*
X276071428Y-211535714D01*
X274785714Y-210178571D02*
X274285714Y-211678571D01*
X273785714Y-210178571D01*
X326142857Y-210250000D02*
X326285714Y-210178571D01*
X326500000Y-210178571D01*
X326714285Y-210250000D01*
X326857143Y-210392857D01*
X326928571Y-210535714D01*
X327000000Y-210821429D01*
X327000000Y-211035714D01*
X326928571Y-211321429D01*
X326857143Y-211464286D01*
X326714285Y-211607143D01*
X326500000Y-211678571D01*
X326357143Y-211678571D01*
X326142857Y-211607143D01*
X326071428Y-211535714D01*
X326071428Y-211035714D01*
X326357143Y-211035714D01*
X325428571Y-211678571D02*
X325428571Y-210178571D01*
X324571428Y-211678571D01*
X324571428Y-210178571D01*
X323857142Y-211678571D02*
X323857142Y-210178571D01*
X323499999Y-210178571D01*
X323285714Y-210250000D01*
X323142856Y-210392857D01*
X323071428Y-210535714D01*
X322999999Y-210821429D01*
X322999999Y-211035714D01*
X323071428Y-211321429D01*
X323142856Y-211464286D01*
X323285714Y-211607143D01*
X323499999Y-211678571D01*
X323857142Y-211678571D01*
X325285713Y-188178571D02*
X325999999Y-188178571D01*
X326071428Y-188892857D01*
X325999999Y-188821429D01*
X325857142Y-188750000D01*
X325499999Y-188750000D01*
X325357142Y-188821429D01*
X325285713Y-188892857D01*
X325214285Y-189035714D01*
X325214285Y-189392857D01*
X325285713Y-189535714D01*
X325357142Y-189607143D01*
X325499999Y-189678571D01*
X325857142Y-189678571D01*
X325999999Y-189607143D01*
X326071428Y-189535714D01*
X324785714Y-188178571D02*
X324285714Y-189678571D01*
X323785714Y-188178571D01*
X276142857Y-188250000D02*
X276285714Y-188178571D01*
X276500000Y-188178571D01*
X276714285Y-188250000D01*
X276857143Y-188392857D01*
X276928571Y-188535714D01*
X277000000Y-188821429D01*
X277000000Y-189035714D01*
X276928571Y-189321429D01*
X276857143Y-189464286D01*
X276714285Y-189607143D01*
X276500000Y-189678571D01*
X276357143Y-189678571D01*
X276142857Y-189607143D01*
X276071428Y-189535714D01*
X276071428Y-189035714D01*
X276357143Y-189035714D01*
X275428571Y-189678571D02*
X275428571Y-188178571D01*
X274571428Y-189678571D01*
X274571428Y-188178571D01*
X273857142Y-189678571D02*
X273857142Y-188178571D01*
X273499999Y-188178571D01*
X273285714Y-188250000D01*
X273142856Y-188392857D01*
X273071428Y-188535714D01*
X272999999Y-188821429D01*
X272999999Y-189035714D01*
X273071428Y-189321429D01*
X273142856Y-189464286D01*
X273285714Y-189607143D01*
X273499999Y-189678571D01*
X273857142Y-189678571D01*
D15*
G36*
X298752457Y-113322061D02*
X297732688Y-113324368D01*
X296744527Y-113328029D01*
X295802326Y-113333046D01*
X294920437Y-113339417D01*
X294113213Y-113347144D01*
X293395006Y-113356226D01*
X292780169Y-113366664D01*
X292283055Y-113378456D01*
X291918016Y-113391603D01*
X291699404Y-113406106D01*
X291644678Y-113415387D01*
X291271659Y-113636021D01*
X290990520Y-113960431D01*
X290825440Y-114348117D01*
X290800598Y-114758582D01*
X290809455Y-114814329D01*
X290937344Y-115134548D01*
X291173427Y-115450145D01*
X291466346Y-115699780D01*
X291618887Y-115781034D01*
X291874554Y-115886935D01*
X291829666Y-131655667D01*
X291330054Y-132502334D01*
X291114413Y-132869695D01*
X290841575Y-133337380D01*
X290538606Y-133858835D01*
X290232574Y-134387506D01*
X290050183Y-134703667D01*
X289754511Y-135216693D01*
X289403414Y-135825390D01*
X289026265Y-136478863D01*
X288652442Y-137126211D01*
X288315483Y-137709334D01*
X287985824Y-138279932D01*
X287599544Y-138949106D01*
X287184450Y-139668646D01*
X286768350Y-140390345D01*
X286379052Y-141065994D01*
X286239884Y-141307667D01*
X285924617Y-141854806D01*
X285543875Y-142514848D01*
X285117073Y-143254176D01*
X284663628Y-144039176D01*
X284202954Y-144836232D01*
X283754468Y-145611730D01*
X283457697Y-146124579D01*
X283024082Y-146879485D01*
X282646920Y-147547956D01*
X282331775Y-148119633D01*
X282084209Y-148584154D01*
X281909782Y-148931161D01*
X281814059Y-149150295D01*
X281796666Y-149218261D01*
X281839540Y-149353329D01*
X281963978Y-149621372D01*
X282163712Y-150010594D01*
X282432470Y-150509200D01*
X282763982Y-151105393D01*
X283151977Y-151787378D01*
X283286776Y-152021349D01*
X283658878Y-152665819D01*
X284025446Y-153301559D01*
X284372430Y-153904138D01*
X284685777Y-154449125D01*
X284951438Y-154912088D01*
X285155360Y-155268596D01*
X285247188Y-155429976D01*
X285457696Y-155783317D01*
X285661751Y-156094552D01*
X285833029Y-156325188D01*
X285927497Y-156424809D01*
X285957487Y-156446183D01*
X285995758Y-156465628D01*
X286050066Y-156483238D01*
X286128166Y-156499102D01*
X286237813Y-156513312D01*
X286386763Y-156525959D01*
X286582771Y-156537133D01*
X286833594Y-156546927D01*
X287146986Y-156555430D01*
X287530704Y-156562735D01*
X287992502Y-156568931D01*
X288540137Y-156574110D01*
X289181363Y-156578364D01*
X289923937Y-156581782D01*
X290775614Y-156584457D01*
X291744150Y-156586479D01*
X292837300Y-156587939D01*
X294062819Y-156588928D01*
X295428464Y-156589538D01*
X296941989Y-156589859D01*
X298611151Y-156589983D01*
X300000000Y-156590000D01*
X301793639Y-156589967D01*
X303425701Y-156589805D01*
X304903940Y-156589425D01*
X306236113Y-156588734D01*
X307429975Y-156587643D01*
X308493281Y-156586060D01*
X309433787Y-156583893D01*
X310259249Y-156581053D01*
X310977422Y-156577447D01*
X311596061Y-156572985D01*
X312122923Y-156567576D01*
X312565762Y-156561129D01*
X312932335Y-156553552D01*
X313230397Y-156544755D01*
X313467703Y-156534647D01*
X313652009Y-156523136D01*
X313791071Y-156510132D01*
X313892643Y-156495543D01*
X313964483Y-156479279D01*
X314014344Y-156461248D01*
X314049984Y-156441359D01*
X314072503Y-156424809D01*
X314199534Y-156284557D01*
X314380036Y-156033445D01*
X314587685Y-155709967D01*
X314752811Y-155429976D01*
X314909709Y-155154659D01*
X315137363Y-154757207D01*
X315421722Y-154262053D01*
X315748734Y-153693627D01*
X316104348Y-153076360D01*
X316474514Y-152434684D01*
X316713223Y-152021349D01*
X317117937Y-151314448D01*
X317468171Y-150689573D01*
X317757653Y-150158517D01*
X317980114Y-149733077D01*
X318129282Y-149425049D01*
X318198887Y-149246229D01*
X318203333Y-149218261D01*
X318184609Y-149160418D01*
X315482449Y-149160418D01*
X315286893Y-149467376D01*
X315183393Y-149636953D01*
X315012816Y-149924503D01*
X314792161Y-150301012D01*
X314538432Y-150737468D01*
X314268630Y-151204859D01*
X314263564Y-151213667D01*
X313968649Y-151725994D01*
X313666252Y-152250500D01*
X313380383Y-152745591D01*
X313135056Y-153169675D01*
X312980459Y-153436167D01*
X312525127Y-154219334D01*
X287474873Y-154219334D01*
X287019541Y-153436167D01*
X286825618Y-153101767D01*
X286571384Y-152662116D01*
X286280850Y-152158804D01*
X285978028Y-151633425D01*
X285736436Y-151213667D01*
X285466449Y-150745901D01*
X285212173Y-150308462D01*
X284990623Y-149930382D01*
X284818811Y-149640692D01*
X284713753Y-149468425D01*
X284712561Y-149466552D01*
X284516460Y-149158770D01*
X285432724Y-147584754D01*
X285706135Y-147113093D01*
X285951686Y-146685740D01*
X286156086Y-146326129D01*
X286306046Y-146057698D01*
X286388276Y-145903881D01*
X286398503Y-145881702D01*
X286423806Y-145855321D01*
X286485950Y-145832737D01*
X286596954Y-145813665D01*
X286768839Y-145797816D01*
X287013622Y-145784904D01*
X287343325Y-145774643D01*
X287769965Y-145766745D01*
X288305564Y-145760924D01*
X288962139Y-145756892D01*
X289751711Y-145754363D01*
X290686300Y-145753051D01*
X291777923Y-145752667D01*
X297162079Y-145752667D01*
X295490706Y-147425608D01*
X294924937Y-147998409D01*
X294472576Y-148470505D01*
X294136413Y-148838809D01*
X293919239Y-149100236D01*
X293823848Y-149251700D01*
X293819333Y-149273257D01*
X293877892Y-149396230D01*
X294033791Y-149600231D01*
X294257363Y-149855022D01*
X294518943Y-150130368D01*
X294788865Y-150396032D01*
X295037462Y-150621778D01*
X295235068Y-150777369D01*
X295349330Y-150832667D01*
X295436180Y-150775040D01*
X295625763Y-150612356D01*
X295901690Y-150359912D01*
X296247577Y-150033003D01*
X296647037Y-149646926D01*
X297083684Y-149216977D01*
X297137675Y-149163288D01*
X298814666Y-147493909D01*
X298814666Y-152090377D01*
X299037751Y-152265855D01*
X299172310Y-152351807D01*
X299337501Y-152404694D01*
X299575913Y-152431957D01*
X299930138Y-152441034D01*
X300042333Y-152441334D01*
X300432340Y-152435655D01*
X300695837Y-152413660D01*
X300875414Y-152367909D01*
X301013662Y-152290962D01*
X301046915Y-152265855D01*
X301270000Y-152090377D01*
X301270000Y-147489962D01*
X302900627Y-149118981D01*
X303424271Y-149638190D01*
X303843454Y-150044332D01*
X304169757Y-150347660D01*
X304414762Y-150558430D01*
X304590047Y-150686895D01*
X304707194Y-150743311D01*
X304740254Y-150748000D01*
X304905416Y-150686191D01*
X305141218Y-150522075D01*
X305415522Y-150287624D01*
X305696189Y-150014807D01*
X305951080Y-149735594D01*
X306148056Y-149481956D01*
X306254978Y-149285862D01*
X306265333Y-149230931D01*
X306234421Y-149133322D01*
X306134928Y-148981278D01*
X305956718Y-148763314D01*
X305689654Y-148467948D01*
X305323601Y-148083697D01*
X304848423Y-147599077D01*
X304635905Y-147384982D01*
X303006478Y-145747743D01*
X305279669Y-145755396D01*
X305966987Y-145756786D01*
X306504973Y-145755028D01*
X306913618Y-145748992D01*
X307212911Y-145737545D01*
X307422842Y-145719558D01*
X307563402Y-145693900D01*
X307654580Y-145659441D01*
X307713431Y-145617735D01*
X307786036Y-145530774D01*
X307833158Y-145404583D01*
X307860021Y-145204754D01*
X307871849Y-144896881D01*
X307874000Y-144560356D01*
X307875200Y-144208217D01*
X307867214Y-143928303D01*
X307832656Y-143712348D01*
X307754143Y-143552087D01*
X307614293Y-143439256D01*
X307395722Y-143365588D01*
X307081047Y-143322820D01*
X306652883Y-143302686D01*
X306093849Y-143296921D01*
X305386560Y-143297260D01*
X305217563Y-143297334D01*
X303007295Y-143297334D01*
X304636314Y-141666706D01*
X305170660Y-141127096D01*
X305588996Y-140693482D01*
X305899473Y-140356718D01*
X306110242Y-140107658D01*
X306229456Y-139937157D01*
X306265333Y-139839044D01*
X306201821Y-139663111D01*
X306032910Y-139420400D01*
X305791034Y-139142495D01*
X305508630Y-138860980D01*
X305218133Y-138607442D01*
X304951980Y-138413462D01*
X304742604Y-138310627D01*
X304686863Y-138302000D01*
X304612827Y-138359446D01*
X304435148Y-138521634D01*
X304169691Y-138773343D01*
X303832321Y-139099350D01*
X303438903Y-139484434D01*
X303005302Y-139913371D01*
X302946992Y-139971379D01*
X301270000Y-141640758D01*
X301270000Y-139363003D01*
X301270639Y-138620224D01*
X301267294Y-138029400D01*
X301252071Y-137573196D01*
X301217075Y-137234279D01*
X301154413Y-136995314D01*
X301056190Y-136838968D01*
X300914512Y-136747907D01*
X300721486Y-136704796D01*
X300469217Y-136692302D01*
X300149810Y-136693091D01*
X300054198Y-136693334D01*
X299706615Y-136691870D01*
X299430751Y-136699134D01*
X299218346Y-136732607D01*
X299061142Y-136809771D01*
X298950879Y-136948108D01*
X298879298Y-137165099D01*
X298838140Y-137478227D01*
X298819144Y-137904973D01*
X298814052Y-138462818D01*
X298814605Y-139169245D01*
X298814666Y-139316931D01*
X298814666Y-141572344D01*
X297311833Y-140057593D01*
X296767507Y-139513814D01*
X296326204Y-139084662D01*
X295976371Y-138760081D01*
X295706455Y-138530014D01*
X295504901Y-138384405D01*
X295360157Y-138313198D01*
X295294859Y-138302000D01*
X295189426Y-138361784D01*
X295003894Y-138520869D01*
X294767029Y-138748853D01*
X294507597Y-139015338D01*
X294254361Y-139289921D01*
X294036088Y-139542202D01*
X293881543Y-139741781D01*
X293819492Y-139858257D01*
X293819333Y-139861410D01*
X293881537Y-139983101D01*
X294066218Y-140215409D01*
X294370482Y-140555131D01*
X294791433Y-140999063D01*
X295326176Y-141544001D01*
X295469559Y-141687892D01*
X297119785Y-143339667D01*
X292506226Y-143339667D01*
X291640053Y-143339413D01*
X290826866Y-143338683D01*
X290082019Y-143337525D01*
X289420869Y-143335985D01*
X288858772Y-143334112D01*
X288411082Y-143331953D01*
X288093157Y-143329555D01*
X287920350Y-143326966D01*
X287892666Y-143325404D01*
X287933504Y-143251494D01*
X288049721Y-143047450D01*
X288231876Y-142729695D01*
X288470525Y-142314651D01*
X288756225Y-141818740D01*
X289079534Y-141258386D01*
X289426157Y-140658404D01*
X289815447Y-139984922D01*
X290209844Y-139302492D01*
X290593397Y-138638723D01*
X290950154Y-138021223D01*
X291264166Y-137477600D01*
X291519479Y-137035465D01*
X291643655Y-136820334D01*
X291917629Y-136346577D01*
X292247151Y-135778368D01*
X292602200Y-135167376D01*
X292952757Y-134565272D01*
X293203257Y-134135905D01*
X293477507Y-133662277D01*
X293729256Y-133219864D01*
X293943157Y-132836243D01*
X294103861Y-132538988D01*
X294196021Y-132355677D01*
X294203092Y-132339457D01*
X294224228Y-132269914D01*
X294242891Y-132162006D01*
X294259227Y-132005827D01*
X294273382Y-131791467D01*
X294285505Y-131509019D01*
X294295740Y-131148574D01*
X294304236Y-130700224D01*
X294311138Y-130154061D01*
X294316594Y-129500176D01*
X294320751Y-128728661D01*
X294323756Y-127829609D01*
X294325754Y-126793110D01*
X294326893Y-125609256D01*
X294327320Y-124268140D01*
X294327333Y-123953720D01*
X294327333Y-115865334D01*
X305672666Y-115865334D01*
X305672666Y-123953720D01*
X305672958Y-125330458D01*
X305673929Y-126547772D01*
X305675728Y-127615570D01*
X305678500Y-128543760D01*
X305682393Y-129342251D01*
X305687553Y-130020951D01*
X305694128Y-130589768D01*
X305702263Y-131058610D01*
X305712107Y-131437385D01*
X305723805Y-131736003D01*
X305737504Y-131964371D01*
X305753352Y-132132397D01*
X305771494Y-132249989D01*
X305792079Y-132327057D01*
X305796908Y-132339457D01*
X305877252Y-132502945D01*
X306028484Y-132784586D01*
X306235256Y-133156805D01*
X306482219Y-133592025D01*
X306754027Y-134062671D01*
X306796743Y-134135905D01*
X306992525Y-134471192D01*
X307172703Y-134780035D01*
X307345720Y-135077035D01*
X307520025Y-135376792D01*
X307704063Y-135693906D01*
X307906280Y-136042978D01*
X308135123Y-136438610D01*
X308399037Y-136895400D01*
X308706468Y-137427950D01*
X309065863Y-138050861D01*
X309485668Y-138778733D01*
X309974328Y-139626167D01*
X310455673Y-140461000D01*
X310851511Y-141147308D01*
X311271509Y-141875080D01*
X311694761Y-142608119D01*
X312100364Y-143310232D01*
X312467411Y-143945224D01*
X312774999Y-144476898D01*
X312827358Y-144567334D01*
X313176702Y-145170833D01*
X313565083Y-145842115D01*
X313961042Y-146526786D01*
X314333122Y-147170452D01*
X314632921Y-147689376D01*
X315482449Y-149160418D01*
X318184609Y-149160418D01*
X318160365Y-149085527D01*
X318035170Y-148818355D01*
X317833308Y-148427103D01*
X317560344Y-147922131D01*
X317221838Y-147313799D01*
X316823354Y-146612466D01*
X316542303Y-146124579D01*
X316113942Y-145384246D01*
X315659780Y-144598784D01*
X315199232Y-143801809D01*
X314751715Y-143026935D01*
X314336642Y-142307778D01*
X313973432Y-141677953D01*
X313760115Y-141307667D01*
X313388900Y-140663203D01*
X312979987Y-139953802D01*
X312561186Y-139227672D01*
X312160304Y-138533021D01*
X311805148Y-137918059D01*
X311684516Y-137709334D01*
X311342769Y-137117920D01*
X310968710Y-136470159D01*
X310591714Y-135816946D01*
X310241157Y-135209181D01*
X309949816Y-134703667D01*
X309655771Y-134194386D01*
X309347718Y-133662958D01*
X309052724Y-133155937D01*
X308797855Y-132719878D01*
X308669945Y-132502334D01*
X308170333Y-131655667D01*
X308147477Y-123771472D01*
X308124622Y-115887276D01*
X308380700Y-115781205D01*
X308683079Y-115587783D01*
X308954300Y-115297604D01*
X309143032Y-114971953D01*
X309190544Y-114814329D01*
X309186792Y-114403897D01*
X309039490Y-114010697D01*
X308772819Y-113675228D01*
X308410955Y-113437986D01*
X308355321Y-113415387D01*
X308230736Y-113400077D01*
X307951176Y-113386123D01*
X307530993Y-113373523D01*
X306984539Y-113362279D01*
X306326168Y-113352390D01*
X305570231Y-113343856D01*
X304731082Y-113336677D01*
X303823072Y-113330853D01*
X302860554Y-113326385D01*
X301857882Y-113323272D01*
X300829406Y-113321513D01*
X299789480Y-113321110D01*
X298752457Y-113322061D01*
X298752457Y-113322061D01*
G37*
X298752457Y-113322061D02*
X297732688Y-113324368D01*
X296744527Y-113328029D01*
X295802326Y-113333046D01*
X294920437Y-113339417D01*
X294113213Y-113347144D01*
X293395006Y-113356226D01*
X292780169Y-113366664D01*
X292283055Y-113378456D01*
X291918016Y-113391603D01*
X291699404Y-113406106D01*
X291644678Y-113415387D01*
X291271659Y-113636021D01*
X290990520Y-113960431D01*
X290825440Y-114348117D01*
X290800598Y-114758582D01*
X290809455Y-114814329D01*
X290937344Y-115134548D01*
X291173427Y-115450145D01*
X291466346Y-115699780D01*
X291618887Y-115781034D01*
X291874554Y-115886935D01*
X291829666Y-131655667D01*
X291330054Y-132502334D01*
X291114413Y-132869695D01*
X290841575Y-133337380D01*
X290538606Y-133858835D01*
X290232574Y-134387506D01*
X290050183Y-134703667D01*
X289754511Y-135216693D01*
X289403414Y-135825390D01*
X289026265Y-136478863D01*
X288652442Y-137126211D01*
X288315483Y-137709334D01*
X287985824Y-138279932D01*
X287599544Y-138949106D01*
X287184450Y-139668646D01*
X286768350Y-140390345D01*
X286379052Y-141065994D01*
X286239884Y-141307667D01*
X285924617Y-141854806D01*
X285543875Y-142514848D01*
X285117073Y-143254176D01*
X284663628Y-144039176D01*
X284202954Y-144836232D01*
X283754468Y-145611730D01*
X283457697Y-146124579D01*
X283024082Y-146879485D01*
X282646920Y-147547956D01*
X282331775Y-148119633D01*
X282084209Y-148584154D01*
X281909782Y-148931161D01*
X281814059Y-149150295D01*
X281796666Y-149218261D01*
X281839540Y-149353329D01*
X281963978Y-149621372D01*
X282163712Y-150010594D01*
X282432470Y-150509200D01*
X282763982Y-151105393D01*
X283151977Y-151787378D01*
X283286776Y-152021349D01*
X283658878Y-152665819D01*
X284025446Y-153301559D01*
X284372430Y-153904138D01*
X284685777Y-154449125D01*
X284951438Y-154912088D01*
X285155360Y-155268596D01*
X285247188Y-155429976D01*
X285457696Y-155783317D01*
X285661751Y-156094552D01*
X285833029Y-156325188D01*
X285927497Y-156424809D01*
X285957487Y-156446183D01*
X285995758Y-156465628D01*
X286050066Y-156483238D01*
X286128166Y-156499102D01*
X286237813Y-156513312D01*
X286386763Y-156525959D01*
X286582771Y-156537133D01*
X286833594Y-156546927D01*
X287146986Y-156555430D01*
X287530704Y-156562735D01*
X287992502Y-156568931D01*
X288540137Y-156574110D01*
X289181363Y-156578364D01*
X289923937Y-156581782D01*
X290775614Y-156584457D01*
X291744150Y-156586479D01*
X292837300Y-156587939D01*
X294062819Y-156588928D01*
X295428464Y-156589538D01*
X296941989Y-156589859D01*
X298611151Y-156589983D01*
X300000000Y-156590000D01*
X301793639Y-156589967D01*
X303425701Y-156589805D01*
X304903940Y-156589425D01*
X306236113Y-156588734D01*
X307429975Y-156587643D01*
X308493281Y-156586060D01*
X309433787Y-156583893D01*
X310259249Y-156581053D01*
X310977422Y-156577447D01*
X311596061Y-156572985D01*
X312122923Y-156567576D01*
X312565762Y-156561129D01*
X312932335Y-156553552D01*
X313230397Y-156544755D01*
X313467703Y-156534647D01*
X313652009Y-156523136D01*
X313791071Y-156510132D01*
X313892643Y-156495543D01*
X313964483Y-156479279D01*
X314014344Y-156461248D01*
X314049984Y-156441359D01*
X314072503Y-156424809D01*
X314199534Y-156284557D01*
X314380036Y-156033445D01*
X314587685Y-155709967D01*
X314752811Y-155429976D01*
X314909709Y-155154659D01*
X315137363Y-154757207D01*
X315421722Y-154262053D01*
X315748734Y-153693627D01*
X316104348Y-153076360D01*
X316474514Y-152434684D01*
X316713223Y-152021349D01*
X317117937Y-151314448D01*
X317468171Y-150689573D01*
X317757653Y-150158517D01*
X317980114Y-149733077D01*
X318129282Y-149425049D01*
X318198887Y-149246229D01*
X318203333Y-149218261D01*
X318184609Y-149160418D01*
X315482449Y-149160418D01*
X315286893Y-149467376D01*
X315183393Y-149636953D01*
X315012816Y-149924503D01*
X314792161Y-150301012D01*
X314538432Y-150737468D01*
X314268630Y-151204859D01*
X314263564Y-151213667D01*
X313968649Y-151725994D01*
X313666252Y-152250500D01*
X313380383Y-152745591D01*
X313135056Y-153169675D01*
X312980459Y-153436167D01*
X312525127Y-154219334D01*
X287474873Y-154219334D01*
X287019541Y-153436167D01*
X286825618Y-153101767D01*
X286571384Y-152662116D01*
X286280850Y-152158804D01*
X285978028Y-151633425D01*
X285736436Y-151213667D01*
X285466449Y-150745901D01*
X285212173Y-150308462D01*
X284990623Y-149930382D01*
X284818811Y-149640692D01*
X284713753Y-149468425D01*
X284712561Y-149466552D01*
X284516460Y-149158770D01*
X285432724Y-147584754D01*
X285706135Y-147113093D01*
X285951686Y-146685740D01*
X286156086Y-146326129D01*
X286306046Y-146057698D01*
X286388276Y-145903881D01*
X286398503Y-145881702D01*
X286423806Y-145855321D01*
X286485950Y-145832737D01*
X286596954Y-145813665D01*
X286768839Y-145797816D01*
X287013622Y-145784904D01*
X287343325Y-145774643D01*
X287769965Y-145766745D01*
X288305564Y-145760924D01*
X288962139Y-145756892D01*
X289751711Y-145754363D01*
X290686300Y-145753051D01*
X291777923Y-145752667D01*
X297162079Y-145752667D01*
X295490706Y-147425608D01*
X294924937Y-147998409D01*
X294472576Y-148470505D01*
X294136413Y-148838809D01*
X293919239Y-149100236D01*
X293823848Y-149251700D01*
X293819333Y-149273257D01*
X293877892Y-149396230D01*
X294033791Y-149600231D01*
X294257363Y-149855022D01*
X294518943Y-150130368D01*
X294788865Y-150396032D01*
X295037462Y-150621778D01*
X295235068Y-150777369D01*
X295349330Y-150832667D01*
X295436180Y-150775040D01*
X295625763Y-150612356D01*
X295901690Y-150359912D01*
X296247577Y-150033003D01*
X296647037Y-149646926D01*
X297083684Y-149216977D01*
X297137675Y-149163288D01*
X298814666Y-147493909D01*
X298814666Y-152090377D01*
X299037751Y-152265855D01*
X299172310Y-152351807D01*
X299337501Y-152404694D01*
X299575913Y-152431957D01*
X299930138Y-152441034D01*
X300042333Y-152441334D01*
X300432340Y-152435655D01*
X300695837Y-152413660D01*
X300875414Y-152367909D01*
X301013662Y-152290962D01*
X301046915Y-152265855D01*
X301270000Y-152090377D01*
X301270000Y-147489962D01*
X302900627Y-149118981D01*
X303424271Y-149638190D01*
X303843454Y-150044332D01*
X304169757Y-150347660D01*
X304414762Y-150558430D01*
X304590047Y-150686895D01*
X304707194Y-150743311D01*
X304740254Y-150748000D01*
X304905416Y-150686191D01*
X305141218Y-150522075D01*
X305415522Y-150287624D01*
X305696189Y-150014807D01*
X305951080Y-149735594D01*
X306148056Y-149481956D01*
X306254978Y-149285862D01*
X306265333Y-149230931D01*
X306234421Y-149133322D01*
X306134928Y-148981278D01*
X305956718Y-148763314D01*
X305689654Y-148467948D01*
X305323601Y-148083697D01*
X304848423Y-147599077D01*
X304635905Y-147384982D01*
X303006478Y-145747743D01*
X305279669Y-145755396D01*
X305966987Y-145756786D01*
X306504973Y-145755028D01*
X306913618Y-145748992D01*
X307212911Y-145737545D01*
X307422842Y-145719558D01*
X307563402Y-145693900D01*
X307654580Y-145659441D01*
X307713431Y-145617735D01*
X307786036Y-145530774D01*
X307833158Y-145404583D01*
X307860021Y-145204754D01*
X307871849Y-144896881D01*
X307874000Y-144560356D01*
X307875200Y-144208217D01*
X307867214Y-143928303D01*
X307832656Y-143712348D01*
X307754143Y-143552087D01*
X307614293Y-143439256D01*
X307395722Y-143365588D01*
X307081047Y-143322820D01*
X306652883Y-143302686D01*
X306093849Y-143296921D01*
X305386560Y-143297260D01*
X305217563Y-143297334D01*
X303007295Y-143297334D01*
X304636314Y-141666706D01*
X305170660Y-141127096D01*
X305588996Y-140693482D01*
X305899473Y-140356718D01*
X306110242Y-140107658D01*
X306229456Y-139937157D01*
X306265333Y-139839044D01*
X306201821Y-139663111D01*
X306032910Y-139420400D01*
X305791034Y-139142495D01*
X305508630Y-138860980D01*
X305218133Y-138607442D01*
X304951980Y-138413462D01*
X304742604Y-138310627D01*
X304686863Y-138302000D01*
X304612827Y-138359446D01*
X304435148Y-138521634D01*
X304169691Y-138773343D01*
X303832321Y-139099350D01*
X303438903Y-139484434D01*
X303005302Y-139913371D01*
X302946992Y-139971379D01*
X301270000Y-141640758D01*
X301270000Y-139363003D01*
X301270639Y-138620224D01*
X301267294Y-138029400D01*
X301252071Y-137573196D01*
X301217075Y-137234279D01*
X301154413Y-136995314D01*
X301056190Y-136838968D01*
X300914512Y-136747907D01*
X300721486Y-136704796D01*
X300469217Y-136692302D01*
X300149810Y-136693091D01*
X300054198Y-136693334D01*
X299706615Y-136691870D01*
X299430751Y-136699134D01*
X299218346Y-136732607D01*
X299061142Y-136809771D01*
X298950879Y-136948108D01*
X298879298Y-137165099D01*
X298838140Y-137478227D01*
X298819144Y-137904973D01*
X298814052Y-138462818D01*
X298814605Y-139169245D01*
X298814666Y-139316931D01*
X298814666Y-141572344D01*
X297311833Y-140057593D01*
X296767507Y-139513814D01*
X296326204Y-139084662D01*
X295976371Y-138760081D01*
X295706455Y-138530014D01*
X295504901Y-138384405D01*
X295360157Y-138313198D01*
X295294859Y-138302000D01*
X295189426Y-138361784D01*
X295003894Y-138520869D01*
X294767029Y-138748853D01*
X294507597Y-139015338D01*
X294254361Y-139289921D01*
X294036088Y-139542202D01*
X293881543Y-139741781D01*
X293819492Y-139858257D01*
X293819333Y-139861410D01*
X293881537Y-139983101D01*
X294066218Y-140215409D01*
X294370482Y-140555131D01*
X294791433Y-140999063D01*
X295326176Y-141544001D01*
X295469559Y-141687892D01*
X297119785Y-143339667D01*
X292506226Y-143339667D01*
X291640053Y-143339413D01*
X290826866Y-143338683D01*
X290082019Y-143337525D01*
X289420869Y-143335985D01*
X288858772Y-143334112D01*
X288411082Y-143331953D01*
X288093157Y-143329555D01*
X287920350Y-143326966D01*
X287892666Y-143325404D01*
X287933504Y-143251494D01*
X288049721Y-143047450D01*
X288231876Y-142729695D01*
X288470525Y-142314651D01*
X288756225Y-141818740D01*
X289079534Y-141258386D01*
X289426157Y-140658404D01*
X289815447Y-139984922D01*
X290209844Y-139302492D01*
X290593397Y-138638723D01*
X290950154Y-138021223D01*
X291264166Y-137477600D01*
X291519479Y-137035465D01*
X291643655Y-136820334D01*
X291917629Y-136346577D01*
X292247151Y-135778368D01*
X292602200Y-135167376D01*
X292952757Y-134565272D01*
X293203257Y-134135905D01*
X293477507Y-133662277D01*
X293729256Y-133219864D01*
X293943157Y-132836243D01*
X294103861Y-132538988D01*
X294196021Y-132355677D01*
X294203092Y-132339457D01*
X294224228Y-132269914D01*
X294242891Y-132162006D01*
X294259227Y-132005827D01*
X294273382Y-131791467D01*
X294285505Y-131509019D01*
X294295740Y-131148574D01*
X294304236Y-130700224D01*
X294311138Y-130154061D01*
X294316594Y-129500176D01*
X294320751Y-128728661D01*
X294323756Y-127829609D01*
X294325754Y-126793110D01*
X294326893Y-125609256D01*
X294327320Y-124268140D01*
X294327333Y-123953720D01*
X294327333Y-115865334D01*
X305672666Y-115865334D01*
X305672666Y-123953720D01*
X305672958Y-125330458D01*
X305673929Y-126547772D01*
X305675728Y-127615570D01*
X305678500Y-128543760D01*
X305682393Y-129342251D01*
X305687553Y-130020951D01*
X305694128Y-130589768D01*
X305702263Y-131058610D01*
X305712107Y-131437385D01*
X305723805Y-131736003D01*
X305737504Y-131964371D01*
X305753352Y-132132397D01*
X305771494Y-132249989D01*
X305792079Y-132327057D01*
X305796908Y-132339457D01*
X305877252Y-132502945D01*
X306028484Y-132784586D01*
X306235256Y-133156805D01*
X306482219Y-133592025D01*
X306754027Y-134062671D01*
X306796743Y-134135905D01*
X306992525Y-134471192D01*
X307172703Y-134780035D01*
X307345720Y-135077035D01*
X307520025Y-135376792D01*
X307704063Y-135693906D01*
X307906280Y-136042978D01*
X308135123Y-136438610D01*
X308399037Y-136895400D01*
X308706468Y-137427950D01*
X309065863Y-138050861D01*
X309485668Y-138778733D01*
X309974328Y-139626167D01*
X310455673Y-140461000D01*
X310851511Y-141147308D01*
X311271509Y-141875080D01*
X311694761Y-142608119D01*
X312100364Y-143310232D01*
X312467411Y-143945224D01*
X312774999Y-144476898D01*
X312827358Y-144567334D01*
X313176702Y-145170833D01*
X313565083Y-145842115D01*
X313961042Y-146526786D01*
X314333122Y-147170452D01*
X314632921Y-147689376D01*
X315482449Y-149160418D01*
X318184609Y-149160418D01*
X318160365Y-149085527D01*
X318035170Y-148818355D01*
X317833308Y-148427103D01*
X317560344Y-147922131D01*
X317221838Y-147313799D01*
X316823354Y-146612466D01*
X316542303Y-146124579D01*
X316113942Y-145384246D01*
X315659780Y-144598784D01*
X315199232Y-143801809D01*
X314751715Y-143026935D01*
X314336642Y-142307778D01*
X313973432Y-141677953D01*
X313760115Y-141307667D01*
X313388900Y-140663203D01*
X312979987Y-139953802D01*
X312561186Y-139227672D01*
X312160304Y-138533021D01*
X311805148Y-137918059D01*
X311684516Y-137709334D01*
X311342769Y-137117920D01*
X310968710Y-136470159D01*
X310591714Y-135816946D01*
X310241157Y-135209181D01*
X309949816Y-134703667D01*
X309655771Y-134194386D01*
X309347718Y-133662958D01*
X309052724Y-133155937D01*
X308797855Y-132719878D01*
X308669945Y-132502334D01*
X308170333Y-131655667D01*
X308147477Y-123771472D01*
X308124622Y-115887276D01*
X308380700Y-115781205D01*
X308683079Y-115587783D01*
X308954300Y-115297604D01*
X309143032Y-114971953D01*
X309190544Y-114814329D01*
X309186792Y-114403897D01*
X309039490Y-114010697D01*
X308772819Y-113675228D01*
X308410955Y-113437986D01*
X308355321Y-113415387D01*
X308230736Y-113400077D01*
X307951176Y-113386123D01*
X307530993Y-113373523D01*
X306984539Y-113362279D01*
X306326168Y-113352390D01*
X305570231Y-113343856D01*
X304731082Y-113336677D01*
X303823072Y-113330853D01*
X302860554Y-113326385D01*
X301857882Y-113323272D01*
X300829406Y-113321513D01*
X299789480Y-113321110D01*
X298752457Y-113322061D01*
D16*
G36*
X396062980Y-206483980D02*
X395958840Y-206428100D01*
X395722620Y-206280780D01*
X395389880Y-206062340D01*
X394996180Y-205798180D01*
X394599940Y-205531480D01*
X394272280Y-205313040D01*
X394046220Y-205165720D01*
X393949700Y-205112380D01*
X393898900Y-205130160D01*
X393710940Y-205221600D01*
X393436620Y-205363840D01*
X393279140Y-205447660D01*
X393027680Y-205554340D01*
X392903220Y-205577200D01*
X392882900Y-205541640D01*
X392791460Y-205351140D01*
X392646680Y-205023480D01*
X392458720Y-204589140D01*
X392242820Y-204081140D01*
X392011680Y-203535040D01*
X391778000Y-202976240D01*
X391557020Y-202442840D01*
X391361440Y-201965320D01*
X391203960Y-201576700D01*
X391102360Y-201304920D01*
X391064260Y-201188080D01*
X391074420Y-201165220D01*
X391201420Y-201043300D01*
X391419860Y-200878200D01*
X391892300Y-200494660D01*
X392359660Y-199910460D01*
X392644140Y-199247520D01*
X392738120Y-198513460D01*
X392656840Y-197830200D01*
X392390140Y-197172340D01*
X391932940Y-196583060D01*
X391379220Y-196143640D01*
X390728980Y-195866780D01*
X390002540Y-195777880D01*
X389301500Y-195856620D01*
X388630940Y-196120780D01*
X388041660Y-196570360D01*
X387795280Y-196857380D01*
X387449840Y-197454280D01*
X387254260Y-198096900D01*
X387233940Y-198259460D01*
X387261880Y-198960500D01*
X387470160Y-199633600D01*
X387841000Y-200238120D01*
X388356620Y-200730880D01*
X388420120Y-200776600D01*
X388658880Y-200954400D01*
X388818900Y-201076320D01*
X388943360Y-201180460D01*
X388049280Y-203331840D01*
X387907040Y-203674740D01*
X387663200Y-204264020D01*
X387444760Y-204769480D01*
X387274580Y-205173340D01*
X387155200Y-205442580D01*
X387101860Y-205551800D01*
X387096780Y-205556880D01*
X387018040Y-205572120D01*
X386852940Y-205511160D01*
X386553220Y-205366380D01*
X386355100Y-205264780D01*
X386126500Y-205153020D01*
X386022360Y-205112380D01*
X385936000Y-205160640D01*
X385715020Y-205302880D01*
X385394980Y-205516240D01*
X385011440Y-205777860D01*
X384645680Y-206026780D01*
X384307860Y-206250300D01*
X384061480Y-206407780D01*
X383942100Y-206471280D01*
X383924320Y-206471280D01*
X383817640Y-206412860D01*
X383624600Y-206250300D01*
X383329960Y-205973440D01*
X382915940Y-205564500D01*
X382852440Y-205501000D01*
X382512080Y-205153020D01*
X382235220Y-204863460D01*
X382049800Y-204655180D01*
X381981220Y-204561200D01*
X381981220Y-204561200D01*
X382042180Y-204444360D01*
X382197120Y-204200520D01*
X382420640Y-203857620D01*
X382694960Y-203458840D01*
X383406160Y-202422520D01*
X383015000Y-201444620D01*
X382895620Y-201144900D01*
X382743220Y-200781680D01*
X382628920Y-200522600D01*
X382570500Y-200410840D01*
X382463820Y-200372740D01*
X382197120Y-200309240D01*
X381808500Y-200227960D01*
X381346220Y-200141600D01*
X380906800Y-200060320D01*
X380508020Y-199986660D01*
X380221000Y-199928240D01*
X380091460Y-199902840D01*
X380060980Y-199885060D01*
X380033040Y-199821560D01*
X380017800Y-199686940D01*
X380007640Y-199445640D01*
X380002560Y-199064640D01*
X380002560Y-198513460D01*
X380002560Y-198452500D01*
X380007640Y-197926720D01*
X380015260Y-197507620D01*
X380030500Y-197230760D01*
X380048280Y-197124080D01*
X380050820Y-197121540D01*
X380175280Y-197091060D01*
X380454680Y-197032640D01*
X380853460Y-196953900D01*
X381328440Y-196865000D01*
X381356380Y-196857380D01*
X381831360Y-196768480D01*
X382227600Y-196684660D01*
X382504460Y-196621160D01*
X382621300Y-196585600D01*
X382646700Y-196550040D01*
X382740680Y-196367160D01*
X382877840Y-196072520D01*
X383035320Y-195714380D01*
X383187720Y-195343540D01*
X383322340Y-195010800D01*
X383411240Y-194759340D01*
X383439180Y-194647580D01*
X383436640Y-194645040D01*
X383365520Y-194530740D01*
X383202960Y-194286900D01*
X382974360Y-193946540D01*
X382697500Y-193542680D01*
X382677180Y-193512200D01*
X382405400Y-193113420D01*
X382184420Y-192775600D01*
X382037100Y-192534300D01*
X381981220Y-192425080D01*
X381983760Y-192417460D01*
X382072660Y-192298080D01*
X382278400Y-192072020D01*
X382567960Y-191767220D01*
X382918480Y-191414160D01*
X383030240Y-191304940D01*
X383418860Y-190926480D01*
X383688100Y-190677560D01*
X383855740Y-190545480D01*
X383937020Y-190515000D01*
X383939560Y-190517540D01*
X384061480Y-190591200D01*
X384312940Y-190753760D01*
X384655840Y-190987440D01*
X385062240Y-191261760D01*
X385090180Y-191282080D01*
X385488960Y-191553860D01*
X385821700Y-191777380D01*
X386057920Y-191934860D01*
X386162060Y-191998360D01*
X386179840Y-191998360D01*
X386342400Y-191950100D01*
X386626880Y-191851040D01*
X386977400Y-191713880D01*
X387345700Y-191566560D01*
X387680980Y-191424320D01*
X387934980Y-191310020D01*
X388054360Y-191241440D01*
X388056900Y-191236360D01*
X388100080Y-191094120D01*
X388168660Y-190794400D01*
X388252480Y-190382920D01*
X388346460Y-189892700D01*
X388361700Y-189813960D01*
X388450600Y-189336440D01*
X388526800Y-188945280D01*
X388582680Y-188670960D01*
X388610620Y-188559200D01*
X388676660Y-188543960D01*
X388912880Y-188526180D01*
X389268480Y-188518560D01*
X389697740Y-188513480D01*
X390152400Y-188516020D01*
X390594360Y-188526180D01*
X390972820Y-188538880D01*
X391242060Y-188556660D01*
X391353820Y-188579520D01*
X391358900Y-188587140D01*
X391399540Y-188734460D01*
X391465580Y-189034180D01*
X391549400Y-189448200D01*
X391643380Y-189938420D01*
X391661160Y-190024780D01*
X391750060Y-190499760D01*
X391828800Y-190890920D01*
X391887220Y-191157620D01*
X391917700Y-191264300D01*
X391960880Y-191287160D01*
X392156460Y-191370980D01*
X392473960Y-191503060D01*
X392870200Y-191663080D01*
X393787140Y-192033920D01*
X394907280Y-191264300D01*
X395011420Y-191195720D01*
X395415280Y-190921400D01*
X395745480Y-190700420D01*
X395976620Y-190550560D01*
X396073140Y-190497220D01*
X396080760Y-190499760D01*
X396192520Y-190598820D01*
X396413500Y-190807100D01*
X396718300Y-191101740D01*
X397071360Y-191454800D01*
X397332980Y-191716420D01*
X397642860Y-192031380D01*
X397838440Y-192242200D01*
X397945120Y-192379360D01*
X397983220Y-192460640D01*
X397973060Y-192516520D01*
X397901940Y-192630820D01*
X397736840Y-192877200D01*
X397505700Y-193217560D01*
X397231380Y-193613800D01*
X397007860Y-193946540D01*
X396764020Y-194322460D01*
X396604000Y-194591700D01*
X396550660Y-194723780D01*
X396563360Y-194777120D01*
X396642100Y-194998100D01*
X396776720Y-195330840D01*
X396944360Y-195724540D01*
X397335520Y-196613540D01*
X397917180Y-196725300D01*
X398270240Y-196793880D01*
X398763000Y-196887860D01*
X399235440Y-196979300D01*
X399974580Y-197121540D01*
X399999980Y-199834260D01*
X399885680Y-199882520D01*
X399776460Y-199913000D01*
X399502140Y-199973960D01*
X399113520Y-200050160D01*
X398653780Y-200139060D01*
X398260080Y-200210180D01*
X397866380Y-200286380D01*
X397581900Y-200339720D01*
X397457440Y-200367660D01*
X397424420Y-200410840D01*
X397325360Y-200601340D01*
X397185660Y-200906140D01*
X397028180Y-201271900D01*
X396870700Y-201650360D01*
X396731000Y-202000880D01*
X396634480Y-202267580D01*
X396596380Y-202404740D01*
X396652260Y-202508880D01*
X396799580Y-202742560D01*
X397018020Y-203072760D01*
X397287260Y-203466460D01*
X397556500Y-203857620D01*
X397782560Y-204192900D01*
X397940040Y-204434200D01*
X398006080Y-204545960D01*
X397973060Y-204619620D01*
X397815580Y-204810120D01*
X397520940Y-205117460D01*
X397078980Y-205554340D01*
X397007860Y-205622920D01*
X396657340Y-205960740D01*
X396360160Y-206232520D01*
X396154420Y-206417940D01*
X396062980Y-206483980D01*
X396062980Y-206483980D01*
G37*
X396062980Y-206483980D02*
X395958840Y-206428100D01*
X395722620Y-206280780D01*
X395389880Y-206062340D01*
X394996180Y-205798180D01*
X394599940Y-205531480D01*
X394272280Y-205313040D01*
X394046220Y-205165720D01*
X393949700Y-205112380D01*
X393898900Y-205130160D01*
X393710940Y-205221600D01*
X393436620Y-205363840D01*
X393279140Y-205447660D01*
X393027680Y-205554340D01*
X392903220Y-205577200D01*
X392882900Y-205541640D01*
X392791460Y-205351140D01*
X392646680Y-205023480D01*
X392458720Y-204589140D01*
X392242820Y-204081140D01*
X392011680Y-203535040D01*
X391778000Y-202976240D01*
X391557020Y-202442840D01*
X391361440Y-201965320D01*
X391203960Y-201576700D01*
X391102360Y-201304920D01*
X391064260Y-201188080D01*
X391074420Y-201165220D01*
X391201420Y-201043300D01*
X391419860Y-200878200D01*
X391892300Y-200494660D01*
X392359660Y-199910460D01*
X392644140Y-199247520D01*
X392738120Y-198513460D01*
X392656840Y-197830200D01*
X392390140Y-197172340D01*
X391932940Y-196583060D01*
X391379220Y-196143640D01*
X390728980Y-195866780D01*
X390002540Y-195777880D01*
X389301500Y-195856620D01*
X388630940Y-196120780D01*
X388041660Y-196570360D01*
X387795280Y-196857380D01*
X387449840Y-197454280D01*
X387254260Y-198096900D01*
X387233940Y-198259460D01*
X387261880Y-198960500D01*
X387470160Y-199633600D01*
X387841000Y-200238120D01*
X388356620Y-200730880D01*
X388420120Y-200776600D01*
X388658880Y-200954400D01*
X388818900Y-201076320D01*
X388943360Y-201180460D01*
X388049280Y-203331840D01*
X387907040Y-203674740D01*
X387663200Y-204264020D01*
X387444760Y-204769480D01*
X387274580Y-205173340D01*
X387155200Y-205442580D01*
X387101860Y-205551800D01*
X387096780Y-205556880D01*
X387018040Y-205572120D01*
X386852940Y-205511160D01*
X386553220Y-205366380D01*
X386355100Y-205264780D01*
X386126500Y-205153020D01*
X386022360Y-205112380D01*
X385936000Y-205160640D01*
X385715020Y-205302880D01*
X385394980Y-205516240D01*
X385011440Y-205777860D01*
X384645680Y-206026780D01*
X384307860Y-206250300D01*
X384061480Y-206407780D01*
X383942100Y-206471280D01*
X383924320Y-206471280D01*
X383817640Y-206412860D01*
X383624600Y-206250300D01*
X383329960Y-205973440D01*
X382915940Y-205564500D01*
X382852440Y-205501000D01*
X382512080Y-205153020D01*
X382235220Y-204863460D01*
X382049800Y-204655180D01*
X381981220Y-204561200D01*
X381981220Y-204561200D01*
X382042180Y-204444360D01*
X382197120Y-204200520D01*
X382420640Y-203857620D01*
X382694960Y-203458840D01*
X383406160Y-202422520D01*
X383015000Y-201444620D01*
X382895620Y-201144900D01*
X382743220Y-200781680D01*
X382628920Y-200522600D01*
X382570500Y-200410840D01*
X382463820Y-200372740D01*
X382197120Y-200309240D01*
X381808500Y-200227960D01*
X381346220Y-200141600D01*
X380906800Y-200060320D01*
X380508020Y-199986660D01*
X380221000Y-199928240D01*
X380091460Y-199902840D01*
X380060980Y-199885060D01*
X380033040Y-199821560D01*
X380017800Y-199686940D01*
X380007640Y-199445640D01*
X380002560Y-199064640D01*
X380002560Y-198513460D01*
X380002560Y-198452500D01*
X380007640Y-197926720D01*
X380015260Y-197507620D01*
X380030500Y-197230760D01*
X380048280Y-197124080D01*
X380050820Y-197121540D01*
X380175280Y-197091060D01*
X380454680Y-197032640D01*
X380853460Y-196953900D01*
X381328440Y-196865000D01*
X381356380Y-196857380D01*
X381831360Y-196768480D01*
X382227600Y-196684660D01*
X382504460Y-196621160D01*
X382621300Y-196585600D01*
X382646700Y-196550040D01*
X382740680Y-196367160D01*
X382877840Y-196072520D01*
X383035320Y-195714380D01*
X383187720Y-195343540D01*
X383322340Y-195010800D01*
X383411240Y-194759340D01*
X383439180Y-194647580D01*
X383436640Y-194645040D01*
X383365520Y-194530740D01*
X383202960Y-194286900D01*
X382974360Y-193946540D01*
X382697500Y-193542680D01*
X382677180Y-193512200D01*
X382405400Y-193113420D01*
X382184420Y-192775600D01*
X382037100Y-192534300D01*
X381981220Y-192425080D01*
X381983760Y-192417460D01*
X382072660Y-192298080D01*
X382278400Y-192072020D01*
X382567960Y-191767220D01*
X382918480Y-191414160D01*
X383030240Y-191304940D01*
X383418860Y-190926480D01*
X383688100Y-190677560D01*
X383855740Y-190545480D01*
X383937020Y-190515000D01*
X383939560Y-190517540D01*
X384061480Y-190591200D01*
X384312940Y-190753760D01*
X384655840Y-190987440D01*
X385062240Y-191261760D01*
X385090180Y-191282080D01*
X385488960Y-191553860D01*
X385821700Y-191777380D01*
X386057920Y-191934860D01*
X386162060Y-191998360D01*
X386179840Y-191998360D01*
X386342400Y-191950100D01*
X386626880Y-191851040D01*
X386977400Y-191713880D01*
X387345700Y-191566560D01*
X387680980Y-191424320D01*
X387934980Y-191310020D01*
X388054360Y-191241440D01*
X388056900Y-191236360D01*
X388100080Y-191094120D01*
X388168660Y-190794400D01*
X388252480Y-190382920D01*
X388346460Y-189892700D01*
X388361700Y-189813960D01*
X388450600Y-189336440D01*
X388526800Y-188945280D01*
X388582680Y-188670960D01*
X388610620Y-188559200D01*
X388676660Y-188543960D01*
X388912880Y-188526180D01*
X389268480Y-188518560D01*
X389697740Y-188513480D01*
X390152400Y-188516020D01*
X390594360Y-188526180D01*
X390972820Y-188538880D01*
X391242060Y-188556660D01*
X391353820Y-188579520D01*
X391358900Y-188587140D01*
X391399540Y-188734460D01*
X391465580Y-189034180D01*
X391549400Y-189448200D01*
X391643380Y-189938420D01*
X391661160Y-190024780D01*
X391750060Y-190499760D01*
X391828800Y-190890920D01*
X391887220Y-191157620D01*
X391917700Y-191264300D01*
X391960880Y-191287160D01*
X392156460Y-191370980D01*
X392473960Y-191503060D01*
X392870200Y-191663080D01*
X393787140Y-192033920D01*
X394907280Y-191264300D01*
X395011420Y-191195720D01*
X395415280Y-190921400D01*
X395745480Y-190700420D01*
X395976620Y-190550560D01*
X396073140Y-190497220D01*
X396080760Y-190499760D01*
X396192520Y-190598820D01*
X396413500Y-190807100D01*
X396718300Y-191101740D01*
X397071360Y-191454800D01*
X397332980Y-191716420D01*
X397642860Y-192031380D01*
X397838440Y-192242200D01*
X397945120Y-192379360D01*
X397983220Y-192460640D01*
X397973060Y-192516520D01*
X397901940Y-192630820D01*
X397736840Y-192877200D01*
X397505700Y-193217560D01*
X397231380Y-193613800D01*
X397007860Y-193946540D01*
X396764020Y-194322460D01*
X396604000Y-194591700D01*
X396550660Y-194723780D01*
X396563360Y-194777120D01*
X396642100Y-194998100D01*
X396776720Y-195330840D01*
X396944360Y-195724540D01*
X397335520Y-196613540D01*
X397917180Y-196725300D01*
X398270240Y-196793880D01*
X398763000Y-196887860D01*
X399235440Y-196979300D01*
X399974580Y-197121540D01*
X399999980Y-199834260D01*
X399885680Y-199882520D01*
X399776460Y-199913000D01*
X399502140Y-199973960D01*
X399113520Y-200050160D01*
X398653780Y-200139060D01*
X398260080Y-200210180D01*
X397866380Y-200286380D01*
X397581900Y-200339720D01*
X397457440Y-200367660D01*
X397424420Y-200410840D01*
X397325360Y-200601340D01*
X397185660Y-200906140D01*
X397028180Y-201271900D01*
X396870700Y-201650360D01*
X396731000Y-202000880D01*
X396634480Y-202267580D01*
X396596380Y-202404740D01*
X396652260Y-202508880D01*
X396799580Y-202742560D01*
X397018020Y-203072760D01*
X397287260Y-203466460D01*
X397556500Y-203857620D01*
X397782560Y-204192900D01*
X397940040Y-204434200D01*
X398006080Y-204545960D01*
X397973060Y-204619620D01*
X397815580Y-204810120D01*
X397520940Y-205117460D01*
X397078980Y-205554340D01*
X397007860Y-205622920D01*
X396657340Y-205960740D01*
X396360160Y-206232520D01*
X396154420Y-206417940D01*
X396062980Y-206483980D01*
D15*
G36*
X230518161Y-190356305D02*
X228429420Y-190356480D01*
X226460879Y-190356785D01*
X224609136Y-190357231D01*
X222870792Y-190357829D01*
X221242445Y-190358590D01*
X219720695Y-190359526D01*
X218302143Y-190360647D01*
X216983386Y-190361964D01*
X215761025Y-190363490D01*
X214631660Y-190365234D01*
X213591890Y-190367207D01*
X212638314Y-190369422D01*
X211767532Y-190371889D01*
X210976144Y-190374619D01*
X210260749Y-190377622D01*
X209617947Y-190380912D01*
X209044337Y-190384497D01*
X208536518Y-190388390D01*
X208091092Y-190392601D01*
X207704655Y-190397142D01*
X207373810Y-190402024D01*
X207095154Y-190407257D01*
X206865288Y-190412853D01*
X206680811Y-190418823D01*
X206538322Y-190425178D01*
X206434422Y-190431930D01*
X206365709Y-190439088D01*
X206346250Y-190442272D01*
X206049964Y-190506547D01*
X205733963Y-190586536D01*
X205424595Y-190674177D01*
X205148202Y-190761411D01*
X204931130Y-190840177D01*
X204799725Y-190902415D01*
X204775598Y-190922826D01*
X204733065Y-190958028D01*
X204727973Y-190944590D01*
X204677112Y-190950575D01*
X204547856Y-191000392D01*
X204373869Y-191078106D01*
X204188813Y-191167782D01*
X204026352Y-191253487D01*
X203920150Y-191319284D01*
X203901500Y-191335806D01*
X203829793Y-191386491D01*
X203688610Y-191467927D01*
X203631625Y-191498423D01*
X203484877Y-191585007D01*
X203401055Y-191653022D01*
X203393500Y-191668161D01*
X203341577Y-191721459D01*
X203273456Y-191751042D01*
X203160454Y-191820127D01*
X202983691Y-191967182D01*
X202761544Y-192173317D01*
X202512393Y-192419638D01*
X202254615Y-192687254D01*
X202006588Y-192957274D01*
X201786690Y-193210805D01*
X201613299Y-193428957D01*
X201541659Y-193531250D01*
X201324217Y-193875531D01*
X201177359Y-194130631D01*
X201095109Y-194308698D01*
X201071492Y-194421879D01*
X201082967Y-194463676D01*
X201088447Y-194505546D01*
X201058706Y-194492838D01*
X201002730Y-194525212D01*
X200923282Y-194660102D01*
X200828099Y-194876920D01*
X200724921Y-195155078D01*
X200621488Y-195473985D01*
X200525536Y-195813055D01*
X200458084Y-196090728D01*
X200428364Y-196228933D01*
X200403257Y-196362516D01*
X200382361Y-196503207D01*
X200365275Y-196662735D01*
X200351597Y-196852828D01*
X200340926Y-197085215D01*
X200332861Y-197371626D01*
X200327000Y-197723790D01*
X200322943Y-198153434D01*
X200320289Y-198672289D01*
X200318635Y-199292082D01*
X200317581Y-200024543D01*
X200317388Y-200203571D01*
X200313750Y-203700893D01*
X200505929Y-204011893D01*
X200752248Y-204313137D01*
X201008948Y-204515071D01*
X201319788Y-204707250D01*
X229899769Y-204716704D01*
X232462227Y-204717429D01*
X234898685Y-204717864D01*
X237210142Y-204718008D01*
X239397597Y-204717859D01*
X241462050Y-204717415D01*
X243404500Y-204716673D01*
X245225946Y-204715633D01*
X246927388Y-204714291D01*
X248509825Y-204712646D01*
X249974256Y-204710696D01*
X251321681Y-204708439D01*
X252553100Y-204705873D01*
X253669510Y-204702996D01*
X254671912Y-204699806D01*
X255561306Y-204696301D01*
X256338690Y-204692480D01*
X257005063Y-204688339D01*
X257561426Y-204683878D01*
X258008777Y-204679094D01*
X258348115Y-204673985D01*
X258580441Y-204668549D01*
X258706754Y-204662785D01*
X258730098Y-204659881D01*
X258965601Y-204550161D01*
X259223278Y-204348819D01*
X259278984Y-204295063D01*
X259466113Y-204086685D01*
X259578957Y-203895035D01*
X259648801Y-203666238D01*
X259651611Y-203653387D01*
X259665130Y-203551761D01*
X259676816Y-203377230D01*
X259686715Y-203124530D01*
X259694870Y-202788397D01*
X259701329Y-202363568D01*
X259706136Y-201844778D01*
X259709337Y-201226764D01*
X259710174Y-200857936D01*
X258314527Y-200857936D01*
X258167603Y-201226843D01*
X257951891Y-201766138D01*
X257777477Y-202196438D01*
X257640162Y-202527321D01*
X257535744Y-202768361D01*
X257460023Y-202929134D01*
X257408798Y-203019216D01*
X257377869Y-203048184D01*
X257370172Y-203044726D01*
X257330886Y-202966898D01*
X257259487Y-202796461D01*
X257166891Y-202560297D01*
X257084801Y-202341875D01*
X256986320Y-202079262D01*
X256903913Y-201867379D01*
X256847186Y-201730428D01*
X256826434Y-201691000D01*
X256799734Y-201747127D01*
X256740633Y-201899786D01*
X256657977Y-202125395D01*
X256564528Y-202389158D01*
X256465420Y-202663018D01*
X256377915Y-202886493D01*
X256311748Y-203035899D01*
X256277405Y-203087658D01*
X256227309Y-203035342D01*
X256189040Y-202945125D01*
X256149382Y-202839470D01*
X256069161Y-202640669D01*
X255958061Y-202372209D01*
X255901083Y-202236702D01*
X255401004Y-202236702D01*
X255377240Y-202516039D01*
X255301426Y-202713429D01*
X255140055Y-202899215D01*
X254911567Y-203003637D01*
X254651396Y-203020241D01*
X254394978Y-202942574D01*
X254314428Y-202893176D01*
X254166724Y-202751811D01*
X254141434Y-202627889D01*
X254239406Y-202525993D01*
X254246011Y-202522381D01*
X254360567Y-202500422D01*
X254467640Y-202583647D01*
X254628788Y-202689361D01*
X254810299Y-202690204D01*
X254966971Y-202587879D01*
X254985264Y-202564125D01*
X255085729Y-202421250D01*
X254591990Y-202389500D01*
X254098250Y-202357750D01*
X254107923Y-202275258D01*
X253227030Y-202275258D01*
X253226061Y-202551041D01*
X253220954Y-202777391D01*
X253212608Y-202925557D01*
X253205351Y-202967310D01*
X253131958Y-202987007D01*
X253020266Y-202976831D01*
X252932829Y-202951153D01*
X252884780Y-202895589D01*
X252864412Y-202778663D01*
X252860013Y-202568900D01*
X252860000Y-202546040D01*
X252853396Y-202274684D01*
X252268526Y-202274684D01*
X252235365Y-202537156D01*
X252121294Y-202758945D01*
X251945331Y-202924265D01*
X251726496Y-203017328D01*
X251483806Y-203022345D01*
X251236280Y-202923528D01*
X251150373Y-202860105D01*
X251026713Y-202743875D01*
X250959224Y-202656758D01*
X250955000Y-202642134D01*
X251006608Y-202570510D01*
X251126299Y-202543213D01*
X251261372Y-202565325D01*
X251329676Y-202606026D01*
X251489259Y-202690452D01*
X251664161Y-202699029D01*
X251814438Y-202641018D01*
X251900145Y-202525680D01*
X251907500Y-202472050D01*
X251868581Y-202426907D01*
X251740816Y-202400487D01*
X251507698Y-202389975D01*
X251422942Y-202389500D01*
X250938384Y-202389500D01*
X250975927Y-202158144D01*
X251069803Y-201900404D01*
X251149628Y-201813771D01*
X249896130Y-201813771D01*
X249895488Y-202130111D01*
X249887501Y-202438022D01*
X249872841Y-202703709D01*
X249852181Y-202893374D01*
X249839668Y-202949578D01*
X249764194Y-203007464D01*
X249669409Y-203013078D01*
X249598654Y-202993907D01*
X249554516Y-202943406D01*
X249529154Y-202835168D01*
X249514728Y-202642788D01*
X249507807Y-202468875D01*
X249502173Y-202335756D01*
X249050000Y-202335756D01*
X249036222Y-202551325D01*
X248980356Y-202700598D01*
X248864385Y-202838884D01*
X248655583Y-202977839D01*
X248419357Y-203029072D01*
X248200560Y-202984558D01*
X248164032Y-202964217D01*
X248050431Y-202934027D01*
X248006399Y-202946308D01*
X247888780Y-202986435D01*
X247828742Y-202995006D01*
X247779104Y-202987035D01*
X247746608Y-202940060D01*
X247727707Y-202832614D01*
X247718858Y-202643231D01*
X247718057Y-202543060D01*
X247327263Y-202543060D01*
X247322649Y-202754624D01*
X247311056Y-202889777D01*
X247291127Y-202965370D01*
X247261502Y-202998255D01*
X247225738Y-203005261D01*
X247092039Y-202979933D01*
X247047621Y-202955976D01*
X246944522Y-202941066D01*
X246888871Y-202963659D01*
X246693322Y-203021823D01*
X246462773Y-203000078D01*
X246254735Y-202905526D01*
X246224467Y-202881625D01*
X246161123Y-202801583D01*
X245658575Y-202801583D01*
X245618605Y-202931975D01*
X245614321Y-202937298D01*
X245493563Y-203013595D01*
X245363119Y-203008936D01*
X245280537Y-202929250D01*
X245270859Y-202771520D01*
X245359337Y-202666685D01*
X245462250Y-202643500D01*
X245598726Y-202690489D01*
X245658575Y-202801583D01*
X246161123Y-202801583D01*
X246064668Y-202679703D01*
X245993020Y-202446749D01*
X245998624Y-202204928D01*
X246070578Y-201976408D01*
X246179349Y-201811590D01*
X240033000Y-201811590D01*
X240032591Y-202217201D01*
X240029917Y-202513462D01*
X240022812Y-202718021D01*
X240009107Y-202848527D01*
X239986636Y-202922631D01*
X239953230Y-202957981D01*
X239906723Y-202972227D01*
X239890125Y-202974986D01*
X239767465Y-202986015D01*
X239721189Y-202979800D01*
X239707513Y-202912232D01*
X239696208Y-202751633D01*
X239689615Y-202531970D01*
X239689439Y-202519130D01*
X239664439Y-202198680D01*
X239597471Y-201994388D01*
X239485936Y-201901669D01*
X239344093Y-201910205D01*
X239278079Y-201944493D01*
X239236600Y-202014355D01*
X239212359Y-202147142D01*
X239198061Y-202370204D01*
X239194137Y-202472356D01*
X239183313Y-202728036D01*
X239167288Y-202882338D01*
X239137357Y-202960838D01*
X239084815Y-202989109D01*
X239017000Y-202992750D01*
X238931206Y-202984535D01*
X238881492Y-202940812D01*
X238855451Y-202832959D01*
X238840673Y-202632357D01*
X238838046Y-202580000D01*
X238841932Y-202188398D01*
X238899664Y-201903128D01*
X238970658Y-201786250D01*
X238636000Y-201786250D01*
X238614264Y-201905586D01*
X238572500Y-201945000D01*
X238540874Y-202004310D01*
X238518708Y-202165798D01*
X238509153Y-202404796D01*
X238509000Y-202442416D01*
X238505584Y-202680388D01*
X238496527Y-202864449D01*
X238483617Y-202961844D01*
X238480274Y-202968559D01*
X238400655Y-202992146D01*
X238321524Y-202997285D01*
X238257340Y-202987555D01*
X238218622Y-202941451D01*
X238199011Y-202833602D01*
X238192147Y-202638636D01*
X238191500Y-202478545D01*
X238189195Y-202222137D01*
X238177494Y-202065705D01*
X238149218Y-201982242D01*
X238097189Y-201944744D01*
X238046229Y-201932034D01*
X237908985Y-201916020D01*
X237821433Y-201945123D01*
X237772581Y-202040003D01*
X237751436Y-202221323D01*
X237747000Y-202494458D01*
X237745348Y-202755339D01*
X237735958Y-202913365D01*
X237712180Y-202992674D01*
X237667362Y-203017408D01*
X237604125Y-203013041D01*
X237533503Y-202993836D01*
X237489441Y-202943192D01*
X237464113Y-202834709D01*
X237449693Y-202641987D01*
X237442807Y-202468875D01*
X237430840Y-202210351D01*
X237412776Y-202053848D01*
X237381805Y-201974389D01*
X237331114Y-201946995D01*
X237299932Y-201945000D01*
X237201971Y-201906427D01*
X237175500Y-201786250D01*
X237205266Y-201661764D01*
X237302500Y-201627500D01*
X237048500Y-201627500D01*
X237048500Y-203723000D01*
X236889750Y-203723000D01*
X236804946Y-203715922D01*
X236757421Y-203675711D01*
X236736404Y-203573903D01*
X236733567Y-203470764D01*
X234729660Y-203470764D01*
X234640113Y-203524767D01*
X234582834Y-203532500D01*
X234532229Y-203500460D01*
X234470896Y-203413263D01*
X233272680Y-203413263D01*
X233259075Y-203486313D01*
X233213566Y-203521378D01*
X233139507Y-203531436D01*
X233134289Y-203531527D01*
X233080035Y-203477326D01*
X232991650Y-203330406D01*
X232883058Y-203115608D01*
X232805512Y-202945125D01*
X232675735Y-202647956D01*
X232516978Y-202284771D01*
X231765736Y-202284771D01*
X231757649Y-202411957D01*
X231664775Y-202688561D01*
X231484155Y-202889546D01*
X231237904Y-203003013D01*
X230948133Y-203017062D01*
X230734414Y-202962582D01*
X230560644Y-202838748D01*
X230470667Y-202711279D01*
X230127000Y-202711279D01*
X230072984Y-202825677D01*
X229941752Y-202936709D01*
X229779531Y-203011161D01*
X229691064Y-203024500D01*
X229510672Y-202984797D01*
X229341814Y-202892891D01*
X229207805Y-202723578D01*
X229184067Y-202533863D01*
X229261961Y-202347940D01*
X229432846Y-202190003D01*
X229624237Y-202102088D01*
X229724391Y-202030908D01*
X229746000Y-201972470D01*
X229711445Y-201889339D01*
X229622884Y-201910321D01*
X229575018Y-201950882D01*
X229477635Y-201986529D01*
X229366550Y-201945829D01*
X229271322Y-201882837D01*
X229279748Y-201818475D01*
X229285441Y-201811695D01*
X228984000Y-201811695D01*
X228982199Y-202177244D01*
X228977199Y-202497212D01*
X228969607Y-202750621D01*
X228960029Y-202916494D01*
X228950425Y-202973409D01*
X228867180Y-202997378D01*
X228775800Y-202999867D01*
X228703212Y-202986306D01*
X228659076Y-202936673D01*
X228634397Y-202823952D01*
X228620180Y-202621123D01*
X228615830Y-202519337D01*
X228593009Y-202217245D01*
X228548182Y-202022734D01*
X228473389Y-201917163D01*
X228360671Y-201881894D01*
X228343459Y-201881500D01*
X228225444Y-201924134D01*
X228147360Y-202059360D01*
X228105315Y-202298159D01*
X228095000Y-202582619D01*
X228091257Y-202819233D01*
X228076328Y-202951993D01*
X228044668Y-203003919D01*
X227994557Y-202999543D01*
X227873580Y-202965279D01*
X227835807Y-202961000D01*
X227800584Y-202903556D01*
X227780407Y-202753414D01*
X227774281Y-202543858D01*
X227781210Y-202308174D01*
X227800198Y-202079646D01*
X227830249Y-201891559D01*
X227870367Y-201777197D01*
X227871269Y-201775884D01*
X228040433Y-201636238D01*
X228165294Y-201610883D01*
X227460000Y-201610883D01*
X227460000Y-203723000D01*
X227306296Y-203723000D01*
X227184824Y-203690990D01*
X227120540Y-203572848D01*
X227111405Y-203535481D01*
X227102229Y-203436591D01*
X215820521Y-203436591D01*
X215796385Y-203498942D01*
X215739590Y-203526116D01*
X215675721Y-203531527D01*
X215632391Y-203475941D01*
X215547741Y-203319389D01*
X215429538Y-203078037D01*
X215285545Y-202768051D01*
X215123530Y-202405596D01*
X215015579Y-202157299D01*
X214828707Y-201721422D01*
X214687901Y-201387234D01*
X214588394Y-201140041D01*
X214525418Y-200965150D01*
X214494205Y-200847866D01*
X214489988Y-200773496D01*
X214507999Y-200727347D01*
X214541482Y-200696169D01*
X214582765Y-200664391D01*
X214617395Y-200645779D01*
X214652188Y-200652570D01*
X214693962Y-200697003D01*
X214749533Y-200791315D01*
X214825719Y-200947744D01*
X214929337Y-201178528D01*
X215067204Y-201495904D01*
X215246136Y-201912111D01*
X215338288Y-202126577D01*
X215525887Y-202566499D01*
X215664681Y-202904016D01*
X215757898Y-203152573D01*
X215808769Y-203325616D01*
X215820521Y-203436591D01*
X227102229Y-203436591D01*
X227093218Y-203339497D01*
X227105915Y-203123607D01*
X227107142Y-203115637D01*
X227123984Y-202966619D01*
X227101595Y-202914322D01*
X227032157Y-202930322D01*
X226727856Y-203004007D01*
X226460818Y-202966434D01*
X226249048Y-202829070D01*
X226110549Y-202603379D01*
X226063238Y-202313278D01*
X226074421Y-202255368D01*
X225852234Y-202255368D01*
X225825380Y-202520106D01*
X225704740Y-202762167D01*
X225600333Y-202871292D01*
X225445079Y-202980179D01*
X225297568Y-203011712D01*
X225145353Y-202995998D01*
X224967777Y-202969534D01*
X224843020Y-202955240D01*
X224824750Y-202954410D01*
X224712533Y-202963405D01*
X224634250Y-202973685D01*
X224577983Y-202974092D01*
X224540362Y-202940796D01*
X224516684Y-202852268D01*
X224502243Y-202686978D01*
X224492333Y-202423398D01*
X224489227Y-202310125D01*
X224471204Y-201627500D01*
X224632102Y-201627500D01*
X224752487Y-201647336D01*
X224793000Y-201686133D01*
X224841705Y-201700497D01*
X224961555Y-201660138D01*
X224988010Y-201647482D01*
X225046850Y-201624431D01*
X224158000Y-201624431D01*
X224158000Y-202282132D01*
X224155120Y-202558048D01*
X224147344Y-202783491D01*
X224135965Y-202930321D01*
X224126277Y-202971556D01*
X224044914Y-202992688D01*
X223951652Y-202993005D01*
X223879602Y-202978075D01*
X223834013Y-202928415D01*
X223805921Y-202817682D01*
X223786363Y-202619533D01*
X223777000Y-202479740D01*
X223774739Y-202443911D01*
X223068284Y-202443911D01*
X223064844Y-202705009D01*
X223058090Y-202879785D01*
X223050301Y-202942894D01*
X222968795Y-203009977D01*
X222889993Y-203024500D01*
X222810954Y-203007133D01*
X222771996Y-202933780D01*
X222759228Y-202772561D01*
X222758561Y-202722875D01*
X222756121Y-202421250D01*
X222486211Y-202727447D01*
X222329673Y-202895333D01*
X222218638Y-202980937D01*
X222121669Y-203003021D01*
X222045148Y-202990689D01*
X221873997Y-202947733D01*
X221918172Y-202891504D01*
X221607462Y-202891504D01*
X221531389Y-202994034D01*
X221411909Y-203013078D01*
X221298414Y-202958261D01*
X221268750Y-202834000D01*
X221303651Y-202703188D01*
X221411909Y-202654921D01*
X221545856Y-202677985D01*
X221593328Y-202734296D01*
X221607462Y-202891504D01*
X221918172Y-202891504D01*
X222169829Y-202571185D01*
X222364706Y-202323138D01*
X220909066Y-202323138D01*
X220866035Y-202508040D01*
X220864862Y-202511963D01*
X220730137Y-202758551D01*
X220513407Y-202934664D01*
X220247201Y-203024693D01*
X219964051Y-203013033D01*
X219876944Y-202985956D01*
X219798535Y-202889535D01*
X219776500Y-202722114D01*
X219781442Y-202577448D01*
X219809085Y-202539829D01*
X219878661Y-202589350D01*
X219892626Y-202601908D01*
X220071387Y-202691556D01*
X220273513Y-202692236D01*
X220442077Y-202603851D01*
X220526482Y-202439465D01*
X220526142Y-202348225D01*
X219585763Y-202348225D01*
X219562000Y-202536022D01*
X219472540Y-202696074D01*
X219370100Y-202808600D01*
X219122475Y-202980012D01*
X218848367Y-203027557D01*
X218551368Y-202950755D01*
X218498345Y-202925032D01*
X218303813Y-202760550D01*
X218185832Y-202530662D01*
X218150018Y-202272442D01*
X218201986Y-202022965D01*
X218332848Y-201832385D01*
X218592432Y-201659591D01*
X218726956Y-201628414D01*
X217871500Y-201628414D01*
X217871500Y-202284123D01*
X217868901Y-202559182D01*
X217861881Y-202783320D01*
X217851612Y-202928524D01*
X217842919Y-202968414D01*
X217763384Y-202996102D01*
X217684169Y-203006801D01*
X217617309Y-203001759D01*
X217578304Y-202956712D01*
X217559746Y-202845594D01*
X217554224Y-202642336D01*
X217554000Y-202548839D01*
X217544153Y-202265097D01*
X217511838Y-202083365D01*
X217454215Y-201981285D01*
X217317716Y-201888163D01*
X217215594Y-201916482D01*
X217147668Y-202066527D01*
X217113757Y-202338580D01*
X217109500Y-202521262D01*
X217107629Y-202766934D01*
X217096272Y-202912057D01*
X217066814Y-202983080D01*
X217010640Y-203006453D01*
X216950750Y-203008625D01*
X216863434Y-203000734D01*
X216815816Y-202957377D01*
X216795779Y-202849029D01*
X216791206Y-202646161D01*
X216791133Y-202619687D01*
X216780388Y-202299998D01*
X216746799Y-202087346D01*
X216685801Y-201963089D01*
X216618945Y-201916547D01*
X216493552Y-201907027D01*
X216409085Y-201996839D01*
X216361692Y-202194153D01*
X216347500Y-202492525D01*
X216340249Y-202718091D01*
X216321091Y-202884165D01*
X216293918Y-202959465D01*
X216289194Y-202961000D01*
X216182777Y-202981945D01*
X216130444Y-202999543D01*
X216083575Y-203002640D01*
X216053825Y-202954499D01*
X216037488Y-202834207D01*
X216030860Y-202620849D01*
X216030000Y-202432652D01*
X216031977Y-202149478D01*
X216042334Y-201964023D01*
X216067718Y-201847016D01*
X216114772Y-201769189D01*
X216190141Y-201701271D01*
X216197314Y-201695608D01*
X216391345Y-201583458D01*
X216566060Y-201583819D01*
X216707311Y-201657905D01*
X216814865Y-201715187D01*
X216920785Y-201705801D01*
X217038131Y-201653657D01*
X217190905Y-201599473D01*
X217301986Y-201597833D01*
X217309329Y-201601515D01*
X217417933Y-201629284D01*
X217590497Y-201638879D01*
X217627637Y-201637969D01*
X217871500Y-201628414D01*
X218726956Y-201628414D01*
X218862326Y-201597041D01*
X219119354Y-201635191D01*
X219340337Y-201764499D01*
X219502100Y-201975423D01*
X219581464Y-202258421D01*
X219585763Y-202348225D01*
X220526142Y-202348225D01*
X220525735Y-202239255D01*
X220448087Y-202053448D01*
X220334307Y-201947890D01*
X220205616Y-201889779D01*
X220099032Y-201898395D01*
X219964694Y-201968011D01*
X219767523Y-202084483D01*
X219787887Y-201873869D01*
X219825335Y-201717210D01*
X219925159Y-201634725D01*
X220009451Y-201605926D01*
X220254104Y-201597366D01*
X220502190Y-201690864D01*
X220717191Y-201867925D01*
X220820696Y-202016802D01*
X220896062Y-202183031D01*
X220909066Y-202323138D01*
X222364706Y-202323138D01*
X222465662Y-202194638D01*
X221909058Y-201627500D01*
X222132649Y-201627500D01*
X222330757Y-201662705D01*
X222506243Y-201785832D01*
X222542745Y-201822544D01*
X222729250Y-202017589D01*
X222761000Y-201330419D01*
X222776755Y-201027226D01*
X222793865Y-200828965D01*
X222817417Y-200713623D01*
X222852496Y-200659185D01*
X222904186Y-200643639D01*
X222919750Y-200643250D01*
X222965595Y-200649182D01*
X222999269Y-200678639D01*
X223023050Y-200749105D01*
X223039214Y-200878066D01*
X223050041Y-201083010D01*
X223057806Y-201381422D01*
X223064184Y-201752269D01*
X223068151Y-202118872D01*
X223068284Y-202443911D01*
X223774739Y-202443911D01*
X223745250Y-201976750D01*
X223541950Y-201957081D01*
X223367052Y-201903128D01*
X223297030Y-201806278D01*
X223301867Y-201669396D01*
X223398717Y-201594187D01*
X223554750Y-201602290D01*
X223703560Y-201626927D01*
X223898013Y-201633969D01*
X223919875Y-201633331D01*
X224158000Y-201624431D01*
X225046850Y-201624431D01*
X225138514Y-201588521D01*
X225273830Y-201591974D01*
X225416635Y-201637699D01*
X225643206Y-201782903D01*
X225789958Y-201999213D01*
X225852234Y-202255368D01*
X226074421Y-202255368D01*
X226110026Y-202071002D01*
X226232937Y-201856269D01*
X226406640Y-201690642D01*
X226605802Y-201595683D01*
X226805090Y-201592956D01*
X226876464Y-201621058D01*
X227019465Y-201654958D01*
X227207528Y-201651511D01*
X227228823Y-201648397D01*
X227460000Y-201610883D01*
X228165294Y-201610883D01*
X228263125Y-201591017D01*
X228439844Y-201625824D01*
X228603000Y-201687856D01*
X228603000Y-201185175D01*
X228610406Y-200900526D01*
X228638226Y-200724428D01*
X228694860Y-200639000D01*
X228788711Y-200626363D01*
X228857569Y-200643430D01*
X228902844Y-200664302D01*
X228935804Y-200705850D01*
X228958395Y-200786057D01*
X228972563Y-200922909D01*
X228980256Y-201134390D01*
X228983418Y-201438485D01*
X228984000Y-201811695D01*
X229285441Y-201811695D01*
X229336357Y-201751067D01*
X229526037Y-201610626D01*
X229725539Y-201596092D01*
X229822977Y-201633488D01*
X229984650Y-201748306D01*
X230052951Y-201897083D01*
X230062528Y-202025308D01*
X230026641Y-202175617D01*
X229898655Y-202297294D01*
X229857125Y-202323167D01*
X229645191Y-202459221D01*
X229536896Y-202558149D01*
X229519125Y-202632798D01*
X229526103Y-202647306D01*
X229615816Y-202699834D01*
X229737399Y-202697381D01*
X229819693Y-202642882D01*
X229822893Y-202635073D01*
X229889301Y-202597974D01*
X230002258Y-202612177D01*
X230100248Y-202662266D01*
X230127000Y-202711279D01*
X230470667Y-202711279D01*
X230416482Y-202634518D01*
X230330266Y-202396491D01*
X230317738Y-202277442D01*
X230362604Y-202074312D01*
X230508416Y-201862166D01*
X230527488Y-201840999D01*
X230687063Y-201691364D01*
X230838376Y-201622060D01*
X230996489Y-201605072D01*
X231309144Y-201648447D01*
X231551183Y-201786378D01*
X231708187Y-202003582D01*
X231765736Y-202284771D01*
X232516978Y-202284771D01*
X232515978Y-202282485D01*
X232347238Y-201896730D01*
X232201590Y-201564000D01*
X232062726Y-201242670D01*
X231971515Y-201017021D01*
X231922411Y-200867413D01*
X231909871Y-200774205D01*
X231928350Y-200717756D01*
X231955129Y-200690875D01*
X232055827Y-200625351D01*
X232095616Y-200611500D01*
X232130625Y-200667277D01*
X232208052Y-200824004D01*
X232320583Y-201065769D01*
X232460908Y-201376662D01*
X232621713Y-201740774D01*
X232744789Y-202023989D01*
X232941000Y-202481642D01*
X233088541Y-202836418D01*
X233190766Y-203101294D01*
X233251028Y-203289250D01*
X233272680Y-203413263D01*
X234470896Y-203413263D01*
X234460017Y-203397797D01*
X234361230Y-203214693D01*
X234230904Y-202941332D01*
X234064070Y-202567896D01*
X233884892Y-202152855D01*
X233698625Y-201714902D01*
X233558400Y-201378779D01*
X233459447Y-201129922D01*
X233396998Y-200953770D01*
X233366283Y-200835758D01*
X233362534Y-200761325D01*
X233380981Y-200715907D01*
X233406523Y-200692117D01*
X233511708Y-200646578D01*
X233560847Y-200658887D01*
X233609230Y-200742611D01*
X233693975Y-200920012D01*
X233806805Y-201171174D01*
X233939442Y-201476183D01*
X234083608Y-201815124D01*
X234231025Y-202168082D01*
X234373416Y-202515144D01*
X234502501Y-202836394D01*
X234610004Y-203111918D01*
X234687646Y-203321800D01*
X234727150Y-203446128D01*
X234729660Y-203470764D01*
X236733567Y-203470764D01*
X236731126Y-203382030D01*
X236731000Y-203303456D01*
X236727607Y-203080474D01*
X236712625Y-202960355D01*
X236678856Y-202919041D01*
X236619875Y-202932132D01*
X236337379Y-203011047D01*
X236097228Y-202977097D01*
X235909343Y-202855916D01*
X235865097Y-202797223D01*
X235327599Y-202797223D01*
X235309328Y-202933703D01*
X235220318Y-203008188D01*
X235127909Y-203013078D01*
X235014414Y-202958261D01*
X234984750Y-202834000D01*
X235019651Y-202703188D01*
X235127909Y-202654921D01*
X235263555Y-202684438D01*
X235327599Y-202797223D01*
X235865097Y-202797223D01*
X235739731Y-202630926D01*
X235669072Y-202370998D01*
X235692360Y-202106905D01*
X235804593Y-201869421D01*
X235857898Y-201820483D01*
X235334000Y-201820483D01*
X235287271Y-201940116D01*
X235179580Y-201992716D01*
X235059673Y-201975230D01*
X234976295Y-201884605D01*
X234965811Y-201843544D01*
X234987588Y-201698098D01*
X235075072Y-201607032D01*
X235191328Y-201599582D01*
X235238750Y-201627500D01*
X235320128Y-201749944D01*
X235334000Y-201820483D01*
X235857898Y-201820483D01*
X236000767Y-201689320D01*
X236107366Y-201638049D01*
X236280664Y-201586230D01*
X236412808Y-201595444D01*
X236535991Y-201647482D01*
X236664574Y-201696984D01*
X236729200Y-201693188D01*
X236731000Y-201686133D01*
X236785371Y-201642047D01*
X236889750Y-201627500D01*
X237048500Y-201627500D01*
X237302500Y-201627500D01*
X237385589Y-201606199D01*
X237422310Y-201520108D01*
X237429500Y-201373500D01*
X237438165Y-201209852D01*
X237479036Y-201137116D01*
X237574426Y-201119590D01*
X237588250Y-201119500D01*
X237690530Y-201133363D01*
X237735990Y-201198756D01*
X237746944Y-201351380D01*
X237747000Y-201373500D01*
X237753729Y-201536127D01*
X237795273Y-201608399D01*
X237903670Y-201626932D01*
X237969250Y-201627500D01*
X238111549Y-201619810D01*
X238174788Y-201572331D01*
X238191004Y-201448449D01*
X238191500Y-201373500D01*
X238200165Y-201209852D01*
X238241036Y-201137116D01*
X238336426Y-201119590D01*
X238350250Y-201119500D01*
X238452530Y-201133363D01*
X238497990Y-201198756D01*
X238508944Y-201351380D01*
X238509000Y-201373500D01*
X238523084Y-201532555D01*
X238558266Y-201621023D01*
X238572500Y-201627500D01*
X238620235Y-201681842D01*
X238636000Y-201786250D01*
X238970658Y-201786250D01*
X239014538Y-201714010D01*
X239147137Y-201626200D01*
X239330612Y-201578872D01*
X239494019Y-201616319D01*
X239499100Y-201618610D01*
X239628999Y-201672105D01*
X239696056Y-201691000D01*
X239709429Y-201633000D01*
X239709953Y-201479681D01*
X239697735Y-201262058D01*
X239694439Y-201221387D01*
X239684723Y-200910123D01*
X239719842Y-200712458D01*
X239802335Y-200622240D01*
X239934744Y-200633316D01*
X239936942Y-200634152D01*
X239971905Y-200665153D01*
X239997462Y-200738546D01*
X240014981Y-200871106D01*
X240025832Y-201079607D01*
X240031381Y-201380824D01*
X240032998Y-201791531D01*
X240033000Y-201811590D01*
X246179349Y-201811590D01*
X246197983Y-201783355D01*
X246369937Y-201647937D01*
X246575541Y-201592319D01*
X246803893Y-201638670D01*
X246829706Y-201650832D01*
X247013233Y-201742387D01*
X247031492Y-201192818D01*
X247042832Y-200927151D01*
X247059573Y-200763957D01*
X247088197Y-200678714D01*
X247135186Y-200646899D01*
X247176750Y-200643250D01*
X247221376Y-200648893D01*
X247254488Y-200677128D01*
X247278162Y-200744915D01*
X247294469Y-200869212D01*
X247305482Y-201066979D01*
X247313275Y-201355174D01*
X247319920Y-201750757D01*
X247320988Y-201823291D01*
X247326257Y-202238233D01*
X247327263Y-202543060D01*
X247718057Y-202543060D01*
X247716514Y-202350444D01*
X247716500Y-202315387D01*
X247716500Y-201627500D01*
X247875250Y-201627500D01*
X247994612Y-201647581D01*
X248034000Y-201686133D01*
X248082483Y-201701330D01*
X248201088Y-201661111D01*
X248219912Y-201652021D01*
X248459113Y-201592450D01*
X248681094Y-201643865D01*
X248866435Y-201790268D01*
X248995717Y-202015665D01*
X249049519Y-202304060D01*
X249050000Y-202335756D01*
X249502173Y-202335756D01*
X249496939Y-202212120D01*
X249480922Y-202056840D01*
X249451260Y-201977553D01*
X249399461Y-201948778D01*
X249333182Y-201945000D01*
X249214116Y-201918158D01*
X249177578Y-201813401D01*
X249177000Y-201786250D01*
X249203228Y-201665408D01*
X249306495Y-201628170D01*
X249335750Y-201627500D01*
X249425956Y-201618684D01*
X249473348Y-201571724D01*
X249491624Y-201455844D01*
X249494500Y-201270847D01*
X249491449Y-201069210D01*
X249472955Y-200966435D01*
X249425008Y-200934393D01*
X249333600Y-200944952D01*
X249332319Y-200945197D01*
X249216012Y-200952300D01*
X249183940Y-200886748D01*
X249189444Y-200809725D01*
X249230504Y-200685623D01*
X249341301Y-200632549D01*
X249402495Y-200624293D01*
X249588644Y-200643921D01*
X249723443Y-200752560D01*
X249815111Y-200961862D01*
X249871864Y-201283480D01*
X249872684Y-201290995D01*
X249888752Y-201522800D01*
X249896130Y-201813771D01*
X251149628Y-201813771D01*
X251237726Y-201718160D01*
X251452376Y-201615218D01*
X251686433Y-201595387D01*
X251912577Y-201662473D01*
X252103487Y-201820284D01*
X252201758Y-201987318D01*
X252268526Y-202274684D01*
X252853396Y-202274684D01*
X252853115Y-202263165D01*
X252826058Y-202084355D01*
X252769230Y-201987118D01*
X252673031Y-201948961D01*
X252603486Y-201945000D01*
X252448569Y-201908560D01*
X252381234Y-201810072D01*
X252384583Y-201671607D01*
X252480419Y-201597461D01*
X252637750Y-201607647D01*
X252787912Y-201632181D01*
X252980523Y-201636549D01*
X252994321Y-201635880D01*
X253223891Y-201623364D01*
X253227030Y-202275258D01*
X254107923Y-202275258D01*
X254120590Y-202167250D01*
X254182020Y-201916207D01*
X254310882Y-201750149D01*
X254480413Y-201654671D01*
X254752382Y-201597028D01*
X254995647Y-201646038D01*
X255194987Y-201782073D01*
X255335179Y-201985504D01*
X255401004Y-202236702D01*
X255901083Y-202236702D01*
X255825764Y-202057580D01*
X255740261Y-201856463D01*
X255604417Y-201536933D01*
X255488055Y-201260702D01*
X255399524Y-201047797D01*
X255347175Y-200918246D01*
X255336500Y-200888088D01*
X255391648Y-200871986D01*
X255520076Y-200865500D01*
X253888470Y-200865500D01*
X253843260Y-201262375D01*
X253812013Y-201510591D01*
X253781825Y-201657998D01*
X253743040Y-201730335D01*
X253686001Y-201753338D01*
X253658634Y-201754500D01*
X253596692Y-201695036D01*
X253547314Y-201532744D01*
X253535382Y-201459887D01*
X253501344Y-201183387D01*
X253495179Y-201008854D01*
X253522976Y-200913138D01*
X253590826Y-200873086D01*
X253691735Y-200865500D01*
X253888470Y-200865500D01*
X255520076Y-200865500D01*
X255602425Y-200872548D01*
X255669131Y-200907154D01*
X255734043Y-200989508D01*
X255811006Y-201139801D01*
X255913868Y-201378225D01*
X255977665Y-201532718D01*
X256109380Y-201837139D01*
X256210074Y-202034662D01*
X256276773Y-202119912D01*
X256299539Y-202114413D01*
X256340272Y-202021363D01*
X256412203Y-201838146D01*
X256503959Y-201594244D01*
X256573907Y-201403154D01*
X256669149Y-201143223D01*
X256748716Y-200932005D01*
X256802749Y-200795319D01*
X256820543Y-200757291D01*
X256848802Y-200805201D01*
X256911326Y-200950542D01*
X256999119Y-201171336D01*
X257103189Y-201445609D01*
X257112516Y-201470734D01*
X257217583Y-201748508D01*
X257307190Y-201974630D01*
X257372335Y-202127137D01*
X257404011Y-202184067D01*
X257404874Y-202183792D01*
X257434814Y-202119771D01*
X257499860Y-201962509D01*
X257589702Y-201737367D01*
X257670623Y-201530264D01*
X257781566Y-201249190D01*
X257863139Y-201065493D01*
X257930123Y-200957474D01*
X257997300Y-200903434D01*
X258079449Y-200881671D01*
X258115193Y-200877593D01*
X258314527Y-200857936D01*
X259710174Y-200857936D01*
X259710977Y-200504263D01*
X259711101Y-199672011D01*
X259709754Y-198724743D01*
X259706983Y-197657196D01*
X259705975Y-197341250D01*
X259702558Y-196334710D01*
X259699307Y-195461685D01*
X258436381Y-195461685D01*
X258380855Y-196086002D01*
X258237748Y-196693689D01*
X258014196Y-197251417D01*
X257808817Y-197601330D01*
X257391417Y-198103413D01*
X256885780Y-198537870D01*
X256316105Y-198889490D01*
X255706586Y-199143059D01*
X255147879Y-199274288D01*
X254878523Y-199311363D01*
X254674094Y-199328665D01*
X254484040Y-199326143D01*
X254257807Y-199303745D01*
X254028760Y-199273148D01*
X253348400Y-199117768D01*
X252717728Y-198853293D01*
X252148549Y-198489607D01*
X251652667Y-198036593D01*
X251241887Y-197504136D01*
X251099353Y-197230752D01*
X249613570Y-197230752D01*
X249581200Y-197402163D01*
X249515990Y-197624765D01*
X249428412Y-197866627D01*
X249328939Y-198095822D01*
X249230808Y-198276120D01*
X248893622Y-198692885D01*
X248482128Y-199006868D01*
X247999525Y-199215893D01*
X247762875Y-199274567D01*
X247481585Y-199320400D01*
X247241734Y-199330263D01*
X246980040Y-199304009D01*
X246794091Y-199272319D01*
X246618999Y-199219444D01*
X233238500Y-199219444D01*
X232127250Y-199182750D01*
X232098574Y-196642311D01*
X228624583Y-196642311D01*
X228602807Y-197193229D01*
X228474548Y-197768071D01*
X228253520Y-198263101D01*
X227944521Y-198672677D01*
X227552350Y-198991154D01*
X227081805Y-199212888D01*
X226825000Y-199284308D01*
X226508943Y-199313944D01*
X226144845Y-199286787D01*
X225794534Y-199209750D01*
X225636379Y-199151405D01*
X225425430Y-199045014D01*
X225234085Y-198927660D01*
X225186860Y-198892998D01*
X225015250Y-198757524D01*
X224951750Y-199182750D01*
X224540960Y-199202016D01*
X224301887Y-199206670D01*
X224095795Y-199199294D01*
X223985335Y-199184931D01*
X223840500Y-199148580D01*
X223840500Y-194452000D01*
X222507000Y-194452000D01*
X222507000Y-196790916D01*
X222505975Y-197323729D01*
X222503057Y-197816021D01*
X222498480Y-198253473D01*
X222492480Y-198621762D01*
X222485293Y-198906568D01*
X222477153Y-199093568D01*
X222468296Y-199168443D01*
X222467943Y-199168890D01*
X222389946Y-199186013D01*
X222219184Y-199195744D01*
X221989764Y-199196359D01*
X221944068Y-199195348D01*
X221459250Y-199182750D01*
X221427299Y-197688413D01*
X221416637Y-197213027D01*
X221406249Y-196846164D01*
X221394158Y-196569366D01*
X221378390Y-196364178D01*
X221356970Y-196212142D01*
X221327923Y-196094800D01*
X221289273Y-195993696D01*
X221239046Y-195890373D01*
X221233801Y-195880161D01*
X221049672Y-195615303D01*
X220823058Y-195463058D01*
X220545663Y-195421241D01*
X220209193Y-195487666D01*
X220018162Y-195559954D01*
X219951436Y-195561680D01*
X219878178Y-195496333D01*
X219783371Y-195345786D01*
X219684787Y-195157522D01*
X219578260Y-194939059D01*
X219498806Y-194762918D01*
X219460507Y-194660691D01*
X219459000Y-194650980D01*
X219515010Y-194590787D01*
X219660084Y-194515261D01*
X219859794Y-194438699D01*
X220079709Y-194375399D01*
X220168020Y-194356543D01*
X220486316Y-194354118D01*
X220816587Y-194447943D01*
X221109208Y-194623206D01*
X221135092Y-194645172D01*
X221272181Y-194758510D01*
X221368517Y-194825370D01*
X221388258Y-194833000D01*
X221415830Y-194777734D01*
X221427498Y-194644607D01*
X221427500Y-194642500D01*
X221427500Y-194452000D01*
X222507000Y-194452000D01*
X223840500Y-194452000D01*
X223840500Y-194447055D01*
X224396125Y-194465402D01*
X224951750Y-194483750D01*
X224971268Y-194718675D01*
X224990785Y-194953600D01*
X225270096Y-194740397D01*
X225586606Y-194536438D01*
X225909861Y-194416183D01*
X226285234Y-194365367D01*
X226475750Y-194361319D01*
X226963779Y-194422160D01*
X227407297Y-194592427D01*
X227796799Y-194859468D01*
X228122782Y-195210629D01*
X228375743Y-195633259D01*
X228546178Y-196114704D01*
X228624583Y-196642311D01*
X232098574Y-196642311D01*
X232093202Y-196166500D01*
X231631443Y-196166500D01*
X231025130Y-196118201D01*
X230487444Y-195977597D01*
X230025987Y-195751126D01*
X229648362Y-195445225D01*
X229362171Y-195066334D01*
X229175018Y-194620888D01*
X229094505Y-194115328D01*
X229091908Y-194016070D01*
X229100619Y-193736785D01*
X229126434Y-193468554D01*
X229163790Y-193268947D01*
X229164270Y-193267259D01*
X229307506Y-192928982D01*
X229531577Y-192586109D01*
X229802149Y-192287562D01*
X229923428Y-192185614D01*
X230115488Y-192053947D01*
X230315328Y-191951906D01*
X230543362Y-191875193D01*
X230820007Y-191819508D01*
X231165676Y-191780553D01*
X231600786Y-191754030D01*
X232047875Y-191738282D01*
X233238500Y-191704846D01*
X233238500Y-199219444D01*
X246618999Y-199219444D01*
X246276387Y-199115981D01*
X245812921Y-198855117D01*
X245421252Y-198503049D01*
X245118941Y-198073098D01*
X245060307Y-197956977D01*
X244979284Y-197768101D01*
X244928785Y-197595054D01*
X244901904Y-197397226D01*
X244891731Y-197134009D01*
X244890750Y-196960250D01*
X244908790Y-196535008D01*
X244971596Y-196197361D01*
X245092197Y-195911930D01*
X245283622Y-195643339D01*
X245437348Y-195476106D01*
X245623619Y-195301663D01*
X245826616Y-195148441D01*
X246070684Y-195002285D01*
X246380169Y-194849036D01*
X246779415Y-194674541D01*
X246907618Y-194621180D01*
X247204230Y-194492102D01*
X247478577Y-194360995D01*
X247696370Y-194244904D01*
X247807337Y-194173921D01*
X248017103Y-193949977D01*
X248117938Y-193698616D01*
X248119118Y-193438847D01*
X248029922Y-193189682D01*
X247859627Y-192970130D01*
X247617511Y-192799201D01*
X247312850Y-192695907D01*
X247075327Y-192673999D01*
X246726632Y-192724680D01*
X246421842Y-192883411D01*
X246175151Y-193118887D01*
X245943259Y-193389800D01*
X245495836Y-193123991D01*
X245280563Y-192991981D01*
X245151186Y-192886872D01*
X245108004Y-192785006D01*
X245151320Y-192662724D01*
X245281432Y-192496369D01*
X245498642Y-192262281D01*
X245506894Y-192253555D01*
X245796962Y-191984159D01*
X246090909Y-191799658D01*
X246320846Y-191721500D01*
X243525500Y-191721500D01*
X243525500Y-195425666D01*
X243524794Y-196099969D01*
X243522761Y-196736131D01*
X243519527Y-197322852D01*
X243515222Y-197848831D01*
X243509972Y-198302766D01*
X243503905Y-198673357D01*
X243497150Y-198949301D01*
X243489833Y-199119299D01*
X243483167Y-199172166D01*
X243404111Y-199191625D01*
X243230740Y-199206366D01*
X242995721Y-199213969D01*
X242911667Y-199214500D01*
X242382500Y-199214500D01*
X242382500Y-195722000D01*
X239209542Y-195722000D01*
X239175750Y-199182750D01*
X238096250Y-199182750D01*
X238079868Y-195452125D01*
X238063485Y-191721500D01*
X239207500Y-191721500D01*
X239207500Y-194642500D01*
X242382500Y-194642500D01*
X242382500Y-191721500D01*
X243525500Y-191721500D01*
X246320846Y-191721500D01*
X246421067Y-191687434D01*
X246819768Y-191634871D01*
X247113250Y-191626712D01*
X247421216Y-191630312D01*
X247642183Y-191646350D01*
X247816040Y-191681888D01*
X247982673Y-191743986D01*
X248107639Y-191802738D01*
X248558491Y-192083581D01*
X248907013Y-192429875D01*
X249147733Y-192834177D01*
X249275180Y-193289044D01*
X249288682Y-193409551D01*
X249267911Y-193883094D01*
X249128071Y-194316023D01*
X248871520Y-194704930D01*
X248500619Y-195046401D01*
X248017728Y-195337028D01*
X247924802Y-195381071D01*
X247458167Y-195595869D01*
X247092984Y-195767765D01*
X246814534Y-195905183D01*
X246608102Y-196016546D01*
X246458972Y-196110278D01*
X246352426Y-196194800D01*
X246273748Y-196278537D01*
X246214893Y-196359750D01*
X246056208Y-196699925D01*
X246010165Y-197046369D01*
X246064826Y-197380693D01*
X246208250Y-197684509D01*
X246428496Y-197939428D01*
X246713626Y-198127062D01*
X247051697Y-198229023D01*
X247427631Y-198227398D01*
X247790419Y-198122765D01*
X248071365Y-197926646D01*
X248276043Y-197633260D01*
X248410027Y-197236822D01*
X248417962Y-197199982D01*
X248463751Y-197014516D01*
X248507710Y-196893085D01*
X248530628Y-196865495D01*
X248630257Y-196881043D01*
X248807703Y-196920347D01*
X249026852Y-196974078D01*
X249251587Y-197032903D01*
X249445796Y-197087493D01*
X249573363Y-197128517D01*
X249602628Y-197142461D01*
X249613570Y-197230752D01*
X251099353Y-197230752D01*
X250928014Y-196902120D01*
X250811458Y-196579250D01*
X250709317Y-196106490D01*
X250667578Y-195573330D01*
X250686226Y-195030590D01*
X250765248Y-194529086D01*
X250812083Y-194356750D01*
X251064970Y-193748488D01*
X251421495Y-193186517D01*
X251865305Y-192686266D01*
X252380050Y-192263166D01*
X252949377Y-191932648D01*
X253556936Y-191710140D01*
X253638212Y-191689872D01*
X254323530Y-191591178D01*
X255001054Y-191616490D01*
X255660391Y-191762838D01*
X256291148Y-192027256D01*
X256882929Y-192406774D01*
X257249460Y-192721115D01*
X257715019Y-193245695D01*
X258069235Y-193820541D01*
X258307235Y-194436596D01*
X258397188Y-194854067D01*
X258436381Y-195461685D01*
X259699307Y-195461685D01*
X259699253Y-195447335D01*
X259695886Y-194671288D01*
X259692280Y-193998733D01*
X259688262Y-193421835D01*
X259683656Y-192932758D01*
X259678288Y-192523666D01*
X259671982Y-192186723D01*
X259664562Y-191914094D01*
X259655856Y-191697943D01*
X259645686Y-191530434D01*
X259633879Y-191403731D01*
X259620259Y-191309999D01*
X259604651Y-191241402D01*
X259586880Y-191190104D01*
X259567698Y-191150000D01*
X259482604Y-191023000D01*
X218697000Y-191023000D01*
X218697000Y-195081708D01*
X218696507Y-195935072D01*
X218694926Y-196669107D01*
X218692109Y-197291482D01*
X218687908Y-197809863D01*
X218682174Y-198231918D01*
X218674758Y-198565316D01*
X218665512Y-198817723D01*
X218654286Y-198996808D01*
X218640932Y-199110239D01*
X218625301Y-199165682D01*
X218617625Y-199173699D01*
X218518637Y-199188336D01*
X218331038Y-199196117D01*
X218093102Y-199195583D01*
X218062000Y-199194866D01*
X217585750Y-199182750D01*
X217554000Y-198230250D01*
X217538042Y-197839189D01*
X217519278Y-197561884D01*
X217496144Y-197385096D01*
X217467074Y-197295587D01*
X217441348Y-197277750D01*
X217378591Y-197325606D01*
X217252197Y-197458814D01*
X217075664Y-197661829D01*
X216862488Y-197919109D01*
X216626163Y-198215110D01*
X216614293Y-198230250D01*
X215868142Y-199182750D01*
X215240295Y-199201048D01*
X214967216Y-199203125D01*
X214741126Y-199193887D01*
X214592534Y-199175167D01*
X214552786Y-199159685D01*
X214573158Y-199092354D01*
X214671857Y-198935394D01*
X214844164Y-198695260D01*
X215085363Y-198378412D01*
X215390737Y-197991307D01*
X215559724Y-197781204D01*
X215878520Y-197387021D01*
X213934500Y-197387021D01*
X213902463Y-197605287D01*
X213797796Y-197786069D01*
X213607667Y-197938960D01*
X213319245Y-198073552D01*
X212919699Y-198199439D01*
X212808690Y-198228695D01*
X212114566Y-198406503D01*
X212050307Y-198647250D01*
X211986048Y-198887996D01*
X212517701Y-199416373D01*
X212813460Y-199725861D01*
X213013945Y-199977951D01*
X213126862Y-200189574D01*
X213159914Y-200377660D01*
X213120804Y-200559139D01*
X213078584Y-200649019D01*
X212924031Y-200839225D01*
X212716928Y-200939819D01*
X212596931Y-200967737D01*
X212469815Y-200973805D01*
X212307661Y-200954511D01*
X212082553Y-200906346D01*
X211766572Y-200825798D01*
X211727089Y-200815346D01*
X210981750Y-200617619D01*
X210810589Y-200789184D01*
X210639428Y-200960750D01*
X210826464Y-201622689D01*
X210929598Y-202006715D01*
X210989978Y-202294089D01*
X211007096Y-202507928D01*
X210980443Y-202671349D01*
X210909511Y-202807466D01*
X210797600Y-202935599D01*
X210620933Y-203078070D01*
X210443114Y-203140760D01*
X210250104Y-203118904D01*
X210027863Y-203007735D01*
X209762351Y-202802485D01*
X209439529Y-202498388D01*
X209403429Y-202462232D01*
X208909126Y-201965013D01*
X208672632Y-202028136D01*
X208436139Y-202091260D01*
X208253755Y-202796005D01*
X208163198Y-203126930D01*
X208084619Y-203361443D01*
X208005977Y-203527838D01*
X207915230Y-203654411D01*
X207866035Y-203707125D01*
X207632961Y-203868808D01*
X207383019Y-203916157D01*
X207140182Y-203845857D01*
X207090267Y-203814395D01*
X206983254Y-203720416D01*
X206891112Y-203589023D01*
X206804140Y-203398752D01*
X206712638Y-203128137D01*
X206606906Y-202755714D01*
X206599640Y-202728700D01*
X206426544Y-202083651D01*
X205944026Y-201961175D01*
X205420833Y-202493263D01*
X205111714Y-202790035D01*
X204857835Y-202990133D01*
X204643118Y-203101974D01*
X204451491Y-203133971D01*
X204269946Y-203095723D01*
X204071172Y-202975623D01*
X203946940Y-202789996D01*
X203895921Y-202529354D01*
X203916787Y-202184207D01*
X204008207Y-201745065D01*
X204056116Y-201569191D01*
X204226942Y-200971133D01*
X204048346Y-200793902D01*
X203869750Y-200616672D01*
X203298250Y-200782144D01*
X202804389Y-200903582D01*
X202412676Y-200952041D01*
X202121369Y-200927587D01*
X201932512Y-200833750D01*
X201774339Y-200650733D01*
X201706478Y-200457685D01*
X201732434Y-200242680D01*
X201855714Y-199993793D01*
X202079823Y-199699098D01*
X202353182Y-199402688D01*
X202881939Y-198860626D01*
X202810969Y-198629386D01*
X202766778Y-198508066D01*
X202705165Y-198429195D01*
X202595129Y-198372591D01*
X202405667Y-198318069D01*
X202288875Y-198289471D01*
X201808950Y-198160427D01*
X201444685Y-198029359D01*
X201184848Y-197889021D01*
X201018206Y-197732171D01*
X200933527Y-197551564D01*
X200917000Y-197404750D01*
X200950245Y-197202850D01*
X201057468Y-197029856D01*
X201249901Y-196878525D01*
X201538777Y-196741612D01*
X201935328Y-196611873D01*
X202288875Y-196520028D01*
X202523110Y-196460085D01*
X202664300Y-196406972D01*
X202743470Y-196340391D01*
X202791645Y-196240042D01*
X202811620Y-196177992D01*
X202883241Y-195944631D01*
X202382895Y-195436440D01*
X202093297Y-195131659D01*
X201891574Y-194889447D01*
X201767676Y-194691503D01*
X201711555Y-194519524D01*
X201713162Y-194355211D01*
X201735983Y-194258214D01*
X201839892Y-194051816D01*
X201857196Y-194039250D01*
X201488500Y-194039250D01*
X201456750Y-194071000D01*
X201425000Y-194039250D01*
X201456750Y-194007500D01*
X201488500Y-194039250D01*
X201857196Y-194039250D01*
X202022417Y-193919274D01*
X202166463Y-193859488D01*
X202304776Y-193829479D01*
X202464450Y-193831265D01*
X202672575Y-193866868D01*
X202956244Y-193938309D01*
X203202155Y-194007258D01*
X203867792Y-194197516D01*
X204040943Y-194023133D01*
X204214095Y-193848750D01*
X204114283Y-193467750D01*
X201679000Y-193467750D01*
X201647250Y-193499500D01*
X201615500Y-193467750D01*
X201647250Y-193436000D01*
X201679000Y-193467750D01*
X204114283Y-193467750D01*
X204022787Y-193118500D01*
X203927344Y-192724319D01*
X203877654Y-192427168D01*
X203875008Y-192205114D01*
X203920691Y-192036225D01*
X203965595Y-191971365D01*
X203250932Y-191971365D01*
X203242246Y-191975500D01*
X203184297Y-191930797D01*
X203171250Y-191912000D01*
X203155069Y-191852634D01*
X203163755Y-191848500D01*
X203221704Y-191893202D01*
X203234750Y-191912000D01*
X203250932Y-191971365D01*
X203965595Y-191971365D01*
X204015994Y-191898569D01*
X204099032Y-191820577D01*
X204271332Y-191704943D01*
X204331190Y-191689750D01*
X204028500Y-191689750D01*
X203996750Y-191721500D01*
X203965000Y-191689750D01*
X203996750Y-191658000D01*
X204028500Y-191689750D01*
X204331190Y-191689750D01*
X204442580Y-191661478D01*
X204628219Y-191696076D01*
X204843692Y-191814633D01*
X205104442Y-192023043D01*
X205425638Y-192326927D01*
X205965525Y-192862272D01*
X206196109Y-192791504D01*
X206307586Y-192751907D01*
X206384280Y-192697512D01*
X206442559Y-192601242D01*
X206498792Y-192436018D01*
X206569347Y-192174760D01*
X206569678Y-192173493D01*
X206694538Y-191730022D01*
X206812428Y-191398018D01*
X206933373Y-191163087D01*
X207067397Y-191010837D01*
X207224525Y-190926876D01*
X207414781Y-190896812D01*
X207459486Y-190895999D01*
X207658598Y-190928149D01*
X207825838Y-191033089D01*
X207970178Y-191223556D01*
X208100589Y-191512286D01*
X208226046Y-191912015D01*
X208256970Y-192028021D01*
X208336603Y-192330642D01*
X208396504Y-192532953D01*
X208448775Y-192657589D01*
X208505520Y-192727183D01*
X208578839Y-192764372D01*
X208662968Y-192787344D01*
X208758555Y-192806933D01*
X208841325Y-192803027D01*
X208931961Y-192762732D01*
X209051144Y-192673151D01*
X209219556Y-192521388D01*
X209457879Y-192294547D01*
X209466400Y-192286375D01*
X209784264Y-191995809D01*
X210039854Y-191799056D01*
X210248659Y-191689519D01*
X210426170Y-191660605D01*
X210587874Y-191705715D01*
X210685832Y-191767108D01*
X210840954Y-191905973D01*
X210940219Y-192063097D01*
X210984967Y-192257883D01*
X210976535Y-192509734D01*
X210916261Y-192838056D01*
X210805484Y-193262252D01*
X210792166Y-193309000D01*
X210637539Y-193848750D01*
X210982087Y-194195894D01*
X211705074Y-194001027D01*
X212100083Y-193902879D01*
X212398659Y-193852157D01*
X212622693Y-193850151D01*
X212794077Y-193898154D01*
X212934701Y-193997458D01*
X213009923Y-194078031D01*
X213147093Y-194320513D01*
X213157810Y-194570479D01*
X213101966Y-194726049D01*
X213029990Y-194826268D01*
X212889152Y-194991256D01*
X212701010Y-195196599D01*
X212523593Y-195380984D01*
X212305170Y-195604791D01*
X212162107Y-195761563D01*
X212080432Y-195874537D01*
X212046176Y-195966951D01*
X212045370Y-196062043D01*
X212059080Y-196153654D01*
X212091924Y-196304599D01*
X212148659Y-196391028D01*
X212264836Y-196444834D01*
X212431078Y-196487377D01*
X212929903Y-196615253D01*
X213313797Y-196740078D01*
X213594431Y-196868837D01*
X213783476Y-197008512D01*
X213892604Y-197166089D01*
X213933485Y-197348551D01*
X213934500Y-197387021D01*
X215878520Y-197387021D01*
X216626323Y-196462385D01*
X215629662Y-195492932D01*
X215338927Y-195208574D01*
X215081604Y-194953909D01*
X214870796Y-194742149D01*
X214719603Y-194586509D01*
X214641127Y-194500202D01*
X214633000Y-194487740D01*
X214692270Y-194473517D01*
X214853170Y-194461978D01*
X215090341Y-194454394D01*
X215346422Y-194452000D01*
X216059843Y-194452000D01*
X216806922Y-195197132D01*
X217554000Y-195942264D01*
X217554000Y-191023000D01*
X218697000Y-191023000D01*
X259482604Y-191023000D01*
X259349053Y-190823680D01*
X259075214Y-190583332D01*
X258924250Y-190492945D01*
X258670250Y-190356250D01*
X232730500Y-190356250D01*
X230518161Y-190356305D01*
X230518161Y-190356305D01*
G37*
X230518161Y-190356305D02*
X228429420Y-190356480D01*
X226460879Y-190356785D01*
X224609136Y-190357231D01*
X222870792Y-190357829D01*
X221242445Y-190358590D01*
X219720695Y-190359526D01*
X218302143Y-190360647D01*
X216983386Y-190361964D01*
X215761025Y-190363490D01*
X214631660Y-190365234D01*
X213591890Y-190367207D01*
X212638314Y-190369422D01*
X211767532Y-190371889D01*
X210976144Y-190374619D01*
X210260749Y-190377622D01*
X209617947Y-190380912D01*
X209044337Y-190384497D01*
X208536518Y-190388390D01*
X208091092Y-190392601D01*
X207704655Y-190397142D01*
X207373810Y-190402024D01*
X207095154Y-190407257D01*
X206865288Y-190412853D01*
X206680811Y-190418823D01*
X206538322Y-190425178D01*
X206434422Y-190431930D01*
X206365709Y-190439088D01*
X206346250Y-190442272D01*
X206049964Y-190506547D01*
X205733963Y-190586536D01*
X205424595Y-190674177D01*
X205148202Y-190761411D01*
X204931130Y-190840177D01*
X204799725Y-190902415D01*
X204775598Y-190922826D01*
X204733065Y-190958028D01*
X204727973Y-190944590D01*
X204677112Y-190950575D01*
X204547856Y-191000392D01*
X204373869Y-191078106D01*
X204188813Y-191167782D01*
X204026352Y-191253487D01*
X203920150Y-191319284D01*
X203901500Y-191335806D01*
X203829793Y-191386491D01*
X203688610Y-191467927D01*
X203631625Y-191498423D01*
X203484877Y-191585007D01*
X203401055Y-191653022D01*
X203393500Y-191668161D01*
X203341577Y-191721459D01*
X203273456Y-191751042D01*
X203160454Y-191820127D01*
X202983691Y-191967182D01*
X202761544Y-192173317D01*
X202512393Y-192419638D01*
X202254615Y-192687254D01*
X202006588Y-192957274D01*
X201786690Y-193210805D01*
X201613299Y-193428957D01*
X201541659Y-193531250D01*
X201324217Y-193875531D01*
X201177359Y-194130631D01*
X201095109Y-194308698D01*
X201071492Y-194421879D01*
X201082967Y-194463676D01*
X201088447Y-194505546D01*
X201058706Y-194492838D01*
X201002730Y-194525212D01*
X200923282Y-194660102D01*
X200828099Y-194876920D01*
X200724921Y-195155078D01*
X200621488Y-195473985D01*
X200525536Y-195813055D01*
X200458084Y-196090728D01*
X200428364Y-196228933D01*
X200403257Y-196362516D01*
X200382361Y-196503207D01*
X200365275Y-196662735D01*
X200351597Y-196852828D01*
X200340926Y-197085215D01*
X200332861Y-197371626D01*
X200327000Y-197723790D01*
X200322943Y-198153434D01*
X200320289Y-198672289D01*
X200318635Y-199292082D01*
X200317581Y-200024543D01*
X200317388Y-200203571D01*
X200313750Y-203700893D01*
X200505929Y-204011893D01*
X200752248Y-204313137D01*
X201008948Y-204515071D01*
X201319788Y-204707250D01*
X229899769Y-204716704D01*
X232462227Y-204717429D01*
X234898685Y-204717864D01*
X237210142Y-204718008D01*
X239397597Y-204717859D01*
X241462050Y-204717415D01*
X243404500Y-204716673D01*
X245225946Y-204715633D01*
X246927388Y-204714291D01*
X248509825Y-204712646D01*
X249974256Y-204710696D01*
X251321681Y-204708439D01*
X252553100Y-204705873D01*
X253669510Y-204702996D01*
X254671912Y-204699806D01*
X255561306Y-204696301D01*
X256338690Y-204692480D01*
X257005063Y-204688339D01*
X257561426Y-204683878D01*
X258008777Y-204679094D01*
X258348115Y-204673985D01*
X258580441Y-204668549D01*
X258706754Y-204662785D01*
X258730098Y-204659881D01*
X258965601Y-204550161D01*
X259223278Y-204348819D01*
X259278984Y-204295063D01*
X259466113Y-204086685D01*
X259578957Y-203895035D01*
X259648801Y-203666238D01*
X259651611Y-203653387D01*
X259665130Y-203551761D01*
X259676816Y-203377230D01*
X259686715Y-203124530D01*
X259694870Y-202788397D01*
X259701329Y-202363568D01*
X259706136Y-201844778D01*
X259709337Y-201226764D01*
X259710174Y-200857936D01*
X258314527Y-200857936D01*
X258167603Y-201226843D01*
X257951891Y-201766138D01*
X257777477Y-202196438D01*
X257640162Y-202527321D01*
X257535744Y-202768361D01*
X257460023Y-202929134D01*
X257408798Y-203019216D01*
X257377869Y-203048184D01*
X257370172Y-203044726D01*
X257330886Y-202966898D01*
X257259487Y-202796461D01*
X257166891Y-202560297D01*
X257084801Y-202341875D01*
X256986320Y-202079262D01*
X256903913Y-201867379D01*
X256847186Y-201730428D01*
X256826434Y-201691000D01*
X256799734Y-201747127D01*
X256740633Y-201899786D01*
X256657977Y-202125395D01*
X256564528Y-202389158D01*
X256465420Y-202663018D01*
X256377915Y-202886493D01*
X256311748Y-203035899D01*
X256277405Y-203087658D01*
X256227309Y-203035342D01*
X256189040Y-202945125D01*
X256149382Y-202839470D01*
X256069161Y-202640669D01*
X255958061Y-202372209D01*
X255901083Y-202236702D01*
X255401004Y-202236702D01*
X255377240Y-202516039D01*
X255301426Y-202713429D01*
X255140055Y-202899215D01*
X254911567Y-203003637D01*
X254651396Y-203020241D01*
X254394978Y-202942574D01*
X254314428Y-202893176D01*
X254166724Y-202751811D01*
X254141434Y-202627889D01*
X254239406Y-202525993D01*
X254246011Y-202522381D01*
X254360567Y-202500422D01*
X254467640Y-202583647D01*
X254628788Y-202689361D01*
X254810299Y-202690204D01*
X254966971Y-202587879D01*
X254985264Y-202564125D01*
X255085729Y-202421250D01*
X254591990Y-202389500D01*
X254098250Y-202357750D01*
X254107923Y-202275258D01*
X253227030Y-202275258D01*
X253226061Y-202551041D01*
X253220954Y-202777391D01*
X253212608Y-202925557D01*
X253205351Y-202967310D01*
X253131958Y-202987007D01*
X253020266Y-202976831D01*
X252932829Y-202951153D01*
X252884780Y-202895589D01*
X252864412Y-202778663D01*
X252860013Y-202568900D01*
X252860000Y-202546040D01*
X252853396Y-202274684D01*
X252268526Y-202274684D01*
X252235365Y-202537156D01*
X252121294Y-202758945D01*
X251945331Y-202924265D01*
X251726496Y-203017328D01*
X251483806Y-203022345D01*
X251236280Y-202923528D01*
X251150373Y-202860105D01*
X251026713Y-202743875D01*
X250959224Y-202656758D01*
X250955000Y-202642134D01*
X251006608Y-202570510D01*
X251126299Y-202543213D01*
X251261372Y-202565325D01*
X251329676Y-202606026D01*
X251489259Y-202690452D01*
X251664161Y-202699029D01*
X251814438Y-202641018D01*
X251900145Y-202525680D01*
X251907500Y-202472050D01*
X251868581Y-202426907D01*
X251740816Y-202400487D01*
X251507698Y-202389975D01*
X251422942Y-202389500D01*
X250938384Y-202389500D01*
X250975927Y-202158144D01*
X251069803Y-201900404D01*
X251149628Y-201813771D01*
X249896130Y-201813771D01*
X249895488Y-202130111D01*
X249887501Y-202438022D01*
X249872841Y-202703709D01*
X249852181Y-202893374D01*
X249839668Y-202949578D01*
X249764194Y-203007464D01*
X249669409Y-203013078D01*
X249598654Y-202993907D01*
X249554516Y-202943406D01*
X249529154Y-202835168D01*
X249514728Y-202642788D01*
X249507807Y-202468875D01*
X249502173Y-202335756D01*
X249050000Y-202335756D01*
X249036222Y-202551325D01*
X248980356Y-202700598D01*
X248864385Y-202838884D01*
X248655583Y-202977839D01*
X248419357Y-203029072D01*
X248200560Y-202984558D01*
X248164032Y-202964217D01*
X248050431Y-202934027D01*
X248006399Y-202946308D01*
X247888780Y-202986435D01*
X247828742Y-202995006D01*
X247779104Y-202987035D01*
X247746608Y-202940060D01*
X247727707Y-202832614D01*
X247718858Y-202643231D01*
X247718057Y-202543060D01*
X247327263Y-202543060D01*
X247322649Y-202754624D01*
X247311056Y-202889777D01*
X247291127Y-202965370D01*
X247261502Y-202998255D01*
X247225738Y-203005261D01*
X247092039Y-202979933D01*
X247047621Y-202955976D01*
X246944522Y-202941066D01*
X246888871Y-202963659D01*
X246693322Y-203021823D01*
X246462773Y-203000078D01*
X246254735Y-202905526D01*
X246224467Y-202881625D01*
X246161123Y-202801583D01*
X245658575Y-202801583D01*
X245618605Y-202931975D01*
X245614321Y-202937298D01*
X245493563Y-203013595D01*
X245363119Y-203008936D01*
X245280537Y-202929250D01*
X245270859Y-202771520D01*
X245359337Y-202666685D01*
X245462250Y-202643500D01*
X245598726Y-202690489D01*
X245658575Y-202801583D01*
X246161123Y-202801583D01*
X246064668Y-202679703D01*
X245993020Y-202446749D01*
X245998624Y-202204928D01*
X246070578Y-201976408D01*
X246179349Y-201811590D01*
X240033000Y-201811590D01*
X240032591Y-202217201D01*
X240029917Y-202513462D01*
X240022812Y-202718021D01*
X240009107Y-202848527D01*
X239986636Y-202922631D01*
X239953230Y-202957981D01*
X239906723Y-202972227D01*
X239890125Y-202974986D01*
X239767465Y-202986015D01*
X239721189Y-202979800D01*
X239707513Y-202912232D01*
X239696208Y-202751633D01*
X239689615Y-202531970D01*
X239689439Y-202519130D01*
X239664439Y-202198680D01*
X239597471Y-201994388D01*
X239485936Y-201901669D01*
X239344093Y-201910205D01*
X239278079Y-201944493D01*
X239236600Y-202014355D01*
X239212359Y-202147142D01*
X239198061Y-202370204D01*
X239194137Y-202472356D01*
X239183313Y-202728036D01*
X239167288Y-202882338D01*
X239137357Y-202960838D01*
X239084815Y-202989109D01*
X239017000Y-202992750D01*
X238931206Y-202984535D01*
X238881492Y-202940812D01*
X238855451Y-202832959D01*
X238840673Y-202632357D01*
X238838046Y-202580000D01*
X238841932Y-202188398D01*
X238899664Y-201903128D01*
X238970658Y-201786250D01*
X238636000Y-201786250D01*
X238614264Y-201905586D01*
X238572500Y-201945000D01*
X238540874Y-202004310D01*
X238518708Y-202165798D01*
X238509153Y-202404796D01*
X238509000Y-202442416D01*
X238505584Y-202680388D01*
X238496527Y-202864449D01*
X238483617Y-202961844D01*
X238480274Y-202968559D01*
X238400655Y-202992146D01*
X238321524Y-202997285D01*
X238257340Y-202987555D01*
X238218622Y-202941451D01*
X238199011Y-202833602D01*
X238192147Y-202638636D01*
X238191500Y-202478545D01*
X238189195Y-202222137D01*
X238177494Y-202065705D01*
X238149218Y-201982242D01*
X238097189Y-201944744D01*
X238046229Y-201932034D01*
X237908985Y-201916020D01*
X237821433Y-201945123D01*
X237772581Y-202040003D01*
X237751436Y-202221323D01*
X237747000Y-202494458D01*
X237745348Y-202755339D01*
X237735958Y-202913365D01*
X237712180Y-202992674D01*
X237667362Y-203017408D01*
X237604125Y-203013041D01*
X237533503Y-202993836D01*
X237489441Y-202943192D01*
X237464113Y-202834709D01*
X237449693Y-202641987D01*
X237442807Y-202468875D01*
X237430840Y-202210351D01*
X237412776Y-202053848D01*
X237381805Y-201974389D01*
X237331114Y-201946995D01*
X237299932Y-201945000D01*
X237201971Y-201906427D01*
X237175500Y-201786250D01*
X237205266Y-201661764D01*
X237302500Y-201627500D01*
X237048500Y-201627500D01*
X237048500Y-203723000D01*
X236889750Y-203723000D01*
X236804946Y-203715922D01*
X236757421Y-203675711D01*
X236736404Y-203573903D01*
X236733567Y-203470764D01*
X234729660Y-203470764D01*
X234640113Y-203524767D01*
X234582834Y-203532500D01*
X234532229Y-203500460D01*
X234470896Y-203413263D01*
X233272680Y-203413263D01*
X233259075Y-203486313D01*
X233213566Y-203521378D01*
X233139507Y-203531436D01*
X233134289Y-203531527D01*
X233080035Y-203477326D01*
X232991650Y-203330406D01*
X232883058Y-203115608D01*
X232805512Y-202945125D01*
X232675735Y-202647956D01*
X232516978Y-202284771D01*
X231765736Y-202284771D01*
X231757649Y-202411957D01*
X231664775Y-202688561D01*
X231484155Y-202889546D01*
X231237904Y-203003013D01*
X230948133Y-203017062D01*
X230734414Y-202962582D01*
X230560644Y-202838748D01*
X230470667Y-202711279D01*
X230127000Y-202711279D01*
X230072984Y-202825677D01*
X229941752Y-202936709D01*
X229779531Y-203011161D01*
X229691064Y-203024500D01*
X229510672Y-202984797D01*
X229341814Y-202892891D01*
X229207805Y-202723578D01*
X229184067Y-202533863D01*
X229261961Y-202347940D01*
X229432846Y-202190003D01*
X229624237Y-202102088D01*
X229724391Y-202030908D01*
X229746000Y-201972470D01*
X229711445Y-201889339D01*
X229622884Y-201910321D01*
X229575018Y-201950882D01*
X229477635Y-201986529D01*
X229366550Y-201945829D01*
X229271322Y-201882837D01*
X229279748Y-201818475D01*
X229285441Y-201811695D01*
X228984000Y-201811695D01*
X228982199Y-202177244D01*
X228977199Y-202497212D01*
X228969607Y-202750621D01*
X228960029Y-202916494D01*
X228950425Y-202973409D01*
X228867180Y-202997378D01*
X228775800Y-202999867D01*
X228703212Y-202986306D01*
X228659076Y-202936673D01*
X228634397Y-202823952D01*
X228620180Y-202621123D01*
X228615830Y-202519337D01*
X228593009Y-202217245D01*
X228548182Y-202022734D01*
X228473389Y-201917163D01*
X228360671Y-201881894D01*
X228343459Y-201881500D01*
X228225444Y-201924134D01*
X228147360Y-202059360D01*
X228105315Y-202298159D01*
X228095000Y-202582619D01*
X228091257Y-202819233D01*
X228076328Y-202951993D01*
X228044668Y-203003919D01*
X227994557Y-202999543D01*
X227873580Y-202965279D01*
X227835807Y-202961000D01*
X227800584Y-202903556D01*
X227780407Y-202753414D01*
X227774281Y-202543858D01*
X227781210Y-202308174D01*
X227800198Y-202079646D01*
X227830249Y-201891559D01*
X227870367Y-201777197D01*
X227871269Y-201775884D01*
X228040433Y-201636238D01*
X228165294Y-201610883D01*
X227460000Y-201610883D01*
X227460000Y-203723000D01*
X227306296Y-203723000D01*
X227184824Y-203690990D01*
X227120540Y-203572848D01*
X227111405Y-203535481D01*
X227102229Y-203436591D01*
X215820521Y-203436591D01*
X215796385Y-203498942D01*
X215739590Y-203526116D01*
X215675721Y-203531527D01*
X215632391Y-203475941D01*
X215547741Y-203319389D01*
X215429538Y-203078037D01*
X215285545Y-202768051D01*
X215123530Y-202405596D01*
X215015579Y-202157299D01*
X214828707Y-201721422D01*
X214687901Y-201387234D01*
X214588394Y-201140041D01*
X214525418Y-200965150D01*
X214494205Y-200847866D01*
X214489988Y-200773496D01*
X214507999Y-200727347D01*
X214541482Y-200696169D01*
X214582765Y-200664391D01*
X214617395Y-200645779D01*
X214652188Y-200652570D01*
X214693962Y-200697003D01*
X214749533Y-200791315D01*
X214825719Y-200947744D01*
X214929337Y-201178528D01*
X215067204Y-201495904D01*
X215246136Y-201912111D01*
X215338288Y-202126577D01*
X215525887Y-202566499D01*
X215664681Y-202904016D01*
X215757898Y-203152573D01*
X215808769Y-203325616D01*
X215820521Y-203436591D01*
X227102229Y-203436591D01*
X227093218Y-203339497D01*
X227105915Y-203123607D01*
X227107142Y-203115637D01*
X227123984Y-202966619D01*
X227101595Y-202914322D01*
X227032157Y-202930322D01*
X226727856Y-203004007D01*
X226460818Y-202966434D01*
X226249048Y-202829070D01*
X226110549Y-202603379D01*
X226063238Y-202313278D01*
X226074421Y-202255368D01*
X225852234Y-202255368D01*
X225825380Y-202520106D01*
X225704740Y-202762167D01*
X225600333Y-202871292D01*
X225445079Y-202980179D01*
X225297568Y-203011712D01*
X225145353Y-202995998D01*
X224967777Y-202969534D01*
X224843020Y-202955240D01*
X224824750Y-202954410D01*
X224712533Y-202963405D01*
X224634250Y-202973685D01*
X224577983Y-202974092D01*
X224540362Y-202940796D01*
X224516684Y-202852268D01*
X224502243Y-202686978D01*
X224492333Y-202423398D01*
X224489227Y-202310125D01*
X224471204Y-201627500D01*
X224632102Y-201627500D01*
X224752487Y-201647336D01*
X224793000Y-201686133D01*
X224841705Y-201700497D01*
X224961555Y-201660138D01*
X224988010Y-201647482D01*
X225046850Y-201624431D01*
X224158000Y-201624431D01*
X224158000Y-202282132D01*
X224155120Y-202558048D01*
X224147344Y-202783491D01*
X224135965Y-202930321D01*
X224126277Y-202971556D01*
X224044914Y-202992688D01*
X223951652Y-202993005D01*
X223879602Y-202978075D01*
X223834013Y-202928415D01*
X223805921Y-202817682D01*
X223786363Y-202619533D01*
X223777000Y-202479740D01*
X223774739Y-202443911D01*
X223068284Y-202443911D01*
X223064844Y-202705009D01*
X223058090Y-202879785D01*
X223050301Y-202942894D01*
X222968795Y-203009977D01*
X222889993Y-203024500D01*
X222810954Y-203007133D01*
X222771996Y-202933780D01*
X222759228Y-202772561D01*
X222758561Y-202722875D01*
X222756121Y-202421250D01*
X222486211Y-202727447D01*
X222329673Y-202895333D01*
X222218638Y-202980937D01*
X222121669Y-203003021D01*
X222045148Y-202990689D01*
X221873997Y-202947733D01*
X221918172Y-202891504D01*
X221607462Y-202891504D01*
X221531389Y-202994034D01*
X221411909Y-203013078D01*
X221298414Y-202958261D01*
X221268750Y-202834000D01*
X221303651Y-202703188D01*
X221411909Y-202654921D01*
X221545856Y-202677985D01*
X221593328Y-202734296D01*
X221607462Y-202891504D01*
X221918172Y-202891504D01*
X222169829Y-202571185D01*
X222364706Y-202323138D01*
X220909066Y-202323138D01*
X220866035Y-202508040D01*
X220864862Y-202511963D01*
X220730137Y-202758551D01*
X220513407Y-202934664D01*
X220247201Y-203024693D01*
X219964051Y-203013033D01*
X219876944Y-202985956D01*
X219798535Y-202889535D01*
X219776500Y-202722114D01*
X219781442Y-202577448D01*
X219809085Y-202539829D01*
X219878661Y-202589350D01*
X219892626Y-202601908D01*
X220071387Y-202691556D01*
X220273513Y-202692236D01*
X220442077Y-202603851D01*
X220526482Y-202439465D01*
X220526142Y-202348225D01*
X219585763Y-202348225D01*
X219562000Y-202536022D01*
X219472540Y-202696074D01*
X219370100Y-202808600D01*
X219122475Y-202980012D01*
X218848367Y-203027557D01*
X218551368Y-202950755D01*
X218498345Y-202925032D01*
X218303813Y-202760550D01*
X218185832Y-202530662D01*
X218150018Y-202272442D01*
X218201986Y-202022965D01*
X218332848Y-201832385D01*
X218592432Y-201659591D01*
X218726956Y-201628414D01*
X217871500Y-201628414D01*
X217871500Y-202284123D01*
X217868901Y-202559182D01*
X217861881Y-202783320D01*
X217851612Y-202928524D01*
X217842919Y-202968414D01*
X217763384Y-202996102D01*
X217684169Y-203006801D01*
X217617309Y-203001759D01*
X217578304Y-202956712D01*
X217559746Y-202845594D01*
X217554224Y-202642336D01*
X217554000Y-202548839D01*
X217544153Y-202265097D01*
X217511838Y-202083365D01*
X217454215Y-201981285D01*
X217317716Y-201888163D01*
X217215594Y-201916482D01*
X217147668Y-202066527D01*
X217113757Y-202338580D01*
X217109500Y-202521262D01*
X217107629Y-202766934D01*
X217096272Y-202912057D01*
X217066814Y-202983080D01*
X217010640Y-203006453D01*
X216950750Y-203008625D01*
X216863434Y-203000734D01*
X216815816Y-202957377D01*
X216795779Y-202849029D01*
X216791206Y-202646161D01*
X216791133Y-202619687D01*
X216780388Y-202299998D01*
X216746799Y-202087346D01*
X216685801Y-201963089D01*
X216618945Y-201916547D01*
X216493552Y-201907027D01*
X216409085Y-201996839D01*
X216361692Y-202194153D01*
X216347500Y-202492525D01*
X216340249Y-202718091D01*
X216321091Y-202884165D01*
X216293918Y-202959465D01*
X216289194Y-202961000D01*
X216182777Y-202981945D01*
X216130444Y-202999543D01*
X216083575Y-203002640D01*
X216053825Y-202954499D01*
X216037488Y-202834207D01*
X216030860Y-202620849D01*
X216030000Y-202432652D01*
X216031977Y-202149478D01*
X216042334Y-201964023D01*
X216067718Y-201847016D01*
X216114772Y-201769189D01*
X216190141Y-201701271D01*
X216197314Y-201695608D01*
X216391345Y-201583458D01*
X216566060Y-201583819D01*
X216707311Y-201657905D01*
X216814865Y-201715187D01*
X216920785Y-201705801D01*
X217038131Y-201653657D01*
X217190905Y-201599473D01*
X217301986Y-201597833D01*
X217309329Y-201601515D01*
X217417933Y-201629284D01*
X217590497Y-201638879D01*
X217627637Y-201637969D01*
X217871500Y-201628414D01*
X218726956Y-201628414D01*
X218862326Y-201597041D01*
X219119354Y-201635191D01*
X219340337Y-201764499D01*
X219502100Y-201975423D01*
X219581464Y-202258421D01*
X219585763Y-202348225D01*
X220526142Y-202348225D01*
X220525735Y-202239255D01*
X220448087Y-202053448D01*
X220334307Y-201947890D01*
X220205616Y-201889779D01*
X220099032Y-201898395D01*
X219964694Y-201968011D01*
X219767523Y-202084483D01*
X219787887Y-201873869D01*
X219825335Y-201717210D01*
X219925159Y-201634725D01*
X220009451Y-201605926D01*
X220254104Y-201597366D01*
X220502190Y-201690864D01*
X220717191Y-201867925D01*
X220820696Y-202016802D01*
X220896062Y-202183031D01*
X220909066Y-202323138D01*
X222364706Y-202323138D01*
X222465662Y-202194638D01*
X221909058Y-201627500D01*
X222132649Y-201627500D01*
X222330757Y-201662705D01*
X222506243Y-201785832D01*
X222542745Y-201822544D01*
X222729250Y-202017589D01*
X222761000Y-201330419D01*
X222776755Y-201027226D01*
X222793865Y-200828965D01*
X222817417Y-200713623D01*
X222852496Y-200659185D01*
X222904186Y-200643639D01*
X222919750Y-200643250D01*
X222965595Y-200649182D01*
X222999269Y-200678639D01*
X223023050Y-200749105D01*
X223039214Y-200878066D01*
X223050041Y-201083010D01*
X223057806Y-201381422D01*
X223064184Y-201752269D01*
X223068151Y-202118872D01*
X223068284Y-202443911D01*
X223774739Y-202443911D01*
X223745250Y-201976750D01*
X223541950Y-201957081D01*
X223367052Y-201903128D01*
X223297030Y-201806278D01*
X223301867Y-201669396D01*
X223398717Y-201594187D01*
X223554750Y-201602290D01*
X223703560Y-201626927D01*
X223898013Y-201633969D01*
X223919875Y-201633331D01*
X224158000Y-201624431D01*
X225046850Y-201624431D01*
X225138514Y-201588521D01*
X225273830Y-201591974D01*
X225416635Y-201637699D01*
X225643206Y-201782903D01*
X225789958Y-201999213D01*
X225852234Y-202255368D01*
X226074421Y-202255368D01*
X226110026Y-202071002D01*
X226232937Y-201856269D01*
X226406640Y-201690642D01*
X226605802Y-201595683D01*
X226805090Y-201592956D01*
X226876464Y-201621058D01*
X227019465Y-201654958D01*
X227207528Y-201651511D01*
X227228823Y-201648397D01*
X227460000Y-201610883D01*
X228165294Y-201610883D01*
X228263125Y-201591017D01*
X228439844Y-201625824D01*
X228603000Y-201687856D01*
X228603000Y-201185175D01*
X228610406Y-200900526D01*
X228638226Y-200724428D01*
X228694860Y-200639000D01*
X228788711Y-200626363D01*
X228857569Y-200643430D01*
X228902844Y-200664302D01*
X228935804Y-200705850D01*
X228958395Y-200786057D01*
X228972563Y-200922909D01*
X228980256Y-201134390D01*
X228983418Y-201438485D01*
X228984000Y-201811695D01*
X229285441Y-201811695D01*
X229336357Y-201751067D01*
X229526037Y-201610626D01*
X229725539Y-201596092D01*
X229822977Y-201633488D01*
X229984650Y-201748306D01*
X230052951Y-201897083D01*
X230062528Y-202025308D01*
X230026641Y-202175617D01*
X229898655Y-202297294D01*
X229857125Y-202323167D01*
X229645191Y-202459221D01*
X229536896Y-202558149D01*
X229519125Y-202632798D01*
X229526103Y-202647306D01*
X229615816Y-202699834D01*
X229737399Y-202697381D01*
X229819693Y-202642882D01*
X229822893Y-202635073D01*
X229889301Y-202597974D01*
X230002258Y-202612177D01*
X230100248Y-202662266D01*
X230127000Y-202711279D01*
X230470667Y-202711279D01*
X230416482Y-202634518D01*
X230330266Y-202396491D01*
X230317738Y-202277442D01*
X230362604Y-202074312D01*
X230508416Y-201862166D01*
X230527488Y-201840999D01*
X230687063Y-201691364D01*
X230838376Y-201622060D01*
X230996489Y-201605072D01*
X231309144Y-201648447D01*
X231551183Y-201786378D01*
X231708187Y-202003582D01*
X231765736Y-202284771D01*
X232516978Y-202284771D01*
X232515978Y-202282485D01*
X232347238Y-201896730D01*
X232201590Y-201564000D01*
X232062726Y-201242670D01*
X231971515Y-201017021D01*
X231922411Y-200867413D01*
X231909871Y-200774205D01*
X231928350Y-200717756D01*
X231955129Y-200690875D01*
X232055827Y-200625351D01*
X232095616Y-200611500D01*
X232130625Y-200667277D01*
X232208052Y-200824004D01*
X232320583Y-201065769D01*
X232460908Y-201376662D01*
X232621713Y-201740774D01*
X232744789Y-202023989D01*
X232941000Y-202481642D01*
X233088541Y-202836418D01*
X233190766Y-203101294D01*
X233251028Y-203289250D01*
X233272680Y-203413263D01*
X234470896Y-203413263D01*
X234460017Y-203397797D01*
X234361230Y-203214693D01*
X234230904Y-202941332D01*
X234064070Y-202567896D01*
X233884892Y-202152855D01*
X233698625Y-201714902D01*
X233558400Y-201378779D01*
X233459447Y-201129922D01*
X233396998Y-200953770D01*
X233366283Y-200835758D01*
X233362534Y-200761325D01*
X233380981Y-200715907D01*
X233406523Y-200692117D01*
X233511708Y-200646578D01*
X233560847Y-200658887D01*
X233609230Y-200742611D01*
X233693975Y-200920012D01*
X233806805Y-201171174D01*
X233939442Y-201476183D01*
X234083608Y-201815124D01*
X234231025Y-202168082D01*
X234373416Y-202515144D01*
X234502501Y-202836394D01*
X234610004Y-203111918D01*
X234687646Y-203321800D01*
X234727150Y-203446128D01*
X234729660Y-203470764D01*
X236733567Y-203470764D01*
X236731126Y-203382030D01*
X236731000Y-203303456D01*
X236727607Y-203080474D01*
X236712625Y-202960355D01*
X236678856Y-202919041D01*
X236619875Y-202932132D01*
X236337379Y-203011047D01*
X236097228Y-202977097D01*
X235909343Y-202855916D01*
X235865097Y-202797223D01*
X235327599Y-202797223D01*
X235309328Y-202933703D01*
X235220318Y-203008188D01*
X235127909Y-203013078D01*
X235014414Y-202958261D01*
X234984750Y-202834000D01*
X235019651Y-202703188D01*
X235127909Y-202654921D01*
X235263555Y-202684438D01*
X235327599Y-202797223D01*
X235865097Y-202797223D01*
X235739731Y-202630926D01*
X235669072Y-202370998D01*
X235692360Y-202106905D01*
X235804593Y-201869421D01*
X235857898Y-201820483D01*
X235334000Y-201820483D01*
X235287271Y-201940116D01*
X235179580Y-201992716D01*
X235059673Y-201975230D01*
X234976295Y-201884605D01*
X234965811Y-201843544D01*
X234987588Y-201698098D01*
X235075072Y-201607032D01*
X235191328Y-201599582D01*
X235238750Y-201627500D01*
X235320128Y-201749944D01*
X235334000Y-201820483D01*
X235857898Y-201820483D01*
X236000767Y-201689320D01*
X236107366Y-201638049D01*
X236280664Y-201586230D01*
X236412808Y-201595444D01*
X236535991Y-201647482D01*
X236664574Y-201696984D01*
X236729200Y-201693188D01*
X236731000Y-201686133D01*
X236785371Y-201642047D01*
X236889750Y-201627500D01*
X237048500Y-201627500D01*
X237302500Y-201627500D01*
X237385589Y-201606199D01*
X237422310Y-201520108D01*
X237429500Y-201373500D01*
X237438165Y-201209852D01*
X237479036Y-201137116D01*
X237574426Y-201119590D01*
X237588250Y-201119500D01*
X237690530Y-201133363D01*
X237735990Y-201198756D01*
X237746944Y-201351380D01*
X237747000Y-201373500D01*
X237753729Y-201536127D01*
X237795273Y-201608399D01*
X237903670Y-201626932D01*
X237969250Y-201627500D01*
X238111549Y-201619810D01*
X238174788Y-201572331D01*
X238191004Y-201448449D01*
X238191500Y-201373500D01*
X238200165Y-201209852D01*
X238241036Y-201137116D01*
X238336426Y-201119590D01*
X238350250Y-201119500D01*
X238452530Y-201133363D01*
X238497990Y-201198756D01*
X238508944Y-201351380D01*
X238509000Y-201373500D01*
X238523084Y-201532555D01*
X238558266Y-201621023D01*
X238572500Y-201627500D01*
X238620235Y-201681842D01*
X238636000Y-201786250D01*
X238970658Y-201786250D01*
X239014538Y-201714010D01*
X239147137Y-201626200D01*
X239330612Y-201578872D01*
X239494019Y-201616319D01*
X239499100Y-201618610D01*
X239628999Y-201672105D01*
X239696056Y-201691000D01*
X239709429Y-201633000D01*
X239709953Y-201479681D01*
X239697735Y-201262058D01*
X239694439Y-201221387D01*
X239684723Y-200910123D01*
X239719842Y-200712458D01*
X239802335Y-200622240D01*
X239934744Y-200633316D01*
X239936942Y-200634152D01*
X239971905Y-200665153D01*
X239997462Y-200738546D01*
X240014981Y-200871106D01*
X240025832Y-201079607D01*
X240031381Y-201380824D01*
X240032998Y-201791531D01*
X240033000Y-201811590D01*
X246179349Y-201811590D01*
X246197983Y-201783355D01*
X246369937Y-201647937D01*
X246575541Y-201592319D01*
X246803893Y-201638670D01*
X246829706Y-201650832D01*
X247013233Y-201742387D01*
X247031492Y-201192818D01*
X247042832Y-200927151D01*
X247059573Y-200763957D01*
X247088197Y-200678714D01*
X247135186Y-200646899D01*
X247176750Y-200643250D01*
X247221376Y-200648893D01*
X247254488Y-200677128D01*
X247278162Y-200744915D01*
X247294469Y-200869212D01*
X247305482Y-201066979D01*
X247313275Y-201355174D01*
X247319920Y-201750757D01*
X247320988Y-201823291D01*
X247326257Y-202238233D01*
X247327263Y-202543060D01*
X247718057Y-202543060D01*
X247716514Y-202350444D01*
X247716500Y-202315387D01*
X247716500Y-201627500D01*
X247875250Y-201627500D01*
X247994612Y-201647581D01*
X248034000Y-201686133D01*
X248082483Y-201701330D01*
X248201088Y-201661111D01*
X248219912Y-201652021D01*
X248459113Y-201592450D01*
X248681094Y-201643865D01*
X248866435Y-201790268D01*
X248995717Y-202015665D01*
X249049519Y-202304060D01*
X249050000Y-202335756D01*
X249502173Y-202335756D01*
X249496939Y-202212120D01*
X249480922Y-202056840D01*
X249451260Y-201977553D01*
X249399461Y-201948778D01*
X249333182Y-201945000D01*
X249214116Y-201918158D01*
X249177578Y-201813401D01*
X249177000Y-201786250D01*
X249203228Y-201665408D01*
X249306495Y-201628170D01*
X249335750Y-201627500D01*
X249425956Y-201618684D01*
X249473348Y-201571724D01*
X249491624Y-201455844D01*
X249494500Y-201270847D01*
X249491449Y-201069210D01*
X249472955Y-200966435D01*
X249425008Y-200934393D01*
X249333600Y-200944952D01*
X249332319Y-200945197D01*
X249216012Y-200952300D01*
X249183940Y-200886748D01*
X249189444Y-200809725D01*
X249230504Y-200685623D01*
X249341301Y-200632549D01*
X249402495Y-200624293D01*
X249588644Y-200643921D01*
X249723443Y-200752560D01*
X249815111Y-200961862D01*
X249871864Y-201283480D01*
X249872684Y-201290995D01*
X249888752Y-201522800D01*
X249896130Y-201813771D01*
X251149628Y-201813771D01*
X251237726Y-201718160D01*
X251452376Y-201615218D01*
X251686433Y-201595387D01*
X251912577Y-201662473D01*
X252103487Y-201820284D01*
X252201758Y-201987318D01*
X252268526Y-202274684D01*
X252853396Y-202274684D01*
X252853115Y-202263165D01*
X252826058Y-202084355D01*
X252769230Y-201987118D01*
X252673031Y-201948961D01*
X252603486Y-201945000D01*
X252448569Y-201908560D01*
X252381234Y-201810072D01*
X252384583Y-201671607D01*
X252480419Y-201597461D01*
X252637750Y-201607647D01*
X252787912Y-201632181D01*
X252980523Y-201636549D01*
X252994321Y-201635880D01*
X253223891Y-201623364D01*
X253227030Y-202275258D01*
X254107923Y-202275258D01*
X254120590Y-202167250D01*
X254182020Y-201916207D01*
X254310882Y-201750149D01*
X254480413Y-201654671D01*
X254752382Y-201597028D01*
X254995647Y-201646038D01*
X255194987Y-201782073D01*
X255335179Y-201985504D01*
X255401004Y-202236702D01*
X255901083Y-202236702D01*
X255825764Y-202057580D01*
X255740261Y-201856463D01*
X255604417Y-201536933D01*
X255488055Y-201260702D01*
X255399524Y-201047797D01*
X255347175Y-200918246D01*
X255336500Y-200888088D01*
X255391648Y-200871986D01*
X255520076Y-200865500D01*
X253888470Y-200865500D01*
X253843260Y-201262375D01*
X253812013Y-201510591D01*
X253781825Y-201657998D01*
X253743040Y-201730335D01*
X253686001Y-201753338D01*
X253658634Y-201754500D01*
X253596692Y-201695036D01*
X253547314Y-201532744D01*
X253535382Y-201459887D01*
X253501344Y-201183387D01*
X253495179Y-201008854D01*
X253522976Y-200913138D01*
X253590826Y-200873086D01*
X253691735Y-200865500D01*
X253888470Y-200865500D01*
X255520076Y-200865500D01*
X255602425Y-200872548D01*
X255669131Y-200907154D01*
X255734043Y-200989508D01*
X255811006Y-201139801D01*
X255913868Y-201378225D01*
X255977665Y-201532718D01*
X256109380Y-201837139D01*
X256210074Y-202034662D01*
X256276773Y-202119912D01*
X256299539Y-202114413D01*
X256340272Y-202021363D01*
X256412203Y-201838146D01*
X256503959Y-201594244D01*
X256573907Y-201403154D01*
X256669149Y-201143223D01*
X256748716Y-200932005D01*
X256802749Y-200795319D01*
X256820543Y-200757291D01*
X256848802Y-200805201D01*
X256911326Y-200950542D01*
X256999119Y-201171336D01*
X257103189Y-201445609D01*
X257112516Y-201470734D01*
X257217583Y-201748508D01*
X257307190Y-201974630D01*
X257372335Y-202127137D01*
X257404011Y-202184067D01*
X257404874Y-202183792D01*
X257434814Y-202119771D01*
X257499860Y-201962509D01*
X257589702Y-201737367D01*
X257670623Y-201530264D01*
X257781566Y-201249190D01*
X257863139Y-201065493D01*
X257930123Y-200957474D01*
X257997300Y-200903434D01*
X258079449Y-200881671D01*
X258115193Y-200877593D01*
X258314527Y-200857936D01*
X259710174Y-200857936D01*
X259710977Y-200504263D01*
X259711101Y-199672011D01*
X259709754Y-198724743D01*
X259706983Y-197657196D01*
X259705975Y-197341250D01*
X259702558Y-196334710D01*
X259699307Y-195461685D01*
X258436381Y-195461685D01*
X258380855Y-196086002D01*
X258237748Y-196693689D01*
X258014196Y-197251417D01*
X257808817Y-197601330D01*
X257391417Y-198103413D01*
X256885780Y-198537870D01*
X256316105Y-198889490D01*
X255706586Y-199143059D01*
X255147879Y-199274288D01*
X254878523Y-199311363D01*
X254674094Y-199328665D01*
X254484040Y-199326143D01*
X254257807Y-199303745D01*
X254028760Y-199273148D01*
X253348400Y-199117768D01*
X252717728Y-198853293D01*
X252148549Y-198489607D01*
X251652667Y-198036593D01*
X251241887Y-197504136D01*
X251099353Y-197230752D01*
X249613570Y-197230752D01*
X249581200Y-197402163D01*
X249515990Y-197624765D01*
X249428412Y-197866627D01*
X249328939Y-198095822D01*
X249230808Y-198276120D01*
X248893622Y-198692885D01*
X248482128Y-199006868D01*
X247999525Y-199215893D01*
X247762875Y-199274567D01*
X247481585Y-199320400D01*
X247241734Y-199330263D01*
X246980040Y-199304009D01*
X246794091Y-199272319D01*
X246618999Y-199219444D01*
X233238500Y-199219444D01*
X232127250Y-199182750D01*
X232098574Y-196642311D01*
X228624583Y-196642311D01*
X228602807Y-197193229D01*
X228474548Y-197768071D01*
X228253520Y-198263101D01*
X227944521Y-198672677D01*
X227552350Y-198991154D01*
X227081805Y-199212888D01*
X226825000Y-199284308D01*
X226508943Y-199313944D01*
X226144845Y-199286787D01*
X225794534Y-199209750D01*
X225636379Y-199151405D01*
X225425430Y-199045014D01*
X225234085Y-198927660D01*
X225186860Y-198892998D01*
X225015250Y-198757524D01*
X224951750Y-199182750D01*
X224540960Y-199202016D01*
X224301887Y-199206670D01*
X224095795Y-199199294D01*
X223985335Y-199184931D01*
X223840500Y-199148580D01*
X223840500Y-194452000D01*
X222507000Y-194452000D01*
X222507000Y-196790916D01*
X222505975Y-197323729D01*
X222503057Y-197816021D01*
X222498480Y-198253473D01*
X222492480Y-198621762D01*
X222485293Y-198906568D01*
X222477153Y-199093568D01*
X222468296Y-199168443D01*
X222467943Y-199168890D01*
X222389946Y-199186013D01*
X222219184Y-199195744D01*
X221989764Y-199196359D01*
X221944068Y-199195348D01*
X221459250Y-199182750D01*
X221427299Y-197688413D01*
X221416637Y-197213027D01*
X221406249Y-196846164D01*
X221394158Y-196569366D01*
X221378390Y-196364178D01*
X221356970Y-196212142D01*
X221327923Y-196094800D01*
X221289273Y-195993696D01*
X221239046Y-195890373D01*
X221233801Y-195880161D01*
X221049672Y-195615303D01*
X220823058Y-195463058D01*
X220545663Y-195421241D01*
X220209193Y-195487666D01*
X220018162Y-195559954D01*
X219951436Y-195561680D01*
X219878178Y-195496333D01*
X219783371Y-195345786D01*
X219684787Y-195157522D01*
X219578260Y-194939059D01*
X219498806Y-194762918D01*
X219460507Y-194660691D01*
X219459000Y-194650980D01*
X219515010Y-194590787D01*
X219660084Y-194515261D01*
X219859794Y-194438699D01*
X220079709Y-194375399D01*
X220168020Y-194356543D01*
X220486316Y-194354118D01*
X220816587Y-194447943D01*
X221109208Y-194623206D01*
X221135092Y-194645172D01*
X221272181Y-194758510D01*
X221368517Y-194825370D01*
X221388258Y-194833000D01*
X221415830Y-194777734D01*
X221427498Y-194644607D01*
X221427500Y-194642500D01*
X221427500Y-194452000D01*
X222507000Y-194452000D01*
X223840500Y-194452000D01*
X223840500Y-194447055D01*
X224396125Y-194465402D01*
X224951750Y-194483750D01*
X224971268Y-194718675D01*
X224990785Y-194953600D01*
X225270096Y-194740397D01*
X225586606Y-194536438D01*
X225909861Y-194416183D01*
X226285234Y-194365367D01*
X226475750Y-194361319D01*
X226963779Y-194422160D01*
X227407297Y-194592427D01*
X227796799Y-194859468D01*
X228122782Y-195210629D01*
X228375743Y-195633259D01*
X228546178Y-196114704D01*
X228624583Y-196642311D01*
X232098574Y-196642311D01*
X232093202Y-196166500D01*
X231631443Y-196166500D01*
X231025130Y-196118201D01*
X230487444Y-195977597D01*
X230025987Y-195751126D01*
X229648362Y-195445225D01*
X229362171Y-195066334D01*
X229175018Y-194620888D01*
X229094505Y-194115328D01*
X229091908Y-194016070D01*
X229100619Y-193736785D01*
X229126434Y-193468554D01*
X229163790Y-193268947D01*
X229164270Y-193267259D01*
X229307506Y-192928982D01*
X229531577Y-192586109D01*
X229802149Y-192287562D01*
X229923428Y-192185614D01*
X230115488Y-192053947D01*
X230315328Y-191951906D01*
X230543362Y-191875193D01*
X230820007Y-191819508D01*
X231165676Y-191780553D01*
X231600786Y-191754030D01*
X232047875Y-191738282D01*
X233238500Y-191704846D01*
X233238500Y-199219444D01*
X246618999Y-199219444D01*
X246276387Y-199115981D01*
X245812921Y-198855117D01*
X245421252Y-198503049D01*
X245118941Y-198073098D01*
X245060307Y-197956977D01*
X244979284Y-197768101D01*
X244928785Y-197595054D01*
X244901904Y-197397226D01*
X244891731Y-197134009D01*
X244890750Y-196960250D01*
X244908790Y-196535008D01*
X244971596Y-196197361D01*
X245092197Y-195911930D01*
X245283622Y-195643339D01*
X245437348Y-195476106D01*
X245623619Y-195301663D01*
X245826616Y-195148441D01*
X246070684Y-195002285D01*
X246380169Y-194849036D01*
X246779415Y-194674541D01*
X246907618Y-194621180D01*
X247204230Y-194492102D01*
X247478577Y-194360995D01*
X247696370Y-194244904D01*
X247807337Y-194173921D01*
X248017103Y-193949977D01*
X248117938Y-193698616D01*
X248119118Y-193438847D01*
X248029922Y-193189682D01*
X247859627Y-192970130D01*
X247617511Y-192799201D01*
X247312850Y-192695907D01*
X247075327Y-192673999D01*
X246726632Y-192724680D01*
X246421842Y-192883411D01*
X246175151Y-193118887D01*
X245943259Y-193389800D01*
X245495836Y-193123991D01*
X245280563Y-192991981D01*
X245151186Y-192886872D01*
X245108004Y-192785006D01*
X245151320Y-192662724D01*
X245281432Y-192496369D01*
X245498642Y-192262281D01*
X245506894Y-192253555D01*
X245796962Y-191984159D01*
X246090909Y-191799658D01*
X246320846Y-191721500D01*
X243525500Y-191721500D01*
X243525500Y-195425666D01*
X243524794Y-196099969D01*
X243522761Y-196736131D01*
X243519527Y-197322852D01*
X243515222Y-197848831D01*
X243509972Y-198302766D01*
X243503905Y-198673357D01*
X243497150Y-198949301D01*
X243489833Y-199119299D01*
X243483167Y-199172166D01*
X243404111Y-199191625D01*
X243230740Y-199206366D01*
X242995721Y-199213969D01*
X242911667Y-199214500D01*
X242382500Y-199214500D01*
X242382500Y-195722000D01*
X239209542Y-195722000D01*
X239175750Y-199182750D01*
X238096250Y-199182750D01*
X238079868Y-195452125D01*
X238063485Y-191721500D01*
X239207500Y-191721500D01*
X239207500Y-194642500D01*
X242382500Y-194642500D01*
X242382500Y-191721500D01*
X243525500Y-191721500D01*
X246320846Y-191721500D01*
X246421067Y-191687434D01*
X246819768Y-191634871D01*
X247113250Y-191626712D01*
X247421216Y-191630312D01*
X247642183Y-191646350D01*
X247816040Y-191681888D01*
X247982673Y-191743986D01*
X248107639Y-191802738D01*
X248558491Y-192083581D01*
X248907013Y-192429875D01*
X249147733Y-192834177D01*
X249275180Y-193289044D01*
X249288682Y-193409551D01*
X249267911Y-193883094D01*
X249128071Y-194316023D01*
X248871520Y-194704930D01*
X248500619Y-195046401D01*
X248017728Y-195337028D01*
X247924802Y-195381071D01*
X247458167Y-195595869D01*
X247092984Y-195767765D01*
X246814534Y-195905183D01*
X246608102Y-196016546D01*
X246458972Y-196110278D01*
X246352426Y-196194800D01*
X246273748Y-196278537D01*
X246214893Y-196359750D01*
X246056208Y-196699925D01*
X246010165Y-197046369D01*
X246064826Y-197380693D01*
X246208250Y-197684509D01*
X246428496Y-197939428D01*
X246713626Y-198127062D01*
X247051697Y-198229023D01*
X247427631Y-198227398D01*
X247790419Y-198122765D01*
X248071365Y-197926646D01*
X248276043Y-197633260D01*
X248410027Y-197236822D01*
X248417962Y-197199982D01*
X248463751Y-197014516D01*
X248507710Y-196893085D01*
X248530628Y-196865495D01*
X248630257Y-196881043D01*
X248807703Y-196920347D01*
X249026852Y-196974078D01*
X249251587Y-197032903D01*
X249445796Y-197087493D01*
X249573363Y-197128517D01*
X249602628Y-197142461D01*
X249613570Y-197230752D01*
X251099353Y-197230752D01*
X250928014Y-196902120D01*
X250811458Y-196579250D01*
X250709317Y-196106490D01*
X250667578Y-195573330D01*
X250686226Y-195030590D01*
X250765248Y-194529086D01*
X250812083Y-194356750D01*
X251064970Y-193748488D01*
X251421495Y-193186517D01*
X251865305Y-192686266D01*
X252380050Y-192263166D01*
X252949377Y-191932648D01*
X253556936Y-191710140D01*
X253638212Y-191689872D01*
X254323530Y-191591178D01*
X255001054Y-191616490D01*
X255660391Y-191762838D01*
X256291148Y-192027256D01*
X256882929Y-192406774D01*
X257249460Y-192721115D01*
X257715019Y-193245695D01*
X258069235Y-193820541D01*
X258307235Y-194436596D01*
X258397188Y-194854067D01*
X258436381Y-195461685D01*
X259699307Y-195461685D01*
X259699253Y-195447335D01*
X259695886Y-194671288D01*
X259692280Y-193998733D01*
X259688262Y-193421835D01*
X259683656Y-192932758D01*
X259678288Y-192523666D01*
X259671982Y-192186723D01*
X259664562Y-191914094D01*
X259655856Y-191697943D01*
X259645686Y-191530434D01*
X259633879Y-191403731D01*
X259620259Y-191309999D01*
X259604651Y-191241402D01*
X259586880Y-191190104D01*
X259567698Y-191150000D01*
X259482604Y-191023000D01*
X218697000Y-191023000D01*
X218697000Y-195081708D01*
X218696507Y-195935072D01*
X218694926Y-196669107D01*
X218692109Y-197291482D01*
X218687908Y-197809863D01*
X218682174Y-198231918D01*
X218674758Y-198565316D01*
X218665512Y-198817723D01*
X218654286Y-198996808D01*
X218640932Y-199110239D01*
X218625301Y-199165682D01*
X218617625Y-199173699D01*
X218518637Y-199188336D01*
X218331038Y-199196117D01*
X218093102Y-199195583D01*
X218062000Y-199194866D01*
X217585750Y-199182750D01*
X217554000Y-198230250D01*
X217538042Y-197839189D01*
X217519278Y-197561884D01*
X217496144Y-197385096D01*
X217467074Y-197295587D01*
X217441348Y-197277750D01*
X217378591Y-197325606D01*
X217252197Y-197458814D01*
X217075664Y-197661829D01*
X216862488Y-197919109D01*
X216626163Y-198215110D01*
X216614293Y-198230250D01*
X215868142Y-199182750D01*
X215240295Y-199201048D01*
X214967216Y-199203125D01*
X214741126Y-199193887D01*
X214592534Y-199175167D01*
X214552786Y-199159685D01*
X214573158Y-199092354D01*
X214671857Y-198935394D01*
X214844164Y-198695260D01*
X215085363Y-198378412D01*
X215390737Y-197991307D01*
X215559724Y-197781204D01*
X215878520Y-197387021D01*
X213934500Y-197387021D01*
X213902463Y-197605287D01*
X213797796Y-197786069D01*
X213607667Y-197938960D01*
X213319245Y-198073552D01*
X212919699Y-198199439D01*
X212808690Y-198228695D01*
X212114566Y-198406503D01*
X212050307Y-198647250D01*
X211986048Y-198887996D01*
X212517701Y-199416373D01*
X212813460Y-199725861D01*
X213013945Y-199977951D01*
X213126862Y-200189574D01*
X213159914Y-200377660D01*
X213120804Y-200559139D01*
X213078584Y-200649019D01*
X212924031Y-200839225D01*
X212716928Y-200939819D01*
X212596931Y-200967737D01*
X212469815Y-200973805D01*
X212307661Y-200954511D01*
X212082553Y-200906346D01*
X211766572Y-200825798D01*
X211727089Y-200815346D01*
X210981750Y-200617619D01*
X210810589Y-200789184D01*
X210639428Y-200960750D01*
X210826464Y-201622689D01*
X210929598Y-202006715D01*
X210989978Y-202294089D01*
X211007096Y-202507928D01*
X210980443Y-202671349D01*
X210909511Y-202807466D01*
X210797600Y-202935599D01*
X210620933Y-203078070D01*
X210443114Y-203140760D01*
X210250104Y-203118904D01*
X210027863Y-203007735D01*
X209762351Y-202802485D01*
X209439529Y-202498388D01*
X209403429Y-202462232D01*
X208909126Y-201965013D01*
X208672632Y-202028136D01*
X208436139Y-202091260D01*
X208253755Y-202796005D01*
X208163198Y-203126930D01*
X208084619Y-203361443D01*
X208005977Y-203527838D01*
X207915230Y-203654411D01*
X207866035Y-203707125D01*
X207632961Y-203868808D01*
X207383019Y-203916157D01*
X207140182Y-203845857D01*
X207090267Y-203814395D01*
X206983254Y-203720416D01*
X206891112Y-203589023D01*
X206804140Y-203398752D01*
X206712638Y-203128137D01*
X206606906Y-202755714D01*
X206599640Y-202728700D01*
X206426544Y-202083651D01*
X205944026Y-201961175D01*
X205420833Y-202493263D01*
X205111714Y-202790035D01*
X204857835Y-202990133D01*
X204643118Y-203101974D01*
X204451491Y-203133971D01*
X204269946Y-203095723D01*
X204071172Y-202975623D01*
X203946940Y-202789996D01*
X203895921Y-202529354D01*
X203916787Y-202184207D01*
X204008207Y-201745065D01*
X204056116Y-201569191D01*
X204226942Y-200971133D01*
X204048346Y-200793902D01*
X203869750Y-200616672D01*
X203298250Y-200782144D01*
X202804389Y-200903582D01*
X202412676Y-200952041D01*
X202121369Y-200927587D01*
X201932512Y-200833750D01*
X201774339Y-200650733D01*
X201706478Y-200457685D01*
X201732434Y-200242680D01*
X201855714Y-199993793D01*
X202079823Y-199699098D01*
X202353182Y-199402688D01*
X202881939Y-198860626D01*
X202810969Y-198629386D01*
X202766778Y-198508066D01*
X202705165Y-198429195D01*
X202595129Y-198372591D01*
X202405667Y-198318069D01*
X202288875Y-198289471D01*
X201808950Y-198160427D01*
X201444685Y-198029359D01*
X201184848Y-197889021D01*
X201018206Y-197732171D01*
X200933527Y-197551564D01*
X200917000Y-197404750D01*
X200950245Y-197202850D01*
X201057468Y-197029856D01*
X201249901Y-196878525D01*
X201538777Y-196741612D01*
X201935328Y-196611873D01*
X202288875Y-196520028D01*
X202523110Y-196460085D01*
X202664300Y-196406972D01*
X202743470Y-196340391D01*
X202791645Y-196240042D01*
X202811620Y-196177992D01*
X202883241Y-195944631D01*
X202382895Y-195436440D01*
X202093297Y-195131659D01*
X201891574Y-194889447D01*
X201767676Y-194691503D01*
X201711555Y-194519524D01*
X201713162Y-194355211D01*
X201735983Y-194258214D01*
X201839892Y-194051816D01*
X201857196Y-194039250D01*
X201488500Y-194039250D01*
X201456750Y-194071000D01*
X201425000Y-194039250D01*
X201456750Y-194007500D01*
X201488500Y-194039250D01*
X201857196Y-194039250D01*
X202022417Y-193919274D01*
X202166463Y-193859488D01*
X202304776Y-193829479D01*
X202464450Y-193831265D01*
X202672575Y-193866868D01*
X202956244Y-193938309D01*
X203202155Y-194007258D01*
X203867792Y-194197516D01*
X204040943Y-194023133D01*
X204214095Y-193848750D01*
X204114283Y-193467750D01*
X201679000Y-193467750D01*
X201647250Y-193499500D01*
X201615500Y-193467750D01*
X201647250Y-193436000D01*
X201679000Y-193467750D01*
X204114283Y-193467750D01*
X204022787Y-193118500D01*
X203927344Y-192724319D01*
X203877654Y-192427168D01*
X203875008Y-192205114D01*
X203920691Y-192036225D01*
X203965595Y-191971365D01*
X203250932Y-191971365D01*
X203242246Y-191975500D01*
X203184297Y-191930797D01*
X203171250Y-191912000D01*
X203155069Y-191852634D01*
X203163755Y-191848500D01*
X203221704Y-191893202D01*
X203234750Y-191912000D01*
X203250932Y-191971365D01*
X203965595Y-191971365D01*
X204015994Y-191898569D01*
X204099032Y-191820577D01*
X204271332Y-191704943D01*
X204331190Y-191689750D01*
X204028500Y-191689750D01*
X203996750Y-191721500D01*
X203965000Y-191689750D01*
X203996750Y-191658000D01*
X204028500Y-191689750D01*
X204331190Y-191689750D01*
X204442580Y-191661478D01*
X204628219Y-191696076D01*
X204843692Y-191814633D01*
X205104442Y-192023043D01*
X205425638Y-192326927D01*
X205965525Y-192862272D01*
X206196109Y-192791504D01*
X206307586Y-192751907D01*
X206384280Y-192697512D01*
X206442559Y-192601242D01*
X206498792Y-192436018D01*
X206569347Y-192174760D01*
X206569678Y-192173493D01*
X206694538Y-191730022D01*
X206812428Y-191398018D01*
X206933373Y-191163087D01*
X207067397Y-191010837D01*
X207224525Y-190926876D01*
X207414781Y-190896812D01*
X207459486Y-190895999D01*
X207658598Y-190928149D01*
X207825838Y-191033089D01*
X207970178Y-191223556D01*
X208100589Y-191512286D01*
X208226046Y-191912015D01*
X208256970Y-192028021D01*
X208336603Y-192330642D01*
X208396504Y-192532953D01*
X208448775Y-192657589D01*
X208505520Y-192727183D01*
X208578839Y-192764372D01*
X208662968Y-192787344D01*
X208758555Y-192806933D01*
X208841325Y-192803027D01*
X208931961Y-192762732D01*
X209051144Y-192673151D01*
X209219556Y-192521388D01*
X209457879Y-192294547D01*
X209466400Y-192286375D01*
X209784264Y-191995809D01*
X210039854Y-191799056D01*
X210248659Y-191689519D01*
X210426170Y-191660605D01*
X210587874Y-191705715D01*
X210685832Y-191767108D01*
X210840954Y-191905973D01*
X210940219Y-192063097D01*
X210984967Y-192257883D01*
X210976535Y-192509734D01*
X210916261Y-192838056D01*
X210805484Y-193262252D01*
X210792166Y-193309000D01*
X210637539Y-193848750D01*
X210982087Y-194195894D01*
X211705074Y-194001027D01*
X212100083Y-193902879D01*
X212398659Y-193852157D01*
X212622693Y-193850151D01*
X212794077Y-193898154D01*
X212934701Y-193997458D01*
X213009923Y-194078031D01*
X213147093Y-194320513D01*
X213157810Y-194570479D01*
X213101966Y-194726049D01*
X213029990Y-194826268D01*
X212889152Y-194991256D01*
X212701010Y-195196599D01*
X212523593Y-195380984D01*
X212305170Y-195604791D01*
X212162107Y-195761563D01*
X212080432Y-195874537D01*
X212046176Y-195966951D01*
X212045370Y-196062043D01*
X212059080Y-196153654D01*
X212091924Y-196304599D01*
X212148659Y-196391028D01*
X212264836Y-196444834D01*
X212431078Y-196487377D01*
X212929903Y-196615253D01*
X213313797Y-196740078D01*
X213594431Y-196868837D01*
X213783476Y-197008512D01*
X213892604Y-197166089D01*
X213933485Y-197348551D01*
X213934500Y-197387021D01*
X215878520Y-197387021D01*
X216626323Y-196462385D01*
X215629662Y-195492932D01*
X215338927Y-195208574D01*
X215081604Y-194953909D01*
X214870796Y-194742149D01*
X214719603Y-194586509D01*
X214641127Y-194500202D01*
X214633000Y-194487740D01*
X214692270Y-194473517D01*
X214853170Y-194461978D01*
X215090341Y-194454394D01*
X215346422Y-194452000D01*
X216059843Y-194452000D01*
X216806922Y-195197132D01*
X217554000Y-195942264D01*
X217554000Y-191023000D01*
X218697000Y-191023000D01*
X259482604Y-191023000D01*
X259349053Y-190823680D01*
X259075214Y-190583332D01*
X258924250Y-190492945D01*
X258670250Y-190356250D01*
X232730500Y-190356250D01*
X230518161Y-190356305D01*
G36*
X206752289Y-194117689D02*
X206158077Y-194280642D01*
X205593256Y-194554057D01*
X205072523Y-194937583D01*
X204915805Y-195085304D01*
X204486525Y-195597999D01*
X204173956Y-196159576D01*
X203979437Y-196766839D01*
X203904307Y-197416592D01*
X203903378Y-197500000D01*
X203961997Y-198139186D01*
X204129967Y-198733869D01*
X204395460Y-199275587D01*
X204746644Y-199755876D01*
X205171692Y-200166273D01*
X205658772Y-200498316D01*
X206196056Y-200743541D01*
X206771714Y-200893486D01*
X207373916Y-200939687D01*
X207990832Y-200873681D01*
X208445197Y-200749251D01*
X208726603Y-200639308D01*
X209000699Y-200512240D01*
X209214465Y-200392939D01*
X209238947Y-200376634D01*
X209695586Y-199993789D01*
X210097685Y-199523172D01*
X210422547Y-198996743D01*
X210647478Y-198446460D01*
X210672968Y-198357250D01*
X210713188Y-198140631D01*
X210743350Y-197851910D01*
X210758099Y-197545899D01*
X210758747Y-197479446D01*
X210699447Y-196823070D01*
X210521354Y-196210049D01*
X210226907Y-195645895D01*
X209818546Y-195136126D01*
X209649784Y-194972146D01*
X209129087Y-194577520D01*
X208564291Y-194295113D01*
X207970094Y-194124573D01*
X207361194Y-194065548D01*
X206752289Y-194117689D01*
X206752289Y-194117689D01*
G37*
X206752289Y-194117689D02*
X206158077Y-194280642D01*
X205593256Y-194554057D01*
X205072523Y-194937583D01*
X204915805Y-195085304D01*
X204486525Y-195597999D01*
X204173956Y-196159576D01*
X203979437Y-196766839D01*
X203904307Y-197416592D01*
X203903378Y-197500000D01*
X203961997Y-198139186D01*
X204129967Y-198733869D01*
X204395460Y-199275587D01*
X204746644Y-199755876D01*
X205171692Y-200166273D01*
X205658772Y-200498316D01*
X206196056Y-200743541D01*
X206771714Y-200893486D01*
X207373916Y-200939687D01*
X207990832Y-200873681D01*
X208445197Y-200749251D01*
X208726603Y-200639308D01*
X209000699Y-200512240D01*
X209214465Y-200392939D01*
X209238947Y-200376634D01*
X209695586Y-199993789D01*
X210097685Y-199523172D01*
X210422547Y-198996743D01*
X210647478Y-198446460D01*
X210672968Y-198357250D01*
X210713188Y-198140631D01*
X210743350Y-197851910D01*
X210758099Y-197545899D01*
X210758747Y-197479446D01*
X210699447Y-196823070D01*
X210521354Y-196210049D01*
X210226907Y-195645895D01*
X209818546Y-195136126D01*
X209649784Y-194972146D01*
X209129087Y-194577520D01*
X208564291Y-194295113D01*
X207970094Y-194124573D01*
X207361194Y-194065548D01*
X206752289Y-194117689D01*
G36*
X236314460Y-201901821D02*
X236173630Y-201980350D01*
X236064148Y-202127460D01*
X236031615Y-202333163D01*
X236081853Y-202550838D01*
X236098235Y-202584174D01*
X236214447Y-202685009D01*
X236379376Y-202706197D01*
X236544188Y-202649410D01*
X236632150Y-202565870D01*
X236722308Y-202347467D01*
X236693548Y-202137100D01*
X236604000Y-202008500D01*
X236457036Y-201900596D01*
X236314460Y-201901821D01*
X236314460Y-201901821D01*
G37*
X236314460Y-201901821D02*
X236173630Y-201980350D01*
X236064148Y-202127460D01*
X236031615Y-202333163D01*
X236081853Y-202550838D01*
X236098235Y-202584174D01*
X236214447Y-202685009D01*
X236379376Y-202706197D01*
X236544188Y-202649410D01*
X236632150Y-202565870D01*
X236722308Y-202347467D01*
X236693548Y-202137100D01*
X236604000Y-202008500D01*
X236457036Y-201900596D01*
X236314460Y-201901821D01*
G36*
X226679205Y-201908494D02*
X226516891Y-202042911D01*
X226508520Y-202053376D01*
X226413474Y-202265849D01*
X226437945Y-202488469D01*
X226520381Y-202627269D01*
X226653289Y-202700170D01*
X226827440Y-202696982D01*
X226987586Y-202624189D01*
X227043650Y-202565870D01*
X227134374Y-202349241D01*
X227098944Y-202142332D01*
X227013027Y-202020473D01*
X226844443Y-201901024D01*
X226679205Y-201908494D01*
X226679205Y-201908494D01*
G37*
X226679205Y-201908494D02*
X226516891Y-202042911D01*
X226508520Y-202053376D01*
X226413474Y-202265849D01*
X226437945Y-202488469D01*
X226520381Y-202627269D01*
X226653289Y-202700170D01*
X226827440Y-202696982D01*
X226987586Y-202624189D01*
X227043650Y-202565870D01*
X227134374Y-202349241D01*
X227098944Y-202142332D01*
X227013027Y-202020473D01*
X226844443Y-201901024D01*
X226679205Y-201908494D01*
G36*
X254582533Y-201940701D02*
X254465764Y-202027126D01*
X254470920Y-202091388D01*
X254594084Y-202128424D01*
X254733250Y-202135500D01*
X254903661Y-202122617D01*
X255005886Y-202090024D01*
X255019000Y-202070638D01*
X254964432Y-201982237D01*
X254834512Y-201924582D01*
X254679922Y-201912760D01*
X254582533Y-201940701D01*
X254582533Y-201940701D01*
G37*
X254582533Y-201940701D02*
X254465764Y-202027126D01*
X254470920Y-202091388D01*
X254594084Y-202128424D01*
X254733250Y-202135500D01*
X254903661Y-202122617D01*
X255005886Y-202090024D01*
X255019000Y-202070638D01*
X254964432Y-201982237D01*
X254834512Y-201924582D01*
X254679922Y-201912760D01*
X254582533Y-201940701D01*
G36*
X251466654Y-201922755D02*
X251430426Y-201945684D01*
X251345065Y-202044012D01*
X251375372Y-202105370D01*
X251524666Y-202133086D01*
X251619758Y-202135500D01*
X251795096Y-202127101D01*
X251868312Y-202095664D01*
X251866753Y-202039701D01*
X251771134Y-201942845D01*
X251617073Y-201899404D01*
X251466654Y-201922755D01*
X251466654Y-201922755D01*
G37*
X251466654Y-201922755D02*
X251430426Y-201945684D01*
X251345065Y-202044012D01*
X251375372Y-202105370D01*
X251524666Y-202133086D01*
X251619758Y-202135500D01*
X251795096Y-202127101D01*
X251868312Y-202095664D01*
X251866753Y-202039701D01*
X251771134Y-201942845D01*
X251617073Y-201899404D01*
X251466654Y-201922755D01*
G36*
X248315960Y-201901821D02*
X248175130Y-201980350D01*
X248065648Y-202127460D01*
X248033115Y-202333163D01*
X248083353Y-202550838D01*
X248099735Y-202584174D01*
X248214554Y-202680924D01*
X248382146Y-202703657D01*
X248551622Y-202651726D01*
X248627409Y-202590874D01*
X248719420Y-202403907D01*
X248711283Y-202192536D01*
X248605500Y-202008500D01*
X248458536Y-201900596D01*
X248315960Y-201901821D01*
X248315960Y-201901821D01*
G37*
X248315960Y-201901821D02*
X248175130Y-201980350D01*
X248065648Y-202127460D01*
X248033115Y-202333163D01*
X248083353Y-202550838D01*
X248099735Y-202584174D01*
X248214554Y-202680924D01*
X248382146Y-202703657D01*
X248551622Y-202651726D01*
X248627409Y-202590874D01*
X248719420Y-202403907D01*
X248711283Y-202192536D01*
X248605500Y-202008500D01*
X248458536Y-201900596D01*
X248315960Y-201901821D01*
G36*
X246566644Y-201912901D02*
X246446500Y-202008500D01*
X246343711Y-202185435D01*
X246328944Y-202388898D01*
X246403143Y-202567326D01*
X246435626Y-202601908D01*
X246599759Y-202689823D01*
X246776800Y-202698540D01*
X246918248Y-202629723D01*
X246952266Y-202584174D01*
X247016507Y-202368958D01*
X246997031Y-202158136D01*
X246899661Y-201998330D01*
X246876871Y-201980350D01*
X246706732Y-201893188D01*
X246566644Y-201912901D01*
X246566644Y-201912901D01*
G37*
X246566644Y-201912901D02*
X246446500Y-202008500D01*
X246343711Y-202185435D01*
X246328944Y-202388898D01*
X246403143Y-202567326D01*
X246435626Y-202601908D01*
X246599759Y-202689823D01*
X246776800Y-202698540D01*
X246918248Y-202629723D01*
X246952266Y-202584174D01*
X247016507Y-202368958D01*
X246997031Y-202158136D01*
X246899661Y-201998330D01*
X246876871Y-201980350D01*
X246706732Y-201893188D01*
X246566644Y-201912901D01*
G36*
X230839630Y-201980350D02*
X230730148Y-202127460D01*
X230697615Y-202333163D01*
X230747853Y-202550838D01*
X230764235Y-202584174D01*
X230872868Y-202670998D01*
X231042070Y-202708024D01*
X231213761Y-202690752D01*
X231320620Y-202627269D01*
X231424443Y-202415099D01*
X231409174Y-202192419D01*
X231332481Y-202053376D01*
X231175606Y-201912834D01*
X231010317Y-201895443D01*
X230839630Y-201980350D01*
X230839630Y-201980350D01*
G37*
X230839630Y-201980350D02*
X230730148Y-202127460D01*
X230697615Y-202333163D01*
X230747853Y-202550838D01*
X230764235Y-202584174D01*
X230872868Y-202670998D01*
X231042070Y-202708024D01*
X231213761Y-202690752D01*
X231320620Y-202627269D01*
X231424443Y-202415099D01*
X231409174Y-202192419D01*
X231332481Y-202053376D01*
X231175606Y-201912834D01*
X231010317Y-201895443D01*
X230839630Y-201980350D01*
G36*
X224989651Y-201936551D02*
X224870319Y-202075511D01*
X224808437Y-202259087D01*
X224817313Y-202447989D01*
X224909126Y-202601908D01*
X225073259Y-202689823D01*
X225250300Y-202698540D01*
X225391748Y-202629723D01*
X225425766Y-202584174D01*
X225487757Y-202373166D01*
X225467640Y-202164823D01*
X225378776Y-201993578D01*
X225234524Y-201893865D01*
X225153125Y-201881500D01*
X224989651Y-201936551D01*
X224989651Y-201936551D01*
G37*
X224989651Y-201936551D02*
X224870319Y-202075511D01*
X224808437Y-202259087D01*
X224817313Y-202447989D01*
X224909126Y-202601908D01*
X225073259Y-202689823D01*
X225250300Y-202698540D01*
X225391748Y-202629723D01*
X225425766Y-202584174D01*
X225487757Y-202373166D01*
X225467640Y-202164823D01*
X225378776Y-201993578D01*
X225234524Y-201893865D01*
X225153125Y-201881500D01*
X224989651Y-201936551D01*
G36*
X218778608Y-201908946D02*
X218647630Y-201980350D01*
X218541316Y-202123388D01*
X218505214Y-202319125D01*
X218542981Y-202512094D01*
X218606286Y-202607214D01*
X218772399Y-202695575D01*
X218965885Y-202694887D01*
X219132132Y-202609159D01*
X219169650Y-202565870D01*
X219259808Y-202347467D01*
X219231048Y-202137100D01*
X219141500Y-202008500D01*
X218966067Y-201896846D01*
X218778608Y-201908946D01*
X218778608Y-201908946D01*
G37*
X218778608Y-201908946D02*
X218647630Y-201980350D01*
X218541316Y-202123388D01*
X218505214Y-202319125D01*
X218542981Y-202512094D01*
X218606286Y-202607214D01*
X218772399Y-202695575D01*
X218965885Y-202694887D01*
X219132132Y-202609159D01*
X219169650Y-202565870D01*
X219259808Y-202347467D01*
X219231048Y-202137100D01*
X219141500Y-202008500D01*
X218966067Y-201896846D01*
X218778608Y-201908946D01*
G36*
X254227980Y-192708316D02*
X253999354Y-192720456D01*
X253822635Y-192748834D01*
X253660295Y-192800112D01*
X253474805Y-192880955D01*
X253423666Y-192905026D01*
X252908893Y-193214896D01*
X252484677Y-193607501D01*
X252157643Y-194070264D01*
X251934417Y-194590605D01*
X251821625Y-195155948D01*
X251825893Y-195753714D01*
X251845214Y-195901525D01*
X251990324Y-196454808D01*
X252237107Y-196951690D01*
X252571240Y-197382402D01*
X252978400Y-197737179D01*
X253444264Y-198006253D01*
X253954510Y-198179858D01*
X254494813Y-198248227D01*
X255050851Y-198201592D01*
X255177750Y-198173988D01*
X255697420Y-197984517D01*
X256168398Y-197689619D01*
X256575249Y-197306437D01*
X256902537Y-196852111D01*
X257134829Y-196343783D01*
X257246912Y-195876076D01*
X257273279Y-195273304D01*
X257182467Y-194700640D01*
X256981175Y-194171032D01*
X256676097Y-193697430D01*
X256273932Y-193292782D01*
X255781376Y-192970039D01*
X255730830Y-192944457D01*
X255513023Y-192839571D01*
X255342433Y-192771010D01*
X255180774Y-192731063D01*
X254989759Y-192712013D01*
X254731104Y-192706149D01*
X254546044Y-192705750D01*
X254227980Y-192708316D01*
X254227980Y-192708316D01*
G37*
X254227980Y-192708316D02*
X253999354Y-192720456D01*
X253822635Y-192748834D01*
X253660295Y-192800112D01*
X253474805Y-192880955D01*
X253423666Y-192905026D01*
X252908893Y-193214896D01*
X252484677Y-193607501D01*
X252157643Y-194070264D01*
X251934417Y-194590605D01*
X251821625Y-195155948D01*
X251825893Y-195753714D01*
X251845214Y-195901525D01*
X251990324Y-196454808D01*
X252237107Y-196951690D01*
X252571240Y-197382402D01*
X252978400Y-197737179D01*
X253444264Y-198006253D01*
X253954510Y-198179858D01*
X254494813Y-198248227D01*
X255050851Y-198201592D01*
X255177750Y-198173988D01*
X255697420Y-197984517D01*
X256168398Y-197689619D01*
X256575249Y-197306437D01*
X256902537Y-196852111D01*
X257134829Y-196343783D01*
X257246912Y-195876076D01*
X257273279Y-195273304D01*
X257182467Y-194700640D01*
X256981175Y-194171032D01*
X256676097Y-193697430D01*
X256273932Y-193292782D01*
X255781376Y-192970039D01*
X255730830Y-192944457D01*
X255513023Y-192839571D01*
X255342433Y-192771010D01*
X255180774Y-192731063D01*
X254989759Y-192712013D01*
X254731104Y-192706149D01*
X254546044Y-192705750D01*
X254227980Y-192708316D01*
G36*
X225812456Y-195426296D02*
X225619445Y-195511014D01*
X225394755Y-195644043D01*
X225242018Y-195790745D01*
X225111347Y-196000626D01*
X225095570Y-196030876D01*
X224956551Y-196415092D01*
X224910571Y-196822887D01*
X224952322Y-197227185D01*
X225076497Y-197600908D01*
X225277788Y-197916979D01*
X225505048Y-198119752D01*
X225825929Y-198262740D01*
X226191176Y-198315295D01*
X226552537Y-198273884D01*
X226732378Y-198209666D01*
X227040947Y-198000268D01*
X227272480Y-197711830D01*
X227425488Y-197367399D01*
X227498479Y-196990021D01*
X227489962Y-196602744D01*
X227398449Y-196228615D01*
X227222447Y-195890682D01*
X226960467Y-195611990D01*
X226903132Y-195569239D01*
X226557579Y-195396362D01*
X226192963Y-195348666D01*
X225812456Y-195426296D01*
X225812456Y-195426296D01*
G37*
X225812456Y-195426296D02*
X225619445Y-195511014D01*
X225394755Y-195644043D01*
X225242018Y-195790745D01*
X225111347Y-196000626D01*
X225095570Y-196030876D01*
X224956551Y-196415092D01*
X224910571Y-196822887D01*
X224952322Y-197227185D01*
X225076497Y-197600908D01*
X225277788Y-197916979D01*
X225505048Y-198119752D01*
X225825929Y-198262740D01*
X226191176Y-198315295D01*
X226552537Y-198273884D01*
X226732378Y-198209666D01*
X227040947Y-198000268D01*
X227272480Y-197711830D01*
X227425488Y-197367399D01*
X227498479Y-196990021D01*
X227489962Y-196602744D01*
X227398449Y-196228615D01*
X227222447Y-195890682D01*
X226960467Y-195611990D01*
X226903132Y-195569239D01*
X226557579Y-195396362D01*
X226192963Y-195348666D01*
X225812456Y-195426296D01*
G36*
X231208828Y-192841399D02*
X230811556Y-192960034D01*
X230507673Y-193153060D01*
X230302390Y-193416635D01*
X230200919Y-193746914D01*
X230190500Y-193910114D01*
X230242150Y-194295376D01*
X230398307Y-194610165D01*
X230564838Y-194785899D01*
X230809668Y-194943803D01*
X231108248Y-195040347D01*
X231487948Y-195083001D01*
X231666875Y-195086645D01*
X232095500Y-195087000D01*
X232095500Y-192801000D01*
X231694276Y-192801000D01*
X231208828Y-192841399D01*
X231208828Y-192841399D01*
G37*
X231208828Y-192841399D02*
X230811556Y-192960034D01*
X230507673Y-193153060D01*
X230302390Y-193416635D01*
X230200919Y-193746914D01*
X230190500Y-193910114D01*
X230242150Y-194295376D01*
X230398307Y-194610165D01*
X230564838Y-194785899D01*
X230809668Y-194943803D01*
X231108248Y-195040347D01*
X231487948Y-195083001D01*
X231666875Y-195086645D01*
X232095500Y-195087000D01*
X232095500Y-192801000D01*
X231694276Y-192801000D01*
X231208828Y-192841399D01*
M02*
