G04 #@! TF.FileFunction,Other,Fab,Top*
%FSLAX46Y46*%
G04 Gerber Fmt 4.6, Leading zero omitted, Abs format (unit mm)*
G04 Created by KiCad (PCBNEW 4.0.6-e0-6349~53~ubuntu16.04.1) date Sun Jun 25 10:16:04 2017*
%MOMM*%
%LPD*%
G01*
G04 APERTURE LIST*
%ADD10C,0.100000*%
%ADD11C,0.150000*%
G04 APERTURE END LIST*
D10*
X316120000Y-201000000D02*
X314880000Y-201000000D01*
X316120000Y-199000000D02*
X316120000Y-201000000D01*
X314880000Y-199000000D02*
X316120000Y-199000000D01*
X314880000Y-201000000D02*
X314880000Y-199000000D01*
X299000000Y-216120000D02*
X299000000Y-214880000D01*
X301000000Y-216120000D02*
X299000000Y-216120000D01*
X301000000Y-214880000D02*
X301000000Y-216120000D01*
X299000000Y-214880000D02*
X301000000Y-214880000D01*
X283880000Y-199000000D02*
X285120000Y-199000000D01*
X283880000Y-201000000D02*
X283880000Y-199000000D01*
X285120000Y-201000000D02*
X283880000Y-201000000D01*
X285120000Y-199000000D02*
X285120000Y-201000000D01*
X326120000Y-201000000D02*
X324880000Y-201000000D01*
X326120000Y-199000000D02*
X326120000Y-201000000D01*
X324880000Y-199000000D02*
X326120000Y-199000000D01*
X324880000Y-201000000D02*
X324880000Y-199000000D01*
X299000000Y-226120000D02*
X299000000Y-224880000D01*
X301000000Y-226120000D02*
X299000000Y-226120000D01*
X301000000Y-224880000D02*
X301000000Y-226120000D01*
X299000000Y-224880000D02*
X301000000Y-224880000D01*
X273880000Y-199000000D02*
X275120000Y-199000000D01*
X273880000Y-201000000D02*
X273880000Y-199000000D01*
X275120000Y-201000000D02*
X273880000Y-201000000D01*
X275120000Y-199000000D02*
X275120000Y-201000000D01*
X336120000Y-201000000D02*
X334880000Y-201000000D01*
X336120000Y-199000000D02*
X336120000Y-201000000D01*
X334880000Y-199000000D02*
X336120000Y-199000000D01*
X334880000Y-201000000D02*
X334880000Y-199000000D01*
X299000000Y-236120000D02*
X299000000Y-234880000D01*
X301000000Y-236120000D02*
X299000000Y-236120000D01*
X301000000Y-234880000D02*
X301000000Y-236120000D01*
X299000000Y-234880000D02*
X301000000Y-234880000D01*
X263880000Y-199000000D02*
X265120000Y-199000000D01*
X263880000Y-201000000D02*
X263880000Y-199000000D01*
X265120000Y-201000000D02*
X263880000Y-201000000D01*
X265120000Y-199000000D02*
X265120000Y-201000000D01*
X346120000Y-201000000D02*
X344880000Y-201000000D01*
X346120000Y-199000000D02*
X346120000Y-201000000D01*
X344880000Y-199000000D02*
X346120000Y-199000000D01*
X344880000Y-201000000D02*
X344880000Y-199000000D01*
X299000000Y-246120000D02*
X299000000Y-244880000D01*
X301000000Y-246120000D02*
X299000000Y-246120000D01*
X301000000Y-244880000D02*
X301000000Y-246120000D01*
X299000000Y-244880000D02*
X301000000Y-244880000D01*
X253880000Y-199000000D02*
X255120000Y-199000000D01*
X253880000Y-201000000D02*
X253880000Y-199000000D01*
X255120000Y-201000000D02*
X253880000Y-201000000D01*
X255120000Y-199000000D02*
X255120000Y-201000000D01*
X356120000Y-201000000D02*
X354880000Y-201000000D01*
X356120000Y-199000000D02*
X356120000Y-201000000D01*
X354880000Y-199000000D02*
X356120000Y-199000000D01*
X354880000Y-201000000D02*
X354880000Y-199000000D01*
X299000000Y-256120000D02*
X299000000Y-254880000D01*
X301000000Y-256120000D02*
X299000000Y-256120000D01*
X301000000Y-254880000D02*
X301000000Y-256120000D01*
X299000000Y-254880000D02*
X301000000Y-254880000D01*
X243880000Y-199000000D02*
X245120000Y-199000000D01*
X243880000Y-201000000D02*
X243880000Y-199000000D01*
X245120000Y-201000000D02*
X243880000Y-201000000D01*
X245120000Y-199000000D02*
X245120000Y-201000000D01*
X366120000Y-201000000D02*
X364880000Y-201000000D01*
X366120000Y-199000000D02*
X366120000Y-201000000D01*
X364880000Y-199000000D02*
X366120000Y-199000000D01*
X364880000Y-201000000D02*
X364880000Y-199000000D01*
X299000000Y-266120000D02*
X299000000Y-264880000D01*
X301000000Y-266120000D02*
X299000000Y-266120000D01*
X301000000Y-264880000D02*
X301000000Y-266120000D01*
X299000000Y-264880000D02*
X301000000Y-264880000D01*
X233880000Y-199000000D02*
X235120000Y-199000000D01*
X233880000Y-201000000D02*
X233880000Y-199000000D01*
X235120000Y-201000000D02*
X233880000Y-201000000D01*
X235120000Y-199000000D02*
X235120000Y-201000000D01*
X376120000Y-201000000D02*
X374880000Y-201000000D01*
X376120000Y-199000000D02*
X376120000Y-201000000D01*
X374880000Y-199000000D02*
X376120000Y-199000000D01*
X374880000Y-201000000D02*
X374880000Y-199000000D01*
X299000000Y-276120000D02*
X299000000Y-274880000D01*
X301000000Y-276120000D02*
X299000000Y-276120000D01*
X301000000Y-274880000D02*
X301000000Y-276120000D01*
X299000000Y-274880000D02*
X301000000Y-274880000D01*
X223880000Y-199000000D02*
X225120000Y-199000000D01*
X223880000Y-201000000D02*
X223880000Y-199000000D01*
X225120000Y-201000000D02*
X223880000Y-201000000D01*
X225120000Y-199000000D02*
X225120000Y-201000000D01*
X386120000Y-201000000D02*
X384880000Y-201000000D01*
X386120000Y-199000000D02*
X386120000Y-201000000D01*
X384880000Y-199000000D02*
X386120000Y-199000000D01*
X384880000Y-201000000D02*
X384880000Y-199000000D01*
X299000000Y-286120000D02*
X299000000Y-284880000D01*
X301000000Y-286120000D02*
X299000000Y-286120000D01*
X301000000Y-284880000D02*
X301000000Y-286120000D01*
X299000000Y-284880000D02*
X301000000Y-284880000D01*
X213880000Y-199000000D02*
X215120000Y-199000000D01*
X213880000Y-201000000D02*
X213880000Y-199000000D01*
X215120000Y-201000000D02*
X213880000Y-201000000D01*
X215120000Y-199000000D02*
X215120000Y-201000000D01*
X396120000Y-201000000D02*
X394880000Y-201000000D01*
X396120000Y-199000000D02*
X396120000Y-201000000D01*
X394880000Y-199000000D02*
X396120000Y-199000000D01*
X394880000Y-201000000D02*
X394880000Y-199000000D01*
X299000000Y-296120000D02*
X299000000Y-294880000D01*
X301000000Y-296120000D02*
X299000000Y-296120000D01*
X301000000Y-294880000D02*
X301000000Y-296120000D01*
X299000000Y-294880000D02*
X301000000Y-294880000D01*
X203880000Y-199000000D02*
X205120000Y-199000000D01*
X203880000Y-201000000D02*
X203880000Y-199000000D01*
X205120000Y-201000000D02*
X203880000Y-201000000D01*
X205120000Y-199000000D02*
X205120000Y-201000000D01*
X301000000Y-183880000D02*
X301000000Y-185120000D01*
X299000000Y-183880000D02*
X301000000Y-183880000D01*
X299000000Y-185120000D02*
X299000000Y-183880000D01*
X301000000Y-185120000D02*
X299000000Y-185120000D01*
X301000000Y-173880000D02*
X301000000Y-175120000D01*
X299000000Y-173880000D02*
X301000000Y-173880000D01*
X299000000Y-175120000D02*
X299000000Y-173880000D01*
X301000000Y-175120000D02*
X299000000Y-175120000D01*
X301000000Y-163880000D02*
X301000000Y-165120000D01*
X299000000Y-163880000D02*
X301000000Y-163880000D01*
X299000000Y-165120000D02*
X299000000Y-163880000D01*
X301000000Y-165120000D02*
X299000000Y-165120000D01*
X301000000Y-153880000D02*
X301000000Y-155120000D01*
X299000000Y-153880000D02*
X301000000Y-153880000D01*
X299000000Y-155120000D02*
X299000000Y-153880000D01*
X301000000Y-155120000D02*
X299000000Y-155120000D01*
X301000000Y-143880000D02*
X301000000Y-145120000D01*
X299000000Y-143880000D02*
X301000000Y-143880000D01*
X299000000Y-145120000D02*
X299000000Y-143880000D01*
X301000000Y-145120000D02*
X299000000Y-145120000D01*
X301000000Y-133880000D02*
X301000000Y-135120000D01*
X299000000Y-133880000D02*
X301000000Y-133880000D01*
X299000000Y-135120000D02*
X299000000Y-133880000D01*
X301000000Y-135120000D02*
X299000000Y-135120000D01*
X301000000Y-123880000D02*
X301000000Y-125120000D01*
X299000000Y-123880000D02*
X301000000Y-123880000D01*
X299000000Y-125120000D02*
X299000000Y-123880000D01*
X301000000Y-125120000D02*
X299000000Y-125120000D01*
X301000000Y-113880000D02*
X301000000Y-115120000D01*
X299000000Y-113880000D02*
X301000000Y-113880000D01*
X299000000Y-115120000D02*
X299000000Y-113880000D01*
X301000000Y-115120000D02*
X299000000Y-115120000D01*
D11*
X321384776Y-181615224D02*
G75*
G03X321384776Y-181615224I-3000000J0D01*
G01*
X328114071Y-193270705D02*
G75*
G03X328114071Y-193270705I-3000000J0D01*
G01*
X328114071Y-206729295D02*
G75*
G03X328114071Y-206729295I-3000000J0D01*
G01*
X321384776Y-218384776D02*
G75*
G03X321384776Y-218384776I-3000000J0D01*
G01*
X284615224Y-218384776D02*
G75*
G03X284615224Y-218384776I-3000000J0D01*
G01*
X277885929Y-206729295D02*
G75*
G03X277885929Y-206729295I-3000000J0D01*
G01*
X277885929Y-193270705D02*
G75*
G03X277885929Y-193270705I-3000000J0D01*
G01*
X284615224Y-181615224D02*
G75*
G03X284615224Y-181615224I-3000000J0D01*
G01*
D10*
X301000000Y-103880000D02*
X301000000Y-105120000D01*
X299000000Y-103880000D02*
X301000000Y-103880000D01*
X299000000Y-105120000D02*
X299000000Y-103880000D01*
X301000000Y-105120000D02*
X299000000Y-105120000D01*
D11*
X314357143Y-200642857D02*
X314404762Y-200690476D01*
X314452381Y-200833333D01*
X314452381Y-200928571D01*
X314404762Y-201071429D01*
X314309524Y-201166667D01*
X314214286Y-201214286D01*
X314023810Y-201261905D01*
X313880952Y-201261905D01*
X313690476Y-201214286D01*
X313595238Y-201166667D01*
X313500000Y-201071429D01*
X313452381Y-200928571D01*
X313452381Y-200833333D01*
X313500000Y-200690476D01*
X313547619Y-200642857D01*
X314452381Y-199690476D02*
X314452381Y-200261905D01*
X314452381Y-199976191D02*
X313452381Y-199976191D01*
X313595238Y-200071429D01*
X313690476Y-200166667D01*
X313738095Y-200261905D01*
X313880952Y-199119048D02*
X313833333Y-199214286D01*
X313785714Y-199261905D01*
X313690476Y-199309524D01*
X313642857Y-199309524D01*
X313547619Y-199261905D01*
X313500000Y-199214286D01*
X313452381Y-199119048D01*
X313452381Y-198928571D01*
X313500000Y-198833333D01*
X313547619Y-198785714D01*
X313642857Y-198738095D01*
X313690476Y-198738095D01*
X313785714Y-198785714D01*
X313833333Y-198833333D01*
X313880952Y-198928571D01*
X313880952Y-199119048D01*
X313928571Y-199214286D01*
X313976190Y-199261905D01*
X314071429Y-199309524D01*
X314261905Y-199309524D01*
X314357143Y-199261905D01*
X314404762Y-199214286D01*
X314452381Y-199119048D01*
X314452381Y-198928571D01*
X314404762Y-198833333D01*
X314357143Y-198785714D01*
X314261905Y-198738095D01*
X314071429Y-198738095D01*
X313976190Y-198785714D01*
X313928571Y-198833333D01*
X313880952Y-198928571D01*
X299357143Y-214357143D02*
X299309524Y-214404762D01*
X299166667Y-214452381D01*
X299071429Y-214452381D01*
X298928571Y-214404762D01*
X298833333Y-214309524D01*
X298785714Y-214214286D01*
X298738095Y-214023810D01*
X298738095Y-213880952D01*
X298785714Y-213690476D01*
X298833333Y-213595238D01*
X298928571Y-213500000D01*
X299071429Y-213452381D01*
X299166667Y-213452381D01*
X299309524Y-213500000D01*
X299357143Y-213547619D01*
X299738095Y-213547619D02*
X299785714Y-213500000D01*
X299880952Y-213452381D01*
X300119048Y-213452381D01*
X300214286Y-213500000D01*
X300261905Y-213547619D01*
X300309524Y-213642857D01*
X300309524Y-213738095D01*
X300261905Y-213880952D01*
X299690476Y-214452381D01*
X300309524Y-214452381D01*
X300642857Y-213452381D02*
X301309524Y-213452381D01*
X300880952Y-214452381D01*
X286357143Y-200642857D02*
X286404762Y-200690476D01*
X286452381Y-200833333D01*
X286452381Y-200928571D01*
X286404762Y-201071429D01*
X286309524Y-201166667D01*
X286214286Y-201214286D01*
X286023810Y-201261905D01*
X285880952Y-201261905D01*
X285690476Y-201214286D01*
X285595238Y-201166667D01*
X285500000Y-201071429D01*
X285452381Y-200928571D01*
X285452381Y-200833333D01*
X285500000Y-200690476D01*
X285547619Y-200642857D01*
X285452381Y-200309524D02*
X285452381Y-199690476D01*
X285833333Y-200023810D01*
X285833333Y-199880952D01*
X285880952Y-199785714D01*
X285928571Y-199738095D01*
X286023810Y-199690476D01*
X286261905Y-199690476D01*
X286357143Y-199738095D01*
X286404762Y-199785714D01*
X286452381Y-199880952D01*
X286452381Y-200166667D01*
X286404762Y-200261905D01*
X286357143Y-200309524D01*
X285452381Y-198833333D02*
X285452381Y-199023810D01*
X285500000Y-199119048D01*
X285547619Y-199166667D01*
X285690476Y-199261905D01*
X285880952Y-199309524D01*
X286261905Y-199309524D01*
X286357143Y-199261905D01*
X286404762Y-199214286D01*
X286452381Y-199119048D01*
X286452381Y-198928571D01*
X286404762Y-198833333D01*
X286357143Y-198785714D01*
X286261905Y-198738095D01*
X286023810Y-198738095D01*
X285928571Y-198785714D01*
X285880952Y-198833333D01*
X285833333Y-198928571D01*
X285833333Y-199119048D01*
X285880952Y-199214286D01*
X285928571Y-199261905D01*
X286023810Y-199309524D01*
X324357143Y-200642857D02*
X324404762Y-200690476D01*
X324452381Y-200833333D01*
X324452381Y-200928571D01*
X324404762Y-201071429D01*
X324309524Y-201166667D01*
X324214286Y-201214286D01*
X324023810Y-201261905D01*
X323880952Y-201261905D01*
X323690476Y-201214286D01*
X323595238Y-201166667D01*
X323500000Y-201071429D01*
X323452381Y-200928571D01*
X323452381Y-200833333D01*
X323500000Y-200690476D01*
X323547619Y-200642857D01*
X324452381Y-199690476D02*
X324452381Y-200261905D01*
X324452381Y-199976191D02*
X323452381Y-199976191D01*
X323595238Y-200071429D01*
X323690476Y-200166667D01*
X323738095Y-200261905D01*
X323452381Y-199357143D02*
X323452381Y-198690476D01*
X324452381Y-199119048D01*
X299357143Y-224357143D02*
X299309524Y-224404762D01*
X299166667Y-224452381D01*
X299071429Y-224452381D01*
X298928571Y-224404762D01*
X298833333Y-224309524D01*
X298785714Y-224214286D01*
X298738095Y-224023810D01*
X298738095Y-223880952D01*
X298785714Y-223690476D01*
X298833333Y-223595238D01*
X298928571Y-223500000D01*
X299071429Y-223452381D01*
X299166667Y-223452381D01*
X299309524Y-223500000D01*
X299357143Y-223547619D01*
X299738095Y-223547619D02*
X299785714Y-223500000D01*
X299880952Y-223452381D01*
X300119048Y-223452381D01*
X300214286Y-223500000D01*
X300261905Y-223547619D01*
X300309524Y-223642857D01*
X300309524Y-223738095D01*
X300261905Y-223880952D01*
X299690476Y-224452381D01*
X300309524Y-224452381D01*
X301166667Y-223452381D02*
X300976190Y-223452381D01*
X300880952Y-223500000D01*
X300833333Y-223547619D01*
X300738095Y-223690476D01*
X300690476Y-223880952D01*
X300690476Y-224261905D01*
X300738095Y-224357143D01*
X300785714Y-224404762D01*
X300880952Y-224452381D01*
X301071429Y-224452381D01*
X301166667Y-224404762D01*
X301214286Y-224357143D01*
X301261905Y-224261905D01*
X301261905Y-224023810D01*
X301214286Y-223928571D01*
X301166667Y-223880952D01*
X301071429Y-223833333D01*
X300880952Y-223833333D01*
X300785714Y-223880952D01*
X300738095Y-223928571D01*
X300690476Y-224023810D01*
X276357143Y-200642857D02*
X276404762Y-200690476D01*
X276452381Y-200833333D01*
X276452381Y-200928571D01*
X276404762Y-201071429D01*
X276309524Y-201166667D01*
X276214286Y-201214286D01*
X276023810Y-201261905D01*
X275880952Y-201261905D01*
X275690476Y-201214286D01*
X275595238Y-201166667D01*
X275500000Y-201071429D01*
X275452381Y-200928571D01*
X275452381Y-200833333D01*
X275500000Y-200690476D01*
X275547619Y-200642857D01*
X275452381Y-200309524D02*
X275452381Y-199690476D01*
X275833333Y-200023810D01*
X275833333Y-199880952D01*
X275880952Y-199785714D01*
X275928571Y-199738095D01*
X276023810Y-199690476D01*
X276261905Y-199690476D01*
X276357143Y-199738095D01*
X276404762Y-199785714D01*
X276452381Y-199880952D01*
X276452381Y-200166667D01*
X276404762Y-200261905D01*
X276357143Y-200309524D01*
X275452381Y-198785714D02*
X275452381Y-199261905D01*
X275928571Y-199309524D01*
X275880952Y-199261905D01*
X275833333Y-199166667D01*
X275833333Y-198928571D01*
X275880952Y-198833333D01*
X275928571Y-198785714D01*
X276023810Y-198738095D01*
X276261905Y-198738095D01*
X276357143Y-198785714D01*
X276404762Y-198833333D01*
X276452381Y-198928571D01*
X276452381Y-199166667D01*
X276404762Y-199261905D01*
X276357143Y-199309524D01*
X334357143Y-200642857D02*
X334404762Y-200690476D01*
X334452381Y-200833333D01*
X334452381Y-200928571D01*
X334404762Y-201071429D01*
X334309524Y-201166667D01*
X334214286Y-201214286D01*
X334023810Y-201261905D01*
X333880952Y-201261905D01*
X333690476Y-201214286D01*
X333595238Y-201166667D01*
X333500000Y-201071429D01*
X333452381Y-200928571D01*
X333452381Y-200833333D01*
X333500000Y-200690476D01*
X333547619Y-200642857D01*
X334452381Y-199690476D02*
X334452381Y-200261905D01*
X334452381Y-199976191D02*
X333452381Y-199976191D01*
X333595238Y-200071429D01*
X333690476Y-200166667D01*
X333738095Y-200261905D01*
X333452381Y-198833333D02*
X333452381Y-199023810D01*
X333500000Y-199119048D01*
X333547619Y-199166667D01*
X333690476Y-199261905D01*
X333880952Y-199309524D01*
X334261905Y-199309524D01*
X334357143Y-199261905D01*
X334404762Y-199214286D01*
X334452381Y-199119048D01*
X334452381Y-198928571D01*
X334404762Y-198833333D01*
X334357143Y-198785714D01*
X334261905Y-198738095D01*
X334023810Y-198738095D01*
X333928571Y-198785714D01*
X333880952Y-198833333D01*
X333833333Y-198928571D01*
X333833333Y-199119048D01*
X333880952Y-199214286D01*
X333928571Y-199261905D01*
X334023810Y-199309524D01*
X299357143Y-234357143D02*
X299309524Y-234404762D01*
X299166667Y-234452381D01*
X299071429Y-234452381D01*
X298928571Y-234404762D01*
X298833333Y-234309524D01*
X298785714Y-234214286D01*
X298738095Y-234023810D01*
X298738095Y-233880952D01*
X298785714Y-233690476D01*
X298833333Y-233595238D01*
X298928571Y-233500000D01*
X299071429Y-233452381D01*
X299166667Y-233452381D01*
X299309524Y-233500000D01*
X299357143Y-233547619D01*
X299738095Y-233547619D02*
X299785714Y-233500000D01*
X299880952Y-233452381D01*
X300119048Y-233452381D01*
X300214286Y-233500000D01*
X300261905Y-233547619D01*
X300309524Y-233642857D01*
X300309524Y-233738095D01*
X300261905Y-233880952D01*
X299690476Y-234452381D01*
X300309524Y-234452381D01*
X301214286Y-233452381D02*
X300738095Y-233452381D01*
X300690476Y-233928571D01*
X300738095Y-233880952D01*
X300833333Y-233833333D01*
X301071429Y-233833333D01*
X301166667Y-233880952D01*
X301214286Y-233928571D01*
X301261905Y-234023810D01*
X301261905Y-234261905D01*
X301214286Y-234357143D01*
X301166667Y-234404762D01*
X301071429Y-234452381D01*
X300833333Y-234452381D01*
X300738095Y-234404762D01*
X300690476Y-234357143D01*
X266357143Y-200642857D02*
X266404762Y-200690476D01*
X266452381Y-200833333D01*
X266452381Y-200928571D01*
X266404762Y-201071429D01*
X266309524Y-201166667D01*
X266214286Y-201214286D01*
X266023810Y-201261905D01*
X265880952Y-201261905D01*
X265690476Y-201214286D01*
X265595238Y-201166667D01*
X265500000Y-201071429D01*
X265452381Y-200928571D01*
X265452381Y-200833333D01*
X265500000Y-200690476D01*
X265547619Y-200642857D01*
X265452381Y-200309524D02*
X265452381Y-199690476D01*
X265833333Y-200023810D01*
X265833333Y-199880952D01*
X265880952Y-199785714D01*
X265928571Y-199738095D01*
X266023810Y-199690476D01*
X266261905Y-199690476D01*
X266357143Y-199738095D01*
X266404762Y-199785714D01*
X266452381Y-199880952D01*
X266452381Y-200166667D01*
X266404762Y-200261905D01*
X266357143Y-200309524D01*
X265785714Y-198833333D02*
X266452381Y-198833333D01*
X265404762Y-199071429D02*
X266119048Y-199309524D01*
X266119048Y-198690476D01*
X344357143Y-200642857D02*
X344404762Y-200690476D01*
X344452381Y-200833333D01*
X344452381Y-200928571D01*
X344404762Y-201071429D01*
X344309524Y-201166667D01*
X344214286Y-201214286D01*
X344023810Y-201261905D01*
X343880952Y-201261905D01*
X343690476Y-201214286D01*
X343595238Y-201166667D01*
X343500000Y-201071429D01*
X343452381Y-200928571D01*
X343452381Y-200833333D01*
X343500000Y-200690476D01*
X343547619Y-200642857D01*
X344452381Y-199690476D02*
X344452381Y-200261905D01*
X344452381Y-199976191D02*
X343452381Y-199976191D01*
X343595238Y-200071429D01*
X343690476Y-200166667D01*
X343738095Y-200261905D01*
X343452381Y-198785714D02*
X343452381Y-199261905D01*
X343928571Y-199309524D01*
X343880952Y-199261905D01*
X343833333Y-199166667D01*
X343833333Y-198928571D01*
X343880952Y-198833333D01*
X343928571Y-198785714D01*
X344023810Y-198738095D01*
X344261905Y-198738095D01*
X344357143Y-198785714D01*
X344404762Y-198833333D01*
X344452381Y-198928571D01*
X344452381Y-199166667D01*
X344404762Y-199261905D01*
X344357143Y-199309524D01*
X299357143Y-244357143D02*
X299309524Y-244404762D01*
X299166667Y-244452381D01*
X299071429Y-244452381D01*
X298928571Y-244404762D01*
X298833333Y-244309524D01*
X298785714Y-244214286D01*
X298738095Y-244023810D01*
X298738095Y-243880952D01*
X298785714Y-243690476D01*
X298833333Y-243595238D01*
X298928571Y-243500000D01*
X299071429Y-243452381D01*
X299166667Y-243452381D01*
X299309524Y-243500000D01*
X299357143Y-243547619D01*
X299738095Y-243547619D02*
X299785714Y-243500000D01*
X299880952Y-243452381D01*
X300119048Y-243452381D01*
X300214286Y-243500000D01*
X300261905Y-243547619D01*
X300309524Y-243642857D01*
X300309524Y-243738095D01*
X300261905Y-243880952D01*
X299690476Y-244452381D01*
X300309524Y-244452381D01*
X301166667Y-243785714D02*
X301166667Y-244452381D01*
X300928571Y-243404762D02*
X300690476Y-244119048D01*
X301309524Y-244119048D01*
X256357143Y-200642857D02*
X256404762Y-200690476D01*
X256452381Y-200833333D01*
X256452381Y-200928571D01*
X256404762Y-201071429D01*
X256309524Y-201166667D01*
X256214286Y-201214286D01*
X256023810Y-201261905D01*
X255880952Y-201261905D01*
X255690476Y-201214286D01*
X255595238Y-201166667D01*
X255500000Y-201071429D01*
X255452381Y-200928571D01*
X255452381Y-200833333D01*
X255500000Y-200690476D01*
X255547619Y-200642857D01*
X255452381Y-200309524D02*
X255452381Y-199690476D01*
X255833333Y-200023810D01*
X255833333Y-199880952D01*
X255880952Y-199785714D01*
X255928571Y-199738095D01*
X256023810Y-199690476D01*
X256261905Y-199690476D01*
X256357143Y-199738095D01*
X256404762Y-199785714D01*
X256452381Y-199880952D01*
X256452381Y-200166667D01*
X256404762Y-200261905D01*
X256357143Y-200309524D01*
X255452381Y-199357143D02*
X255452381Y-198738095D01*
X255833333Y-199071429D01*
X255833333Y-198928571D01*
X255880952Y-198833333D01*
X255928571Y-198785714D01*
X256023810Y-198738095D01*
X256261905Y-198738095D01*
X256357143Y-198785714D01*
X256404762Y-198833333D01*
X256452381Y-198928571D01*
X256452381Y-199214286D01*
X256404762Y-199309524D01*
X256357143Y-199357143D01*
X354357143Y-200642857D02*
X354404762Y-200690476D01*
X354452381Y-200833333D01*
X354452381Y-200928571D01*
X354404762Y-201071429D01*
X354309524Y-201166667D01*
X354214286Y-201214286D01*
X354023810Y-201261905D01*
X353880952Y-201261905D01*
X353690476Y-201214286D01*
X353595238Y-201166667D01*
X353500000Y-201071429D01*
X353452381Y-200928571D01*
X353452381Y-200833333D01*
X353500000Y-200690476D01*
X353547619Y-200642857D01*
X354452381Y-199690476D02*
X354452381Y-200261905D01*
X354452381Y-199976191D02*
X353452381Y-199976191D01*
X353595238Y-200071429D01*
X353690476Y-200166667D01*
X353738095Y-200261905D01*
X353785714Y-198833333D02*
X354452381Y-198833333D01*
X353404762Y-199071429D02*
X354119048Y-199309524D01*
X354119048Y-198690476D01*
X299357143Y-254357143D02*
X299309524Y-254404762D01*
X299166667Y-254452381D01*
X299071429Y-254452381D01*
X298928571Y-254404762D01*
X298833333Y-254309524D01*
X298785714Y-254214286D01*
X298738095Y-254023810D01*
X298738095Y-253880952D01*
X298785714Y-253690476D01*
X298833333Y-253595238D01*
X298928571Y-253500000D01*
X299071429Y-253452381D01*
X299166667Y-253452381D01*
X299309524Y-253500000D01*
X299357143Y-253547619D01*
X299738095Y-253547619D02*
X299785714Y-253500000D01*
X299880952Y-253452381D01*
X300119048Y-253452381D01*
X300214286Y-253500000D01*
X300261905Y-253547619D01*
X300309524Y-253642857D01*
X300309524Y-253738095D01*
X300261905Y-253880952D01*
X299690476Y-254452381D01*
X300309524Y-254452381D01*
X300642857Y-253452381D02*
X301261905Y-253452381D01*
X300928571Y-253833333D01*
X301071429Y-253833333D01*
X301166667Y-253880952D01*
X301214286Y-253928571D01*
X301261905Y-254023810D01*
X301261905Y-254261905D01*
X301214286Y-254357143D01*
X301166667Y-254404762D01*
X301071429Y-254452381D01*
X300785714Y-254452381D01*
X300690476Y-254404762D01*
X300642857Y-254357143D01*
X246357143Y-200642857D02*
X246404762Y-200690476D01*
X246452381Y-200833333D01*
X246452381Y-200928571D01*
X246404762Y-201071429D01*
X246309524Y-201166667D01*
X246214286Y-201214286D01*
X246023810Y-201261905D01*
X245880952Y-201261905D01*
X245690476Y-201214286D01*
X245595238Y-201166667D01*
X245500000Y-201071429D01*
X245452381Y-200928571D01*
X245452381Y-200833333D01*
X245500000Y-200690476D01*
X245547619Y-200642857D01*
X245452381Y-200309524D02*
X245452381Y-199690476D01*
X245833333Y-200023810D01*
X245833333Y-199880952D01*
X245880952Y-199785714D01*
X245928571Y-199738095D01*
X246023810Y-199690476D01*
X246261905Y-199690476D01*
X246357143Y-199738095D01*
X246404762Y-199785714D01*
X246452381Y-199880952D01*
X246452381Y-200166667D01*
X246404762Y-200261905D01*
X246357143Y-200309524D01*
X245547619Y-199309524D02*
X245500000Y-199261905D01*
X245452381Y-199166667D01*
X245452381Y-198928571D01*
X245500000Y-198833333D01*
X245547619Y-198785714D01*
X245642857Y-198738095D01*
X245738095Y-198738095D01*
X245880952Y-198785714D01*
X246452381Y-199357143D01*
X246452381Y-198738095D01*
X364357143Y-200642857D02*
X364404762Y-200690476D01*
X364452381Y-200833333D01*
X364452381Y-200928571D01*
X364404762Y-201071429D01*
X364309524Y-201166667D01*
X364214286Y-201214286D01*
X364023810Y-201261905D01*
X363880952Y-201261905D01*
X363690476Y-201214286D01*
X363595238Y-201166667D01*
X363500000Y-201071429D01*
X363452381Y-200928571D01*
X363452381Y-200833333D01*
X363500000Y-200690476D01*
X363547619Y-200642857D01*
X364452381Y-199690476D02*
X364452381Y-200261905D01*
X364452381Y-199976191D02*
X363452381Y-199976191D01*
X363595238Y-200071429D01*
X363690476Y-200166667D01*
X363738095Y-200261905D01*
X363452381Y-199357143D02*
X363452381Y-198738095D01*
X363833333Y-199071429D01*
X363833333Y-198928571D01*
X363880952Y-198833333D01*
X363928571Y-198785714D01*
X364023810Y-198738095D01*
X364261905Y-198738095D01*
X364357143Y-198785714D01*
X364404762Y-198833333D01*
X364452381Y-198928571D01*
X364452381Y-199214286D01*
X364404762Y-199309524D01*
X364357143Y-199357143D01*
X299357143Y-264357143D02*
X299309524Y-264404762D01*
X299166667Y-264452381D01*
X299071429Y-264452381D01*
X298928571Y-264404762D01*
X298833333Y-264309524D01*
X298785714Y-264214286D01*
X298738095Y-264023810D01*
X298738095Y-263880952D01*
X298785714Y-263690476D01*
X298833333Y-263595238D01*
X298928571Y-263500000D01*
X299071429Y-263452381D01*
X299166667Y-263452381D01*
X299309524Y-263500000D01*
X299357143Y-263547619D01*
X299738095Y-263547619D02*
X299785714Y-263500000D01*
X299880952Y-263452381D01*
X300119048Y-263452381D01*
X300214286Y-263500000D01*
X300261905Y-263547619D01*
X300309524Y-263642857D01*
X300309524Y-263738095D01*
X300261905Y-263880952D01*
X299690476Y-264452381D01*
X300309524Y-264452381D01*
X300690476Y-263547619D02*
X300738095Y-263500000D01*
X300833333Y-263452381D01*
X301071429Y-263452381D01*
X301166667Y-263500000D01*
X301214286Y-263547619D01*
X301261905Y-263642857D01*
X301261905Y-263738095D01*
X301214286Y-263880952D01*
X300642857Y-264452381D01*
X301261905Y-264452381D01*
X236357143Y-200642857D02*
X236404762Y-200690476D01*
X236452381Y-200833333D01*
X236452381Y-200928571D01*
X236404762Y-201071429D01*
X236309524Y-201166667D01*
X236214286Y-201214286D01*
X236023810Y-201261905D01*
X235880952Y-201261905D01*
X235690476Y-201214286D01*
X235595238Y-201166667D01*
X235500000Y-201071429D01*
X235452381Y-200928571D01*
X235452381Y-200833333D01*
X235500000Y-200690476D01*
X235547619Y-200642857D01*
X235452381Y-200309524D02*
X235452381Y-199690476D01*
X235833333Y-200023810D01*
X235833333Y-199880952D01*
X235880952Y-199785714D01*
X235928571Y-199738095D01*
X236023810Y-199690476D01*
X236261905Y-199690476D01*
X236357143Y-199738095D01*
X236404762Y-199785714D01*
X236452381Y-199880952D01*
X236452381Y-200166667D01*
X236404762Y-200261905D01*
X236357143Y-200309524D01*
X236452381Y-198738095D02*
X236452381Y-199309524D01*
X236452381Y-199023810D02*
X235452381Y-199023810D01*
X235595238Y-199119048D01*
X235690476Y-199214286D01*
X235738095Y-199309524D01*
X374357143Y-200642857D02*
X374404762Y-200690476D01*
X374452381Y-200833333D01*
X374452381Y-200928571D01*
X374404762Y-201071429D01*
X374309524Y-201166667D01*
X374214286Y-201214286D01*
X374023810Y-201261905D01*
X373880952Y-201261905D01*
X373690476Y-201214286D01*
X373595238Y-201166667D01*
X373500000Y-201071429D01*
X373452381Y-200928571D01*
X373452381Y-200833333D01*
X373500000Y-200690476D01*
X373547619Y-200642857D01*
X374452381Y-199690476D02*
X374452381Y-200261905D01*
X374452381Y-199976191D02*
X373452381Y-199976191D01*
X373595238Y-200071429D01*
X373690476Y-200166667D01*
X373738095Y-200261905D01*
X373547619Y-199309524D02*
X373500000Y-199261905D01*
X373452381Y-199166667D01*
X373452381Y-198928571D01*
X373500000Y-198833333D01*
X373547619Y-198785714D01*
X373642857Y-198738095D01*
X373738095Y-198738095D01*
X373880952Y-198785714D01*
X374452381Y-199357143D01*
X374452381Y-198738095D01*
X299357143Y-274357143D02*
X299309524Y-274404762D01*
X299166667Y-274452381D01*
X299071429Y-274452381D01*
X298928571Y-274404762D01*
X298833333Y-274309524D01*
X298785714Y-274214286D01*
X298738095Y-274023810D01*
X298738095Y-273880952D01*
X298785714Y-273690476D01*
X298833333Y-273595238D01*
X298928571Y-273500000D01*
X299071429Y-273452381D01*
X299166667Y-273452381D01*
X299309524Y-273500000D01*
X299357143Y-273547619D01*
X299738095Y-273547619D02*
X299785714Y-273500000D01*
X299880952Y-273452381D01*
X300119048Y-273452381D01*
X300214286Y-273500000D01*
X300261905Y-273547619D01*
X300309524Y-273642857D01*
X300309524Y-273738095D01*
X300261905Y-273880952D01*
X299690476Y-274452381D01*
X300309524Y-274452381D01*
X301261905Y-274452381D02*
X300690476Y-274452381D01*
X300976190Y-274452381D02*
X300976190Y-273452381D01*
X300880952Y-273595238D01*
X300785714Y-273690476D01*
X300690476Y-273738095D01*
X226357143Y-200642857D02*
X226404762Y-200690476D01*
X226452381Y-200833333D01*
X226452381Y-200928571D01*
X226404762Y-201071429D01*
X226309524Y-201166667D01*
X226214286Y-201214286D01*
X226023810Y-201261905D01*
X225880952Y-201261905D01*
X225690476Y-201214286D01*
X225595238Y-201166667D01*
X225500000Y-201071429D01*
X225452381Y-200928571D01*
X225452381Y-200833333D01*
X225500000Y-200690476D01*
X225547619Y-200642857D01*
X225452381Y-200309524D02*
X225452381Y-199690476D01*
X225833333Y-200023810D01*
X225833333Y-199880952D01*
X225880952Y-199785714D01*
X225928571Y-199738095D01*
X226023810Y-199690476D01*
X226261905Y-199690476D01*
X226357143Y-199738095D01*
X226404762Y-199785714D01*
X226452381Y-199880952D01*
X226452381Y-200166667D01*
X226404762Y-200261905D01*
X226357143Y-200309524D01*
X225452381Y-199071429D02*
X225452381Y-198976190D01*
X225500000Y-198880952D01*
X225547619Y-198833333D01*
X225642857Y-198785714D01*
X225833333Y-198738095D01*
X226071429Y-198738095D01*
X226261905Y-198785714D01*
X226357143Y-198833333D01*
X226404762Y-198880952D01*
X226452381Y-198976190D01*
X226452381Y-199071429D01*
X226404762Y-199166667D01*
X226357143Y-199214286D01*
X226261905Y-199261905D01*
X226071429Y-199309524D01*
X225833333Y-199309524D01*
X225642857Y-199261905D01*
X225547619Y-199214286D01*
X225500000Y-199166667D01*
X225452381Y-199071429D01*
X384357143Y-200642857D02*
X384404762Y-200690476D01*
X384452381Y-200833333D01*
X384452381Y-200928571D01*
X384404762Y-201071429D01*
X384309524Y-201166667D01*
X384214286Y-201214286D01*
X384023810Y-201261905D01*
X383880952Y-201261905D01*
X383690476Y-201214286D01*
X383595238Y-201166667D01*
X383500000Y-201071429D01*
X383452381Y-200928571D01*
X383452381Y-200833333D01*
X383500000Y-200690476D01*
X383547619Y-200642857D01*
X384452381Y-199690476D02*
X384452381Y-200261905D01*
X384452381Y-199976191D02*
X383452381Y-199976191D01*
X383595238Y-200071429D01*
X383690476Y-200166667D01*
X383738095Y-200261905D01*
X384452381Y-198738095D02*
X384452381Y-199309524D01*
X384452381Y-199023810D02*
X383452381Y-199023810D01*
X383595238Y-199119048D01*
X383690476Y-199214286D01*
X383738095Y-199309524D01*
X299357143Y-284357143D02*
X299309524Y-284404762D01*
X299166667Y-284452381D01*
X299071429Y-284452381D01*
X298928571Y-284404762D01*
X298833333Y-284309524D01*
X298785714Y-284214286D01*
X298738095Y-284023810D01*
X298738095Y-283880952D01*
X298785714Y-283690476D01*
X298833333Y-283595238D01*
X298928571Y-283500000D01*
X299071429Y-283452381D01*
X299166667Y-283452381D01*
X299309524Y-283500000D01*
X299357143Y-283547619D01*
X299738095Y-283547619D02*
X299785714Y-283500000D01*
X299880952Y-283452381D01*
X300119048Y-283452381D01*
X300214286Y-283500000D01*
X300261905Y-283547619D01*
X300309524Y-283642857D01*
X300309524Y-283738095D01*
X300261905Y-283880952D01*
X299690476Y-284452381D01*
X300309524Y-284452381D01*
X300928571Y-283452381D02*
X301023810Y-283452381D01*
X301119048Y-283500000D01*
X301166667Y-283547619D01*
X301214286Y-283642857D01*
X301261905Y-283833333D01*
X301261905Y-284071429D01*
X301214286Y-284261905D01*
X301166667Y-284357143D01*
X301119048Y-284404762D01*
X301023810Y-284452381D01*
X300928571Y-284452381D01*
X300833333Y-284404762D01*
X300785714Y-284357143D01*
X300738095Y-284261905D01*
X300690476Y-284071429D01*
X300690476Y-283833333D01*
X300738095Y-283642857D01*
X300785714Y-283547619D01*
X300833333Y-283500000D01*
X300928571Y-283452381D01*
X216357143Y-200642857D02*
X216404762Y-200690476D01*
X216452381Y-200833333D01*
X216452381Y-200928571D01*
X216404762Y-201071429D01*
X216309524Y-201166667D01*
X216214286Y-201214286D01*
X216023810Y-201261905D01*
X215880952Y-201261905D01*
X215690476Y-201214286D01*
X215595238Y-201166667D01*
X215500000Y-201071429D01*
X215452381Y-200928571D01*
X215452381Y-200833333D01*
X215500000Y-200690476D01*
X215547619Y-200642857D01*
X215547619Y-200261905D02*
X215500000Y-200214286D01*
X215452381Y-200119048D01*
X215452381Y-199880952D01*
X215500000Y-199785714D01*
X215547619Y-199738095D01*
X215642857Y-199690476D01*
X215738095Y-199690476D01*
X215880952Y-199738095D01*
X216452381Y-200309524D01*
X216452381Y-199690476D01*
X216452381Y-199214286D02*
X216452381Y-199023810D01*
X216404762Y-198928571D01*
X216357143Y-198880952D01*
X216214286Y-198785714D01*
X216023810Y-198738095D01*
X215642857Y-198738095D01*
X215547619Y-198785714D01*
X215500000Y-198833333D01*
X215452381Y-198928571D01*
X215452381Y-199119048D01*
X215500000Y-199214286D01*
X215547619Y-199261905D01*
X215642857Y-199309524D01*
X215880952Y-199309524D01*
X215976190Y-199261905D01*
X216023810Y-199214286D01*
X216071429Y-199119048D01*
X216071429Y-198928571D01*
X216023810Y-198833333D01*
X215976190Y-198785714D01*
X215880952Y-198738095D01*
X394357143Y-200642857D02*
X394404762Y-200690476D01*
X394452381Y-200833333D01*
X394452381Y-200928571D01*
X394404762Y-201071429D01*
X394309524Y-201166667D01*
X394214286Y-201214286D01*
X394023810Y-201261905D01*
X393880952Y-201261905D01*
X393690476Y-201214286D01*
X393595238Y-201166667D01*
X393500000Y-201071429D01*
X393452381Y-200928571D01*
X393452381Y-200833333D01*
X393500000Y-200690476D01*
X393547619Y-200642857D01*
X394452381Y-199690476D02*
X394452381Y-200261905D01*
X394452381Y-199976191D02*
X393452381Y-199976191D01*
X393595238Y-200071429D01*
X393690476Y-200166667D01*
X393738095Y-200261905D01*
X393452381Y-199071429D02*
X393452381Y-198976190D01*
X393500000Y-198880952D01*
X393547619Y-198833333D01*
X393642857Y-198785714D01*
X393833333Y-198738095D01*
X394071429Y-198738095D01*
X394261905Y-198785714D01*
X394357143Y-198833333D01*
X394404762Y-198880952D01*
X394452381Y-198976190D01*
X394452381Y-199071429D01*
X394404762Y-199166667D01*
X394357143Y-199214286D01*
X394261905Y-199261905D01*
X394071429Y-199309524D01*
X393833333Y-199309524D01*
X393642857Y-199261905D01*
X393547619Y-199214286D01*
X393500000Y-199166667D01*
X393452381Y-199071429D01*
X299357143Y-294357143D02*
X299309524Y-294404762D01*
X299166667Y-294452381D01*
X299071429Y-294452381D01*
X298928571Y-294404762D01*
X298833333Y-294309524D01*
X298785714Y-294214286D01*
X298738095Y-294023810D01*
X298738095Y-293880952D01*
X298785714Y-293690476D01*
X298833333Y-293595238D01*
X298928571Y-293500000D01*
X299071429Y-293452381D01*
X299166667Y-293452381D01*
X299309524Y-293500000D01*
X299357143Y-293547619D01*
X300309524Y-294452381D02*
X299738095Y-294452381D01*
X300023809Y-294452381D02*
X300023809Y-293452381D01*
X299928571Y-293595238D01*
X299833333Y-293690476D01*
X299738095Y-293738095D01*
X300785714Y-294452381D02*
X300976190Y-294452381D01*
X301071429Y-294404762D01*
X301119048Y-294357143D01*
X301214286Y-294214286D01*
X301261905Y-294023810D01*
X301261905Y-293642857D01*
X301214286Y-293547619D01*
X301166667Y-293500000D01*
X301071429Y-293452381D01*
X300880952Y-293452381D01*
X300785714Y-293500000D01*
X300738095Y-293547619D01*
X300690476Y-293642857D01*
X300690476Y-293880952D01*
X300738095Y-293976190D01*
X300785714Y-294023810D01*
X300880952Y-294071429D01*
X301071429Y-294071429D01*
X301166667Y-294023810D01*
X301214286Y-293976190D01*
X301261905Y-293880952D01*
X206357143Y-200642857D02*
X206404762Y-200690476D01*
X206452381Y-200833333D01*
X206452381Y-200928571D01*
X206404762Y-201071429D01*
X206309524Y-201166667D01*
X206214286Y-201214286D01*
X206023810Y-201261905D01*
X205880952Y-201261905D01*
X205690476Y-201214286D01*
X205595238Y-201166667D01*
X205500000Y-201071429D01*
X205452381Y-200928571D01*
X205452381Y-200833333D01*
X205500000Y-200690476D01*
X205547619Y-200642857D01*
X205547619Y-200261905D02*
X205500000Y-200214286D01*
X205452381Y-200119048D01*
X205452381Y-199880952D01*
X205500000Y-199785714D01*
X205547619Y-199738095D01*
X205642857Y-199690476D01*
X205738095Y-199690476D01*
X205880952Y-199738095D01*
X206452381Y-200309524D01*
X206452381Y-199690476D01*
X205880952Y-199119048D02*
X205833333Y-199214286D01*
X205785714Y-199261905D01*
X205690476Y-199309524D01*
X205642857Y-199309524D01*
X205547619Y-199261905D01*
X205500000Y-199214286D01*
X205452381Y-199119048D01*
X205452381Y-198928571D01*
X205500000Y-198833333D01*
X205547619Y-198785714D01*
X205642857Y-198738095D01*
X205690476Y-198738095D01*
X205785714Y-198785714D01*
X205833333Y-198833333D01*
X205880952Y-198928571D01*
X205880952Y-199119048D01*
X205928571Y-199214286D01*
X205976190Y-199261905D01*
X206071429Y-199309524D01*
X206261905Y-199309524D01*
X206357143Y-199261905D01*
X206404762Y-199214286D01*
X206452381Y-199119048D01*
X206452381Y-198928571D01*
X206404762Y-198833333D01*
X206357143Y-198785714D01*
X206261905Y-198738095D01*
X206071429Y-198738095D01*
X205976190Y-198785714D01*
X205928571Y-198833333D01*
X205880952Y-198928571D01*
X299833334Y-186357143D02*
X299785715Y-186404762D01*
X299642858Y-186452381D01*
X299547620Y-186452381D01*
X299404762Y-186404762D01*
X299309524Y-186309524D01*
X299261905Y-186214286D01*
X299214286Y-186023810D01*
X299214286Y-185880952D01*
X299261905Y-185690476D01*
X299309524Y-185595238D01*
X299404762Y-185500000D01*
X299547620Y-185452381D01*
X299642858Y-185452381D01*
X299785715Y-185500000D01*
X299833334Y-185547619D01*
X300309524Y-186452381D02*
X300500000Y-186452381D01*
X300595239Y-186404762D01*
X300642858Y-186357143D01*
X300738096Y-186214286D01*
X300785715Y-186023810D01*
X300785715Y-185642857D01*
X300738096Y-185547619D01*
X300690477Y-185500000D01*
X300595239Y-185452381D01*
X300404762Y-185452381D01*
X300309524Y-185500000D01*
X300261905Y-185547619D01*
X300214286Y-185642857D01*
X300214286Y-185880952D01*
X300261905Y-185976190D01*
X300309524Y-186023810D01*
X300404762Y-186071429D01*
X300595239Y-186071429D01*
X300690477Y-186023810D01*
X300738096Y-185976190D01*
X300785715Y-185880952D01*
X299833334Y-176357143D02*
X299785715Y-176404762D01*
X299642858Y-176452381D01*
X299547620Y-176452381D01*
X299404762Y-176404762D01*
X299309524Y-176309524D01*
X299261905Y-176214286D01*
X299214286Y-176023810D01*
X299214286Y-175880952D01*
X299261905Y-175690476D01*
X299309524Y-175595238D01*
X299404762Y-175500000D01*
X299547620Y-175452381D01*
X299642858Y-175452381D01*
X299785715Y-175500000D01*
X299833334Y-175547619D01*
X300404762Y-175880952D02*
X300309524Y-175833333D01*
X300261905Y-175785714D01*
X300214286Y-175690476D01*
X300214286Y-175642857D01*
X300261905Y-175547619D01*
X300309524Y-175500000D01*
X300404762Y-175452381D01*
X300595239Y-175452381D01*
X300690477Y-175500000D01*
X300738096Y-175547619D01*
X300785715Y-175642857D01*
X300785715Y-175690476D01*
X300738096Y-175785714D01*
X300690477Y-175833333D01*
X300595239Y-175880952D01*
X300404762Y-175880952D01*
X300309524Y-175928571D01*
X300261905Y-175976190D01*
X300214286Y-176071429D01*
X300214286Y-176261905D01*
X300261905Y-176357143D01*
X300309524Y-176404762D01*
X300404762Y-176452381D01*
X300595239Y-176452381D01*
X300690477Y-176404762D01*
X300738096Y-176357143D01*
X300785715Y-176261905D01*
X300785715Y-176071429D01*
X300738096Y-175976190D01*
X300690477Y-175928571D01*
X300595239Y-175880952D01*
X299833334Y-166357143D02*
X299785715Y-166404762D01*
X299642858Y-166452381D01*
X299547620Y-166452381D01*
X299404762Y-166404762D01*
X299309524Y-166309524D01*
X299261905Y-166214286D01*
X299214286Y-166023810D01*
X299214286Y-165880952D01*
X299261905Y-165690476D01*
X299309524Y-165595238D01*
X299404762Y-165500000D01*
X299547620Y-165452381D01*
X299642858Y-165452381D01*
X299785715Y-165500000D01*
X299833334Y-165547619D01*
X300166667Y-165452381D02*
X300833334Y-165452381D01*
X300404762Y-166452381D01*
X299833334Y-156357143D02*
X299785715Y-156404762D01*
X299642858Y-156452381D01*
X299547620Y-156452381D01*
X299404762Y-156404762D01*
X299309524Y-156309524D01*
X299261905Y-156214286D01*
X299214286Y-156023810D01*
X299214286Y-155880952D01*
X299261905Y-155690476D01*
X299309524Y-155595238D01*
X299404762Y-155500000D01*
X299547620Y-155452381D01*
X299642858Y-155452381D01*
X299785715Y-155500000D01*
X299833334Y-155547619D01*
X300690477Y-155452381D02*
X300500000Y-155452381D01*
X300404762Y-155500000D01*
X300357143Y-155547619D01*
X300261905Y-155690476D01*
X300214286Y-155880952D01*
X300214286Y-156261905D01*
X300261905Y-156357143D01*
X300309524Y-156404762D01*
X300404762Y-156452381D01*
X300595239Y-156452381D01*
X300690477Y-156404762D01*
X300738096Y-156357143D01*
X300785715Y-156261905D01*
X300785715Y-156023810D01*
X300738096Y-155928571D01*
X300690477Y-155880952D01*
X300595239Y-155833333D01*
X300404762Y-155833333D01*
X300309524Y-155880952D01*
X300261905Y-155928571D01*
X300214286Y-156023810D01*
X299833334Y-146357143D02*
X299785715Y-146404762D01*
X299642858Y-146452381D01*
X299547620Y-146452381D01*
X299404762Y-146404762D01*
X299309524Y-146309524D01*
X299261905Y-146214286D01*
X299214286Y-146023810D01*
X299214286Y-145880952D01*
X299261905Y-145690476D01*
X299309524Y-145595238D01*
X299404762Y-145500000D01*
X299547620Y-145452381D01*
X299642858Y-145452381D01*
X299785715Y-145500000D01*
X299833334Y-145547619D01*
X300738096Y-145452381D02*
X300261905Y-145452381D01*
X300214286Y-145928571D01*
X300261905Y-145880952D01*
X300357143Y-145833333D01*
X300595239Y-145833333D01*
X300690477Y-145880952D01*
X300738096Y-145928571D01*
X300785715Y-146023810D01*
X300785715Y-146261905D01*
X300738096Y-146357143D01*
X300690477Y-146404762D01*
X300595239Y-146452381D01*
X300357143Y-146452381D01*
X300261905Y-146404762D01*
X300214286Y-146357143D01*
X299833334Y-136357143D02*
X299785715Y-136404762D01*
X299642858Y-136452381D01*
X299547620Y-136452381D01*
X299404762Y-136404762D01*
X299309524Y-136309524D01*
X299261905Y-136214286D01*
X299214286Y-136023810D01*
X299214286Y-135880952D01*
X299261905Y-135690476D01*
X299309524Y-135595238D01*
X299404762Y-135500000D01*
X299547620Y-135452381D01*
X299642858Y-135452381D01*
X299785715Y-135500000D01*
X299833334Y-135547619D01*
X300690477Y-135785714D02*
X300690477Y-136452381D01*
X300452381Y-135404762D02*
X300214286Y-136119048D01*
X300833334Y-136119048D01*
X299833334Y-126357143D02*
X299785715Y-126404762D01*
X299642858Y-126452381D01*
X299547620Y-126452381D01*
X299404762Y-126404762D01*
X299309524Y-126309524D01*
X299261905Y-126214286D01*
X299214286Y-126023810D01*
X299214286Y-125880952D01*
X299261905Y-125690476D01*
X299309524Y-125595238D01*
X299404762Y-125500000D01*
X299547620Y-125452381D01*
X299642858Y-125452381D01*
X299785715Y-125500000D01*
X299833334Y-125547619D01*
X300166667Y-125452381D02*
X300785715Y-125452381D01*
X300452381Y-125833333D01*
X300595239Y-125833333D01*
X300690477Y-125880952D01*
X300738096Y-125928571D01*
X300785715Y-126023810D01*
X300785715Y-126261905D01*
X300738096Y-126357143D01*
X300690477Y-126404762D01*
X300595239Y-126452381D01*
X300309524Y-126452381D01*
X300214286Y-126404762D01*
X300166667Y-126357143D01*
X299833334Y-116357143D02*
X299785715Y-116404762D01*
X299642858Y-116452381D01*
X299547620Y-116452381D01*
X299404762Y-116404762D01*
X299309524Y-116309524D01*
X299261905Y-116214286D01*
X299214286Y-116023810D01*
X299214286Y-115880952D01*
X299261905Y-115690476D01*
X299309524Y-115595238D01*
X299404762Y-115500000D01*
X299547620Y-115452381D01*
X299642858Y-115452381D01*
X299785715Y-115500000D01*
X299833334Y-115547619D01*
X300214286Y-115547619D02*
X300261905Y-115500000D01*
X300357143Y-115452381D01*
X300595239Y-115452381D01*
X300690477Y-115500000D01*
X300738096Y-115547619D01*
X300785715Y-115642857D01*
X300785715Y-115738095D01*
X300738096Y-115880952D01*
X300166667Y-116452381D01*
X300785715Y-116452381D01*
X299833334Y-106357143D02*
X299785715Y-106404762D01*
X299642858Y-106452381D01*
X299547620Y-106452381D01*
X299404762Y-106404762D01*
X299309524Y-106309524D01*
X299261905Y-106214286D01*
X299214286Y-106023810D01*
X299214286Y-105880952D01*
X299261905Y-105690476D01*
X299309524Y-105595238D01*
X299404762Y-105500000D01*
X299547620Y-105452381D01*
X299642858Y-105452381D01*
X299785715Y-105500000D01*
X299833334Y-105547619D01*
X300785715Y-106452381D02*
X300214286Y-106452381D01*
X300500000Y-106452381D02*
X300500000Y-105452381D01*
X300404762Y-105595238D01*
X300309524Y-105690476D01*
X300214286Y-105738095D01*
M02*
