M48
;DRILL file {KiCad 4.0.4-1.fc24-product} date Wed Jul  5 07:32:15 2017
;FORMAT={-:-/ absolute / inch / decimal}
FMAT,2
INCH,TZ
T1C0.016
T2C0.040
T3C0.120
%
G90
G05
M72
T1
X7.937Y-7.7756
X7.937Y-7.9685
X7.9488Y-8.1811
X7.9528Y-7.5669
X7.9685Y-7.3701
X7.9685Y-8.3701
X8.Y-7.1654
X8.Y-8.5866
X8.0394Y-8.7717
X8.0472Y-6.9724
X8.0945Y-6.7717
X8.0945Y-8.9764
X8.1496Y-9.1732
X8.1575Y-6.5787
X8.2323Y-9.3583
X8.2362Y-6.3937
X8.315Y-6.2047
X8.315Y-9.5354
X8.3268Y-7.9724
X8.3307Y-7.7717
X8.3346Y-7.6024
X8.3346Y-8.1378
X8.3583Y-7.4134
X8.3622Y-8.3346
X8.3819Y-7.248
X8.3858Y-8.5
X8.4094Y-6.0236
X8.4094Y-9.7205
X8.4252Y-8.6929
X8.4291Y-7.0551
X8.4685Y-6.8937
X8.4685Y-8.8504
X8.5079Y-5.8504
X8.5118Y-9.8976
X8.5236Y-9.0394
X8.5315Y-6.7087
X8.5906Y-6.5512
X8.5906Y-9.2008
X8.6181Y-10.0669
X8.622Y-5.6772
X8.6693Y-6.3661
X8.6732Y-9.3701
X8.7244Y-7.7756
X8.7283Y-7.9764
X8.7382Y-5.5157
X8.74Y-8.18
X8.7402Y-10.2362
X8.7441Y-6.2205
X8.7441Y-7.5748
X8.7441Y-9.5197
X8.7638Y-7.374
X8.7717Y-8.378
X8.8031Y-7.1654
X8.805Y-8.58
X8.8425Y-6.0512
X8.8465Y-9.6969
X8.8543Y-8.7638
X8.8583Y-6.9803
X8.8661Y-5.3504
X8.8701Y-10.3898
X8.9252Y-6.7913
X8.9252Y-8.9646
X8.9331Y-5.9016
X8.9331Y-9.8268
X8.9961Y-6.6063
X8.9961Y-9.1496
X9.Y-5.2067
X9.Y-10.5433
X9.0433Y-9.9921
X9.0512Y-5.752
X9.0906Y-9.3307
X9.0984Y-6.4134
X9.1142Y-7.7717
X9.1142Y-7.9764
X9.122Y-7.626
X9.1339Y-8.122
X9.1457Y-5.063
X9.1457Y-8.3189
X9.1457Y-10.689
X9.1535Y-7.4213
X9.1575Y-5.6181
X9.16Y-10.12
X9.1811Y-7.2677
X9.1811Y-8.4724
X9.189Y-6.2441
X9.189Y-9.5
X9.2323Y-7.0787
X9.2323Y-8.6614
X9.2835Y-6.9331
X9.2835Y-10.2717
X9.2835Y-10.811
X9.2874Y-5.4744
X9.2874Y-8.811
X9.2933Y-4.9272
X9.3Y-6.075
X9.3031Y-9.6693
X9.3583Y-8.9921
X9.3622Y-6.752
X9.4055Y-5.3465
X9.4094Y-10.3937
X9.4213Y-9.8268
X9.4232Y-5.9173
X9.4252Y-6.6102
X9.4331Y-9.1339
X9.4567Y-4.7953
X9.4567Y-10.9488
X9.5128Y-8.0128
X9.5157Y-7.7283
X9.5236Y-6.4449
X9.5236Y-9.3031
X9.5325Y-7.5325
X9.5433Y-8.2165
X9.555Y-5.22
X9.5591Y-9.9803
X9.5591Y-10.5236
X9.563Y-5.7598
X9.5945Y-7.248
X9.5945Y-8.4872
X9.6063Y-6.315
X9.6063Y-11.063
X9.6102Y-4.6831
X9.622Y-9.4331
X9.6555Y-7.0728
X9.6575Y-8.6732
X9.685Y-5.1142
X9.685Y-10.626
X9.6969Y-10.1181
X9.6988Y-5.624
X9.7362Y-6.1575
X9.7362Y-9.5945
X9.7746Y-8.936
X9.7795Y-6.8071
X9.7874Y-4.5709
X9.7874Y-11.1732
X9.8346Y-9.7008
X9.84Y-6.04
X9.8465Y-4.9941
X9.8504Y-5.4882
X9.8504Y-10.7402
X9.8543Y-10.2598
X9.876Y-6.6398
X9.8819Y-9.1024
X9.9055Y-7.7756
X9.9065Y-7.9754
X9.9213Y-8.1654
X9.9281Y-7.5787
X9.9587Y-4.4724
X9.9606Y-11.2756
X9.9646Y-7.378
X9.9705Y-8.3661
X9.9724Y-5.8996
X9.9764Y-9.8425
X9.9843Y-4.9134
X9.9882Y-10.8386
X10.0079Y-10.3858
X10.0118Y-5.3661
X10.0276Y-8.563
X10.0325Y-7.1959
X10.0384Y-9.3297
X10.0394Y-6.4094
X10.0945Y-5.7913
X10.0945Y-9.9449
X10.1102Y-7.0079
X10.1132Y-8.7343
X10.1457Y-11.3701
X10.1496Y-4.374
X10.1516Y-4.8031
X10.1535Y-10.9331
X10.1663Y-6.2608
X10.1732Y-9.4843
X10.1772Y-10.4921
X10.189Y-5.252
X10.2106Y-6.8337
X10.2126Y-8.9134
X10.2461Y-5.6713
X10.2559Y-10.0669
X10.3022Y-7.7707
X10.3031Y-4.7362
X10.3031Y-7.9803
X10.3031Y-11.0118
X10.3228Y-6.6693
X10.3228Y-7.5787
X10.3287Y-4.2972
X10.3287Y-8.1663
X10.3307Y-11.4488
X10.3337Y-9.0728
X10.3504Y-10.5906
X10.3524Y-5.1516
X10.374Y-5.5906
X10.378Y-10.1575
X10.3819Y-6.0787
X10.3839Y-7.3917
X10.3839Y-9.6713
X10.3858Y-8.3661
X10.4478Y-8.5404
X10.4528Y-7.2047
X10.4567Y-6.5256
X10.4646Y-9.2205
X10.4843Y-11.0827
X10.4882Y-4.6516
X10.5157Y-11.5236
X10.5197Y-4.2244
X10.5354Y-5.9508
X10.5354Y-10.685
X10.5394Y-5.063
X10.5433Y-9.7874
X10.5433Y-10.252
X10.5472Y-5.4843
X10.5472Y-8.7087
X10.5492Y-7.0335
X10.6102Y-6.3898
X10.6152Y-9.3543
X10.6417Y-4.5906
X10.6417Y-11.1535
X10.6722Y-8.8701
X10.6732Y-6.878
X10.685Y-5.4213
X10.689Y-10.3228
X10.6929Y-7.9764
X10.6939Y-7.7726
X10.7047Y-4.1575
X10.7165Y-11.5906
X10.7244Y-10.7598
X10.7264Y-4.9823
X10.7598Y-9.4685
X10.7717Y-6.2726
X10.7825Y-9.9311
X10.7874Y-5.811
X10.7933Y-8.3465
X10.7953Y-7.3976
X10.813Y-6.7382
X10.815Y-9.0039
X10.8268Y-4.5276
X10.8268Y-11.2165
X10.8701Y-10.3937
X10.874Y-5.3445
X10.8967Y-7.2333
X10.9016Y-4.1063
X10.9016Y-8.5118
X10.9094Y-11.6417
X10.9134Y-4.9173
X10.9173Y-10.8268
X10.9488Y-6.1693
X10.9518Y-9.5719
X10.9665Y-5.7352
X10.9665Y-9.1299
X10.9685Y-6.6142
X10.9685Y-10.0118
X10.9843Y-11.2598
X10.9882Y-4.4843
X11.0157Y-5.2953
X11.0157Y-10.4488
X11.0876Y-7.7795
X11.0906Y-7.9764
X11.1004Y-4.061
X11.1024Y-10.874
X11.1024Y-11.6772
X11.1083Y-4.8681
X11.122Y-9.6496
X11.125Y-6.0945
X11.1339Y-7.6024
X11.1339Y-8.1467
X11.1407Y-6.5167
X11.1457Y-9.2323
X11.1673Y-8.7894
X11.1693Y-6.9606
X11.1811Y-11.2913
X11.1831Y-4.4469
X11.2047Y-5.2461
X11.2126Y-10.5039
X11.2313Y-7.4203
X11.2362Y-8.3228
X11.2402Y-5.6457
X11.2402Y-10.1024
X11.3031Y-4.0354
X11.311Y-4.8228
X11.311Y-6.0315
X11.311Y-11.7165
X11.315Y-10.9173
X11.3238Y-9.7126
X11.3268Y-6.4449
X11.3278Y-9.3061
X11.3366Y-6.8533
X11.3425Y-4.4213
X11.3425Y-8.8937
X11.3465Y-11.3228
X11.3583Y-5.2126
X11.3583Y-7.2992
X11.3612Y-8.4498
X11.3622Y-10.5315
X11.4291Y-5.6122
X11.4331Y-10.1457
X11.4764Y-7.7913
X11.4783Y-7.9528
X11.5Y-10.937
X11.5039Y-11.7323
X11.5059Y-4.8031
X11.5079Y-4.0118
X11.5079Y-9.3543
X11.5079Y-9.7559
X11.5128Y-5.9902
X11.5167Y-6.3868
X11.5344Y-7.1959
X11.5354Y-8.5472
X11.5453Y-4.4016
X11.5512Y-11.3465
X11.5591Y-5.189
X11.5669Y-10.5591
X11.5709Y-7.622
X11.5748Y-8.1142
X11.661Y-12.0866
X11.6969Y-6.7598
X11.7008Y-7.5472
X11.7047Y-5.1811
X11.7047Y-5.5787
X11.7047Y-6.3583
X11.7077Y-8.2047
X11.7087Y-3.9961
X11.7087Y-4.3937
X11.7087Y-4.7874
X11.7087Y-5.9724
X11.7087Y-7.1496
X11.7087Y-10.5669
X11.7087Y-11.3504
X11.7106Y-8.5955
X11.7106Y-8.9911
X11.7126Y-7.9331
X11.7126Y-9.7766
X11.7126Y-10.1703
X11.7126Y-10.9567
X11.7126Y-11.748
X11.7175Y-9.3809
X11.8307Y-7.815
X11.9016Y-4.3937
X11.9016Y-4.7913
X11.9016Y-5.185
X11.9016Y-6.7598
X11.9016Y-7.5433
X11.9055Y-5.5787
X11.9055Y-6.3622
X11.9055Y-7.1496
X11.9055Y-9.374
X11.9055Y-10.1654
X11.9055Y-10.9528
X11.9055Y-11.3583
X11.9094Y-4.0039
X11.9094Y-7.937
X11.9094Y-8.2008
X11.9094Y-8.9882
X11.9132Y-5.9685
X11.9134Y-8.5984
X11.9134Y-9.7795
X11.9134Y-11.7362
X11.9213Y-10.5669
X11.9685Y-7.874
X12.0394Y-7.622
X12.0463Y-8.124
X12.0591Y-10.5551
X12.063Y-5.1929
X12.0748Y-4.3976
X12.0787Y-11.3425
X12.0866Y-7.185
X12.0866Y-8.5472
X12.1024Y-6.3937
X12.1063Y-5.9882
X12.1102Y-4.7992
X12.1102Y-10.9449
X12.1112Y-9.3524
X12.1112Y-9.7549
X12.1181Y-4.0079
X12.1181Y-11.7362
X12.1348Y-7.7913
X12.1457Y-7.9528
X12.19Y-10.1447
X12.1969Y-5.6063
X12.25Y-7.2972
X12.2598Y-5.2165
X12.2598Y-8.4488
X12.2638Y-10.5197
X12.2717Y-4.4213
X12.2717Y-11.3228
X12.2835Y-6.8465
X12.2844Y-8.8839
X12.2933Y-6.4439
X12.2992Y-9.3071
X12.3022Y-6.0325
X12.3031Y-9.7165
X12.3071Y-10.9134
X12.311Y-4.8228
X12.315Y-4.0354
X12.315Y-11.7165
X12.3819Y-10.0945
X12.3839Y-8.3248
X12.3937Y-5.6496
X12.3937Y-7.4213
X12.4134Y-5.2441
X12.4134Y-10.5
X12.437Y-4.4528
X12.437Y-11.2953
X12.4528Y-8.7874
X12.4537Y-6.9587
X12.4783Y-9.2293
X12.4803Y-6.5157
X12.4852Y-7.5965
X12.4921Y-6.0906
X12.4921Y-8.1496
X12.498Y-9.6496
X12.5039Y-10.878
X12.5118Y-4.063
X12.5118Y-4.8661
X12.5197Y-11.6772
X12.5354Y-7.9754
X12.5394Y-7.7717
X12.5984Y-5.2992
X12.6024Y-10.4449
X12.622Y-11.2598
X12.626Y-4.4843
X12.6526Y-6.6171
X12.6526Y-10.0118
X12.6535Y-5.7402
X12.6535Y-9.126
X12.6781Y-6.1752
X12.6811Y-9.5709
X12.7047Y-10.8228
X12.7126Y-4.1024
X12.7126Y-4.9134
X12.7165Y-11.6378
X12.7244Y-7.2205
X12.7293Y-8.5207
X12.7441Y-5.3504
X12.748Y-10.4016
X12.7874Y-4.5276
X12.7874Y-11.2087
X12.8071Y-6.7283
X12.8081Y-9.0108
X12.8189Y-8.3504
X12.8278Y-7.4026
X12.8346Y-9.9252
X12.8386Y-5.815
X12.8415Y-9.4685
X12.8465Y-6.2717
X12.9016Y-4.9882
X12.9055Y-10.7598
X12.9134Y-4.1575
X12.9173Y-11.5866
X12.9252Y-7.7717
X12.9252Y-7.9705
X12.9291Y-5.4213
X12.9291Y-10.3228
X12.9488Y-6.877
X12.9488Y-8.8583
X12.9724Y-11.1575
X12.9882Y-4.5906
X13.0108Y-6.3848
X13.0157Y-9.3583
X13.063Y-7.0315
X13.0669Y-5.4882
X13.0699Y-8.7185
X13.0748Y-5.9528
X13.0768Y-9.7904
X13.0787Y-10.252
X13.0827Y-5.0551
X13.0827Y-10.6811
X13.0945Y-11.5276
X13.1063Y-4.2244
X13.1339Y-11.0906
X13.1378Y-4.6535
X13.1634Y-9.2224
X13.1654Y-6.5236
X13.1673Y-7.2008
X13.1693Y-8.5433
X13.2402Y-5.5906
X13.2402Y-6.0748
X13.2402Y-7.3898
X13.2421Y-8.3583
X13.2441Y-10.1575
X13.248Y-9.6654
X13.2677Y-5.1614
X13.2717Y-10.5945
X13.2874Y-8.1654
X13.2913Y-9.0709
X13.2943Y-6.6722
X13.2972Y-7.5768
X13.2992Y-4.2992
X13.2992Y-11.4528
X13.3189Y-4.7283
X13.3189Y-11.0079
X13.3228Y-7.7598
X13.3228Y-7.9665
X13.3701Y-5.6693
X13.3701Y-10.0709
X13.4094Y-6.8346
X13.4114Y-8.9124
X13.4409Y-5.248
X13.4449Y-10.4921
X13.4528Y-9.4823
X13.4567Y-6.2598
X13.4646Y-4.7992
X13.4646Y-10.937
X13.4724Y-4.378
X13.4724Y-11.3701
X13.5039Y-8.7402
X13.5098Y-7.0089
X13.5276Y-5.7913
X13.5276Y-9.9449
X13.5748Y-9.3386
X13.5827Y-6.4134
X13.5945Y-7.189
X13.5984Y-8.5561
X13.6102Y-5.3622
X13.6102Y-10.3819
X13.6339Y-4.9094
X13.6417Y-5.8976
X13.6417Y-10.8346
X13.6496Y-9.8465
X13.6506Y-7.3789
X13.6535Y-8.3622
X13.6614Y-4.4646
X13.6654Y-11.2756
X13.6909Y-8.1713
X13.6969Y-7.5748
X13.7165Y-7.7746
X13.7165Y-7.9724
X13.748Y-9.1083
X13.7598Y-6.6378
X13.7677Y-5.4921
X13.7756Y-5.
X13.7756Y-10.2559
X13.7756Y-10.752
X13.7835Y-6.0394
X13.7953Y-9.7047
X13.8346Y-11.1811
X13.8386Y-4.5669
X13.8465Y-8.9331
X13.8504Y-6.811
X13.8937Y-6.1575
X13.8976Y-9.5866
X13.9134Y-5.626
X13.9213Y-10.122
X13.9331Y-5.1142
X13.9331Y-10.6299
X13.9606Y-7.0669
X13.9685Y-8.6811
X14.0039Y-11.0591
X14.0079Y-4.685
X14.0079Y-9.4252
X14.0118Y-6.315
X14.0197Y-8.4843
X14.0276Y-7.2559
X14.063Y-5.2165
X14.063Y-5.7559
X14.063Y-9.9843
X14.0669Y-10.5276
X14.0866Y-7.5276
X14.0906Y-6.4291
X14.0906Y-8.2126
X14.0906Y-9.3071
X14.0984Y-8.0118
X14.1024Y-7.7323
X14.1654Y-10.9449
X14.1732Y-4.7992
X14.185Y-6.6142
X14.185Y-9.1339
X14.1929Y-5.9134
X14.1969Y-9.8307
X14.2087Y-10.3898
X14.2205Y-5.3504
X14.2638Y-6.752
X14.2638Y-8.9921
X14.3071Y-6.0709
X14.3189Y-9.6732
X14.3268Y-5.4724
X14.33Y-10.82
X14.3307Y-4.9291
X14.3307Y-10.2756
X14.3346Y-8.8031
X14.3386Y-6.9409
X14.3819Y-7.0748
X14.3898Y-8.6654
X14.4291Y-6.2402
X14.4291Y-9.5039
X14.437Y-7.2677
X14.437Y-8.4803
X14.4646Y-5.6142
X14.4646Y-10.1339
X14.4724Y-7.4173
X14.4724Y-8.315
X14.4724Y-10.685
X14.4803Y-5.0591
X14.4961Y-7.622
X14.4961Y-8.126
X14.5039Y-7.7717
X14.5118Y-7.9764
X14.5276Y-9.3268
X14.535Y-6.415
X14.5709Y-5.748
X14.5709Y-10.
X14.6181Y-6.5984
X14.6181Y-9.1457
X14.622Y-5.2047
X14.625Y-10.535
X14.689Y-5.9094
X14.689Y-9.8268
X14.6969Y-6.7874
X14.7008Y-8.9606
X14.752Y-5.3543
X14.7559Y-10.3858
X14.7598Y-8.7677
X14.7677Y-6.9724
X14.7717Y-9.6969
X14.7756Y-6.0472
X14.811Y-7.1693
X14.811Y-8.5748
X14.8504Y-7.3701
X14.8583Y-8.374
X14.878Y-6.2205
X14.878Y-9.5315
X14.8819Y-5.5197
X14.8819Y-7.5669
X14.8858Y-8.1732
X14.8858Y-10.2323
X14.8937Y-7.9764
X14.9016Y-7.7756
X14.9528Y-6.3661
X14.9528Y-9.378
X14.9921Y-5.6772
X15.0079Y-10.0709
X15.0354Y-6.5551
X15.0354Y-9.189
X15.0866Y-6.7008
X15.0906Y-9.0394
X15.1102Y-5.8504
X15.1181Y-9.8976
X15.1535Y-6.8898
X15.1614Y-8.8425
X15.1969Y-8.6929
X15.2047Y-7.0472
X15.2087Y-6.0157
X15.2126Y-9.7244
X15.2323Y-8.4961
X15.2362Y-7.248
X15.2598Y-7.4055
X15.2638Y-8.3307
X15.2835Y-7.6102
X15.2874Y-8.1378
X15.2913Y-7.7677
X15.2953Y-7.9764
X15.2992Y-6.2047
X15.3071Y-9.5354
X15.3819Y-6.3898
X15.3858Y-9.3622
X15.4646Y-6.5827
X15.4646Y-9.1614
X15.5197Y-6.7717
X15.5197Y-8.9764
X15.5748Y-6.9685
X15.5787Y-8.7756
X15.6142Y-8.5827
X15.622Y-7.1654
X15.6535Y-7.3701
X15.6535Y-8.378
X15.6693Y-8.189
X15.6732Y-7.5709
X15.685Y-7.7795
X15.689Y-7.9724
T2
X11.661Y-3.6614
X11.661Y-12.0866
X11.761Y-3.6614
X11.761Y-12.0866
X11.861Y-3.6614
X11.861Y-12.0866
X11.961Y-3.6614
X11.961Y-12.0866
T3
X10.8223Y-7.6091
X10.8223Y-8.1389
X11.0872Y-7.1502
X11.0872Y-8.5978
X12.5348Y-7.1502
X12.5348Y-8.5978
X12.7998Y-7.6091
X12.7998Y-8.1389
T0
M30
